<?xml version="1.0" encoding="utf-8"?>
<!-- Generator: Adobe Illustrator 23.0.2, SVG Export Plug-In . SVG Version: 6.00 Build 0)  -->
<svg version="1.1" id="Layer_1" xmlns="https://www.w3.org/2000/svg" xmlns:xlink="https://www.w3.org/1999/xlink" x="0px" y="0px"
	 viewBox="0 0 32 32" style="enable-background:new 0 0 32 32;" xml:space="preserve">
<style type="text/css">
	.st0{opacity:0.8;fill:#0B111E;}
	.st1{clip-path:url(#SVGID_2_);fill:url(#SVGID_3_);}
	.st2{clip-path:url(#SVGID_2_);fill:url(#SVGID_4_);}
	.st3{clip-path:url(#SVGID_2_);fill:url(#SVGID_5_);}
	.st4{clip-path:url(#SVGID_7_);fill:url(#SVGID_8_);}
	.st5{clip-path:url(#SVGID_7_);fill:url(#SVGID_9_);}
	.st6{clip-path:url(#SVGID_7_);fill:url(#SVGID_10_);}
</style>
<path id="Rectangle_1524" class="st0" d="M16,0L16,0c8.8,0,16,7.2,16,16v0c0,8.8-7.2,16-16,16h0C7.2,32,0,24.8,0,16v0
	C0,7.2,7.2,0,16,0z"/>
<g>
	<g>
		<defs>
			<path id="SVGID_1_" d="M16,28.8C9,28.8,3.2,23,3.2,16c0-6.6,5-12.1,11.5-12.7V3.2l2.6,0.1C23.7,3.9,28.8,9.4,28.8,16
				C28.8,23,23,28.8,16,28.8L16,28.8z"/>
		</defs>
		<clipPath id="SVGID_2_">
			<use xlink:href="#SVGID_1_"  style="overflow:visible;"/>
		</clipPath>
		<linearGradient id="SVGID_3_" gradientUnits="userSpaceOnUse" x1="26.0874" y1="35.0381" x2="5.899" y2="8.9247">
			<stop  offset="0" style="stop-color:#E94561"/>
			<stop  offset="0.381" style="stop-color:#ED6C5E"/>
			<stop  offset="1" style="stop-color:#FFF9D4"/>
		</linearGradient>
		<path class="st1" d="M10.4,30.8h11.2c0.4,0,0.8-0.4,0.8-0.8V6c0-0.4-0.4-0.8-0.8-0.8H10.4C10,5.2,9.6,5.6,9.6,6V30
			C9.6,30.4,10,30.8,10.4,30.8z M18.4,8.4H20c0.4,0,0.8,0.4,0.8,0.8v1.6c0,0.4-0.4,0.8-0.8,0.8h-1.6c-0.4,0-0.8-0.4-0.8-0.8V9.2
			C17.6,8.8,18,8.4,18.4,8.4z M18.4,14.8H20c0.4,0,0.8,0.4,0.8,0.8v1.6c0,0.4-0.4,0.8-0.8,0.8h-1.6c-0.4,0-0.8-0.4-0.8-0.8v-1.6
			C17.6,15.2,18,14.8,18.4,14.8z M18.4,21.2H20c0.4,0,0.8,0.4,0.8,0.8v1.6c0,0.4-0.4,0.8-0.8,0.8h-1.6c-0.4,0-0.8-0.4-0.8-0.8V22
			C17.6,21.5,18,21.2,18.4,21.2z M12,8.4h1.6c0.4,0,0.8,0.4,0.8,0.8v1.6c0,0.4-0.4,0.8-0.8,0.8H12c-0.4,0-0.8-0.4-0.8-0.8V9.2
			C11.2,8.8,11.6,8.4,12,8.4z M12,14.8h1.6c0.4,0,0.8,0.4,0.8,0.8v1.6c0,0.4-0.4,0.8-0.8,0.8H12c-0.4,0-0.8-0.4-0.8-0.8v-1.6
			C11.2,15.2,11.6,14.8,12,14.8z M12,21.2h1.6c0.4,0,0.8,0.4,0.8,0.8v1.6c0,0.4-0.4,0.8-0.8,0.8H12c-0.4,0-0.8-0.4-0.8-0.8V22
			C11.2,21.5,11.6,21.2,12,21.2z M24.8,13.2h9.6c0.4,0,0.8,0.4,0.8,0.8v0c0,0.4-0.4,0.8-0.8,0.8h-9.6c-0.4,0-0.8-0.4-0.8-0.8v0
			C24,13.6,24.3,13.2,24.8,13.2z M24.8,30.8h1.6c0.4,0,0.8-0.4,0.8-0.8v-4.8c0-0.4,0.4-0.8,0.8-0.8h3.2c0.4,0,0.8,0.4,0.8,0.8V30
			c0,0.4,0.4,0.8,0.8,0.8h1.6c0.4,0,0.8-0.4,0.8-0.8V17.2c0-0.4-0.4-0.8-0.8-0.8h-9.6c-0.4,0-0.8,0.4-0.8,0.8V30
			C24,30.4,24.3,30.8,24.8,30.8z"/>
		<linearGradient id="SVGID_4_" gradientUnits="userSpaceOnUse" x1="26.0874" y1="35.0381" x2="5.899" y2="8.9247">
			<stop  offset="0" style="stop-color:#E94561"/>
			<stop  offset="0.381" style="stop-color:#ED6C5E"/>
			<stop  offset="1" style="stop-color:#FFF9D4"/>
		</linearGradient>
		<path class="st2" d="M8,14L8,14c0,0.4-0.4,0.8-0.8,0.8h-9.6c-0.4,0-0.8-0.4-0.8-0.8v0c0-0.4,0.4-0.8,0.8-0.8h9.6
			C7.7,13.2,8,13.6,8,14z"/>
		<linearGradient id="SVGID_5_" gradientUnits="userSpaceOnUse" x1="26.0874" y1="35.0381" x2="5.899" y2="8.9247">
			<stop  offset="0" style="stop-color:#E94561"/>
			<stop  offset="0.381" style="stop-color:#ED6C5E"/>
			<stop  offset="1" style="stop-color:#FFF9D4"/>
		</linearGradient>
		<path class="st3" d="M8,30V17.2c0-0.4-0.4-0.8-0.8-0.8h-9.6c-0.4,0-0.8,0.4-0.8,0.8V30c0,0.4,0.4,0.8,0.8,0.8h1.6
			c0.4,0,0.8-0.4,0.8-0.8v-4.8c0-0.4,0.4-0.8,0.8-0.8H4c0.4,0,0.8,0.4,0.8,0.8V30c0,0.4,0.4,0.8,0.8,0.8h1.6C7.7,30.8,8,30.4,8,30z"
			/>
	</g>
	<g>
		<defs>
			<path id="SVGID_6_" d="M16,28.8C9,28.8,3.2,23,3.2,16c0-6.6,5-12.1,11.5-12.7V3.2l2.6,0.1C23.7,3.9,28.8,9.4,28.8,16
				C28.8,23,23,28.8,16,28.8L16,28.8z"/>
		</defs>
		<clipPath id="SVGID_7_">
			<use xlink:href="#SVGID_6_"  style="overflow:visible;"/>
		</clipPath>
		<linearGradient id="SVGID_8_" gradientUnits="userSpaceOnUse" x1="24.46" y1="25.5629" x2="14.0424" y2="7.6288">
			<stop  offset="0" style="stop-color:#E94561"/>
			<stop  offset="0.381" style="stop-color:#ED6C5E"/>
			<stop  offset="1" style="stop-color:#FFF9D4"/>
		</linearGradient>
		<path class="st4" d="M10.4,30.8h11.2c0.4,0,0.8-0.4,0.8-0.8V6c0-0.4-0.4-0.8-0.8-0.8H10.4C10,5.2,9.6,5.6,9.6,6V30
			C9.6,30.4,10,30.8,10.4,30.8z M18.4,8.4H20c0.4,0,0.8,0.4,0.8,0.8v1.6c0,0.4-0.4,0.8-0.8,0.8h-1.6c-0.4,0-0.8-0.4-0.8-0.8V9.2
			C17.6,8.8,18,8.4,18.4,8.4z M18.4,14.8H20c0.4,0,0.8,0.4,0.8,0.8v1.6c0,0.4-0.4,0.8-0.8,0.8h-1.6c-0.4,0-0.8-0.4-0.8-0.8v-1.6
			C17.6,15.2,18,14.8,18.4,14.8z M18.4,21.2H20c0.4,0,0.8,0.4,0.8,0.8v1.6c0,0.4-0.4,0.8-0.8,0.8h-1.6c-0.4,0-0.8-0.4-0.8-0.8V22
			C17.6,21.5,18,21.2,18.4,21.2z M12,8.4h1.6c0.4,0,0.8,0.4,0.8,0.8v1.6c0,0.4-0.4,0.8-0.8,0.8H12c-0.4,0-0.8-0.4-0.8-0.8V9.2
			C11.2,8.8,11.6,8.4,12,8.4z M12,14.8h1.6c0.4,0,0.8,0.4,0.8,0.8v1.6c0,0.4-0.4,0.8-0.8,0.8H12c-0.4,0-0.8-0.4-0.8-0.8v-1.6
			C11.2,15.2,11.6,14.8,12,14.8z M12,21.2h1.6c0.4,0,0.8,0.4,0.8,0.8v1.6c0,0.4-0.4,0.8-0.8,0.8H12c-0.4,0-0.8-0.4-0.8-0.8V22
			C11.2,21.5,11.6,21.2,12,21.2z M24.8,13.2h9.6c0.4,0,0.8,0.4,0.8,0.8v0c0,0.4-0.4,0.8-0.8,0.8h-9.6c-0.4,0-0.8-0.4-0.8-0.8v0
			C24,13.6,24.3,13.2,24.8,13.2z M24.8,30.8h1.6c0.4,0,0.8-0.4,0.8-0.8v-4.8c0-0.4,0.4-0.8,0.8-0.8h3.2c0.4,0,0.8,0.4,0.8,0.8V30
			c0,0.4,0.4,0.8,0.8,0.8h1.6c0.4,0,0.8-0.4,0.8-0.8V17.2c0-0.4-0.4-0.8-0.8-0.8h-9.6c-0.4,0-0.8,0.4-0.8,0.8V30
			C24,30.4,24.3,30.8,24.8,30.8z"/>
		<linearGradient id="SVGID_9_" gradientUnits="userSpaceOnUse" x1="13.0081" y1="32.2151" x2="2.5905" y2="14.281">
			<stop  offset="0" style="stop-color:#E94561"/>
			<stop  offset="0.381" style="stop-color:#ED6C5E"/>
			<stop  offset="1" style="stop-color:#FFF9D4"/>
		</linearGradient>
		<path class="st5" d="M8,14L8,14c0,0.4-0.4,0.8-0.8,0.8h-9.6c-0.4,0-0.8-0.4-0.8-0.8v0c0-0.4,0.4-0.8,0.8-0.8h9.6
			C7.7,13.2,8,13.6,8,14z"/>
		<linearGradient id="SVGID_10_" gradientUnits="userSpaceOnUse" x1="8.8485" y1="34.6313" x2="-1.569" y2="16.6972">
			<stop  offset="0" style="stop-color:#E94561"/>
			<stop  offset="0.381" style="stop-color:#ED6C5E"/>
			<stop  offset="1" style="stop-color:#FFF9D4"/>
		</linearGradient>
		<path class="st6" d="M8,30V17.2c0-0.4-0.4-0.8-0.8-0.8h-9.6c-0.4,0-0.8,0.4-0.8,0.8V30c0,0.4,0.4,0.8,0.8,0.8h1.6
			c0.4,0,0.8-0.4,0.8-0.8v-4.8c0-0.4,0.4-0.8,0.8-0.8H4c0.4,0,0.8,0.4,0.8,0.8V30c0,0.4,0.4,0.8,0.8,0.8h1.6C7.7,30.8,8,30.4,8,30z"
			/>
	</g>
	<g>
		<defs>
			<path id="SVGID_11_" d="M16,28.8C9,28.8,3.2,23,3.2,16c0-6.6,5-12.1,11.5-12.7V3.2l2.6,0.1C23.7,3.9,28.8,9.4,28.8,16
				C28.8,23,23,28.8,16,28.8L16,28.8z"/>
		</defs>
		<clipPath id="SVGID_12_">
			<use xlink:href="#SVGID_11_"  style="overflow:visible;"/>
		</clipPath>
	</g>
</g>
</svg>
