<?xml version="1.0" encoding="utf-8"?>
<!-- Generator: Adobe Illustrator 23.0.2, SVG Export Plug-In . SVG Version: 6.00 Build 0)  -->
<svg version="1.1" id="Layer_1" xmlns="https://www.w3.org/2000/svg" xmlns:xlink="https://www.w3.org/1999/xlink" x="0px" y="0px"
	 viewBox="0 0 187 48" style="enable-background:new 0 0 187 48;" xml:space="preserve">
<style type="text/css">
	.st0{opacity:0.8;}
	.st1{fill:#0B111E;}
	.st2{fill:url(#SVGID_1_);}
	.st3{fill:#FFFFFF;}
</style>
<g>
	<g class="st0">
		<path class="st1" d="M20.9,46c-1.3,0-2.5-0.6-3.3-1.6c0,0-10.1-12-10.1-12c-0.3-0.3-0.6-0.7-1-1.1c-2.5-3.2-3.8-7-3.8-11.1
			C2.7,10.2,10.9,2,20.9,2s18.2,8.2,18.2,18.2c0,4.1-1.3,7.9-3.8,11.1L24.2,44.5C23.4,45.4,22.2,46,20.9,46z"/>
		<path class="st1" d="M20.9,4c8.9,0,16.2,7.2,16.2,16.2c0,3.7-1.3,7.1-3.4,9.9l-11,13.1l0,0c-0.4,0.5-1.1,0.8-1.8,0.8
			c-0.7,0-1.4-0.3-1.8-0.8l0,0c0,0,0,0,0,0l0,0L9,31.1c-0.3-0.3-0.6-0.7-0.9-1.1c-2.1-2.7-3.4-6.2-3.4-9.9C4.7,11.2,11.9,4,20.9,4
			 M20.9,0C9.8,0,0.7,9,0.7,20.2c0,4.5,1.4,8.8,4.2,12.3c0.3,0.4,0.7,0.9,1.1,1.3l10.1,12c0,0,0,0,0,0.1c1.2,1.4,3,2.2,4.8,2.2
			c1.9,0,3.6-0.8,4.8-2.2c0,0,0,0,0,0l11-13.1c0,0,0.1-0.1,0.1-0.1c2.7-3.6,4.2-7.8,4.2-12.3C41.1,9,32,0,20.9,0L20.9,0z"/>
	</g>
	<linearGradient id="SVGID_1_" gradientUnits="userSpaceOnUse" x1="20.8853" y1="5.469774e-02" x2="20.8853" y2="49.2307">
		<stop  offset="0" style="stop-color:#FBF9DB"/>
		<stop  offset="0.5027" style="stop-color:#EE705B"/>
		<stop  offset="1" style="stop-color:#E94561"/>
	</linearGradient>
	<path class="st2" d="M20.9,4C11.9,4,4.7,11.2,4.7,20.2c0,3.7,1.3,7.1,3.4,9.9c0.3,0.4,0.6,0.7,0.9,1.1l10.1,12l0,0
		c0.4,0.5,1.1,0.8,1.8,0.8c0.7,0,1.4-0.3,1.8-0.8l0,0l11-13.1c2.1-2.7,3.4-6.2,3.4-9.9C37.1,11.2,29.8,4,20.9,4z M20.9,12.5
		c3.4,0,6.2,2.8,6.2,6.2c0,3.4-2.8,6.2-6.2,6.2c-3.4,0-6.2-2.8-6.2-6.2C14.7,15.3,17.5,12.5,20.9,12.5z M27.4,31.9L27.4,31.9
		C27.4,31.9,27.4,31.9,27.4,31.9l-6,7.2l0,0c-0.1,0.1-0.3,0.2-0.4,0.2c-0.2,0-0.3-0.1-0.4-0.2l0,0l-6-7.2c0,0,0,0,0,0l0,0l0,0
		c-0.1-0.1-0.2-0.2-0.2-0.4c0-0.2,0.1-0.3,0.2-0.4l0,0c1.7-1.5,4-2.3,6.4-2.3c2.5,0,4.7,0.9,6.4,2.3c0.1,0.1,0.2,0.3,0.2,0.4
		C27.5,31.6,27.5,31.8,27.4,31.9L27.4,31.9z"/>
</g>
<g>
	<g>
		<path class="st3" d="M54.7,24.1c-1.7-0.4-2.9-0.7-2.9-1.7c0-0.9,0.7-1.5,2.1-1.5c1,0,2.2,0.3,3.2,0.8c0.6,0.4,1.4,0.2,1.9-0.4v0
			c0.5-0.7,0.3-1.7-0.4-2.1c-1.2-0.7-2.7-1.1-4.4-1.1c-3.4,0-5.5,2-5.5,4.4c0,3.3,3.1,3.9,5.5,4.5c1.7,0.4,3,0.8,3,1.9
			c0,0.8-0.8,1.6-2.5,1.6c-1.4,0-2.6-0.5-3.6-1.1c-0.6-0.4-1.5-0.3-1.9,0.4l0,0c-0.5,0.7-0.3,1.6,0.3,2c1.3,0.9,3,1.4,5.1,1.4
			c3.9,0,5.9-2,5.9-4.7C60.2,25.4,57.2,24.7,54.7,24.1z"/>
		<path class="st3" d="M75.1,22.2c-1.3,0-2.5,0.7-3.2,1.4c-0.2,0.2-0.5,0.2-0.6-0.1c-0.5-0.9-1.4-1.4-2.7-1.4c-1.1,0-2.1,0.5-2.8,1
			c-0.3,0.2-0.7,0-0.7-0.3v0c0-0.2-0.2-0.4-0.4-0.4h-2c-0.2,0-0.4,0.2-0.4,0.4v9.8c0,0.2,0.2,0.4,0.4,0.4h2c0.2,0,0.4-0.2,0.4-0.4
			v-6.6c0-0.1,0-0.2,0.1-0.2c0.4-0.6,1.2-1.1,2.1-1.1c1.1,0,1.6,0.7,1.6,1.7v6.3c0,0.2,0.2,0.4,0.4,0.4h2c0.2,0,0.4-0.2,0.4-0.4
			v-6.6c0-0.1,0-0.2,0.1-0.2c0.4-0.5,1.2-1.1,2.1-1.1c1.1,0,1.6,0.7,1.6,1.7v6.3c0,0.2,0.2,0.4,0.4,0.4h2c0.2,0,0.4-0.2,0.4-0.4
			v-7.2C78.2,23.3,77,22.2,75.1,22.2z"/>
		<path class="st3" d="M85.4,22.2c-1.6,0-3.2,0.5-4.4,1.5c-0.1,0.1-0.2,0.3-0.1,0.4l0.7,1.3c0.1,0.2,0.3,0.2,0.5,0.1
			c0.8-0.7,1.8-1,2.8-1c1.4,0,2.3,0.7,2.3,1.8V27c0,0.3-0.3,0.4-0.5,0.3c-0.7-0.5-1.7-0.8-2.8-0.8c-1.7,0-3.7,0.9-3.7,3.4
			c0,2.4,2,3.5,3.7,3.5c1.1,0,2.1-0.3,2.8-0.9c0.2-0.2,0.5,0,0.5,0.3v0c0,0.2,0.1,0.3,0.3,0.3h2.1c0.2,0,0.3-0.1,0.3-0.3v-6.5
			C90.1,23.2,87.9,22.2,85.4,22.2z M87.3,30.4c0,0.1,0,0.2-0.1,0.2c-0.5,0.6-1.3,0.8-2.2,0.8c-1.1,0-2-0.6-2-1.6c0-1,0.9-1.6,2-1.6
			c0.9,0,1.7,0.3,2.2,0.8c0.1,0.1,0.1,0.1,0.1,0.2V30.4z"/>
		<path class="st3" d="M95.6,22.9L95.6,22.9c0-0.2-0.2-0.4-0.4-0.4h-1.9c-0.2,0-0.4,0.2-0.4,0.4v9.7c0,0.2,0.2,0.4,0.4,0.4h1.9
			c0.2,0,0.4-0.2,0.4-0.4v-6.4c0-0.1,0-0.2,0.1-0.3c0.5-0.6,1.7-1.1,2.5-1.1c0.1,0,0.2,0,0.3,0c0.2,0,0.5-0.2,0.5-0.4v-1.8
			c0-0.3-0.2-0.5-0.5-0.4c-0.8,0.1-1.6,0.5-2.2,1C96,23.5,95.6,23.3,95.6,22.9z"/>
		<path class="st3" d="M105,30.9c-0.6,0-1-0.5-1-1.2v-3.9c0-0.5,0.4-0.9,0.9-0.9h0.4c0.5,0,0.9-0.4,0.9-0.9v-0.7
			c0-0.5-0.4-0.9-0.9-0.9H105c-0.5,0-0.9-0.4-0.9-0.9v-1.1c0-0.5-0.4-0.9-0.9-0.9h-1.1c-0.5,0-0.9,0.4-0.9,0.9v1.1
			c0,0.5-0.4,0.9-0.9,0.9l0,0c-0.5,0-0.9,0.4-0.9,0.9V24c0,0.5,0.4,0.9,0.9,0.9l0,0c0.5,0,0.9,0.4,0.9,0.9v4.6c0,1.9,1.1,2.9,3,2.9
			c0.7,0,1.2-0.1,1.7-0.3c0.4-0.2,0.6-0.6,0.5-1l-0.2-0.5c-0.1-0.4-0.5-0.7-1-0.6C105.2,30.8,105.1,30.9,105,30.9z"/>
	</g>
	<g>
		<path class="st3" d="M119.1,24.4c-1.7-0.4-2.9-0.7-2.9-1.7c0-0.9,0.7-1.5,2.1-1.5c1,0,2.2,0.3,3.2,0.8c0.6,0.4,1.4,0.2,1.9-0.4v0
			c0.5-0.7,0.3-1.7-0.4-2.1c-1.2-0.7-2.7-1.1-4.4-1.1c-3.4,0-5.5,2-5.5,4.4c0,3.3,3.1,3.9,5.5,4.5c1.7,0.4,3,0.8,3,1.9
			c0,0.8-0.8,1.6-2.5,1.6c-1.4,0-2.6-0.5-3.6-1.1c-0.6-0.4-1.5-0.3-1.9,0.4l0,0c-0.5,0.7-0.3,1.6,0.3,2c1.3,0.9,3,1.4,5.1,1.4
			c3.9,0,5.9-2,5.9-4.7C124.5,25.7,121.5,25,119.1,24.4z"/>
		<path class="st3" d="M130.7,31.2c-0.6,0-1-0.5-1-1.2v-3.9c0-0.5,0.4-0.9,0.9-0.9h0.4c0.5,0,0.9-0.4,0.9-0.9v-0.7
			c0-0.5-0.4-0.9-0.9-0.9h-0.4c-0.5,0-0.9-0.4-0.9-0.9v-1.1c0-0.5-0.4-0.9-0.9-0.9h-1.1c-0.5,0-0.9,0.4-0.9,0.9v1.1
			c0,0.5-0.4,0.9-0.9,0.9l0,0c-0.5,0-0.9,0.4-0.9,0.9v0.7c0,0.5,0.4,0.9,0.9,0.9l0,0c0.5,0,0.9,0.4,0.9,0.9v4.6c0,1.9,1.1,2.9,3,2.9
			c0.7,0,1.2-0.1,1.7-0.3c0.4-0.2,0.6-0.6,0.5-1l-0.2-0.5c-0.1-0.4-0.5-0.7-1-0.6C130.8,31.2,130.8,31.2,130.7,31.2z"/>
		<path class="st3" d="M138.7,22.5c-3.5,0-5.6,2.5-5.6,5.5c0,3,2.1,5.6,5.6,5.6c3.5,0,5.6-2.5,5.6-5.6
			C144.3,25.1,142.2,22.5,138.7,22.5z M138.7,31.2c-1.7,0-2.7-1.4-2.7-3.1c0-1.6,1-3.1,2.7-3.1s2.7,1.4,2.7,3.1
			C141.4,29.7,140.4,31.2,138.7,31.2z"/>
		<path class="st3" d="M149.1,23.2L149.1,23.2c0-0.2-0.2-0.4-0.4-0.4h-1.9c-0.2,0-0.4,0.2-0.4,0.4V33c0,0.2,0.2,0.4,0.4,0.4h1.9
			c0.2,0,0.4-0.2,0.4-0.4v-6.4c0-0.1,0-0.2,0.1-0.3c0.5-0.6,1.7-1.1,2.5-1.1c0.1,0,0.2,0,0.3,0c0.2,0,0.5-0.2,0.5-0.4V23
			c0-0.3-0.2-0.5-0.5-0.4c-0.8,0.1-1.6,0.5-2.2,1C149.5,23.8,149.1,23.6,149.1,23.2z"/>
		<path class="st3" d="M155.6,33.4L155.6,33.4c0.8,0,1.4-0.6,1.4-1.4v-7.8c0-0.8-0.6-1.4-1.4-1.4l0,0c-0.8,0-1.4,0.6-1.4,1.4V32
			C154.2,32.8,154.8,33.4,155.6,33.4z"/>
		<path class="st3" d="M156.1,18c-1.1-0.3-2.2,0.5-2.2,1.6c0,0.9,0.8,1.7,1.7,1.7c1,0,1.8-0.9,1.6-1.9
			C157.2,18.7,156.7,18.2,156.1,18z"/>
		<path class="st3" d="M164.6,22.5c-3.2,0-5.5,2.5-5.5,5.5c0,3.4,2.4,5.6,5.7,5.6c1.4,0,2.9-0.4,3.9-1.1c0.3-0.2,0.3-0.6,0.1-0.8
			l-0.5-0.8c-0.2-0.3-0.6-0.3-0.8-0.2c-0.7,0.4-1.6,0.7-2.4,0.7c-1.4,0-2.3-0.7-2.8-1.6c-0.2-0.4,0.1-0.9,0.5-0.9h6.4
			c0.3,0,0.6-0.3,0.6-0.6l0,0C169.9,24.9,167.7,22.5,164.6,22.5z M162.8,27.1c-0.5,0-0.7-0.5-0.6-0.9c0.4-0.8,1.1-1.5,2.4-1.5
			c1.3,0,2.1,0.7,2.4,1.5c0.2,0.4-0.1,0.9-0.6,0.9H162.8z"/>
		<path class="st3" d="M176,26.8c-1.2-0.2-2-0.5-2-1.1c0-0.6,0.7-1,1.7-1c0.8,0,1.6,0.2,2.3,0.6c0.5,0.3,1.2,0.1,1.5-0.4v0
			c0.3-0.5,0.1-1.2-0.4-1.5c-0.9-0.5-2-0.8-3.3-0.8c-2.8,0-4.3,1.6-4.3,3.3c0,2.5,2.3,3,4.2,3.3c1.2,0.2,2.1,0.5,2.1,1.2
			c0,0.7-0.6,1.1-1.8,1.1c-0.9,0-2-0.4-2.8-0.8c-0.5-0.3-1.1-0.1-1.5,0.4l-0.1,0.1c-0.3,0.5-0.1,1.2,0.4,1.5c1.1,0.6,2.4,1,3.8,1
			c2.9,0,4.6-1.5,4.6-3.4C180.3,27.6,177.8,27.1,176,26.8z"/>
	</g>
</g>
</svg>
