<?xml version="1.0" encoding="utf-8"?>
<!-- Generator: Adobe Illustrator 23.0.2, SVG Export Plug-In . SVG Version: 6.00 Build 0)  -->
<svg version="1.1" id="Layer_1" xmlns="https://www.w3.org/2000/svg" xmlns:xlink="https://www.w3.org/1999/xlink" x="0px" y="0px"
	 viewBox="0 0 106 48" style="enable-background:new 0 0 106 48;" xml:space="preserve">
<style type="text/css">
	.st0{opacity:0.8;}
	.st1{fill:#0B111E;}
	.st2{fill:url(#SVGID_1_);}
	.st3{fill:#FFFFFF;}
</style>
<g>
	<g class="st0">
		<path class="st1" d="M20.9,46c-1.3,0-2.5-0.6-3.3-1.6c0,0-10.1-12-10.1-12c-0.3-0.3-0.6-0.7-1-1.1c-2.5-3.2-3.8-7-3.8-11.1
			C2.7,10.2,10.9,2,20.9,2s18.2,8.2,18.2,18.2c0,4.1-1.3,7.9-3.8,11.1L24.2,44.5C23.4,45.4,22.2,46,20.9,46z"/>
		<path class="st1" d="M20.9,4c8.9,0,16.2,7.2,16.2,16.2c0,3.7-1.3,7.1-3.4,9.9l-11,13.1l0,0c-0.4,0.5-1.1,0.8-1.8,0.8
			c-0.7,0-1.4-0.3-1.8-0.8l0,0c0,0,0,0,0,0l0,0L9,31.1c-0.3-0.3-0.6-0.7-0.9-1.1c-2.1-2.7-3.4-6.2-3.4-9.9C4.7,11.2,11.9,4,20.9,4
			 M20.9,0C9.8,0,0.7,9,0.7,20.2c0,4.5,1.4,8.8,4.2,12.3c0.3,0.4,0.7,0.9,1.1,1.3l10.1,12c0,0,0,0,0,0.1c1.2,1.4,3,2.2,4.8,2.2
			c1.9,0,3.6-0.8,4.8-2.2c0,0,0,0,0,0l11-13.1c0,0,0.1-0.1,0.1-0.1c2.7-3.6,4.2-7.8,4.2-12.3C41.1,9,32,0,20.9,0L20.9,0z"/>
	</g>
	<linearGradient id="SVGID_1_" gradientUnits="userSpaceOnUse" x1="20.8853" y1="5.469774e-02" x2="20.8853" y2="49.2307">
		<stop  offset="0" style="stop-color:#FBF9DB"/>
		<stop  offset="0.5027" style="stop-color:#EE705B"/>
		<stop  offset="1" style="stop-color:#E94561"/>
	</linearGradient>
	<path class="st2" d="M20.9,4C11.9,4,4.7,11.2,4.7,20.2c0,3.7,1.3,7.1,3.4,9.9c0.3,0.4,0.6,0.7,0.9,1.1l10.1,12l0,0
		c0.4,0.5,1.1,0.8,1.8,0.8c0.7,0,1.4-0.3,1.8-0.8l0,0l11-13.1c2.1-2.7,3.4-6.2,3.4-9.9C37.1,11.2,29.8,4,20.9,4z M20.9,12.5
		c3.4,0,6.2,2.8,6.2,6.2c0,3.4-2.8,6.2-6.2,6.2c-3.4,0-6.2-2.8-6.2-6.2C14.7,15.3,17.5,12.5,20.9,12.5z M27.4,31.9L27.4,31.9
		C27.4,31.9,27.4,31.9,27.4,31.9l-6,7.2l0,0c-0.1,0.1-0.3,0.2-0.4,0.2c-0.2,0-0.3-0.1-0.4-0.2l0,0l-6-7.2c0,0,0,0,0,0l0,0l0,0
		c-0.1-0.1-0.2-0.2-0.2-0.4c0-0.2,0.1-0.3,0.2-0.4l0,0c1.7-1.5,4-2.3,6.4-2.3c2.5,0,4.7,0.9,6.4,2.3c0.1,0.1,0.2,0.3,0.2,0.4
		C27.5,31.6,27.5,31.8,27.4,31.9L27.4,31.9z"/>
</g>
<g>
	<g>
		<path class="st3" d="M60.5,15c-1.5-0.3-2.6-0.6-2.6-1.5c0-0.8,0.7-1.3,1.9-1.3c0.9,0,1.9,0.2,2.8,0.7c0.6,0.3,1.3,0.2,1.7-0.3v0
			c0.5-0.6,0.3-1.5-0.4-1.9c-1.1-0.6-2.4-1-3.9-1c-3,0-4.9,1.7-4.9,3.9c0,2.9,2.7,3.5,4.8,3.9c1.5,0.3,2.6,0.7,2.6,1.6
			c0,0.7-0.7,1.4-2.2,1.4c-1.3,0-2.3-0.4-3.2-1c-0.6-0.4-1.3-0.2-1.7,0.3l0,0c-0.4,0.6-0.3,1.4,0.3,1.8c1.1,0.8,2.6,1.2,4.5,1.2
			c3.5,0,5.1-1.8,5.1-4.1C65.3,16.2,62.6,15.5,60.5,15z"/>
		<path class="st3" d="M78.4,13.4c-1.2,0-2.2,0.6-2.9,1.3c-0.2,0.2-0.5,0.2-0.6-0.1c-0.4-0.8-1.2-1.2-2.4-1.2c-1,0-1.9,0.4-2.5,0.9
			c-0.2,0.2-0.6,0-0.6-0.3v0c0-0.2-0.2-0.4-0.4-0.4h-1.7c-0.2,0-0.4,0.2-0.4,0.4v8.6c0,0.2,0.2,0.4,0.4,0.4h1.7
			c0.2,0,0.4-0.2,0.4-0.4v-5.8c0-0.1,0-0.2,0.1-0.2c0.4-0.5,1.1-1,1.9-1c1,0,1.4,0.6,1.4,1.5v5.5c0,0.2,0.2,0.4,0.4,0.4H75
			c0.2,0,0.4-0.2,0.4-0.4v-5.8c0-0.1,0-0.2,0.1-0.2c0.4-0.5,1-1,1.9-1c1,0,1.4,0.6,1.4,1.5v5.5c0,0.2,0.2,0.4,0.4,0.4h1.8
			c0.2,0,0.4-0.2,0.4-0.4v-6.4C81.1,14.3,80.1,13.4,78.4,13.4z"/>
		<path class="st3" d="M87.5,13.4c-1.4,0-2.8,0.4-3.9,1.3c-0.1,0.1-0.1,0.2-0.1,0.4l0.6,1.1c0.1,0.2,0.3,0.2,0.4,0.1
			c0.7-0.6,1.6-0.9,2.5-0.9c1.2,0,2,0.6,2,1.6v0.6c0,0.2-0.3,0.4-0.5,0.2c-0.6-0.5-1.5-0.7-2.5-0.7c-1.5,0-3.2,0.8-3.2,3
			c0,2.1,1.8,3.1,3.2,3.1c1,0,1.8-0.3,2.5-0.8c0.2-0.1,0.5,0,0.5,0.2v0c0,0.2,0.1,0.3,0.3,0.3h1.9c0.2,0,0.3-0.1,0.3-0.3v-5.7
			C91.6,14.2,89.6,13.4,87.5,13.4z M89.1,20.6c0,0.1,0,0.1-0.1,0.2c-0.4,0.5-1.2,0.7-1.9,0.7c-1,0-1.8-0.5-1.8-1.4
			c0-0.9,0.8-1.4,1.8-1.4c0.7,0,1.5,0.2,1.9,0.7c0,0.1,0.1,0.1,0.1,0.2V20.6z"/>
		<path class="st3" d="M96.5,14L96.5,14c0-0.2-0.2-0.4-0.4-0.4h-1.7c-0.2,0-0.4,0.2-0.4,0.4v8.6c0,0.2,0.2,0.4,0.4,0.4h1.7
			c0.2,0,0.4-0.2,0.4-0.4v-5.6c0-0.1,0-0.2,0.1-0.2c0.5-0.5,1.5-1,2.2-1c0.1,0,0.2,0,0.3,0c0.2,0,0.4-0.2,0.4-0.4v-1.6
			c0-0.2-0.2-0.4-0.4-0.4c-0.7,0.1-1.4,0.4-1.9,0.8C96.8,14.5,96.5,14.3,96.5,14z"/>
		<path class="st3" d="M104.8,21c-0.5,0-0.8-0.4-0.8-1v-3.4c0-0.4,0.3-0.8,0.8-0.8h0.3c0.4,0,0.8-0.3,0.8-0.8v-0.6
			c0-0.4-0.3-0.8-0.8-0.8h-0.3c-0.4,0-0.8-0.3-0.8-0.8v-1c0-0.4-0.3-0.8-0.8-0.8h-0.9c-0.4,0-0.8,0.3-0.8,0.8v1
			c0,0.4-0.3,0.8-0.8,0.8h0c-0.4,0-0.8,0.3-0.8,0.8V15c0,0.4,0.3,0.8,0.8,0.8h0c0.4,0,0.8,0.3,0.8,0.8v4.1c0,1.7,0.9,2.5,2.6,2.5
			c0.6,0,1.1-0.1,1.5-0.2c0.4-0.1,0.5-0.5,0.4-0.9l-0.1-0.5c-0.1-0.4-0.5-0.6-0.8-0.6C104.9,21,104.8,21,104.8,21z"/>
	</g>
	<g>
		<path class="st3" d="M52.1,32.1c-1.5-0.3-2.6-0.6-2.6-1.5c0-0.8,0.7-1.3,1.9-1.3c0.9,0,1.9,0.2,2.8,0.7c0.6,0.3,1.3,0.2,1.7-0.3
			l0,0c0.5-0.6,0.3-1.5-0.4-1.9c-1.1-0.6-2.4-1-3.9-1c-3,0-4.9,1.7-4.9,3.9c0,2.9,2.7,3.5,4.8,3.9c1.5,0.3,2.6,0.7,2.6,1.6
			c0,0.7-0.7,1.4-2.2,1.4c-1.3,0-2.3-0.4-3.2-1c-0.6-0.4-1.3-0.2-1.7,0.3l0,0c-0.4,0.6-0.3,1.4,0.3,1.8c1.1,0.8,2.6,1.2,4.5,1.2
			c3.5,0,5.1-1.8,5.1-4.1C57,33.2,54.3,32.6,52.1,32.1z"/>
		<path class="st3" d="M62.3,38c-0.5,0-0.8-0.4-0.8-1v-3.4c0-0.4,0.3-0.8,0.8-0.8h0.3c0.4,0,0.8-0.3,0.8-0.8v-0.6
			c0-0.4-0.3-0.8-0.8-0.8h-0.3c-0.4,0-0.8-0.3-0.8-0.8v-1c0-0.4-0.3-0.8-0.8-0.8h-0.9c-0.4,0-0.8,0.3-0.8,0.8v1
			c0,0.4-0.3,0.8-0.8,0.8l0,0c-0.4,0-0.8,0.3-0.8,0.8V32c0,0.4,0.3,0.8,0.8,0.8l0,0c0.4,0,0.8,0.3,0.8,0.8v4.1
			c0,1.7,0.9,2.5,2.6,2.5c0.6,0,1.1-0.1,1.5-0.2c0.4-0.1,0.5-0.5,0.4-0.9l-0.1-0.5C63.3,38.2,63,38,62.6,38C62.5,38,62.4,38,62.3,38
			z"/>
		<path class="st3" d="M69.4,30.4c-3.1,0-4.9,2.2-4.9,4.9c0,2.7,1.9,4.9,4.9,4.9c3.1,0,4.9-2.2,4.9-4.9
			C74.3,32.7,72.5,30.4,69.4,30.4z M69.4,38c-1.5,0-2.4-1.3-2.4-2.7c0-1.4,0.8-2.7,2.4-2.7s2.4,1.3,2.4,2.7
			C71.8,36.8,70.9,38,69.4,38z"/>
		<path class="st3" d="M78.6,31.1L78.6,31.1c0-0.2-0.2-0.4-0.4-0.4h-1.7c-0.2,0-0.4,0.2-0.4,0.4v8.6c0,0.2,0.2,0.4,0.4,0.4h1.7
			c0.2,0,0.4-0.2,0.4-0.4V34c0-0.1,0-0.2,0.1-0.2c0.5-0.5,1.5-1,2.2-1c0.1,0,0.2,0,0.3,0c0.2,0,0.4-0.2,0.4-0.4v-1.6
			c0-0.2-0.2-0.4-0.4-0.4c-0.7,0.1-1.4,0.4-1.9,0.8C78.9,31.5,78.6,31.4,78.6,31.1z"/>
		<path class="st3" d="M84.3,40L84.3,40c0.7,0,1.2-0.5,1.2-1.2v-6.9c0-0.7-0.5-1.2-1.2-1.2l0,0c-0.7,0-1.2,0.5-1.2,1.2v6.9
			C83.1,39.4,83.6,40,84.3,40z"/>
		<path class="st3" d="M84.7,26.4c-1-0.3-1.9,0.4-1.9,1.4c0,0.8,0.7,1.5,1.5,1.5c0.9,0,1.6-0.8,1.4-1.7
			C85.7,27.1,85.3,26.6,84.7,26.4z"/>
		<path class="st3" d="M92.2,30.4c-2.8,0-4.8,2.2-4.8,4.9c0,3,2.1,4.9,5,4.9c1.2,0,2.5-0.3,3.4-1c0.2-0.2,0.3-0.5,0.1-0.7l-0.5-0.7
			c-0.2-0.2-0.5-0.3-0.7-0.1c-0.6,0.4-1.4,0.6-2.1,0.6c-1.2,0-2-0.6-2.4-1.4c-0.2-0.4,0.1-0.8,0.5-0.8h5.7c0.3,0,0.5-0.2,0.5-0.5
			l0,0C96.8,32.5,94.9,30.4,92.2,30.4z M90.6,34.5c-0.4,0-0.7-0.4-0.5-0.8c0.3-0.7,1-1.3,2.1-1.3c1.2,0,1.8,0.6,2.1,1.3
			c0.2,0.4-0.1,0.8-0.5,0.8H90.6z"/>
		<path class="st3" d="M102.3,34.2c-1-0.2-1.8-0.4-1.8-1c0-0.5,0.6-0.9,1.5-0.9c0.7,0,1.4,0.2,2,0.5c0.5,0.3,1,0.1,1.3-0.3v0
			c0.3-0.5,0.1-1.1-0.4-1.3c-0.8-0.4-1.8-0.7-2.9-0.7c-2.4,0-3.8,1.4-3.8,2.9c0,2.2,2.1,2.6,3.7,2.9c1.1,0.2,1.9,0.4,1.9,1.1
			c0,0.6-0.5,0.9-1.6,0.9c-0.8,0-1.8-0.3-2.5-0.7c-0.4-0.3-1-0.1-1.3,0.3L98.3,38c-0.3,0.5-0.1,1,0.3,1.3c0.9,0.6,2.1,0.9,3.4,0.9
			c2.6,0,4-1.3,4-3C106,34.9,103.9,34.5,102.3,34.2z"/>
	</g>
</g>
</svg>
