<?xml version="1.0" encoding="utf-8"?>
<!-- Generator: Adobe Illustrator 23.0.2, SVG Export Plug-In . SVG Version: 6.00 Build 0)  -->
<svg version="1.1" id="Layer_1" xmlns="https://www.w3.org/2000/svg" xmlns:xlink="https://www.w3.org/1999/xlink" x="0px" y="0px"
	 viewBox="0 0 32 32" style="enable-background:new 0 0 32 32;" xml:space="preserve">
<style type="text/css">
	.st0{opacity:0.8;fill:#0B111E;}
	.st1{fill:url(#SVGID_1_);}
</style>
<path id="Rectangle_1524" class="st0" d="M16,0L16,0c8.8,0,16,7.2,16,16v0c0,8.8-7.2,16-16,16h0C7.2,32,0,24.8,0,16v0
	C0,7.2,7.2,0,16,0z"/>
<linearGradient id="SVGID_1_" gradientUnits="userSpaceOnUse" x1="23.0209" y1="25.0814" x2="8.9697" y2="6.9065">
	<stop  offset="0" style="stop-color:#E94561"/>
	<stop  offset="0.381" style="stop-color:#ED6C5E"/>
	<stop  offset="1" style="stop-color:#FFF9D4"/>
</linearGradient>
<path class="st1" d="M14.7,5.9c-3.5,0.4-6.4,2.6-7.9,5.6c2-1,4.7-1.7,7.9-1.8V5.9z M17.3,9.6c3.1,0.1,5.9,0.8,7.9,1.8
	c-1.5-3-4.4-5.2-7.9-5.6V9.6z M5.8,16c0,1.6,4,3.8,10.2,3.8s10.2-2.3,10.2-3.8c0-1.5-3.4-3.5-8.9-3.8v2.4c0.4,0.4,0.6,0.9,0.6,1.4
	c0,1.1-0.9,1.9-1.9,1.9s-1.9-0.9-1.9-1.9c0-0.6,0.2-1.1,0.6-1.4v-2.4C9.2,12.5,5.8,14.5,5.8,16L5.8,16z M6.8,20.5
	c1.7,3.4,5.1,5.7,9.2,5.7s7.5-2.3,9.2-5.7c-2.3,1.2-5.5,1.8-9.2,1.8S9.1,21.7,6.8,20.5L6.8,20.5z M16,28.8C9,28.8,3.2,23,3.2,16
	c0-6.6,5-12.1,11.5-12.7V3.2l2.6,0.1C23.7,3.9,28.8,9.4,28.8,16C28.8,23,23,28.8,16,28.8L16,28.8z"/>
</svg>
