<?xml version="1.0" encoding="utf-8"?>
<!-- Generator: Adobe Illustrator 23.0.2, SVG Export Plug-In . SVG Version: 6.00 Build 0)  -->
<svg version="1.1" id="Layer_1" xmlns="https://www.w3.org/2000/svg" xmlns:xlink="https://www.w3.org/1999/xlink" x="0px" y="0px"
	 viewBox="0 0 32 32" style="enable-background:new 0 0 32 32;" xml:space="preserve">
<style type="text/css">
	.st0{opacity:0.8;fill:#0B111E;enable-background:new    ;}
	.st1{fill:url(#Path_584_1_);}
</style>
<path id="Rectangle_1524" class="st0" d="M16,0L16,0c8.8,0,16,7.2,16,16l0,0c0,8.8-7.2,16-16,16l0,0C7.2,32,0,24.8,0,16l0,0
	C0,7.2,7.2,0,16,0z"/>
<linearGradient id="Path_584_1_" gradientUnits="userSpaceOnUse" x1="2.9583" y1="30.0645" x2="2.8917" y2="30.2148" gradientTransform="matrix(143.7644 0 0 -160.0046 -404.9029 4838.543)">
	<stop  offset="0" style="stop-color:#F9425F"/>
	<stop  offset="0.381" style="stop-color:#EB6C5E"/>
	<stop  offset="1" style="stop-color:#FFFAD2"/>
</linearGradient>
<path id="Path_584" class="st1" d="M24.7,8c0-0.2-0.1-0.3-0.1-0.5c0-0.1-0.1-0.2-0.1-0.2c0-0.1-0.1-0.2-0.1-0.2v0
	c-0.1-0.1-0.1-0.2-0.2-0.3v0c-0.1-0.1-0.1-0.2-0.2-0.3C24,6.3,23.9,6.2,23.8,6c-0.1-0.1-0.2-0.2-0.2-0.3c-0.5-0.5-1-0.8-1.6-1.1
	c-0.3-0.1-0.5-0.2-0.8-0.2c-0.1,0-0.3,0-0.4-0.1h0c-0.2,0-0.4,0-0.7,0c-0.1,0-0.2,0-0.3,0c-0.1,0-0.1,0-0.2,0c-0.1,0-0.1,0-0.2,0
	c-0.1,0-0.1,0-0.2,0c-0.1,0-0.3,0.1-0.4,0.1c-0.1,0-0.1,0-0.2,0.1c0,0,0,0-0.1,0c-0.1,0-0.1,0.1-0.2,0.1c0,0-0.1,0-0.1,0.1
	c0,0-0.1,0-0.1,0.1c-0.3,0.2-0.6,0.4-0.9,0.6c0,0-0.1,0.1-0.1,0.1c0,0-0.1,0.1-0.1,0.1c-0.3,0.3-0.5,0.6-0.7,1
	c0,0.1-0.1,0.1-0.1,0.2C16.1,7,16,7.1,16,7.2c0,0.1-0.1,0.1-0.1,0.2v0c-0.1,0.2-0.1,0.4-0.2,0.6c0,0.2-0.1,0.4-0.1,0.6c0,0,0,0,0,0
	c0,0.1,0,0.1,0,0.2v0c0,0.1,0,0.1,0,0.2c0,0.2,0,0.4,0,0.6c0,0.2,0.1,0.4,0.1,0.6l-4.2,2.3c-0.9-1.2-2.2-1.9-3.7-1.9
	c-2.6,0-4.6,2.1-4.6,4.6c0,0,0,0,0,0c0,2.6,2.1,4.6,4.6,4.6c0,0,0,0,0,0c0.8,0,1.6-0.2,2.3-0.6l5.4,3.3c-0.2,0.7-0.2,1.4-0.1,2
	c0,0.1,0.1,0.3,0.1,0.4c0,0.1,0.1,0.3,0.1,0.4c0,0.1,0.1,0.3,0.2,0.4c0,0.1,0.1,0.1,0.1,0.2c0.2,0.3,0.3,0.6,0.6,0.8
	c0,0.1,0.1,0.1,0.1,0.2c0,0,0.1,0.1,0.1,0.1c0,0,0.1,0.1,0.1,0.1c0,0,0.1,0.1,0.1,0.1c0.1,0.1,0.1,0.1,0.2,0.2l0.1,0.1
	c0.1,0,0.1,0.1,0.2,0.1c0.1,0.1,0.2,0.1,0.3,0.2c0.1,0.1,0.2,0.1,0.4,0.2c0.1,0.1,0.2,0.1,0.4,0.1c0.1,0,0.1,0,0.2,0.1
	c0.1,0,0.1,0,0.2,0c0.1,0,0.1,0,0.2,0c0.1,0,0.1,0,0.2,0c0.1,0,0.1,0,0.2,0c0.1,0,0.3,0,0.4,0c0.2,0,0.5,0,0.7-0.1
	c0.1,0,0.3-0.1,0.4-0.1s0.3-0.1,0.4-0.1c0.6-0.2,1.2-0.6,1.7-1.1c0.1-0.1,0.2-0.2,0.3-0.3c0.1-0.2,0.2-0.3,0.4-0.5
	c0.1-0.1,0.1-0.2,0.2-0.3v0c0.1-0.1,0.1-0.2,0.2-0.4v0c0.1-0.1,0.1-0.2,0.1-0.4c0.2-0.7,0.3-1.4,0.2-2.1c0-0.3-0.1-0.6-0.2-0.8
	c0-0.1-0.1-0.3-0.2-0.4c-0.1-0.3-0.3-0.6-0.5-0.9c-0.1-0.2-0.3-0.3-0.4-0.5c-0.1-0.1-0.3-0.3-0.4-0.4c-0.1-0.1-0.2-0.2-0.3-0.2
	c-0.1-0.1-0.2-0.1-0.3-0.2h0c-0.1-0.1-0.2-0.1-0.4-0.2h0c-0.1-0.1-0.2-0.1-0.4-0.1c-0.5-0.1-0.9-0.2-1.4-0.2c-0.2,0-0.5,0-0.7,0.1
	c-0.3,0-0.6,0.1-0.8,0.2c-0.1,0-0.3,0.1-0.4,0.2c-0.3,0.1-0.6,0.3-0.9,0.5c-0.2,0.1-0.3,0.3-0.4,0.4l0,0c0,0,0,0,0,0l-4.9-3
	c0.4-0.7,0.6-1.5,0.6-2.3c0-0.2,0-0.4,0-0.6l4.4-2.4c0.5,0.5,1.1,0.9,1.7,1.1c0.5,0.2,1.1,0.3,1.7,0.3c1.9,0,3.6-1.2,4.3-3
	c0.1-0.2,0.1-0.4,0.2-0.7c0-0.2,0.1-0.4,0.1-0.5c0,0,0,0,0,0c0-0.1,0-0.1,0-0.2c0,0,0,0,0,0c0-0.1,0-0.1,0-0.2
	C24.9,8.7,24.8,8.3,24.7,8z M19.7,21.6c1.3-0.2,2.4,0.7,2.6,1.9c0.2,1.3-0.7,2.4-1.9,2.6c-0.6,0.1-1.2,0-1.7-0.4
	c-0.5-0.4-0.8-0.9-0.9-1.5C17.6,22.9,18.4,21.8,19.7,21.6z M22.4,9.9c-0.5,1.2-1.8,1.8-3,1.3c-0.9-0.3-1.5-1.2-1.5-2.2
	c0-0.3,0.1-0.6,0.2-0.8c0.2-0.6,0.7-1,1.2-1.3c0.3-0.1,0.6-0.2,0.9-0.2c0.3,0,0.6,0.1,0.8,0.2C22.3,7.3,22.9,8.7,22.4,9.9L22.4,9.9z
	"/>
</svg>
