<?xml version="1.0" encoding="utf-8"?>
<!-- Generator: Adobe Illustrator 23.0.2, SVG Export Plug-In . SVG Version: 6.00 Build 0)  -->
<svg version="1.1" id="Layer_1" xmlns="https://www.w3.org/2000/svg" xmlns:xlink="https://www.w3.org/1999/xlink" x="0px" y="0px"
	 viewBox="0 0 68.4 32" style="enable-background:new 0 0 68.4 32;" xml:space="preserve">
<style type="text/css">
	.st0{opacity:0.8;fill:#0B111E;enable-background:new    ;}
	.st1{fill:url(#Path_276_1_);}
</style>
<g>
	<path class="st0" d="M52.4,32c8.8,0,16-7.2,16-16s-7.2-16-16-16H16C7.2,0,0,7.2,0,16s7.2,16,16,16H52.4z"/>
</g>
<linearGradient id="Path_276_1_" gradientUnits="userSpaceOnUse" x1="37.6521" y1="27.9879" x2="30.2846" y2="2.1533">
	<stop  offset="0" style="stop-color:#E94561"/>
	<stop  offset="0.381" style="stop-color:#ED6C5E"/>
	<stop  offset="1" style="stop-color:#FFF9D4"/>
</linearGradient>
<path id="Path_276" class="st1" d="M53,3.2H15.5c-2.6,0-4.7,2.1-4.7,4.7l0,0v16.2c0,2.6,2.1,4.7,4.7,4.7l0,0h13.6l3.1-5.6
	c0.6-1.1,2.1-1.5,3.2-0.9c0.4,0.2,0.6,0.5,0.9,0.9l3.1,5.6H53c2.6,0,4.7-2.1,4.7-4.7V8c0.1-2.6-2-4.7-4.5-4.7l0,0
	C53.1,3.2,53.1,3.2,53,3.2z M23.6,21.7c-3.2,0-5.7-2.6-5.7-5.7l0,0c0-3.2,2.6-5.7,5.7-5.7l0,0l0,0c1.7,0,3.3,0.8,4.4,2.1
	c0.9,1,1.3,2.3,1.3,3.7C29.3,19.1,26.8,21.7,23.6,21.7L23.6,21.7z M44.4,21.7c-3.2,0-5.7-2.6-5.7-5.7c0-3.2,2.6-5.7,5.7-5.7
	c3.2,0,5.7,2.6,5.7,5.7l0,0C50.1,19.1,47.6,21.7,44.4,21.7L44.4,21.7L44.4,21.7L44.4,21.7z"/>
</svg>
