<?xml version="1.0" encoding="utf-8"?>
<!-- Generator: Adobe Illustrator 23.0.3, SVG Export Plug-In . SVG Version: 6.00 Build 0)  -->
<svg version="1.1" id="Layer_1" xmlns="https://www.w3.org/2000/svg" xmlns:xlink="https://www.w3.org/1999/xlink" x="0px" y="0px"
	 viewBox="0 0 505.2 814.5" style="enable-background:new 0 0 505.2 814.5;" xml:space="preserve">
<style type="text/css">
	.st0{fill:#667EA3;}
	.st1{fill:#FFFFFF;}
	.st2{fill:#212F42;}
</style>
<g>
	<polygon class="st0" points="301.5,417.2 251.2,487.4 254.5,489.7 306.5,417.2 	"/>
	<polygon class="st0" points="349.8,356.7 416.3,264.1 413,261.7 344.9,356.7 	"/>
</g>
<path class="st1" d="M107.9,704.9h25.6H107.9z"/>
<rect x="107.9" y="702.9" class="st0" width="25.6" height="4"/>
<path class="st1" d="M372.2,704.9h25.6H372.2z"/>
<rect x="372.2" y="702.9" class="st0" width="25.6" height="4"/>
<rect x="301.1" y="660.4" transform="matrix(0.4966 -0.868 0.868 0.4966 -439.4674 606.5004)" class="st0" width="4" height="43.4"/>
<line class="st1" x1="221.3" y1="671.2" x2="183.7" y2="692.8"/>
<rect x="180.8" y="680" transform="matrix(0.8668 -0.4986 0.4986 0.8668 -313.0985 191.7921)" class="st0" width="43.4" height="4"/>
<g>
	<rect x="148.5" y="261.5" class="st0" width="29.5" height="4"/>
	<rect x="327.3" y="261.5" class="st0" width="29.9" height="4"/>
</g>
<g>
	<polygon class="st0" points="159.3,356.7 91,262.9 87.8,265.3 154.4,356.7 	"/>
	<polygon class="st0" points="198.4,417.2 251.2,489.8 254.5,487.4 203.3,417.2 	"/>
</g>
<g>
	<g>
		<path class="st2" d="M299.7,488.6c0,25.9-21,46.9-46.8,46.9c-25.9,0-46.8-21-46.8-46.9c0-25.9,21-46.8,46.8-46.8
			C278.7,441.7,299.7,462.7,299.7,488.6"/>
		<path class="st2" d="M148.5,263.5c0,32.6-26.5,59.1-59.1,59.1s-59.1-26.5-59.1-59.1c0-32.6,26.5-59.1,59.1-59.1
			S148.5,230.9,148.5,263.5"/>
		<path class="st2" d="M474.9,263.5c0,32.6-26.5,59.1-59.1,59.1s-59.1-26.5-59.1-59.1c0-32.6,26.5-59.1,59.1-59.1
			S474.9,230.9,474.9,263.5"/>
		<path class="st2" d="M324.9,100.3c0,39.9-32.4,72.3-72.3,72.3c-39.9,0-72.3-32.4-72.3-72.3c0-39.9,32.4-72.3,72.3-72.3
			C292.5,28,324.9,60.4,324.9,100.3"/>
	</g>
</g>
<path class="st1" d="M79.2,672.8l-1.8,5.6H76l-1.2-3.8l-1.3,3.8h-1.4l-1.8-5.6h1.3l1.3,3.9l1.3-3.9h1.2l1.3,4l1.3-4H79.2z"/>
<path class="st1" d="M83.7,676.6h-3.3c0.1,0.5,0.6,0.9,1.2,0.9c0.5,0,0.8-0.1,1.1-0.4l0.7,0.7c-0.4,0.5-1,0.7-1.8,0.7
	c-1.5,0-2.5-0.9-2.5-2.2c0-1.3,1-2.2,2.3-2.2c1.3,0,2.2,0.8,2.2,2.2C83.7,676.4,83.7,676.5,83.7,676.6z M80.4,675.9h2.1
	c-0.1-0.5-0.5-0.9-1.1-0.9C80.9,675,80.5,675.3,80.4,675.9z"/>
<path class="st1" d="M89.3,676.2c0,1.4-0.9,2.2-2.1,2.2c-0.6,0-1-0.2-1.4-0.6v0.5h-1.2v-5.9h1.2v2.1c0.3-0.4,0.8-0.5,1.3-0.5
	C88.3,674,89.3,674.9,89.3,676.2z M88,676.2c0-0.7-0.5-1.2-1.1-1.2s-1.1,0.4-1.1,1.2c0,0.7,0.5,1.2,1.1,1.2S88,677,88,676.2z"/>
<path class="st1" d="M95.2,672.8l-2.4,5.6h-1.3l-2.4-5.6h1.4l1.7,4l1.7-4H95.2z"/>
<path class="st1" d="M99.3,678.4l-1.1-1.6h-0.1H97v1.6h-1.3v-5.6h2.4c1.5,0,2.4,0.8,2.4,2c0,0.8-0.4,1.5-1.2,1.8l1.3,1.8H99.3z
	 M98.1,673.8H97v2h1.1c0.8,0,1.2-0.4,1.2-1C99.3,674.2,98.9,673.8,98.1,673.8z"/>
<path class="st1" d="M61.7,682.4l-2.4,5.6H58l-2.4-5.6H57l1.7,4l1.7-4H61.7z"/>
<path class="st1" d="M65.7,688l-1.1-1.6h-0.1h-1.1v1.6h-1.3v-5.6h2.4c1.5,0,2.4,0.8,2.4,2c0,0.8-0.4,1.5-1.2,1.8l1.3,1.8H65.7z
	 M64.5,683.4h-1.1v2h1.1c0.8,0,1.2-0.4,1.2-1C65.7,683.8,65.3,683.4,64.5,683.4z"/>
<path class="st1" d="M74.1,685.1h1.2v2.3c-0.6,0.5-1.5,0.7-2.3,0.7c-1.8,0-3.1-1.2-3.1-2.9c0-1.7,1.3-2.9,3.1-2.9c1,0,1.8,0.3,2.3,1
	l-0.8,0.8c-0.4-0.4-0.9-0.6-1.4-0.6c-1.1,0-1.8,0.7-1.8,1.8c0,1,0.7,1.8,1.8,1.8c0.4,0,0.7-0.1,1-0.2V685.1z"/>
<path class="st1" d="M76.4,682.1h1.2v5.9h-1.2V682.1z"/>
<path class="st1" d="M82.6,685.5v2.5h-1.2v-0.5c-0.2,0.4-0.7,0.6-1.3,0.6c-1,0-1.6-0.6-1.6-1.3c0-0.8,0.5-1.3,1.8-1.3h1
	c0-0.5-0.3-0.8-1-0.8c-0.5,0-0.9,0.2-1.2,0.4l-0.4-0.9c0.5-0.3,1.2-0.5,1.9-0.5C81.8,683.6,82.6,684.2,82.6,685.5z M81.3,686.6v-0.4
	h-0.9c-0.6,0-0.8,0.2-0.8,0.5c0,0.3,0.3,0.5,0.7,0.5C80.8,687.2,81.2,687,81.3,686.6z"/>
<path class="st1" d="M83.3,687.6l0.4-0.9c0.4,0.2,1,0.4,1.5,0.4c0.6,0,0.8-0.2,0.8-0.4c0-0.7-2.6,0-2.6-1.7c0-0.8,0.7-1.4,2-1.4
	c0.6,0,1.2,0.1,1.7,0.4l-0.4,0.9c-0.4-0.2-0.8-0.3-1.2-0.3c-0.6,0-0.8,0.2-0.8,0.4c0,0.7,2.6,0,2.6,1.7c0,0.8-0.7,1.4-2,1.4
	C84.4,688.1,83.7,687.9,83.3,687.6z"/>
<path class="st1" d="M87.5,687.6l0.4-0.9c0.4,0.2,1,0.4,1.5,0.4c0.6,0,0.8-0.2,0.8-0.4c0-0.7-2.6,0-2.6-1.7c0-0.8,0.7-1.4,2-1.4
	c0.6,0,1.2,0.1,1.7,0.4l-0.4,0.9c-0.4-0.2-0.8-0.3-1.2-0.3c-0.6,0-0.8,0.2-0.8,0.4c0,0.7,2.6,0,2.6,1.7c0,0.8-0.7,1.4-2,1.4
	C88.7,688.1,87.9,687.9,87.5,687.6z"/>
<path class="st1" d="M96.4,686.2h-3.3c0.1,0.5,0.6,0.9,1.2,0.9c0.5,0,0.8-0.1,1.1-0.4l0.7,0.7c-0.4,0.5-1,0.7-1.8,0.7
	c-1.5,0-2.5-0.9-2.5-2.2c0-1.3,1-2.2,2.3-2.2c1.3,0,2.2,0.8,2.2,2.2C96.4,686,96.4,686.1,96.4,686.2z M93.1,685.5h2.1
	c-0.1-0.5-0.5-0.9-1.1-0.9C93.6,684.6,93.2,684.9,93.1,685.5z"/>
<path class="st1" d="M96.8,687.6l0.4-0.9c0.4,0.2,1,0.4,1.5,0.4c0.6,0,0.8-0.2,0.8-0.4c0-0.7-2.6,0-2.6-1.7c0-0.8,0.7-1.4,2-1.4
	c0.6,0,1.2,0.1,1.7,0.4l-0.4,0.9c-0.4-0.2-0.8-0.3-1.2-0.3c-0.6,0-0.8,0.2-0.8,0.4c0,0.7,2.6,0,2.6,1.7c0,0.8-0.7,1.4-2,1.4
	C98,688.1,97.2,687.9,96.8,687.6z"/>
<path class="st1" d="M48.4,697l0.4-1c0.5,0.3,1.2,0.6,1.8,0.6c0.8,0,1.1-0.3,1.1-0.6c0-1-3.3-0.3-3.3-2.4c0-1,0.8-1.7,2.4-1.7
	c0.7,0,1.4,0.2,1.9,0.5l-0.4,1c-0.5-0.3-1.1-0.4-1.6-0.4c-0.8,0-1.1,0.3-1.1,0.6c0,1,3.3,0.3,3.3,2.4c0,0.9-0.8,1.7-2.4,1.7
	C49.8,697.7,48.9,697.4,48.4,697z"/>
<path class="st1" d="M61.1,695.1v2.5h-1.2v-2.3c0-0.7-0.3-1-0.8-1c-0.6,0-1,0.4-1,1.1v2.2h-1.2v-2.3c0-0.7-0.3-1-0.8-1
	c-0.6,0-0.9,0.4-0.9,1.1v2.2h-1.2v-4.3H55v0.5c0.3-0.4,0.8-0.6,1.4-0.6c0.6,0,1.1,0.2,1.4,0.7c0.3-0.4,0.9-0.7,1.6-0.7
	C60.4,693.2,61.1,693.8,61.1,695.1z"/>
<path class="st1" d="M66,695.1v2.5h-1.2v-0.5c-0.2,0.4-0.7,0.6-1.3,0.6c-1,0-1.6-0.6-1.6-1.3c0-0.8,0.5-1.3,1.8-1.3h1
	c0-0.5-0.3-0.8-1-0.8c-0.5,0-0.9,0.2-1.2,0.4l-0.4-0.9c0.5-0.3,1.2-0.5,1.9-0.5C65.3,693.2,66,693.8,66,695.1z M64.8,696.2v-0.4
	h-0.9c-0.6,0-0.8,0.2-0.8,0.5c0,0.3,0.3,0.5,0.7,0.5C64.3,696.8,64.6,696.6,64.8,696.2z"/>
<path class="st1" d="M69.8,693.2v1.2c-0.1,0-0.2,0-0.3,0c-0.7,0-1.1,0.4-1.1,1.2v2h-1.2v-4.3h1.2v0.6
	C68.7,693.4,69.2,693.2,69.8,693.2z"/>
<path class="st1" d="M73.5,697.4c-0.3,0.2-0.6,0.3-1,0.3c-1,0-1.6-0.5-1.6-1.5v-1.8h-0.7v-1h0.7v-1h1.2v1h1.1v1h-1.1v1.8
	c0,0.4,0.2,0.6,0.5,0.6c0.2,0,0.4-0.1,0.5-0.2L73.5,697.4z"/>
<path class="st1" d="M79.1,694c0,1.2-0.9,2-2.4,2h-1.1v1.5h-1.3V692h2.4C78.2,692,79.1,692.8,79.1,694z M77.8,694c0-0.6-0.4-1-1.2-1
	h-1.1v1.9h1.1C77.4,695,77.8,694.6,77.8,694z"/>
<path class="st1" d="M84.4,695.1v2.5h-1.2v-2.3c0-0.7-0.3-1-0.9-1c-0.6,0-1,0.4-1,1.2v2.1h-1.2v-5.9h1.2v2.1
	c0.3-0.3,0.8-0.5,1.4-0.5C83.7,693.2,84.4,693.8,84.4,695.1z"/>
<path class="st1" d="M85.3,695.4c0-1.3,1-2.2,2.4-2.2s2.4,0.9,2.4,2.2c0,1.3-1,2.2-2.4,2.2S85.3,696.7,85.3,695.4z M88.8,695.4
	c0-0.7-0.5-1.2-1.1-1.2s-1.1,0.4-1.1,1.2c0,0.7,0.5,1.2,1.1,1.2S88.8,696.2,88.8,695.4z"/>
<path class="st1" d="M95.3,695.1v2.5H94v-2.3c0-0.7-0.3-1-0.9-1c-0.6,0-1,0.4-1,1.2v2.1h-1.2v-4.3h1.2v0.5c0.3-0.4,0.8-0.6,1.4-0.6
	C94.5,693.2,95.3,693.8,95.3,695.1z"/>
<path class="st1" d="M100.6,695.8h-3.3c0.1,0.5,0.6,0.9,1.2,0.9c0.5,0,0.8-0.1,1.1-0.4l0.7,0.7c-0.4,0.5-1,0.7-1.8,0.7
	c-1.5,0-2.5-0.9-2.5-2.2c0-1.3,1-2.2,2.3-2.2c1.3,0,2.2,0.8,2.2,2.2C100.7,695.6,100.6,695.7,100.6,695.8z M97.4,695.1h2.1
	c-0.1-0.5-0.5-0.9-1.1-0.9C97.9,694.2,97.5,694.5,97.4,695.1z"/>
<path class="st1" d="M38.4,701.6h1.3v4.5h2.8v1.1h-4.1V701.6z"/>
<path class="st1" d="M47,704.7v2.5h-1.2v-0.5c-0.2,0.4-0.7,0.6-1.3,0.6c-1,0-1.6-0.6-1.6-1.3c0-0.8,0.5-1.3,1.8-1.3h1
	c0-0.5-0.3-0.8-1-0.8c-0.5,0-0.9,0.2-1.2,0.4l-0.4-0.9c0.5-0.3,1.2-0.5,1.9-0.5C46.2,702.8,47,703.4,47,704.7z M45.7,705.8v-0.4
	h-0.9c-0.6,0-0.8,0.2-0.8,0.5c0,0.3,0.3,0.5,0.7,0.5C45.2,706.4,45.6,706.2,45.7,705.8z"/>
<path class="st1" d="M52.8,705c0,1.4-0.9,2.2-2.1,2.2c-0.5,0-1-0.2-1.3-0.5v2h-1.2v-5.9h1.2v0.5c0.3-0.4,0.8-0.6,1.4-0.6
	C51.8,702.8,52.8,703.7,52.8,705z M51.5,705c0-0.7-0.5-1.2-1.1-1.2s-1.1,0.4-1.1,1.2c0,0.7,0.5,1.2,1.1,1.2S51.5,705.8,51.5,705z"/>
<path class="st1" d="M56.4,707c-0.3,0.2-0.6,0.3-1,0.3c-1,0-1.6-0.5-1.6-1.5v-1.8h-0.7v-1h0.7v-1H55v1h1.1v1H55v1.8
	c0,0.4,0.2,0.6,0.5,0.6c0.2,0,0.4-0.1,0.5-0.2L56.4,707z"/>
<path class="st1" d="M56.6,705c0-1.3,1-2.2,2.4-2.2s2.4,0.9,2.4,2.2c0,1.3-1,2.2-2.4,2.2S56.6,706.3,56.6,705z M60.1,705
	c0-0.7-0.5-1.2-1.1-1.2s-1.1,0.4-1.1,1.2c0,0.7,0.5,1.2,1.1,1.2S60.1,705.8,60.1,705z"/>
<path class="st1" d="M66.9,705c0,1.4-0.9,2.2-2.1,2.2c-0.5,0-1-0.2-1.3-0.5v2h-1.2v-5.9h1.2v0.5c0.3-0.4,0.8-0.6,1.4-0.6
	C65.9,702.8,66.9,703.7,66.9,705z M65.6,705c0-0.7-0.5-1.2-1.1-1.2c-0.6,0-1.1,0.4-1.1,1.2c0,0.7,0.5,1.2,1.1,1.2
	C65.1,706.2,65.6,705.8,65.6,705z"/>
<path class="st1" d="M71.8,700.5h1.1l-2.6,7.5h-1.1L71.8,700.5z"/>
<path class="st1" d="M76.6,702.6h-1.8v-1.1h4.9v1.1h-1.8v4.5h-1.3V702.6z"/>
<path class="st1" d="M83.9,704.7v2.5h-1.2v-0.5c-0.2,0.4-0.7,0.6-1.3,0.6c-1,0-1.6-0.6-1.6-1.3c0-0.8,0.5-1.3,1.8-1.3h1
	c0-0.5-0.3-0.8-1-0.8c-0.5,0-0.9,0.2-1.2,0.4l-0.4-0.9c0.5-0.3,1.2-0.5,1.9-0.5C83.2,702.8,83.9,703.4,83.9,704.7z M82.7,705.8v-0.4
	h-0.9c-0.6,0-0.8,0.2-0.8,0.5c0,0.3,0.3,0.5,0.7,0.5C82.2,706.4,82.5,706.2,82.7,705.8z"/>
<path class="st1" d="M89.7,705c0,1.4-0.9,2.2-2.1,2.2c-0.6,0-1-0.2-1.4-0.6v0.5H85v-5.9h1.2v2.1c0.3-0.4,0.8-0.5,1.3-0.5
	C88.8,702.8,89.7,703.7,89.7,705z M88.5,705c0-0.7-0.5-1.2-1.1-1.2s-1.1,0.4-1.1,1.2c0,0.7,0.5,1.2,1.1,1.2S88.5,705.8,88.5,705z"/>
<path class="st1" d="M90.6,701.3h1.2v5.9h-1.2V701.3z"/>
<path class="st1" d="M97.2,705.4h-3.3c0.1,0.5,0.6,0.9,1.2,0.9c0.5,0,0.8-0.1,1.1-0.4l0.7,0.7c-0.4,0.5-1,0.7-1.8,0.7
	c-1.5,0-2.5-0.9-2.5-2.2c0-1.3,1-2.2,2.3-2.2c1.3,0,2.2,0.8,2.2,2.2C97.2,705.2,97.2,705.3,97.2,705.4z M93.9,704.7H96
	c-0.1-0.5-0.5-0.9-1.1-0.9C94.4,703.8,94,704.1,93.9,704.7z"/>
<path class="st1" d="M100.8,707c-0.3,0.2-0.6,0.3-1,0.3c-1,0-1.6-0.5-1.6-1.5v-1.8h-0.7v-1h0.7v-1h1.2v1h1.1v1h-1.1v1.8
	c0,0.4,0.2,0.6,0.5,0.6c0.2,0,0.4-0.1,0.5-0.2L100.8,707z"/>
<path class="st1" d="M62.6,716.2l0.4-1c0.5,0.3,1.2,0.6,1.8,0.6c0.8,0,1.1-0.3,1.1-0.6c0-1-3.3-0.3-3.3-2.4c0-1,0.8-1.7,2.4-1.7
	c0.7,0,1.4,0.2,1.9,0.5l-0.4,1c-0.5-0.3-1.1-0.4-1.6-0.4c-0.8,0-1.1,0.3-1.1,0.6c0,1,3.3,0.3,3.3,2.4c0,0.9-0.8,1.7-2.4,1.7
	C64,716.9,63.1,716.6,62.6,716.2z"/>
<path class="st1" d="M75.3,714.3v2.5h-1.2v-2.3c0-0.7-0.3-1-0.8-1c-0.6,0-1,0.4-1,1.1v2.2h-1.2v-2.3c0-0.7-0.3-1-0.8-1
	c-0.6,0-0.9,0.4-0.9,1.1v2.2h-1.2v-4.3h1.2v0.5c0.3-0.4,0.8-0.6,1.4-0.6c0.6,0,1.1,0.2,1.4,0.7c0.3-0.4,0.9-0.7,1.6-0.7
	C74.6,712.4,75.3,713,75.3,714.3z"/>
<path class="st1" d="M80.3,714.3v2.5h-1.2v-0.5c-0.2,0.4-0.7,0.6-1.3,0.6c-1,0-1.6-0.6-1.6-1.3c0-0.8,0.5-1.3,1.8-1.3h1
	c0-0.5-0.3-0.8-1-0.8c-0.5,0-0.9,0.2-1.2,0.4l-0.4-0.9c0.5-0.3,1.2-0.5,1.9-0.5C79.5,712.4,80.3,713,80.3,714.3z M79,715.4V715h-0.9
	c-0.6,0-0.8,0.2-0.8,0.5c0,0.3,0.3,0.5,0.7,0.5C78.5,716,78.9,715.8,79,715.4z"/>
<path class="st1" d="M84.1,712.4v1.2c-0.1,0-0.2,0-0.3,0c-0.7,0-1.1,0.4-1.1,1.2v2h-1.2v-4.3h1.2v0.6
	C82.9,712.6,83.4,712.4,84.1,712.4z"/>
<path class="st1" d="M87.7,716.6c-0.3,0.2-0.6,0.3-1,0.3c-1,0-1.6-0.5-1.6-1.5v-1.8h-0.7v-1h0.7v-1h1.2v1h1.1v1h-1.1v1.8
	c0,0.4,0.2,0.6,0.5,0.6c0.2,0,0.4-0.1,0.5-0.2L87.7,716.6z"/>
<path class="st1" d="M91.9,712.2h-1.8v-1.1H95v1.1h-1.8v4.5h-1.3V712.2z"/>
<path class="st1" d="M101,711.2l-2.4,5.6h-1.3l-2.4-5.6h1.4l1.7,4l1.7-4H101z"/>
<path class="st1" d="M59.4,726.4l-1.4-1.9l-1.3,1.9h-1.5l2.1-2.8l-2-2.8h1.5l1.3,1.8l1.3-1.8h1.4l-2,2.7l2.1,2.9H59.4z"/>
<path class="st1" d="M66.5,724.9c0,1-0.8,1.5-2.2,1.5h-2.9v-5.6h2.7c1.4,0,2.1,0.6,2.1,1.5c0,0.6-0.3,1-0.7,1.2
	C66.1,723.7,66.5,724.2,66.5,724.9z M62.7,721.8v1.3H64c0.6,0,1-0.2,1-0.7s-0.3-0.7-1-0.7H62.7z M65.2,724.7c0-0.5-0.4-0.7-1-0.7
	h-1.5v1.4h1.5C64.9,725.4,65.2,725.2,65.2,724.7z"/>
<path class="st1" d="M67.1,724.2c0-1.3,1-2.2,2.4-2.2s2.4,0.9,2.4,2.2c0,1.3-1,2.2-2.4,2.2S67.1,725.5,67.1,724.2z M70.6,724.2
	c0-0.7-0.5-1.2-1.1-1.2s-1.1,0.4-1.1,1.2c0,0.7,0.5,1.2,1.1,1.2S70.6,725,70.6,724.2z"/>
<path class="st1" d="M75.3,726.4l-0.9-1.3l-1,1.3H72l1.7-2.2l-1.6-2.1h1.4l0.9,1.3l0.9-1.3h1.3l-1.6,2.1l1.7,2.2H75.3z"/>
<path class="st1" d="M81.4,719.7h1.1l-2.6,7.5h-1.1L81.4,719.7z"/>
<path class="st1" d="M89.9,722.8c0,1.2-0.9,2-2.4,2h-1.1v1.5H85v-5.6h2.4C89,720.8,89.9,721.6,89.9,722.8z M88.6,722.8
	c0-0.6-0.4-1-1.2-1h-1.1v1.9h1.1C88.2,723.8,88.6,723.4,88.6,722.8z"/>
<path class="st1" d="M90.5,725.8l0.4-1c0.5,0.3,1.2,0.6,1.8,0.6c0.8,0,1.1-0.3,1.1-0.6c0-1-3.3-0.3-3.3-2.4c0-1,0.8-1.7,2.4-1.7
	c0.7,0,1.4,0.2,1.9,0.5l-0.4,1c-0.5-0.3-1.1-0.4-1.6-0.4c-0.8,0-1.1,0.3-1.1,0.6c0,1,3.3,0.3,3.3,2.4c0,0.9-0.8,1.7-2.4,1.7
	C91.9,726.5,91,726.2,90.5,725.8z"/>
<path class="st1" d="M100.9,725.2h-0.9v1.2h-1.3v-1.2h-3v-0.9l2.6-3.5h1.4l-2.4,3.4h1.5v-1h1.2v1h0.9V725.2z"/>
<path class="st1" d="M67.7,732.4c0,1.2-0.9,2-2.4,2h-1.1v1.5h-1.3v-5.6h2.4C66.8,730.4,67.7,731.2,67.7,732.4z M66.4,732.4
	c0-0.6-0.4-1-1.2-1h-1.1v1.9h1.1C66,733.4,66.4,733,66.4,732.4z"/>
<path class="st1" d="M71.2,731.6v1.2c-0.1,0-0.2,0-0.3,0c-0.7,0-1.1,0.4-1.1,1.2v2h-1.2v-4.3h1.2v0.6
	C70.1,731.8,70.6,731.6,71.2,731.6z"/>
<path class="st1" d="M71.6,733.8c0-1.3,1-2.2,2.4-2.2s2.4,0.9,2.4,2.2c0,1.3-1,2.2-2.4,2.2S71.6,735.1,71.6,733.8z M75.1,733.8
	c0-0.7-0.5-1.2-1.1-1.2s-1.1,0.4-1.1,1.2c0,0.7,0.5,1.2,1.1,1.2S75.1,734.6,75.1,733.8z"/>
<path class="st1" d="M75.9,737.4l0.3-0.9c0.1,0.1,0.3,0.2,0.5,0.2c0.3,0,0.5-0.2,0.5-0.6v-4.3h1.2v4.3c0,1-0.6,1.6-1.6,1.6
	C76.5,737.6,76.1,737.5,75.9,737.4z M77.1,730.4c0-0.4,0.3-0.7,0.8-0.7s0.8,0.3,0.8,0.7c0,0.4-0.3,0.7-0.8,0.7
	S77.1,730.8,77.1,730.4z"/>
<path class="st1" d="M83.8,734.2h-3.3c0.1,0.5,0.6,0.9,1.2,0.9c0.5,0,0.8-0.1,1.1-0.4l0.7,0.7c-0.4,0.5-1,0.7-1.8,0.7
	c-1.5,0-2.5-0.9-2.5-2.2c0-1.3,1-2.2,2.3-2.2c1.3,0,2.2,0.8,2.2,2.2C83.9,734,83.8,734.1,83.8,734.2z M80.6,733.5h2.1
	c-0.1-0.5-0.5-0.9-1.1-0.9C81.1,732.6,80.6,732.9,80.6,733.5z"/>
<path class="st1" d="M84.4,733.8c0-1.3,1-2.2,2.4-2.2c0.9,0,1.6,0.4,1.9,1.1l-1,0.5c-0.2-0.4-0.6-0.6-1-0.6c-0.6,0-1.1,0.4-1.1,1.2
	c0,0.8,0.5,1.2,1.1,1.2c0.4,0,0.7-0.2,1-0.6l1,0.5c-0.3,0.7-1,1.1-1.9,1.1C85.4,736.1,84.4,735.1,84.4,733.8z"/>
<path class="st1" d="M92.3,735.8c-0.3,0.2-0.6,0.3-1,0.3c-1,0-1.6-0.5-1.6-1.5v-1.8H89v-1h0.7v-1h1.2v1h1.1v1h-1.1v1.8
	c0,0.4,0.2,0.6,0.5,0.6c0.2,0,0.4-0.1,0.5-0.2L92.3,735.8z"/>
<path class="st1" d="M92.5,733.8c0-1.3,1-2.2,2.4-2.2s2.4,0.9,2.4,2.2c0,1.3-1,2.2-2.4,2.2S92.5,735.1,92.5,733.8z M96,733.8
	c0-0.7-0.5-1.2-1.1-1.2s-1.1,0.4-1.1,1.2c0,0.7,0.5,1.2,1.1,1.2S96,734.6,96,733.8z"/>
<path class="st1" d="M100.7,731.6v1.2c-0.1,0-0.2,0-0.3,0c-0.7,0-1.1,0.4-1.1,1.2v2h-1.2v-4.3h1.2v0.6
	C99.6,731.8,100.1,731.6,100.7,731.6z"/>
<path class="st1" d="M148.8,376.3l0.7-1.5c0.7,0.5,1.8,0.9,2.8,0.9c1.2,0,1.6-0.4,1.6-0.9c0-1.6-4.9-0.5-4.9-3.6
	c0-1.4,1.2-2.6,3.5-2.6c1.1,0,2.1,0.3,2.9,0.7l-0.6,1.5c-0.8-0.4-1.6-0.7-2.3-0.7c-1.2,0-1.6,0.4-1.6,1c0,1.5,4.9,0.5,4.9,3.6
	c0,1.4-1.2,2.6-3.6,2.6C150.9,377.3,149.5,376.9,148.8,376.3z"/>
<path class="st1" d="M161.1,376.8c-0.4,0.3-0.9,0.4-1.5,0.4c-1.5,0-2.4-0.8-2.4-2.3v-2.7h-1v-1.4h1v-1.6h1.9v1.6h1.6v1.4h-1.6v2.6
	c0,0.6,0.3,0.9,0.8,0.9c0.3,0,0.6-0.1,0.8-0.2L161.1,376.8z"/>
<path class="st1" d="M167.9,373.4v3.7h-1.8v-0.8c-0.3,0.6-1,0.9-2,0.9c-1.5,0-2.4-0.8-2.4-2c0-1.1,0.8-1.9,2.8-1.9h1.5
	c0-0.8-0.5-1.3-1.5-1.3c-0.7,0-1.4,0.2-1.9,0.6l-0.7-1.3c0.7-0.5,1.8-0.8,2.8-0.8C166.8,370.6,167.9,371.5,167.9,373.4z M166,375.1
	v-0.7h-1.3c-0.9,0-1.2,0.3-1.2,0.8c0,0.5,0.4,0.8,1.1,0.8C165.3,375.9,165.8,375.7,166,375.1z"/>
<path class="st1" d="M173.8,376.8c-0.4,0.3-0.9,0.4-1.5,0.4c-1.5,0-2.4-0.8-2.4-2.3v-2.7h-1v-1.4h1v-1.6h1.9v1.6h1.6v1.4h-1.6v2.6
	c0,0.6,0.3,0.9,0.8,0.9c0.3,0,0.6-0.1,0.8-0.2L173.8,376.8z"/>
<path class="st1" d="M174.6,368.7c0-0.6,0.5-1,1.2-1c0.7,0,1.2,0.4,1.2,1c0,0.6-0.5,1.1-1.2,1.1
	C175.1,369.8,174.6,369.3,174.6,368.7z M174.8,370.7h1.9v6.5h-1.9V370.7z"/>
<path class="st1" d="M177.8,376.5l0.6-1.3c0.6,0.4,1.5,0.6,2.2,0.6c0.9,0,1.2-0.2,1.2-0.6c0-1.1-3.9,0-3.9-2.6c0-1.2,1.1-2.1,3-2.1
	c0.9,0,1.9,0.2,2.5,0.6l-0.6,1.3c-0.6-0.4-1.3-0.5-1.9-0.5c-0.8,0-1.2,0.3-1.2,0.6c0,1.1,3.9,0,3.9,2.6c0,1.2-1.1,2.1-3,2.1
	C179.5,377.2,178.4,376.9,177.8,376.5z"/>
<path class="st1" d="M189,376.8c-0.4,0.3-0.9,0.4-1.5,0.4c-1.5,0-2.4-0.8-2.4-2.3v-2.7h-1v-1.4h1v-1.6h1.9v1.6h1.6v1.4h-1.6v2.6
	c0,0.6,0.3,0.9,0.8,0.9c0.3,0,0.6-0.1,0.8-0.2L189,376.8z"/>
<path class="st1" d="M189.8,368.7c0-0.6,0.5-1,1.2-1c0.7,0,1.2,0.4,1.2,1c0,0.6-0.5,1.1-1.2,1.1
	C190.3,369.8,189.8,369.3,189.8,368.7z M190,370.7h1.9v6.5H190V370.7z"/>
<path class="st1" d="M193.1,373.9c0-1.9,1.5-3.3,3.6-3.3c1.4,0,2.4,0.6,2.9,1.6l-1.5,0.8c-0.3-0.6-0.9-0.9-1.5-0.9
	c-0.9,0-1.7,0.7-1.7,1.8s0.7,1.8,1.7,1.8c0.6,0,1.1-0.3,1.5-0.9l1.5,0.8c-0.5,1-1.5,1.6-2.9,1.6
	C194.6,377.2,193.1,375.8,193.1,373.9z"/>
<path class="st1" d="M200.1,376.5l0.6-1.3c0.6,0.4,1.5,0.6,2.2,0.6c0.9,0,1.2-0.2,1.2-0.6c0-1.1-3.9,0-3.9-2.6c0-1.2,1.1-2.1,3-2.1
	c0.9,0,1.9,0.2,2.5,0.6l-0.6,1.3c-0.6-0.4-1.3-0.5-1.9-0.5c-0.8,0-1.2,0.3-1.2,0.6c0,1.1,3.9,0,3.9,2.6c0,1.2-1.1,2.1-3,2.1
	C201.8,377.2,200.7,376.9,200.1,376.5z"/>
<path class="st1" d="M148.9,384.7h-2.7v-1.6h7.3v1.6h-2.7v6.8h-1.9V384.7z"/>
<path class="st1" d="M153.3,388.3c0-1.9,1.5-3.3,3.5-3.3c2.1,0,3.5,1.4,3.5,3.3s-1.5,3.3-3.5,3.3
	C154.8,391.6,153.3,390.2,153.3,388.3z M158.5,388.3c0-1.1-0.7-1.8-1.6-1.8c-0.9,0-1.7,0.7-1.7,1.8c0,1.1,0.7,1.8,1.7,1.8
	C157.7,390.1,158.5,389.4,158.5,388.3z"/>
<path class="st1" d="M168.1,385.1v6.5h-1.8v-0.8c-0.5,0.6-1.2,0.9-2,0.9c-1.6,0-2.8-0.9-2.8-2.9v-3.6h1.9v3.4c0,1.1,0.5,1.6,1.3,1.6
	c0.9,0,1.5-0.6,1.5-1.7v-3.2H168.1z"/>
<path class="st1" d="M173.8,385v1.7c-0.2,0-0.3,0-0.4,0c-1,0-1.7,0.6-1.7,1.8v3h-1.9v-6.5h1.8v0.9C172.1,385.3,172.9,385,173.8,385z
	"/>
<path class="st1" d="M174.4,390.9l0.6-1.3c0.6,0.4,1.5,0.6,2.2,0.6c0.9,0,1.2-0.2,1.2-0.6c0-1.1-3.9,0-3.9-2.6c0-1.2,1.1-2.1,3-2.1
	c0.9,0,1.9,0.2,2.5,0.6l-0.6,1.3c-0.6-0.4-1.3-0.5-1.9-0.5c-0.8,0-1.2,0.3-1.2,0.6c0,1.1,3.9,0,3.9,2.6c0,1.2-1.1,2.1-3,2.1
	C176.1,391.6,175,391.3,174.4,390.9z"/>
<path class="st1" d="M184.9,383.1h1.9v8.4h-1.9V383.1z"/>
<path class="st1" d="M195.3,387.8v3.7h-1.9v-3.4c0-1-0.5-1.5-1.3-1.5c-0.9,0-1.5,0.6-1.5,1.7v3.2h-1.9v-6.5h1.8v0.8
	c0.5-0.6,1.3-0.9,2.1-0.9C194.1,385,195.3,385.9,195.3,387.8z"/>
<path class="st1" d="M199,385.2h1.7v1.4h-1.6v4.9h-1.9v-4.9h-1v-1.4h1v-0.3c0-1.5,0.9-2.4,2.5-2.4c0.5,0,1.1,0.1,1.4,0.3l-0.5,1.4
	c-0.2-0.1-0.5-0.2-0.8-0.2c-0.6,0-0.9,0.3-0.9,0.9V385.2z"/>
<path class="st1" d="M201.1,388.3c0-1.9,1.5-3.3,3.5-3.3c2.1,0,3.5,1.4,3.5,3.3s-1.5,3.3-3.5,3.3
	C202.6,391.6,201.1,390.2,201.1,388.3z M206.3,388.3c0-1.1-0.7-1.8-1.6-1.8c-0.9,0-1.7,0.7-1.7,1.8c0,1.1,0.7,1.8,1.7,1.8
	C205.6,390.1,206.3,389.4,206.3,388.3z"/>
<path class="st1" d="M134.4,400.6c0,1.9-1.4,3-3.6,3h-1.7v2.3h-1.9v-8.4h3.6C133,397.5,134.4,398.7,134.4,400.6z M132.4,400.6
	c0-0.9-0.6-1.5-1.8-1.5h-1.6v2.9h1.6C131.8,402,132.4,401.5,132.4,400.6z"/>
<path class="st1" d="M142.4,402.2v3.7h-1.9v-3.4c0-1-0.5-1.5-1.3-1.5c-0.9,0-1.5,0.6-1.5,1.7v3.2h-1.9V397h1.9v3.1
	c0.5-0.5,1.2-0.8,2.1-0.8C141.2,399.4,142.4,400.2,142.4,402.2z"/>
<path class="st1" d="M143.7,402.7c0-1.9,1.5-3.3,3.5-3.3c2.1,0,3.5,1.4,3.5,3.3s-1.5,3.3-3.5,3.3C145.2,406,143.7,404.6,143.7,402.7
	z M148.9,402.7c0-1.1-0.7-1.8-1.6-1.8c-0.9,0-1.7,0.7-1.7,1.8c0,1.1,0.7,1.8,1.7,1.8C148.2,404.5,148.9,403.8,148.9,402.7z"/>
<path class="st1" d="M156.2,405.6c-0.4,0.3-0.9,0.4-1.5,0.4c-1.5,0-2.4-0.8-2.4-2.3V401h-1v-1.4h1V398h1.9v1.6h1.6v1.4h-1.6v2.6
	c0,0.6,0.3,0.9,0.8,0.9c0.3,0,0.6-0.1,0.8-0.2L156.2,405.6z"/>
<path class="st1" d="M156.5,402.7c0-1.9,1.5-3.3,3.5-3.3c2.1,0,3.5,1.4,3.5,3.3s-1.5,3.3-3.5,3.3C158,406,156.5,404.6,156.5,402.7z
	 M161.7,402.7c0-1.1-0.7-1.8-1.6-1.8c-0.9,0-1.7,0.7-1.7,1.8c0,1.1,0.7,1.8,1.7,1.8C161,404.5,161.7,403.8,161.7,402.7z"/>
<path class="st1" d="M164.3,405.3l0.6-1.3c0.6,0.4,1.5,0.6,2.2,0.6c0.9,0,1.2-0.2,1.2-0.6c0-1.1-3.9,0-3.9-2.6c0-1.2,1.1-2.1,3-2.1
	c0.9,0,1.9,0.2,2.5,0.6l-0.6,1.3c-0.6-0.4-1.3-0.5-1.9-0.5c-0.8,0-1.2,0.3-1.2,0.6c0,1.1,3.9,0,3.9,2.6c0,1.2-1.1,2.1-3,2.1
	C166,406,164.9,405.7,164.3,405.3z"/>
<path class="st1" d="M181.2,406.1l-1-0.9c-0.8,0.6-1.7,0.9-2.8,0.9c-1.8,0-3.2-1-3.2-2.3c0-1.1,0.6-1.8,1.8-2.5
	c-0.6-0.6-0.9-1.2-0.9-1.8c0-1.2,1-2.1,2.6-2.1c1.5,0,2.4,0.7,2.4,1.9c0,0.9-0.5,1.5-1.6,2.1l1.5,1.4c0.2-0.4,0.3-0.8,0.4-1.3
	l1.5,0.5c-0.2,0.7-0.4,1.4-0.8,1.9l1,0.9L181.2,406.1z M179.1,404.1l-2-1.9c-0.8,0.4-1,0.8-1,1.3c0,0.6,0.6,1,1.5,1
	C178.1,404.6,178.7,404.4,179.1,404.1z M176.9,399.4c0,0.3,0.1,0.6,0.6,1.1c0.8-0.4,1.1-0.8,1.1-1.1c0-0.4-0.3-0.7-0.8-0.7
	C177.2,398.7,176.9,399,176.9,399.4z"/>
<path class="st1" d="M195,397.5l-3.6,8.4h-1.9l-3.6-8.4h2.1l2.6,6l2.6-6H195z"/>
<path class="st1" d="M195.5,397.5c0-0.6,0.5-1,1.2-1c0.7,0,1.2,0.4,1.2,1c0,0.6-0.5,1.1-1.2,1.1
	C195.9,398.6,195.5,398.1,195.5,397.5z M195.7,399.5h1.9v6.5h-1.9V399.5z"/>
<path class="st1" d="M205.9,397v8.9h-1.8v-0.7c-0.5,0.6-1.2,0.8-2,0.8c-1.8,0-3.2-1.3-3.2-3.3s1.4-3.3,3.2-3.3
	c0.8,0,1.5,0.3,1.9,0.8V397H205.9z M204,402.7c0-1.1-0.7-1.8-1.6-1.8c-0.9,0-1.7,0.7-1.7,1.8c0,1.1,0.7,1.8,1.7,1.8
	C203.3,404.5,204,403.8,204,402.7z"/>
<path class="st1" d="M213.9,403.2H209c0.2,0.8,0.9,1.3,1.8,1.3c0.7,0,1.2-0.2,1.6-0.6l1,1.1c-0.6,0.7-1.5,1-2.7,1
	c-2.2,0-3.7-1.4-3.7-3.3c0-1.9,1.5-3.3,3.4-3.3c1.9,0,3.4,1.3,3.4,3.3C213.9,402.9,213.9,403.1,213.9,403.2z M209,402.1h3.2
	c-0.1-0.8-0.7-1.3-1.6-1.3C209.7,400.8,209.1,401.3,209,402.1z"/>
<path class="st1" d="M214.7,402.7c0-1.9,1.5-3.3,3.6-3.3c2.1,0,3.5,1.4,3.5,3.3s-1.5,3.3-3.5,3.3C216.2,406,214.7,404.6,214.7,402.7
	z M219.9,402.7c0-1.1-0.7-1.8-1.6-1.8c-0.9,0-1.7,0.7-1.7,1.8c0,1.1,0.7,1.8,1.7,1.8C219.2,404.5,219.9,403.8,219.9,402.7z"/>
<path class="st1" d="M222.4,405.3l0.6-1.3c0.6,0.4,1.5,0.6,2.2,0.6c0.9,0,1.2-0.2,1.2-0.6c0-1.1-3.9,0-3.9-2.6c0-1.2,1.1-2.1,3-2.1
	c0.9,0,1.9,0.2,2.5,0.6l-0.6,1.3c-0.6-0.4-1.3-0.5-1.9-0.5c-0.8,0-1.2,0.3-1.2,0.6c0,1.1,3.9,0,3.9,2.6c0,1.2-1.1,2.1-3,2.1
	C224.1,406,223,405.7,222.4,405.3z"/>
<path class="st1" d="M406.7,684.8v1.5h2.6v1h-2.6v2h-1.3v-5.6h4.2v1H406.7z"/>
<path class="st1" d="M414.1,686.9v2.5H413v-0.5c-0.2,0.4-0.7,0.6-1.3,0.6c-1,0-1.6-0.6-1.6-1.3c0-0.8,0.5-1.3,1.8-1.3h1
	c0-0.5-0.3-0.8-1-0.8c-0.5,0-0.9,0.2-1.2,0.4l-0.4-0.9c0.5-0.3,1.2-0.5,1.9-0.5C413.4,685,414.1,685.6,414.1,686.9z M412.9,688v-0.4
	H412c-0.6,0-0.8,0.2-0.8,0.5c0,0.3,0.3,0.5,0.7,0.5C412.4,688.6,412.7,688.4,412.9,688z"/>
<path class="st1" d="M415,687.2c0-1.3,1-2.2,2.4-2.2c0.9,0,1.6,0.4,1.9,1.1l-1,0.5c-0.2-0.4-0.6-0.6-1-0.6c-0.6,0-1.1,0.4-1.1,1.2
	c0,0.8,0.5,1.2,1.1,1.2c0.4,0,0.7-0.2,1-0.6l1,0.5c-0.3,0.7-1,1.1-1.9,1.1C416,689.5,415,688.5,415,687.2z"/>
<path class="st1" d="M424.2,687.6h-3.3c0.1,0.5,0.6,0.9,1.2,0.9c0.5,0,0.8-0.1,1.1-0.4l0.7,0.7c-0.4,0.5-1,0.7-1.8,0.7
	c-1.5,0-2.5-0.9-2.5-2.2c0-1.3,1-2.2,2.3-2.2c1.3,0,2.2,0.8,2.2,2.2C424.2,687.4,424.2,687.5,424.2,687.6z M420.9,686.9h2.1
	c-0.1-0.5-0.5-0.9-1.1-0.9C421.4,686,421,686.3,420.9,686.9z"/>
<path class="st1" d="M429.7,687.2c0,1.4-0.9,2.2-2.1,2.2c-0.6,0-1-0.2-1.4-0.6v0.5H425v-5.9h1.2v2.1c0.3-0.4,0.8-0.5,1.3-0.5
	C428.8,685,429.7,685.9,429.7,687.2z M428.5,687.2c0-0.7-0.5-1.2-1.1-1.2s-1.1,0.4-1.1,1.2c0,0.7,0.5,1.2,1.1,1.2
	S428.5,688,428.5,687.2z"/>
<path class="st1" d="M430.2,687.2c0-1.3,1-2.2,2.4-2.2c1.4,0,2.4,0.9,2.4,2.2c0,1.3-1,2.2-2.4,2.2
	C431.2,689.5,430.2,688.5,430.2,687.2z M433.7,687.2c0-0.7-0.5-1.2-1.1-1.2c-0.6,0-1.1,0.4-1.1,1.2c0,0.7,0.5,1.2,1.1,1.2
	C433.2,688.4,433.7,688,433.7,687.2z"/>
<path class="st1" d="M435.5,687.2c0-1.3,1-2.2,2.4-2.2c1.4,0,2.4,0.9,2.4,2.2c0,1.3-1,2.2-2.4,2.2
	C436.5,689.5,435.5,688.5,435.5,687.2z M438.9,687.2c0-0.7-0.5-1.2-1.1-1.2c-0.6,0-1.1,0.4-1.1,1.2c0,0.7,0.5,1.2,1.1,1.2
	C438.5,688.4,438.9,688,438.9,687.2z"/>
<path class="st1" d="M442.9,687.7l-0.6,0.6v1.1H441v-5.9h1.2v3.4l1.8-1.7h1.5l-1.8,1.8l2,2.5h-1.5L442.9,687.7z"/>
<path class="st1" d="M405.4,693.4h1.3v5.6h-1.3V693.4z"/>
<path class="st1" d="M412.4,696.5v2.5h-1.2v-2.3c0-0.7-0.3-1-0.9-1c-0.6,0-1,0.4-1,1.2v2.1H408v-4.3h1.2v0.5
	c0.3-0.4,0.8-0.6,1.4-0.6C411.6,694.6,412.4,695.2,412.4,696.5z"/>
<path class="st1" d="M413.1,698.6l0.4-0.9c0.4,0.2,1,0.4,1.5,0.4c0.6,0,0.8-0.2,0.8-0.4c0-0.7-2.6,0-2.6-1.7c0-0.8,0.7-1.4,2-1.4
	c0.6,0,1.2,0.1,1.7,0.4l-0.4,0.9c-0.4-0.2-0.8-0.3-1.2-0.3c-0.6,0-0.8,0.2-0.8,0.4c0,0.7,2.6,0,2.6,1.7c0,0.8-0.7,1.4-2,1.4
	C414.2,699.1,413.5,698.9,413.1,698.6z"/>
<path class="st1" d="M420.5,698.8c-0.3,0.2-0.6,0.3-1,0.3c-1,0-1.6-0.5-1.6-1.5v-1.8h-0.7v-1h0.7v-1h1.2v1h1.1v1h-1.1v1.8
	c0,0.4,0.2,0.6,0.5,0.6c0.2,0,0.4-0.1,0.5-0.2L420.5,698.8z"/>
<path class="st1" d="M425,696.5v2.5h-1.2v-0.5c-0.2,0.4-0.7,0.6-1.3,0.6c-1,0-1.6-0.6-1.6-1.3c0-0.8,0.5-1.3,1.8-1.3h1
	c0-0.5-0.3-0.8-1-0.8c-0.5,0-0.9,0.2-1.2,0.4l-0.4-0.9c0.5-0.3,1.2-0.5,1.9-0.5C424.3,694.6,425,695.2,425,696.5z M423.8,697.6v-0.4
	h-0.9c-0.6,0-0.8,0.2-0.8,0.5c0,0.3,0.3,0.5,0.7,0.5C423.3,698.2,423.6,698,423.8,697.6z"/>
<path class="st1" d="M430.6,694.7v3.6c0,1.6-0.9,2.3-2.4,2.3c-0.8,0-1.6-0.2-2.1-0.6l0.5-0.9c0.4,0.3,1,0.5,1.5,0.5
	c0.9,0,1.3-0.4,1.3-1.2v-0.2c-0.3,0.4-0.8,0.5-1.4,0.5c-1.2,0-2.2-0.8-2.2-2.1c0-1.3,1-2.1,2.2-2.1c0.6,0,1.1,0.2,1.4,0.6v-0.6
	H430.6z M429.4,696.7c0-0.6-0.5-1.1-1.1-1.1c-0.7,0-1.1,0.4-1.1,1.1c0,0.6,0.5,1.1,1.1,1.1C428.9,697.8,429.4,697.3,429.4,696.7z"/>
<path class="st1" d="M434.5,694.6v1.2c-0.1,0-0.2,0-0.3,0c-0.7,0-1.1,0.4-1.1,1.2v2h-1.2v-4.3h1.2v0.6
	C433.3,694.8,433.8,694.6,434.5,694.6z"/>
<path class="st1" d="M439,696.5v2.5h-1.2v-0.5c-0.2,0.4-0.7,0.6-1.3,0.6c-1,0-1.6-0.6-1.6-1.3c0-0.8,0.5-1.3,1.8-1.3h1
	c0-0.5-0.3-0.8-1-0.8c-0.5,0-0.9,0.2-1.2,0.4l-0.4-0.9c0.5-0.3,1.2-0.5,1.9-0.5C438.2,694.6,439,695.2,439,696.5z M437.8,697.6v-0.4
	h-0.9c-0.6,0-0.8,0.2-0.8,0.5c0,0.3,0.3,0.5,0.7,0.5C437.2,698.2,437.6,698,437.8,697.6z"/>
<path class="st1" d="M447.4,696.5v2.5h-1.2v-2.3c0-0.7-0.3-1-0.8-1c-0.6,0-1,0.4-1,1.1v2.2h-1.2v-2.3c0-0.7-0.3-1-0.8-1
	c-0.6,0-0.9,0.4-0.9,1.1v2.2h-1.2v-4.3h1.2v0.5c0.3-0.4,0.8-0.6,1.4-0.6c0.6,0,1.1,0.2,1.4,0.7c0.3-0.4,0.9-0.7,1.6-0.7
	C446.7,694.6,447.4,695.2,447.4,696.5z"/>
<path class="st1" d="M406.6,704.1h-1.8V703h4.9v1.1h-1.8v4.5h-1.3V704.1z"/>
<path class="st1" d="M416.9,704.3l-1.6,4.3h-1.2l-1-2.7l-1,2.7H411l-1.6-4.3h1.2l1,2.9l1.1-2.9h1.1l1,2.9l1-2.9H416.9z"/>
<path class="st1" d="M417.4,703c0-0.4,0.3-0.7,0.8-0.7s0.8,0.3,0.8,0.7c0,0.4-0.3,0.7-0.8,0.7S417.4,703.4,417.4,703z M417.5,704.3
	h1.2v4.3h-1.2V704.3z"/>
<path class="st1" d="M422.7,708.4c-0.3,0.2-0.6,0.3-1,0.3c-1,0-1.6-0.5-1.6-1.5v-1.8h-0.7v-1h0.7v-1h1.2v1h1.1v1h-1.1v1.8
	c0,0.4,0.2,0.6,0.5,0.6c0.2,0,0.4-0.1,0.5-0.2L422.7,708.4z"/>
<path class="st1" d="M426.1,708.4c-0.3,0.2-0.6,0.3-1,0.3c-1,0-1.6-0.5-1.6-1.5v-1.8h-0.7v-1h0.7v-1h1.2v1h1.1v1h-1.1v1.8
	c0,0.4,0.2,0.6,0.5,0.6c0.2,0,0.4-0.1,0.5-0.2L426.1,708.4z"/>
<path class="st1" d="M430.8,706.8h-3.3c0.1,0.5,0.6,0.9,1.2,0.9c0.5,0,0.8-0.1,1.1-0.4l0.7,0.7c-0.4,0.5-1,0.7-1.8,0.7
	c-1.5,0-2.5-0.9-2.5-2.2c0-1.3,1-2.2,2.3-2.2c1.3,0,2.2,0.8,2.2,2.2C430.9,706.6,430.9,706.7,430.8,706.8z M427.6,706.1h2.1
	c-0.1-0.5-0.5-0.9-1.1-0.9C428.1,705.2,427.7,705.5,427.6,706.1z"/>
<path class="st1" d="M434.4,704.2v1.2c-0.1,0-0.2,0-0.3,0c-0.7,0-1.1,0.4-1.1,1.2v2h-1.2v-4.3h1.2v0.6
	C433.2,704.4,433.7,704.2,434.4,704.2z"/>
<path class="st1" d="M405.2,714.4h2.3v1h-2.3V714.4z"/>
<path class="st1" d="M408.3,714.4h2.3v1h-2.3V714.4z"/>
<path class="st1" d="M411.4,714.4h2.3v1h-2.3V714.4z"/>
<path class="st1" d="M409.8,726.8v1h-4.3v-5.6h4.2v1h-2.9v1.2h2.6v1h-2.6v1.3H409.8z"/>
<path class="st1" d="M410.4,725h2.3v1h-2.3V725z"/>
<path class="st1" d="M420.9,725.3v2.5h-1.2v-2.3c0-0.7-0.3-1-0.8-1c-0.6,0-1,0.4-1,1.1v2.2h-1.2v-2.3c0-0.7-0.3-1-0.8-1
	c-0.6,0-0.9,0.4-0.9,1.1v2.2h-1.2v-4.3h1.2v0.5c0.3-0.4,0.8-0.6,1.4-0.6c0.6,0,1.1,0.2,1.4,0.7c0.3-0.4,0.9-0.7,1.6-0.7
	C420.2,723.4,420.9,724,420.9,725.3z"/>
<path class="st1" d="M425.8,725.3v2.5h-1.2v-0.5c-0.2,0.4-0.7,0.6-1.3,0.6c-1,0-1.6-0.6-1.6-1.3c0-0.8,0.5-1.3,1.8-1.3h1
	c0-0.5-0.3-0.8-1-0.8c-0.5,0-0.9,0.2-1.2,0.4l-0.4-0.9c0.5-0.3,1.2-0.5,1.9-0.5C425.1,723.4,425.8,724,425.8,725.3z M424.6,726.4
	V726h-0.9c-0.6,0-0.8,0.2-0.8,0.5c0,0.3,0.3,0.5,0.7,0.5C424.1,727,424.4,726.8,424.6,726.4z"/>
<path class="st1" d="M426.8,722.2c0-0.4,0.3-0.7,0.8-0.7s0.8,0.3,0.8,0.7c0,0.4-0.3,0.7-0.8,0.7S426.8,722.6,426.8,722.2z
	 M427,723.5h1.2v4.3H427V723.5z"/>
<path class="st1" d="M429.4,721.9h1.2v5.9h-1.2V721.9z"/>
<path class="st1" d="M317.9,368.7h1.9v8.4h-1.9V368.7z"/>
<path class="st1" d="M328.3,373.4v3.7h-1.9v-3.4c0-1-0.5-1.5-1.3-1.5c-0.9,0-1.5,0.6-1.5,1.7v3.2h-1.9v-6.5h1.8v0.8
	c0.5-0.6,1.3-0.9,2.1-0.9C327.2,370.6,328.3,371.5,328.3,373.4z"/>
<path class="st1" d="M332.1,370.8h1.7v1.4h-1.6v4.9h-1.9v-4.9h-1v-1.4h1v-0.3c0-1.5,0.9-2.4,2.5-2.4c0.5,0,1.1,0.1,1.4,0.3l-0.5,1.4
	c-0.2-0.1-0.5-0.2-0.8-0.2c-0.6,0-0.9,0.3-0.9,0.9V370.8z"/>
<path class="st1" d="M334.1,373.9c0-1.9,1.5-3.3,3.5-3.3s3.5,1.4,3.5,3.3s-1.5,3.3-3.5,3.3S334.1,375.8,334.1,373.9z M339.3,373.9
	c0-1.1-0.7-1.8-1.6-1.8s-1.7,0.7-1.7,1.8c0,1.1,0.7,1.8,1.7,1.8S339.3,375,339.3,373.9z"/>
<path class="st1" d="M299.8,386.2c0,1.9-1.4,3-3.6,3h-1.7v2.3h-1.9v-8.4h3.6C298.4,383.1,299.8,384.3,299.8,386.2z M297.9,386.2
	c0-0.9-0.6-1.5-1.8-1.5h-1.6v2.9h1.6C297.3,387.6,297.9,387.1,297.9,386.2z"/>
<path class="st1" d="M305.1,385v1.7c-0.2,0-0.3,0-0.4,0c-1,0-1.7,0.6-1.7,1.8v3h-1.9v-6.5h1.8v0.9C303.3,385.3,304.1,385,305.1,385z
	"/>
<path class="st1" d="M312.4,388.8h-4.9c0.2,0.8,0.9,1.3,1.8,1.3c0.7,0,1.2-0.2,1.6-0.6l1,1.1c-0.6,0.7-1.5,1-2.7,1
	c-2.2,0-3.7-1.4-3.7-3.3c0-1.9,1.5-3.3,3.4-3.3c1.9,0,3.4,1.3,3.4,3.3C312.5,388.5,312.4,388.7,312.4,388.8z M307.5,387.7h3.2
	c-0.1-0.8-0.7-1.3-1.6-1.3C308.3,386.4,307.7,386.9,307.5,387.7z"/>
<path class="st1" d="M315.8,385.2h1.7v1.4h-1.6v4.9h-1.9v-4.9h-1v-1.4h1v-0.3c0-1.5,0.9-2.4,2.5-2.4c0.5,0,1.1,0.1,1.4,0.3l-0.5,1.4
	c-0.2-0.1-0.5-0.2-0.8-0.2c-0.6,0-0.9,0.3-0.9,0.9V385.2z"/>
<path class="st1" d="M324.6,388.8h-4.9c0.2,0.8,0.9,1.3,1.8,1.3c0.7,0,1.2-0.2,1.6-0.6l1,1.1c-0.6,0.7-1.5,1-2.7,1
	c-2.2,0-3.7-1.4-3.7-3.3c0-1.9,1.5-3.3,3.4-3.3c1.9,0,3.4,1.3,3.4,3.3C324.6,388.5,324.6,388.7,324.6,388.8z M319.7,387.7h3.2
	c-0.1-0.8-0.7-1.3-1.6-1.3C320.4,386.4,319.8,386.9,319.7,387.7z"/>
<path class="st1" d="M329.9,385v1.7c-0.2,0-0.3,0-0.4,0c-1,0-1.7,0.6-1.7,1.8v3h-1.9v-6.5h1.8v0.9C328.1,385.3,328.9,385,329.9,385z
	"/>
<path class="st1" d="M337.2,388.8h-4.9c0.2,0.8,0.9,1.3,1.8,1.3c0.7,0,1.2-0.2,1.6-0.6l1,1.1c-0.6,0.7-1.5,1-2.7,1
	c-2.2,0-3.7-1.4-3.7-3.3c0-1.9,1.5-3.3,3.4-3.3c1.9,0,3.4,1.3,3.4,3.3C337.2,388.5,337.2,388.7,337.2,388.8z M332.3,387.7h3.2
	c-0.1-0.8-0.7-1.3-1.6-1.3C333,386.4,332.4,386.9,332.3,387.7z"/>
<path class="st1" d="M345.1,387.8v3.7h-1.9v-3.4c0-1-0.5-1.5-1.3-1.5c-0.9,0-1.5,0.6-1.5,1.7v3.2h-1.9v-6.5h1.8v0.8
	c0.5-0.6,1.3-0.9,2.1-0.9C343.9,385,345.1,385.9,345.1,387.8z"/>
<path class="st1" d="M346.4,388.3c0-1.9,1.5-3.3,3.6-3.3c1.4,0,2.4,0.6,2.9,1.6l-1.5,0.8c-0.3-0.6-0.9-0.9-1.5-0.9
	c-0.9,0-1.7,0.7-1.7,1.8s0.7,1.8,1.7,1.8c0.6,0,1.1-0.3,1.5-0.9l1.5,0.8c-0.5,1-1.5,1.6-2.9,1.6
	C347.9,391.6,346.4,390.2,346.4,388.3z"/>
<path class="st1" d="M360.2,388.8h-4.9c0.2,0.8,0.9,1.3,1.8,1.3c0.7,0,1.2-0.2,1.6-0.6l1,1.1c-0.6,0.7-1.5,1-2.7,1
	c-2.2,0-3.7-1.4-3.7-3.3c0-1.9,1.5-3.3,3.4-3.3c1.9,0,3.4,1.3,3.4,3.3C360.2,388.5,360.2,388.7,360.2,388.8z M355.3,387.7h3.2
	c-0.1-0.8-0.7-1.3-1.6-1.3C356,386.4,355.4,386.9,355.3,387.7z"/>
<path class="st1" d="M360.8,390.9l0.6-1.3c0.6,0.4,1.5,0.6,2.2,0.6c0.9,0,1.2-0.2,1.2-0.6c0-1.1-3.9,0-3.9-2.6c0-1.2,1.1-2.1,3-2.1
	c0.9,0,1.9,0.2,2.5,0.6l-0.6,1.3c-0.6-0.4-1.3-0.5-1.9-0.5c-0.8,0-1.2,0.3-1.2,0.6c0,1.1,3.9,0,3.9,2.6c0,1.2-1.1,2.1-3,2.1
	C362.5,391.6,361.4,391.3,360.8,390.9z"/>
<path class="st1" d="M315.3,405.9l-1.6-2.3h-0.1h-1.7v2.3H310v-8.4h3.6c2.2,0,3.6,1.2,3.6,3c0,1.3-0.6,2.2-1.7,2.7l1.9,2.7H315.3z
	 M313.5,399.1h-1.6v2.9h1.6c1.2,0,1.8-0.6,1.8-1.5C315.3,399.6,314.7,399.1,313.5,399.1z"/>
<path class="st1" d="M317.5,402.7c0-1.9,1.5-3.3,3.5-3.3s3.5,1.4,3.5,3.3s-1.5,3.3-3.5,3.3S317.5,404.6,317.5,402.7z M322.7,402.7
	c0-1.1-0.7-1.8-1.6-1.8s-1.7,0.7-1.7,1.8c0,1.1,0.7,1.8,1.7,1.8S322.7,403.8,322.7,402.7z"/>
<path class="st1" d="M331.7,399.5v6.5h-1.8v-0.8c-0.5,0.6-1.2,0.9-2,0.9c-1.6,0-2.8-0.9-2.8-2.9v-3.6h1.9v3.4c0,1.1,0.5,1.6,1.3,1.6
	c0.9,0,1.5-0.6,1.5-1.7v-3.2H331.7z"/>
<path class="st1" d="M337,405.6c-0.4,0.3-0.9,0.4-1.5,0.4c-1.5,0-2.4-0.8-2.4-2.3V401h-1v-1.4h1V398h1.9v1.6h1.6v1.4h-1.6v2.6
	c0,0.6,0.3,0.9,0.8,0.9c0.3,0,0.6-0.1,0.8-0.2L337,405.6z"/>
<path class="st1" d="M343.6,403.2h-4.9c0.2,0.8,0.9,1.3,1.8,1.3c0.7,0,1.2-0.2,1.6-0.6l1,1.1c-0.6,0.7-1.5,1-2.7,1
	c-2.2,0-3.7-1.4-3.7-3.3c0-1.9,1.5-3.3,3.4-3.3c1.9,0,3.4,1.3,3.4,3.3C343.7,402.9,343.7,403.1,343.6,403.2z M338.7,402.1h3.2
	c-0.1-0.8-0.7-1.3-1.6-1.3C339.5,400.8,338.9,401.3,338.7,402.1z"/>
<path class="st1" d="M343.7,405.3l0.6-1.3c0.6,0.4,1.5,0.6,2.2,0.6c0.9,0,1.2-0.2,1.2-0.6c0-1.1-3.9,0-3.9-2.6c0-1.2,1.1-2.1,3-2.1
	c0.9,0,1.9,0.2,2.5,0.6l-0.6,1.3c-0.6-0.4-1.3-0.5-1.9-0.5c-0.8,0-1.2,0.3-1.2,0.6c0,1.1,3.9,0,3.9,2.6c0,1.2-1.1,2.1-3,2.1
	C345.4,406,344.3,405.7,343.7,405.3z"/>
<path class="st1" d="M163.3,571.3h-3.9l-0.7,1.8h-2l3.7-8.4h1.9l3.8,8.4h-2L163.3,571.3z M162.7,569.8l-1.3-3.2l-1.3,3.2H162.7z"/>
<path class="st1" d="M173.3,566.7v6.5h-1.8v-0.8c-0.5,0.6-1.2,0.9-2,0.9c-1.6,0-2.8-0.9-2.8-2.9v-3.6h1.9v3.4c0,1.1,0.5,1.6,1.3,1.6
	c0.9,0,1.5-0.6,1.5-1.7v-3.2H173.3z"/>
<path class="st1" d="M179.2,572.8c-0.4,0.3-0.9,0.4-1.5,0.4c-1.5,0-2.4-0.8-2.4-2.3v-2.7h-1v-1.4h1v-1.6h1.9v1.6h1.6v1.4h-1.6v2.6
	c0,0.6,0.3,0.9,0.8,0.9c0.3,0,0.6-0.1,0.8-0.2L179.2,572.8z"/>
<path class="st1" d="M179.8,569.9c0-1.9,1.5-3.3,3.5-3.3c2.1,0,3.5,1.4,3.5,3.3c0,1.9-1.5,3.3-3.5,3.3
	C181.3,573.2,179.8,571.8,179.8,569.9z M185,569.9c0-1.1-0.7-1.8-1.6-1.8c-0.9,0-1.7,0.7-1.7,1.8s0.7,1.8,1.7,1.8
	C184.3,571.7,185,571,185,569.9z"/>
<path class="st1" d="M198.2,566.7v5.4c0,2.4-1.3,3.5-3.6,3.5c-1.2,0-2.4-0.3-3.2-0.9l0.7-1.3c0.6,0.4,1.5,0.7,2.3,0.7
	c1.3,0,1.9-0.6,1.9-1.8V572c-0.5,0.5-1.2,0.8-2,0.8c-1.8,0-3.2-1.2-3.2-3.1c0-1.9,1.4-3.1,3.2-3.1c0.9,0,1.6,0.3,2.1,0.9v-0.8H198.2
	z M196.4,569.7c0-0.9-0.7-1.6-1.7-1.6s-1.7,0.6-1.7,1.6c0,0.9,0.7,1.6,1.7,1.6S196.4,570.6,196.4,569.7z"/>
<path class="st1" d="M206.2,570.4h-4.9c0.2,0.8,0.9,1.3,1.8,1.3c0.7,0,1.2-0.2,1.6-0.6l1,1.1c-0.6,0.7-1.5,1-2.7,1
	c-2.2,0-3.7-1.4-3.7-3.3c0-1.9,1.5-3.3,3.4-3.3c1.9,0,3.4,1.3,3.4,3.3C206.3,570.1,206.3,570.3,206.2,570.4z M201.3,569.3h3.2
	c-0.1-0.8-0.7-1.3-1.6-1.3C202.1,568,201.5,568.5,201.3,569.3z"/>
<path class="st1" d="M214.1,569.4v3.7h-1.9v-3.4c0-1-0.5-1.5-1.3-1.5c-0.9,0-1.5,0.6-1.5,1.7v3.2h-1.9v-6.5h1.8v0.8
	c0.5-0.6,1.3-0.9,2.1-0.9C213,566.6,214.1,567.5,214.1,569.4z"/>
<path class="st1" d="M222.1,570.4h-4.9c0.2,0.8,0.9,1.3,1.8,1.3c0.7,0,1.2-0.2,1.6-0.6l1,1.1c-0.6,0.7-1.5,1-2.7,1
	c-2.2,0-3.7-1.4-3.7-3.3c0-1.9,1.5-3.3,3.4-3.3c1.9,0,3.4,1.3,3.4,3.3C222.1,570.1,222.1,570.3,222.1,570.4z M217.2,569.3h3.2
	c-0.1-0.8-0.7-1.3-1.6-1.3C217.9,568,217.3,568.5,217.2,569.3z"/>
<path class="st1" d="M227.4,566.6v1.7c-0.2,0-0.3,0-0.4,0c-1,0-1.7,0.6-1.7,1.8v3h-1.9v-6.5h1.8v0.9
	C225.6,566.9,226.4,566.6,227.4,566.6z"/>
<path class="st1" d="M234.3,569.4v3.7h-1.8v-0.8c-0.3,0.6-1,0.9-2,0.9c-1.5,0-2.4-0.8-2.4-2c0-1.1,0.8-1.9,2.8-1.9h1.5
	c0-0.8-0.5-1.3-1.5-1.3c-0.7,0-1.4,0.2-1.9,0.6l-0.7-1.3c0.7-0.5,1.8-0.8,2.8-0.8C233.1,566.6,234.3,567.5,234.3,569.4z
	 M232.4,571.1v-0.7h-1.3c-0.9,0-1.2,0.3-1.2,0.8c0,0.5,0.4,0.8,1.1,0.8C231.7,572,232.2,571.7,232.4,571.1z"/>
<path class="st1" d="M240.1,572.8c-0.4,0.3-0.9,0.4-1.5,0.4c-1.5,0-2.4-0.8-2.4-2.3v-2.7h-1v-1.4h1v-1.6h1.9v1.6h1.6v1.4h-1.6v2.6
	c0,0.6,0.3,0.9,0.8,0.9c0.3,0,0.6-0.1,0.8-0.2L240.1,572.8z"/>
<path class="st1" d="M247.5,570.4h-4.9c0.2,0.8,0.9,1.3,1.8,1.3c0.7,0,1.2-0.2,1.6-0.6l1,1.1c-0.6,0.7-1.5,1-2.7,1
	c-2.2,0-3.7-1.4-3.7-3.3c0-1.9,1.5-3.3,3.4-3.3c1.9,0,3.4,1.3,3.4,3.3C247.5,570.1,247.5,570.3,247.5,570.4z M242.6,569.3h3.2
	c-0.1-0.8-0.7-1.3-1.6-1.3C243.3,568,242.7,568.5,242.6,569.3z"/>
<path class="st1" d="M248.1,572.5l0.6-1.3c0.6,0.4,1.5,0.6,2.2,0.6c0.9,0,1.2-0.2,1.2-0.6c0-1.1-3.9,0-3.9-2.6c0-1.2,1.1-2.1,3-2.1
	c0.9,0,1.9,0.2,2.5,0.6l-0.6,1.3c-0.6-0.4-1.3-0.5-1.9-0.5c-0.8,0-1.2,0.3-1.2,0.6c0,1.1,3.9,0,3.9,2.6c0,1.2-1.1,2.1-3,2.1
	C249.8,573.2,248.7,572.9,248.1,572.5z"/>
<path class="st1" d="M264.2,569.4v3.7h-1.8v-0.8c-0.3,0.6-1,0.9-2,0.9c-1.5,0-2.4-0.8-2.4-2c0-1.1,0.8-1.9,2.8-1.9h1.5
	c0-0.8-0.5-1.3-1.5-1.3c-0.7,0-1.4,0.2-1.9,0.6l-0.7-1.3c0.7-0.5,1.8-0.8,2.8-0.8C263.1,566.6,264.2,567.5,264.2,569.4z
	 M262.4,571.1v-0.7h-1.3c-0.9,0-1.2,0.3-1.2,0.8c0,0.5,0.4,0.8,1.1,0.8C261.6,572,262.2,571.7,262.4,571.1z"/>
<path class="st1" d="M268.8,572.3l0.7-1.5c0.7,0.5,1.8,0.9,2.8,0.9c1.2,0,1.6-0.4,1.6-0.9c0-1.6-4.9-0.5-4.9-3.6
	c0-1.4,1.2-2.6,3.5-2.6c1.1,0,2.1,0.3,2.9,0.7l-0.6,1.5c-0.8-0.4-1.6-0.7-2.3-0.7c-1.2,0-1.6,0.4-1.6,1c0,1.5,4.9,0.5,4.9,3.6
	c0,1.4-1.2,2.6-3.6,2.6C270.9,573.3,269.5,572.9,268.8,572.3z"/>
<path class="st1" d="M281.1,572.8c-0.4,0.3-0.9,0.4-1.5,0.4c-1.5,0-2.4-0.8-2.4-2.3v-2.7h-1v-1.4h1v-1.6h1.9v1.6h1.6v1.4h-1.6v2.6
	c0,0.6,0.3,0.9,0.8,0.9c0.3,0,0.6-0.1,0.8-0.2L281.1,572.8z"/>
<path class="st1" d="M281.7,569.9c0-1.9,1.5-3.3,3.5-3.3s3.5,1.4,3.5,3.3c0,1.9-1.5,3.3-3.5,3.3S281.7,571.8,281.7,569.9z
	 M286.9,569.9c0-1.1-0.7-1.8-1.6-1.8s-1.7,0.7-1.7,1.8s0.7,1.8,1.7,1.8S286.9,571,286.9,569.9z"/>
<path class="st1" d="M294.1,566.6v1.7c-0.2,0-0.3,0-0.4,0c-1,0-1.7,0.6-1.7,1.8v3h-1.9v-6.5h1.8v0.9
	C292.3,566.9,293.1,566.6,294.1,566.6z"/>
<path class="st1" d="M301.6,566.7l-2.9,6.8c-0.6,1.6-1.5,2-2.7,2c-0.7,0-1.4-0.2-1.8-0.6l0.7-1.3c0.3,0.3,0.7,0.4,1.1,0.4
	c0.5,0,0.8-0.2,1.1-0.8l0-0.1l-2.8-6.5h1.9l1.8,4.4l1.8-4.4H301.6z"/>
<path class="st1" d="M304.3,565.3c0,0.3,0,0.5-0.3,1.2l-0.7,1.7h-1.2l0.5-1.9c-0.4-0.2-0.6-0.5-0.6-1c0-0.7,0.5-1.2,1.2-1.2
	C303.8,564.1,304.3,564.6,304.3,565.3z"/>
<path class="st1" d="M304.9,572.5l0.6-1.3c0.6,0.4,1.5,0.6,2.2,0.6c0.9,0,1.2-0.2,1.2-0.6c0-1.1-3.9,0-3.9-2.6c0-1.2,1.1-2.1,3-2.1
	c0.9,0,1.9,0.2,2.5,0.6l-0.6,1.3c-0.6-0.4-1.3-0.5-1.9-0.5c-0.8,0-1.2,0.3-1.2,0.6c0,1.1,3.9,0,3.9,2.6c0,1.2-1.1,2.1-3,2.1
	C306.6,573.2,305.5,572.9,304.9,572.5z"/>
<path class="st1" d="M321.7,566.7l-2.7,6.5h-1.9l-2.7-6.5h1.9l1.8,4.4l1.8-4.4H321.7z"/>
<path class="st1" d="M322.3,564.7c0-0.6,0.5-1,1.2-1s1.2,0.4,1.2,1c0,0.6-0.5,1.1-1.2,1.1S322.3,565.3,322.3,564.7z M322.5,566.7
	h1.9v6.5h-1.9V566.7z"/>
<path class="st1" d="M332.7,564.2v8.9h-1.8v-0.7c-0.5,0.6-1.2,0.8-2,0.8c-1.8,0-3.2-1.3-3.2-3.3c0-2,1.4-3.3,3.2-3.3
	c0.8,0,1.5,0.3,1.9,0.8v-3.1H332.7z M330.9,569.9c0-1.1-0.7-1.8-1.6-1.8c-0.9,0-1.7,0.7-1.7,1.8s0.7,1.8,1.7,1.8
	C330.1,571.7,330.9,571,330.9,569.9z"/>
<path class="st1" d="M340.7,570.4h-4.9c0.2,0.8,0.9,1.3,1.8,1.3c0.7,0,1.2-0.2,1.6-0.6l1,1.1c-0.6,0.7-1.5,1-2.7,1
	c-2.2,0-3.7-1.4-3.7-3.3c0-1.9,1.5-3.3,3.4-3.3c1.9,0,3.4,1.3,3.4,3.3C340.7,570.1,340.7,570.3,340.7,570.4z M335.8,569.3h3.2
	c-0.1-0.8-0.7-1.3-1.6-1.3C336.5,568,335.9,568.5,335.8,569.3z"/>
<path class="st1" d="M341.5,569.9c0-1.9,1.5-3.3,3.5-3.3s3.5,1.4,3.5,3.3c0,1.9-1.5,3.3-3.5,3.3S341.5,571.8,341.5,569.9z
	 M346.7,569.9c0-1.1-0.7-1.8-1.6-1.8s-1.7,0.7-1.7,1.8s0.7,1.8,1.7,1.8S346.7,571,346.7,569.9z"/>
<path class="st1" d="M196.9,586.1l-1.7-2.3c-0.2,0-0.4,0-0.7,0h-2v2.3h-0.5v-7h2.5c1.8,0,2.8,0.9,2.8,2.4c0,1.1-0.6,1.9-1.6,2.2
	l1.7,2.4H196.9z M194.6,583.4c1.5,0,2.3-0.7,2.3-1.9c0-1.2-0.8-1.9-2.3-1.9h-2v3.8H194.6z"/>
<path class="st1" d="M203.5,583.6h-4.5c0,1.2,1,2.1,2.2,2.1c0.7,0,1.3-0.2,1.7-0.7l0.3,0.3c-0.5,0.6-1.2,0.8-2,0.8
	c-1.6,0-2.7-1.1-2.7-2.6c0-1.5,1.1-2.6,2.5-2.6s2.5,1.1,2.5,2.6C203.5,583.5,203.5,583.6,203.5,583.6z M199.1,583.2h4
	c-0.1-1.1-0.9-1.9-2-1.9S199.1,582.1,199.1,583.2z"/>
<path class="st1" d="M208.9,582.8v3.3h-0.5v-0.9c-0.3,0.6-1,1-1.9,1c-1.2,0-1.9-0.6-1.9-1.5c0-0.8,0.5-1.5,1.9-1.5h1.8v-0.4
	c0-1-0.5-1.5-1.5-1.5c-0.7,0-1.4,0.3-1.8,0.7l-0.3-0.4c0.5-0.5,1.3-0.7,2.1-0.7C208.2,580.9,208.9,581.5,208.9,582.8z M208.4,584.6
	v-1h-1.8c-1.1,0-1.5,0.4-1.5,1c0,0.7,0.5,1.1,1.4,1.1C207.5,585.7,208.1,585.3,208.4,584.6z"/>
<path class="st1" d="M215.6,578.7v7.4h-0.5v-1.2c-0.4,0.8-1.2,1.3-2.1,1.3c-1.5,0-2.6-1.1-2.6-2.6c0-1.6,1.1-2.6,2.6-2.6
	c0.9,0,1.7,0.5,2.1,1.2v-3.4H215.6z M215.1,583.5c0-1.3-0.9-2.2-2.1-2.2c-1.2,0-2.1,0.9-2.1,2.2s0.9,2.2,2.1,2.2
	C214.2,585.7,215.1,584.8,215.1,583.5z"/>
<path class="st1" d="M221.9,580.9l-2.7,5.9c-0.4,1-0.9,1.3-1.6,1.3c-0.5,0-0.9-0.2-1.2-0.5l0.3-0.4c0.3,0.3,0.6,0.4,1,0.4
	c0.5,0,0.8-0.2,1.1-0.9l0.3-0.6l-2.3-5.2h0.5l2.1,4.7l2.1-4.7H221.9z"/>
<path class="st1" d="M228.1,585.8c-0.3,0.3-0.7,0.4-1.1,0.4c-0.9,0-1.4-0.5-1.4-1.4v-3.4h-1v-0.4h1v-1.1h0.5v1.1h1.7v0.4h-1.7v3.4
	c0,0.7,0.3,1,1,1c0.3,0,0.6-0.1,0.8-0.3L228.1,585.8z"/>
<path class="st1" d="M228.9,583.5c0-1.5,1.1-2.6,2.6-2.6c1.5,0,2.6,1.1,2.6,2.6c0,1.5-1.1,2.6-2.6,2.6
	C230.1,586.1,228.9,585,228.9,583.5z M233.6,583.5c0-1.3-0.9-2.2-2.1-2.2c-1.2,0-2.1,0.9-2.1,2.2s0.9,2.2,2.1,2.2
	C232.7,585.7,233.6,584.8,233.6,583.5z"/>
<path class="st1" d="M243.8,581.5c0,1.5-1.1,2.3-2.8,2.3h-2v2.3h-0.5v-7h2.5C242.7,579.1,243.8,580,243.8,581.5z M243.2,581.5
	c0-1.2-0.8-1.9-2.3-1.9h-2v3.8h2C242.4,583.4,243.2,582.7,243.2,581.5z"/>
<path class="st1" d="M250,580.9v5.2h-0.5V585c-0.3,0.7-1,1.2-2,1.2c-1.3,0-2.2-0.8-2.2-2.2v-3h0.5v3c0,1.2,0.6,1.8,1.7,1.8
	c1.2,0,1.9-0.8,1.9-2v-2.8H250z"/>
<path class="st1" d="M257.3,583.5c0,1.6-1.1,2.6-2.6,2.6c-0.9,0-1.7-0.5-2.1-1.3v1.2h-0.5v-7.4h0.5v3.4c0.4-0.8,1.2-1.2,2.1-1.2
	C256.2,580.9,257.3,581.9,257.3,583.5z M256.8,583.5c0-1.3-0.9-2.2-2.1-2.2c-1.2,0-2.1,0.9-2.1,2.2s0.9,2.2,2.1,2.2
	C255.9,585.7,256.8,584.8,256.8,583.5z"/>
<path class="st1" d="M258.9,578.7h0.5v7.4h-0.5V578.7z"/>
<path class="st1" d="M261.3,579.2c0-0.2,0.2-0.4,0.4-0.4c0.2,0,0.4,0.2,0.4,0.4c0,0.2-0.2,0.4-0.4,0.4
	C261.5,579.6,261.3,579.4,261.3,579.2z M261.5,580.9h0.5v5.2h-0.5V580.9z"/>
<path class="st1" d="M263.3,585.5l0.2-0.4c0.4,0.3,1.1,0.6,1.9,0.6c1.1,0,1.5-0.4,1.5-1c0-1.5-3.5-0.4-3.5-2.4c0-0.8,0.7-1.4,2-1.4
	c0.7,0,1.4,0.2,1.8,0.5l-0.2,0.4c-0.4-0.3-1-0.5-1.6-0.5c-1,0-1.5,0.4-1.5,1c0,1.6,3.5,0.5,3.5,2.4c0,0.8-0.7,1.4-2.1,1.4
	C264.6,586.1,263.7,585.9,263.3,585.5z"/>
<path class="st1" d="M273.5,583.1v3H273v-3c0-1.2-0.6-1.8-1.7-1.8c-1.2,0-2,0.8-2,2v2.8h-0.5v-7.4h0.5v3.3c0.4-0.7,1.1-1.1,2-1.1
	C272.7,580.9,273.5,581.6,273.5,583.1z"/>
<path class="st1" d="M283.2,586.2l-1-1.1c-0.6,0.7-1.4,1-2.3,1c-1.3,0-2.3-0.7-2.3-1.7c0-0.8,0.5-1.4,1.8-2.2l0,0
	c-0.7-0.7-0.9-1.1-0.9-1.7c0-0.9,0.6-1.4,1.7-1.4c0.9,0,1.5,0.5,1.5,1.3c0,0.7-0.4,1.2-1.6,1.9l2.1,2.2c0.2-0.4,0.4-0.9,0.5-1.4
	l0.4,0.1c-0.1,0.6-0.3,1.2-0.6,1.6l1,1.1L283.2,586.2z M281.9,584.8l-2.2-2.3c-1.2,0.7-1.6,1.2-1.6,1.9c0,0.8,0.7,1.4,1.8,1.4
	C280.8,585.7,281.4,585.4,281.9,584.8z M279.8,582c1.1-0.6,1.4-1,1.4-1.6c0-0.6-0.4-0.9-1.1-0.9c-0.7,0-1.2,0.4-1.2,1
	C279,580.9,279.2,581.3,279.8,582z"/>
<path class="st1" d="M286.7,585.2l0.2-0.4c0.5,0.5,1.4,0.9,2.3,0.9c1.4,0,2-0.6,2-1.4c0-2.1-4.4-0.8-4.4-3.4c0-1,0.8-1.9,2.5-1.9
	c0.8,0,1.6,0.2,2.1,0.6l-0.2,0.4c-0.6-0.4-1.3-0.6-1.9-0.6c-1.4,0-2,0.6-2,1.4c0,2.1,4.4,0.9,4.4,3.4c0,1-0.8,1.8-2.5,1.8
	C288.2,586.2,287.2,585.8,286.7,585.2z"/>
<path class="st1" d="M298,583.1v3h-0.5v-3c0-1.2-0.6-1.8-1.7-1.8c-1.2,0-2,0.8-2,2v2.8h-0.5v-7.4h0.5v3.3c0.4-0.7,1.1-1.1,2-1.1
	C297.2,580.9,298,581.6,298,583.1z"/>
<path class="st1" d="M303.9,582.8v3.3h-0.5v-0.9c-0.3,0.6-1,1-1.9,1c-1.2,0-1.9-0.6-1.9-1.5c0-0.8,0.5-1.5,1.9-1.5h1.8v-0.4
	c0-1-0.5-1.5-1.5-1.5c-0.7,0-1.4,0.3-1.8,0.7l-0.3-0.4c0.5-0.5,1.3-0.7,2.1-0.7C303.2,580.9,303.9,581.5,303.9,582.8z M303.4,584.6
	v-1h-1.8c-1.1,0-1.5,0.4-1.5,1c0,0.7,0.5,1.1,1.4,1.1C302.5,585.7,303.1,585.3,303.4,584.6z"/>
<path class="st1" d="M308.4,580.9v0.5c0,0-0.1,0-0.1,0c-1.2,0-1.8,0.8-1.8,2.1v2.7h-0.5v-5.2h0.5v1.1
	C306.7,581.3,307.4,580.9,308.4,580.9z"/>
<path class="st1" d="M314.3,583.6h-4.5c0,1.2,1,2.1,2.2,2.1c0.7,0,1.3-0.2,1.7-0.7l0.3,0.3c-0.5,0.6-1.2,0.8-2,0.8
	c-1.6,0-2.7-1.1-2.7-2.6c0-1.5,1.1-2.6,2.5-2.6c1.4,0,2.5,1.1,2.5,2.6C314.3,583.5,314.3,583.6,314.3,583.6z M309.8,583.2h4
	c-0.1-1.1-0.9-1.9-2-1.9S309.9,582.1,309.8,583.2z"/>
<path class="st1" d="M188.3,259.3c0-2.5,1.9-4.3,4.6-4.3c1.5,0,2.7,0.5,3.5,1.5l-1.2,1.2c-0.6-0.6-1.3-1-2.1-1
	c-1.6,0-2.7,1.1-2.7,2.7s1.1,2.7,2.7,2.7c0.8,0,1.5-0.3,2.1-1l1.2,1.2c-0.8,1-2,1.5-3.5,1.5C190.3,263.7,188.3,261.9,188.3,259.3z"
	/>
<path class="st1" d="M197,260.3c0-1.9,1.5-3.3,3.6-3.3c2.1,0,3.5,1.4,3.5,3.3s-1.5,3.3-3.5,3.3C198.5,263.6,197,262.2,197,260.3z
	 M202.2,260.3c0-1.1-0.7-1.8-1.6-1.8c-0.9,0-1.7,0.7-1.7,1.8c0,1.1,0.7,1.8,1.7,1.8C201.5,262.1,202.2,261.4,202.2,260.3z"/>
<path class="st1" d="M205.4,254.6h1.9v8.9h-1.9V254.6z"/>
<path class="st1" d="M209,254.6h1.9v8.9H209V254.6z"/>
<path class="st1" d="M218.9,260.8H214c0.2,0.8,0.9,1.3,1.8,1.3c0.7,0,1.2-0.2,1.6-0.6l1,1.1c-0.6,0.7-1.5,1-2.7,1
	c-2.2,0-3.7-1.4-3.7-3.3c0-1.9,1.5-3.3,3.4-3.3c1.9,0,3.4,1.3,3.4,3.3C218.9,260.5,218.9,260.7,218.9,260.8z M214,259.7h3.2
	c-0.1-0.8-0.7-1.3-1.6-1.3C214.7,258.4,214.1,258.9,214,259.7z"/>
<path class="st1" d="M219.7,260.3c0-1.9,1.5-3.3,3.6-3.3c1.4,0,2.4,0.6,2.9,1.6l-1.5,0.8c-0.3-0.6-0.9-0.9-1.5-0.9
	c-0.9,0-1.7,0.7-1.7,1.8s0.7,1.8,1.7,1.8c0.6,0,1.1-0.3,1.5-0.9l1.5,0.8c-0.5,1-1.5,1.6-2.9,1.6
	C221.2,263.6,219.7,262.2,219.7,260.3z"/>
<path class="st1" d="M231.4,263.2c-0.4,0.3-0.9,0.4-1.5,0.4c-1.5,0-2.4-0.8-2.4-2.3v-2.7h-1v-1.4h1v-1.6h1.9v1.6h1.6v1.4h-1.6v2.6
	c0,0.6,0.3,0.9,0.8,0.9c0.3,0,0.6-0.1,0.8-0.2L231.4,263.2z"/>
<path class="st1" d="M241.4,263.5l-1.6-2.3h-0.1H238v2.3H236v-8.4h3.6c2.2,0,3.6,1.2,3.6,3c0,1.3-0.6,2.2-1.7,2.7l1.9,2.7H241.4z
	 M239.5,256.7H238v2.9h1.6c1.2,0,1.8-0.6,1.8-1.5C241.3,257.3,240.7,256.7,239.5,256.7z"/>
<path class="st1" d="M244.2,260.3c0-1.9,1.5-3.3,3.5-3.3c2.1,0,3.5,1.4,3.5,3.3s-1.5,3.3-3.5,3.3
	C245.7,263.6,244.2,262.2,244.2,260.3z M249.4,260.3c0-1.1-0.7-1.8-1.6-1.8c-0.9,0-1.7,0.7-1.7,1.8c0,1.1,0.7,1.8,1.7,1.8
	C248.7,262.1,249.4,261.4,249.4,260.3z"/>
<path class="st1" d="M259.1,257.1v6.5h-1.8v-0.8c-0.5,0.6-1.2,0.9-2,0.9c-1.6,0-2.8-0.9-2.8-2.9v-3.6h1.9v3.4c0,1.1,0.5,1.6,1.3,1.6
	c0.9,0,1.5-0.6,1.5-1.7v-3.2H259.1z"/>
<path class="st1" d="M265,263.2c-0.4,0.3-0.9,0.4-1.5,0.4c-1.5,0-2.4-0.8-2.4-2.3v-2.7h-1v-1.4h1v-1.6h1.9v1.6h1.6v1.4h-1.6v2.6
	c0,0.6,0.3,0.9,0.8,0.9c0.3,0,0.6-0.1,0.8-0.2L265,263.2z"/>
<path class="st1" d="M265.8,255.1c0-0.6,0.5-1,1.2-1s1.2,0.4,1.2,1c0,0.6-0.5,1.1-1.2,1.1S265.8,255.7,265.8,255.1z M266,257.1h1.9
	v6.5H266V257.1z"/>
<path class="st1" d="M276.2,259.8v3.7h-1.9v-3.4c0-1-0.5-1.5-1.3-1.5c-0.9,0-1.5,0.6-1.5,1.7v3.2h-1.9v-6.5h1.8v0.8
	c0.5-0.6,1.3-0.9,2.1-0.9C275.1,257,276.2,257.9,276.2,259.8z"/>
<path class="st1" d="M284.6,257.1v5.4c0,2.4-1.3,3.5-3.6,3.5c-1.2,0-2.4-0.3-3.2-0.9l0.7-1.3c0.6,0.4,1.5,0.7,2.3,0.7
	c1.3,0,1.9-0.6,1.9-1.8v-0.3c-0.5,0.5-1.2,0.8-2,0.8c-1.8,0-3.2-1.2-3.2-3.1s1.4-3.1,3.2-3.1c0.9,0,1.6,0.3,2.1,0.9v-0.8H284.6z
	 M282.7,260.1c0-0.9-0.7-1.6-1.7-1.6s-1.7,0.6-1.7,1.6c0,0.9,0.7,1.6,1.7,1.6S282.7,261,282.7,260.1z"/>
<path class="st1" d="M289.9,255.1h3.8c2.7,0,4.6,1.7,4.6,4.2s-1.9,4.2-4.6,4.2h-3.8V255.1z M293.6,261.9c1.7,0,2.8-1,2.8-2.6
	s-1.1-2.6-2.8-2.6h-1.8v5.2H293.6z"/>
<path class="st1" d="M305.4,259.8v3.7h-1.8v-0.8c-0.3,0.6-1,0.9-2,0.9c-1.5,0-2.4-0.8-2.4-2c0-1.1,0.8-1.9,2.8-1.9h1.5
	c0-0.8-0.5-1.3-1.5-1.3c-0.7,0-1.4,0.2-1.9,0.6l-0.7-1.3c0.7-0.5,1.8-0.8,2.8-0.8C304.2,257,305.4,257.9,305.4,259.8z M303.5,261.5
	v-0.7h-1.3c-0.9,0-1.2,0.3-1.2,0.8c0,0.5,0.4,0.8,1.1,0.8C302.7,262.4,303.3,262.1,303.5,261.5z"/>
<path class="st1" d="M311.2,263.2c-0.4,0.3-0.9,0.4-1.5,0.4c-1.5,0-2.4-0.8-2.4-2.3v-2.7h-1v-1.4h1v-1.6h1.9v1.6h1.6v1.4h-1.6v2.6
	c0,0.6,0.3,0.9,0.8,0.9c0.3,0,0.6-0.1,0.8-0.2L311.2,263.2z"/>
<path class="st1" d="M318,259.8v3.7h-1.8v-0.8c-0.3,0.6-1,0.9-2,0.9c-1.5,0-2.4-0.8-2.4-2c0-1.1,0.8-1.9,2.8-1.9h1.5
	c0-0.8-0.5-1.3-1.5-1.3c-0.7,0-1.4,0.2-1.9,0.6l-0.7-1.3c0.7-0.5,1.8-0.8,2.8-0.8C316.8,257,318,257.9,318,259.8z M316.1,261.5v-0.7
	h-1.3c-0.9,0-1.2,0.3-1.2,0.8c0,0.5,0.4,0.8,1.1,0.8C315.3,262.4,315.9,262.1,316.1,261.5z"/>
<path class="st1" d="M221,278.1l-1-0.9c-0.8,0.6-1.7,0.9-2.8,0.9c-1.8,0-3.2-1-3.2-2.3c0-1.1,0.6-1.8,1.8-2.5
	c-0.6-0.6-0.9-1.2-0.9-1.8c0-1.2,1-2.1,2.6-2.1c1.5,0,2.4,0.7,2.4,1.9c0,0.9-0.5,1.5-1.6,2.1l1.5,1.4c0.2-0.4,0.3-0.8,0.4-1.3
	l1.5,0.5c-0.2,0.7-0.4,1.4-0.8,1.9l1,0.9L221,278.1z M218.9,276.1l-2-1.9c-0.8,0.4-1,0.8-1,1.3c0,0.6,0.6,1,1.5,1
	C217.9,276.6,218.5,276.4,218.9,276.1z M216.7,271.5c0,0.3,0.1,0.6,0.6,1.1c0.8-0.4,1.1-0.8,1.1-1.1c0-0.4-0.3-0.7-0.8-0.7
	C217.1,270.7,216.7,271,216.7,271.5z"/>
<path class="st1" d="M226.7,274.2v-4.7h1.9v4.6c0,1.6,0.7,2.3,1.9,2.3c1.2,0,1.9-0.7,1.9-2.3v-4.6h1.9v4.7c0,2.5-1.4,3.8-3.8,3.8
	S226.7,276.7,226.7,274.2z"/>
<path class="st1" d="M235.4,277.3l0.6-1.3c0.6,0.4,1.5,0.6,2.2,0.6c0.9,0,1.2-0.2,1.2-0.6c0-1.1-3.9,0-3.9-2.6c0-1.2,1.1-2.1,3-2.1
	c0.9,0,1.9,0.2,2.5,0.6l-0.6,1.3c-0.6-0.4-1.3-0.5-1.9-0.5c-0.8,0-1.2,0.3-1.2,0.6c0,1.1,3.9,0,3.9,2.6c0,1.2-1.1,2.1-3,2.1
	C237.1,278,236,277.7,235.4,277.3z"/>
<path class="st1" d="M248.7,275.2h-4.9c0.2,0.8,0.9,1.3,1.8,1.3c0.7,0,1.2-0.2,1.6-0.6l1,1.1c-0.6,0.7-1.5,1-2.7,1
	c-2.2,0-3.7-1.4-3.7-3.3c0-1.9,1.5-3.3,3.4-3.3c1.9,0,3.4,1.3,3.4,3.3C248.7,274.9,248.7,275.1,248.7,275.2z M243.8,274.1h3.2
	c-0.1-0.8-0.7-1.3-1.6-1.3C244.5,272.8,243.9,273.3,243.8,274.1z"/>
<path class="st1" d="M254,271.4v1.7c-0.2,0-0.3,0-0.4,0c-1,0-1.7,0.6-1.7,1.8v3H250v-6.5h1.8v0.9C252.2,271.7,253,271.4,254,271.4z"
	/>
<path class="st1" d="M257,270.1c0,0.3,0,0.5-0.3,1.2L256,273h-1.2l0.5-1.9c-0.4-0.2-0.6-0.5-0.6-1c0-0.7,0.5-1.2,1.2-1.2
	C256.6,268.9,257,269.4,257,270.1z"/>
<path class="st1" d="M257.7,277.3l0.6-1.3c0.6,0.4,1.5,0.6,2.2,0.6c0.9,0,1.2-0.2,1.2-0.6c0-1.1-3.9,0-3.9-2.6c0-1.2,1.1-2.1,3-2.1
	c0.9,0,1.9,0.2,2.5,0.6l-0.6,1.3c-0.6-0.4-1.3-0.5-1.9-0.5c-0.8,0-1.2,0.3-1.2,0.6c0,1.1,3.9,0,3.9,2.6c0,1.2-1.1,2.1-3,2.1
	C259.4,278,258.3,277.7,257.7,277.3z"/>
<path class="st1" d="M267.8,269.5c0-0.6,0.5-1,1.2-1s1.2,0.4,1.2,1c0,0.6-0.5,1.1-1.2,1.1S267.8,270.1,267.8,269.5z M268.1,271.5
	h1.9v6.5h-1.9V271.5z"/>
<path class="st1" d="M278.3,274.2v3.7h-1.9v-3.4c0-1-0.5-1.5-1.3-1.5c-0.9,0-1.5,0.6-1.5,1.7v3.2h-1.9v-6.5h1.8v0.8
	c0.5-0.6,1.3-0.9,2.1-0.9C277.1,271.4,278.3,272.3,278.3,274.2z"/>
<path class="st1" d="M282,271.6h1.7v1.4h-1.6v4.9h-1.9v-4.9h-1v-1.4h1v-0.3c0-1.5,0.9-2.4,2.5-2.4c0.5,0,1.1,0.1,1.4,0.3l-0.5,1.4
	c-0.2-0.1-0.5-0.2-0.8-0.2c-0.6,0-0.9,0.3-0.9,0.9V271.6z"/>
<path class="st1" d="M284.1,274.7c0-1.9,1.5-3.3,3.5-3.3s3.5,1.4,3.5,3.3s-1.5,3.3-3.5,3.3S284.1,276.6,284.1,274.7z M289.3,274.7
	c0-1.1-0.7-1.8-1.6-1.8s-1.7,0.7-1.7,1.8c0,1.1,0.7,1.8,1.7,1.8S289.3,275.8,289.3,274.7z"/>
<path class="st2" d="M372.2,704.9c0.7,14.8-10.7,27.5-25.5,28.2c-14.8,0.7-27.5-10.7-28.2-25.5c-0.7-14.8,10.7-27.5,25.5-28.2
	C358.8,678.6,371.5,690.1,372.2,704.9"/>
<rect x="116.6" y="184.6" transform="matrix(0.7071 -0.7071 0.7071 0.7071 -83.2033 172.2624)" class="st0" width="99.5" height="4"/>
<rect x="336.9" y="136.8" transform="matrix(0.7071 -0.7071 0.7071 0.7071 -32.6667 294.27)" class="st0" width="4" height="99.5"/>
<rect x="250.8" y="596.8" class="st0" width="4" height="20.1"/>
<rect x="250.8" y="689.6" class="st0" width="4" height="43.5"/>
<path class="st0" d="M250.6,433.5c0-1.1,0.9-2,2-2l0,0c1.1,0,2,0.9,2,2l0,0c0,1.1-0.9,2-2,2l0,0
	C251.5,435.5,250.6,434.6,250.6,433.5z M250.6,421.5c0-1.1,0.9-2,2-2l0,0c1.1,0,2,0.9,2,2l0,0c0,1.1-0.9,2-2,2l0,0
	C251.5,423.5,250.6,422.6,250.6,421.5z M250.6,409.5c0-1.1,0.9-2,2-2l0,0c1.1,0,2,0.9,2,2l0,0c0,1.1-0.9,2-2,2l0,0
	C251.5,411.5,250.6,410.6,250.6,409.5z M250.6,397.5c0-1.1,0.9-2,2-2l0,0c1.1,0,2,0.9,2,2l0,0c0,1.1-0.9,2-2,2l0,0
	C251.5,399.5,250.6,398.6,250.6,397.5z M250.6,385.5c0-1.1,0.9-2,2-2l0,0c1.1,0,2,0.9,2,2l0,0c0,1.1-0.9,2-2,2l0,0
	C251.5,387.5,250.6,386.6,250.6,385.5z M250.6,373.5c0-1.1,0.9-2,2-2l0,0c1.1,0,2,0.9,2,2l0,0c0,1.1-0.9,2-2,2l0,0
	C251.5,375.5,250.6,374.6,250.6,373.5z M250.6,361.5c0-1.1,0.9-2,2-2l0,0c1.1,0,2,0.9,2,2l0,0c0,1.1-0.9,2-2,2l0,0
	C251.5,363.5,250.6,362.6,250.6,361.5z M250.6,349.5c0-1.1,0.9-2,2-2l0,0c1.1,0,2,0.9,2,2l0,0c0,1.1-0.9,2-2,2l0,0
	C251.5,351.5,250.6,350.6,250.6,349.5z M250.6,337.5c0-1.1,0.9-2,2-2l0,0c1.1,0,2,0.9,2,2l0,0c0,1.1-0.9,2-2,2l0,0
	C251.5,339.5,250.6,338.6,250.6,337.5z M250.6,325.5c0-1.1,0.9-2,2-2l0,0c1.1,0,2,0.9,2,2l0,0c0,1.1-0.9,2-2,2l0,0
	C251.5,327.5,250.6,326.6,250.6,325.5z M250.6,313.5c0-1.1,0.9-2,2-2l0,0c1.1,0,2,0.9,2,2l0,0c0,1.1-0.9,2-2,2l0,0
	C251.5,315.5,250.6,314.6,250.6,313.5z M250.6,301.5c0-1.1,0.9-2,2-2l0,0c1.1,0,2,0.9,2,2l0,0c0,1.1-0.9,2-2,2l0,0
	C251.5,303.5,250.6,302.6,250.6,301.5z M250.6,289.5c0-1.1,0.9-2,2-2l0,0c1.1,0,2,0.9,2,2l0,0c0,1.1-0.9,2-2,2l0,0
	C251.5,291.5,250.6,290.6,250.6,289.5z"/>
<g>
	<path class="st0" d="M252.6,184.6c-0.1,0-0.3,0-0.4,0c-0.1,0-0.3-0.1-0.4-0.1c-0.1-0.1-0.2-0.1-0.3-0.2c-0.1-0.1-0.2-0.2-0.3-0.2
		c-0.4-0.4-0.6-0.9-0.6-1.4c0-0.5,0.2-1,0.6-1.4c0.1-0.1,0.2-0.2,0.3-0.3c0.1-0.1,0.2-0.1,0.3-0.2c0.1-0.1,0.3-0.1,0.4-0.1
		c0.3-0.1,0.5-0.1,0.8,0c0.1,0,0.3,0.1,0.4,0.1c0.1,0,0.2,0.1,0.4,0.2c0.1,0.1,0.2,0.2,0.3,0.3c0.4,0.4,0.6,0.9,0.6,1.4
		c0,0.5-0.2,1-0.6,1.4c-0.1,0.1-0.2,0.2-0.3,0.2c-0.1,0.1-0.2,0.1-0.4,0.2c-0.1,0-0.2,0.1-0.4,0.1
		C252.9,184.5,252.7,184.6,252.6,184.6z"/>
</g>
<g>
	<path class="st0" d="M250.6,231.4c0-1.1,0.9-2,2-2l0,0c1.1,0,2,0.9,2,2l0,0c0,1.1-0.9,2-2,2l0,0
		C251.5,233.4,250.6,232.6,250.6,231.4z M250.6,219.2c0-1.1,0.9-2,2-2l0,0c1.1,0,2,0.9,2,2l0,0c0,1.1-0.9,2-2,2l0,0
		C251.5,221.2,250.6,220.3,250.6,219.2z M250.6,207c0-1.1,0.9-2,2-2l0,0c1.1,0,2,0.9,2,2l0,0c0,1.1-0.9,2-2,2l0,0
		C251.5,209,250.6,208.1,250.6,207z M250.6,194.8c0-1.1,0.9-2,2-2l0,0c1.1,0,2,0.9,2,2l0,0c0,1.1-0.9,2-2,2l0,0
		C251.5,196.8,250.6,195.9,250.6,194.8z"/>
</g>
<g>
	<path class="st0" d="M252.6,245.7c-0.1,0-0.3,0-0.4,0c-0.1,0-0.3-0.1-0.4-0.1c-0.1,0-0.2-0.1-0.3-0.2c-0.1-0.1-0.2-0.2-0.3-0.3
		c-0.4-0.4-0.6-0.9-0.6-1.4c0-0.1,0-0.3,0-0.4c0-0.1,0.1-0.3,0.1-0.4c0-0.1,0.1-0.2,0.2-0.3c0.1-0.1,0.1-0.2,0.2-0.3
		c0.1-0.1,0.2-0.2,0.3-0.3c0.1-0.1,0.2-0.1,0.3-0.2c0.1,0,0.3-0.1,0.4-0.1c0.3,0,0.5,0,0.8,0c0.1,0,0.3,0.1,0.4,0.1
		c0.1,0,0.2,0.1,0.4,0.2c0.1,0.1,0.2,0.2,0.3,0.3c0.1,0.1,0.2,0.2,0.3,0.3c0.1,0.1,0.1,0.2,0.2,0.3c0.1,0.1,0.1,0.3,0.1,0.4
		c0,0.1,0,0.3,0,0.4c0,0.5-0.2,1-0.6,1.4c-0.1,0.1-0.2,0.2-0.3,0.3c-0.1,0.1-0.2,0.1-0.4,0.2c-0.1,0-0.2,0.1-0.4,0.1
		C252.9,245.7,252.7,245.7,252.6,245.7z"/>
</g>
<line class="st1" x1="252.8" y1="535.4" x2="252.8" y2="555.5"/>
<rect x="250.8" y="535.4" class="st0" width="4" height="20.1"/>
<path class="st2" d="M289.2,653.2c0,20.1-16.3,36.3-36.3,36.3c-20.1,0-36.3-16.3-36.3-36.3s16.3-36.3,36.3-36.3
	C272.9,616.9,289.2,633.2,289.2,653.2"/>
<path class="st2" d="M187.2,704.9c0.7,14.8-10.7,27.5-25.5,28.2c-14.8,0.7-27.5-10.7-28.2-25.5c-0.7-14.8,10.7-27.5,25.5-28.2
	C173.9,678.6,186.5,690.1,187.2,704.9"/>
<path class="st2" d="M279.4,758.3c0.7,14.8-10.7,27.5-25.5,28.2c-14.8,0.7-27.5-10.7-28.2-25.5s10.7-27.5,25.5-28.2
	C266,732,278.7,743.4,279.4,758.3"/>
<g>
	<path class="st1" d="M55.7,247.2c-1.5,0-3.1-0.5-4.2-1.3l-1,2.2c1.1,0.9,3.1,1.5,5.1,1.5c3.6,0,5.3-1.8,5.3-3.9
		c0-4.6-7.3-3-7.3-5.3c0-0.8,0.7-1.4,2.4-1.4c1.1,0,2.3,0.3,3.5,1l0.9-2.2c-1.2-0.7-2.8-1.1-4.4-1.1c-3.6,0-5.3,1.8-5.3,3.9
		c0,4.7,7.3,3.1,7.3,5.4C58.2,246.7,57.5,247.2,55.7,247.2z"/>
	<path class="st1" d="M67.7,249.5c1.7,0,3.1-0.5,4-1.6l-1.5-1.6c-0.7,0.6-1.4,0.9-2.4,0.9c-1.5,0-2.5-0.7-2.8-1.9h7.3
		c0-0.2,0.1-0.5,0.1-0.8c0-3.1-2.2-5-5-5c-3,0-5.2,2.1-5.2,5C62.1,247.4,64.3,249.5,67.7,249.5z M67.3,241.7c1.3,0,2.2,0.8,2.4,2
		h-4.8C65.1,242.4,66,241.7,67.3,241.7z"/>
	<path class="st1" d="M77,244.6c0-1.8,1-2.6,2.3-2.6c1.2,0,2,0.7,2,2.3v5.1h2.8v-5.5c0-3-1.7-4.3-4-4.3c-1.3,0-2.4,0.5-3.2,1.3v-1.1
		h-2.7v9.7H77V244.6z"/>
	<path class="st1" d="M88.6,242.6c0-0.5,0.5-0.9,1.8-0.9c0.9,0,1.8,0.2,2.8,0.7l0.9-2c-0.9-0.5-2.4-0.8-3.7-0.8
		c-2.8,0-4.5,1.3-4.5,3.1c0,3.9,5.9,2.3,5.9,3.8c0,0.5-0.5,0.9-1.8,0.9c-1.2,0-2.5-0.4-3.4-0.9l-0.9,2c0.9,0.6,2.6,1,4.2,1
		c2.9,0,4.6-1.3,4.6-3.1C94.5,242.6,88.6,244.2,88.6,242.6z"/>
	<path class="st1" d="M100.8,249.5c3.1,0,5.3-2.1,5.3-5c0-2.9-2.2-5-5.3-5s-5.3,2.1-5.3,5C95.5,247.4,97.7,249.5,100.8,249.5z
		 M100.8,241.8c1.4,0,2.5,1,2.5,2.7c0,1.7-1.1,2.7-2.5,2.7s-2.5-1-2.5-2.7C98.3,242.8,99.4,241.8,100.8,241.8z"/>
	<path class="st1" d="M110.8,244.8c0-1.9,1-2.7,2.6-2.7c0.2,0,0.4,0,0.6,0v-2.6c-1.5,0-2.6,0.5-3.3,1.4v-1.3H108v9.7h2.8V244.8z"/>
	<path class="st1" d="M117.7,242.6c0-0.5,0.5-0.9,1.8-0.9c0.9,0,1.8,0.2,2.8,0.7l0.9-2c-0.9-0.5-2.4-0.8-3.7-0.8
		c-2.8,0-4.5,1.3-4.5,3.1c0,3.9,5.9,2.3,5.9,3.8c0,0.5-0.5,0.9-1.8,0.9c-1.2,0-2.5-0.4-3.4-0.9l-0.9,2c0.9,0.6,2.6,1,4.2,1
		c2.9,0,4.6-1.3,4.6-3.1C123.5,242.6,117.7,244.2,117.7,242.6z"/>
	<path class="st1" d="M126.4,246c-1,0-1.7,0.7-1.7,1.7c0,0.7,0.4,1.3,1,1.5l-0.8,2.9h1.8l1-2.6c0.4-1,0.5-1.3,0.5-1.8
		C128.1,246.7,127.4,246,126.4,246z"/>
	<path class="st1" d="M62.9,269.3l-1.9-1.7c-0.8,1-1.9,1.5-3.2,1.5c-2.4,0-4-1.7-4-4c0-2.4,1.7-4,4-4c1.3,0,2.3,0.5,3.2,1.5l1.9-1.7
		c-1.2-1.4-3-2.2-5.2-2.2c-3.9,0-6.8,2.7-6.8,6.5c0,3.8,2.9,6.5,6.8,6.5C59.9,271.6,61.7,270.8,62.9,269.3z"/>
	<path class="st1" d="M73.2,271.4v-5.5c0-2.9-1.7-4.3-4.7-4.3c-1.5,0-3.1,0.4-4.2,1.2l1,2c0.7-0.6,1.8-0.9,2.8-0.9
		c1.5,0,2.2,0.7,2.2,1.9h-2.2c-3,0-4.2,1.2-4.2,2.9c0,1.7,1.4,2.9,3.6,2.9c1.4,0,2.4-0.5,3-1.4v1.2H73.2z M70.4,268.3
		c-0.3,0.9-1.1,1.3-2.1,1.3c-1,0-1.6-0.5-1.6-1.2c0-0.6,0.4-1.1,1.7-1.1h1.9V268.3z"/>
	<path class="st1" d="M82.5,266.2v5.1h2.8v-4.9c0-1.7,0.9-2.5,2.1-2.5c1.1,0,1.8,0.7,1.8,2.3v5.1h2.8v-5.5c0-3-1.7-4.3-4-4.3
		c-1.5,0-2.7,0.6-3.5,1.6c-0.7-1.1-1.8-1.6-3.2-1.6c-1.2,0-2.3,0.4-3,1.3v-1.1h-2.7v9.7h2.8v-4.9c0-1.7,0.9-2.5,2.1-2.5
		C81.8,264,82.5,264.7,82.5,266.2z"/>
	<path class="st1" d="M99.5,271.5c1.7,0,3.1-0.5,4-1.6l-1.5-1.6c-0.7,0.6-1.4,0.9-2.4,0.9c-1.5,0-2.5-0.7-2.8-1.9h7.3
		c0-0.2,0.1-0.5,0.1-0.8c0-3.1-2.2-5-5-5c-3,0-5.2,2.1-5.2,5C94,269.4,96.2,271.5,99.5,271.5z M99.2,263.7c1.3,0,2.2,0.8,2.4,2h-4.8
		C97,264.4,97.9,263.7,99.2,263.7z"/>
	<path class="st1" d="M108.9,266.8c0-1.9,1-2.7,2.6-2.7c0.2,0,0.4,0,0.6,0v-2.6c-1.5,0-2.6,0.5-3.3,1.4v-1.3h-2.7v9.7h2.8V266.8z"/>
	<path class="st1" d="M117.6,261.5c-1.5,0-3.1,0.4-4.2,1.2l1,2c0.7-0.6,1.8-0.9,2.8-0.9c1.5,0,2.2,0.7,2.2,1.9h-2.2
		c-3,0-4.2,1.2-4.2,2.9c0,1.7,1.4,2.9,3.6,2.9c1.4,0,2.4-0.5,3-1.4v1.2h2.6v-5.5C122.3,262.9,120.6,261.5,117.6,261.5z M119.5,268.3
		c-0.3,0.9-1.1,1.3-2.1,1.3c-1,0-1.6-0.5-1.6-1.2c0-0.6,0.4-1.1,1.7-1.1h1.9V268.3z"/>
	<path class="st1" d="M73.4,287.6l-2.3-0.7c-0.1,0.7-0.4,1.4-0.6,2l-2.3-2.1c1.7-0.9,2.5-1.9,2.5-3.2c0-1.8-1.4-2.9-3.6-2.9
		c-2.4,0-3.9,1.3-3.9,3.1c0,0.9,0.4,1.7,1.3,2.7c-1.9,1.1-2.8,2.2-2.8,3.8c0,2,2,3.5,4.8,3.5c1.6,0,3.1-0.5,4.2-1.4l1.5,1.4l1.5-1.8
		l-1.5-1.4C72.8,289.6,73.2,288.6,73.4,287.6z M67.1,282.5c0.8,0,1.2,0.4,1.2,1c0,0.6-0.4,1-1.6,1.7c-0.8-0.8-1-1.1-1-1.6
		C65.7,283,66.2,282.5,67.1,282.5z M66.7,291.4c-1.4,0-2.3-0.6-2.3-1.6c0-0.8,0.4-1.4,1.6-2l3,2.8C68.3,291.1,67.5,291.4,66.7,291.4
		z"/>
	<path class="st1" d="M87,283c1.3,0,2.3,0.5,3.3,1.4l1.9-1.7c-1.2-1.4-3.1-2.2-5.3-2.2c-4,0-6.9,2.7-6.9,6.5c0,3.8,2.9,6.5,6.9,6.5
		c1.8,0,3.7-0.6,5.1-1.6v-5.1h-2.7v3.7c-0.7,0.4-1.5,0.5-2.3,0.5c-2.4,0-4.1-1.7-4.1-4C82.9,284.7,84.5,283,87,283z"/>
	<path class="st1" d="M100,280.8h-5.5v12.6h2.9v-3.5h2.5c3.4,0,5.5-1.7,5.5-4.6C105.5,282.5,103.4,280.8,100,280.8z M99.9,287.5
		h-2.4v-4.4h2.4c1.8,0,2.7,0.8,2.7,2.2C102.6,286.7,101.7,287.5,99.9,287.5z"/>
	<path class="st1" d="M109.9,284.3c0-0.8,0.7-1.4,2.4-1.4c1.1,0,2.3,0.3,3.5,1l0.9-2.2c-1.2-0.7-2.8-1.1-4.4-1.1
		c-3.6,0-5.3,1.8-5.3,3.9c0,4.7,7.3,3.1,7.3,5.4c0,0.8-0.7,1.4-2.4,1.4c-1.5,0-3.1-0.5-4.2-1.3l-1,2.2c1.1,0.9,3.1,1.5,5.1,1.5
		c3.6,0,5.3-1.8,5.3-3.9C117.2,285,109.9,286.6,109.9,284.3z"/>
	<path class="st1" d="M399.9,246.5H397v6.9c0,2.4-1,3.4-2.8,3.4c-1.8,0-2.8-1-2.8-3.4v-6.9h-2.9v7.1c0,3.7,2.1,5.8,5.7,5.8
		s5.7-2.1,5.7-5.8V246.5z"/>
	<path class="st1" d="M406,257.2c-1.2,0-2.5-0.4-3.4-0.9l-0.9,2c0.9,0.6,2.6,1,4.2,1c2.9,0,4.6-1.3,4.6-3.1c0-3.8-5.9-2.2-5.9-3.9
		c0-0.5,0.5-0.9,1.8-0.9c0.9,0,1.8,0.2,2.8,0.7l0.9-2c-0.9-0.5-2.4-0.8-3.7-0.8c-2.8,0-4.5,1.3-4.5,3.1c0,3.9,5.9,2.3,5.9,3.8
		C407.7,256.8,407.3,257.2,406,257.2z"/>
	<path class="st1" d="M417,259.3c1.7,0,3.1-0.5,4-1.6l-1.5-1.6c-0.7,0.6-1.4,0.9-2.4,0.9c-1.5,0-2.5-0.7-2.8-1.9h7.3
		c0-0.2,0.1-0.5,0.1-0.8c0-3.1-2.2-5-5-5c-3,0-5.2,2.1-5.2,5C411.4,257.2,413.6,259.3,417,259.3z M416.6,251.4c1.3,0,2.2,0.8,2.4,2
		h-4.8C414.4,252.2,415.3,251.4,416.6,251.4z"/>
	<path class="st1" d="M426.3,254.6c0-1.9,1-2.7,2.6-2.7c0.2,0,0.4,0,0.6,0v-2.6c-1.5,0-2.6,0.5-3.3,1.4v-1.3h-2.7v9.7h2.8V254.6z"/>
	<path class="st1" d="M433,245.6c-1,0-1.7,0.7-1.7,1.7c0,0.8,0.4,1.3,1,1.5l-0.8,2.8h1.8l1-2.6c0.4-1,0.5-1.3,0.5-1.8
		C434.7,246.3,434,245.6,433,245.6z"/>
	<path class="st1" d="M438.3,252.3c0-0.5,0.5-0.9,1.8-0.9c0.9,0,1.8,0.2,2.8,0.7l0.9-2c-0.9-0.5-2.4-0.8-3.7-0.8
		c-2.8,0-4.5,1.3-4.5,3.1c0,3.9,5.9,2.3,5.9,3.8c0,0.5-0.5,0.9-1.8,0.9c-1.2,0-2.5-0.4-3.4-0.9l-0.9,2c0.9,0.6,2.6,1,4.2,1
		c2.9,0,4.6-1.3,4.6-3.1C444.1,252.4,438.3,254,438.3,252.3z"/>
	<rect x="398.8" y="268.1" class="st1" width="2.9" height="12.6"/>
	<path class="st1" d="M410.4,270.9c-1.3,0-2.4,0.5-3.2,1.3V271h-2.7v9.7h2.8v-4.8c0-1.8,1-2.6,2.3-2.6c1.2,0,2,0.7,2,2.3v5.1h2.8
		v-5.5C414.5,272.2,412.7,270.9,410.4,270.9z"/>
	<path class="st1" d="M420.1,270.8c0-1,0.5-1.4,1.3-1.4c0.4,0,0.8,0.1,1.1,0.3l0.7-2c-0.5-0.4-1.4-0.5-2.1-0.5
		c-2.4,0-3.7,1.4-3.7,3.6v0.4h-1.5v2.2h1.5v7.3h2.8v-7.3h2.4v-2.2h-2.5V270.8z"/>
	<path class="st1" d="M428.4,270.9c-3.1,0-5.3,2.1-5.3,5c0,2.9,2.3,5,5.3,5c3.1,0,5.3-2.1,5.3-5C433.8,273,431.5,270.9,428.4,270.9z
		 M428.4,278.6c-1.4,0-2.5-1-2.5-2.7c0-1.7,1.1-2.7,2.5-2.7c1.4,0,2.5,1,2.5,2.7C430.9,277.6,429.8,278.6,428.4,278.6z"/>
	<path class="st1" d="M238.1,495.2l0.8-2h4.3l0.8,2h3.9l-4.9-11.2h-3.7l-4.9,11.2H238.1z M241,487.7l1.1,2.8h-2.2L241,487.7z"/>
	<path class="st1" d="M258.9,488.2c0-2.6-2-4.2-5.1-4.2h-5.4v11.2h3.8v-2.8h1.6C256.9,492.5,258.9,490.8,258.9,488.2z M253.5,489.6
		h-1.4v-2.6h1.4c1,0,1.5,0.5,1.5,1.3S254.6,489.6,253.5,489.6z"/>
	<path class="st1" d="M270.6,488.2c0-2.6-2-4.2-5.1-4.2h-5.4v11.2h3.8v-2.8h1.6C268.6,492.5,270.6,490.8,270.6,488.2z M263.9,489.6
		v-2.6h1.4c1,0,1.5,0.5,1.5,1.3s-0.5,1.3-1.5,1.3H263.9z"/>
	<polygon class="st1" points="220.2,76.6 216.2,86.1 212.4,76.6 206.5,76.6 213.3,92.9 218.7,92.9 225.6,76.6 	"/>
	<path class="st1" d="M233.3,93.2c2.5,0,4.3-0.7,5.6-2.1l-2.7-2.8c-0.8,0.6-1.5,0.9-2.6,0.9c-1.3,0-2.2-0.5-2.6-1.5h8.8
		c0-0.4,0.1-0.9,0.1-1.2c0-4.3-3.2-6.6-7-6.6c-4.1,0-7.2,2.7-7.2,6.6C225.7,90.3,228.7,93.2,233.3,93.2z M232.9,83.5
		c1.1,0,1.8,0.6,2,1.7h-4.1C231.1,84.1,231.8,83.5,232.9,83.5z"/>
	<path class="st1" d="M246.7,86.9c0-1.9,0.9-2.6,2-2.6c1,0,1.6,0.6,1.6,2.2v6.4h5.2v-7.3c0-4-2.3-5.7-5.2-5.7
		c-1.4,0-2.6,0.4-3.6,1.3v-5.6h-5.2v17.3h5.2V86.9z"/>
	<rect x="257.8" y="80.1" class="st1" width="5.2" height="12.8"/>
	<path class="st1" d="M260.4,79.1c1.9,0,3.2-1.2,3.2-2.8c0-1.5-1.2-2.6-3.2-2.6s-3.2,1.2-3.2,2.7S258.5,79.1,260.4,79.1z"/>
	<path class="st1" d="M272.2,93.2c3.1,0,5.4-1.4,6.2-3.8l-4.1-2c-0.5,1.2-1.3,1.7-2.2,1.7c-1.2,0-2.2-0.8-2.2-2.5
		c0-1.7,1-2.5,2.2-2.5c0.9,0,1.7,0.5,2.2,1.7l4.1-2c-0.8-2.4-3.2-3.8-6.2-3.8c-4.4,0-7.5,2.7-7.5,6.6
		C264.7,90.4,267.8,93.2,272.2,93.2z"/>
	<rect x="279.7" y="75.6" class="st1" width="5.2" height="17.3"/>
	<path class="st1" d="M294.2,93.2c2.5,0,4.3-0.7,5.6-2.1l-2.7-2.8c-0.8,0.6-1.5,0.9-2.6,0.9c-1.3,0-2.2-0.5-2.6-1.5h8.8
		c0-0.4,0.1-0.9,0.1-1.2c0-4.3-3.2-6.6-7-6.6c-4.1,0-7.2,2.7-7.2,6.6C286.6,90.3,289.6,93.2,294.2,93.2z M293.8,83.5
		c1.1,0,1.8,0.6,2,1.7h-4.1C292,84.1,292.7,83.5,293.8,83.5z"/>
	<polygon class="st1" points="200.5,123.5 205.1,123.5 212.8,101.5 208.1,101.5 	"/>
	<path class="st1" d="M235.1,111c0-3.8-2.9-6.2-7.4-6.2h-7.8v16.4h5.5v-4h2.3C232.2,117.2,235.1,114.8,235.1,111z M227.4,112.9h-2
		v-3.8h2c1.5,0,2.2,0.7,2.2,1.9S228.9,112.9,227.4,112.9z"/>
	<path class="st1" d="M243.5,108.2c-4.1,0-7.2,2.7-7.2,6.6c0,3.8,3,6.6,7.7,6.6c2.5,0,4.3-0.7,5.6-2.1l-2.7-2.8
		c-0.8,0.6-1.5,0.9-2.6,0.9c-1.3,0-2.2-0.5-2.6-1.5h8.8c0-0.4,0.1-0.9,0.1-1.2C250.5,110.5,247.3,108.2,243.5,108.2z M241.5,113.5
		c0.2-1.1,1-1.7,2-1.7c1.1,0,1.8,0.6,2,1.7H241.5z"/>
	<path class="st1" d="M252.2,108.4v12.8h5.2v-5.7c0-2,1.1-2.8,2.7-2.8c0.4,0,0.7,0,1.2,0.1v-4.7c-1.8,0-3.2,0.5-4.1,1.6v-1.4H252.2z
		"/>
	<path class="st1" d="M274.3,117.1c0-5.1-7.3-3.4-7.3-4.7c0-0.3,0.4-0.6,1.7-0.6c1.1,0,2.4,0.2,3.7,0.9l1.4-3.5
		c-1.3-0.7-3.3-1.1-5.2-1.1c-4.3,0-6.5,2-6.5,4.4c0,5.1,7.3,3.4,7.3,4.7c0,0.4-0.3,0.6-1.6,0.6c-1.5,0-3.2-0.4-4.4-1.1l-1.4,3.5
		c1.3,0.7,3.6,1.3,5.8,1.3C272.1,121.4,274.3,119.4,274.3,117.1z"/>
	<path class="st1" d="M282.6,108.2c-4.3,0-7.4,2.7-7.4,6.6s3.1,6.6,7.4,6.6c4.3,0,7.4-2.8,7.4-6.6S286.9,108.2,282.6,108.2z
		 M282.6,117.3c-1.2,0-2.1-0.9-2.1-2.5s0.9-2.5,2.1-2.5s2.1,0.8,2.1,2.5S283.7,117.3,282.6,117.3z"/>
	<path class="st1" d="M300.4,108.2c-1.5,0-2.8,0.5-3.8,1.5v-1.3h-5v12.8h5.2v-6c0-1.9,0.9-2.6,2-2.6c1,0,1.6,0.6,1.6,2.2v6.4h5.2
		v-7.3C305.6,109.9,303.4,108.2,300.4,108.2z"/>
	<path class="st1" d="M235.9,647.3c1-0.5,1.6-1.4,1.6-2.6c0-1.9-1.5-3.2-3.8-3.2h-4v8.4h2.8v-2.1h0.8l1.4,2.1h3L235.9,647.3z
		 M233.5,645.6h-1v-2h1c0.8,0,1.2,0.4,1.2,1C234.7,645.2,234.3,645.6,233.5,645.6z"/>
	<path class="st1" d="M242.1,650c1.3,0,2.2-0.4,2.9-1.1l-1.4-1.4c-0.4,0.3-0.8,0.5-1.4,0.5c-0.7,0-1.1-0.3-1.3-0.8h4.6
		c0-0.2,0-0.4,0-0.6c0-2.2-1.7-3.4-3.6-3.4c-2.1,0-3.7,1.4-3.7,3.4C238.2,648.5,239.7,650,242.1,650z M241.9,645
		c0.6,0,0.9,0.3,1.1,0.9h-2.1C241,645.3,241.3,645,241.9,645z"/>
	<polygon class="st1" points="251,643.3 249.6,646.8 248.2,643.3 245.5,643.3 248.1,649.9 250.9,649.9 253.5,643.3 	"/>
	<rect x="254" y="643.3" class="st1" width="2.7" height="6.6"/>
	<path class="st1" d="M255.3,640c-1,0-1.6,0.6-1.6,1.4c0,0.8,0.6,1.4,1.6,1.4c1,0,1.6-0.6,1.6-1.4C257,640.6,256.3,640,255.3,640z"
		/>
	<path class="st1" d="M264.9,646.6c0-2.2-1.7-3.4-3.6-3.4c-2.1,0-3.7,1.4-3.7,3.4c0,2,1.6,3.4,4,3.4c1.3,0,2.2-0.4,2.9-1.1l-1.4-1.4
		c-0.4,0.3-0.8,0.5-1.4,0.5c-0.7,0-1.1-0.3-1.3-0.8h4.6C264.8,647,264.9,646.8,264.9,646.6z M260.2,645.9c0.1-0.6,0.5-0.9,1.1-0.9
		c0.6,0,0.9,0.3,1.1,0.9H260.2z"/>
	<polygon class="st1" points="273.2,646.8 272.1,643.3 269.8,643.3 268.6,646.8 267.5,643.3 264.9,643.3 267.2,649.9 269.9,649.9 
		270.9,646.8 271.9,649.9 274.5,649.9 276.8,643.3 274.4,643.3 	"/>
	<polygon class="st1" points="241.3,655.7 238.9,655.7 234.9,667 237.3,667 	"/>
	<polygon class="st1" points="252,663.7 247.8,663.7 247.8,662.6 251.3,662.6 251.3,660.6 247.8,660.6 247.8,659.6 251.8,659.6 
		251.8,657.5 245,657.5 245,665.8 252,665.8 	"/>
	<path class="st1" d="M260.2,665.8v-8.9h-2.7v2.8c-0.4-0.4-0.9-0.6-1.7-0.6c-1.7,0-3.2,1.3-3.2,3.4c0,2.1,1.5,3.4,3.2,3.4
		c0.8,0,1.4-0.2,1.8-0.7v0.5H260.2z M256.5,663.9c-0.6,0-1.1-0.4-1.1-1.3s0.5-1.3,1.1-1.3c0.6,0,1.1,0.4,1.1,1.3
		S257.1,663.9,256.5,663.9z"/>
	<rect x="261.4" y="659.3" class="st1" width="2.7" height="6.6"/>
	<path class="st1" d="M262.8,658.8c1,0,1.6-0.6,1.6-1.4c0-0.8-0.6-1.3-1.6-1.3c-1,0-1.6,0.6-1.6,1.4
		C261.2,658.2,261.8,658.8,262.8,658.8z"/>
	<path class="st1" d="M268.9,663.9c-0.3,0-0.6-0.2-0.6-0.6v-1.7h1.3v-2h-1.3v-1.8h-2.7v1.8h-0.9v2h0.9v1.7c0,1.8,1.1,2.7,2.9,2.7
		c0.6,0,1.2-0.1,1.7-0.3l-0.6-1.9C269.3,663.9,269.1,663.9,268.9,663.9z"/>
	<path class="st1" d="M332.9,701.7c-0.8,0-1.7-0.3-2.3-0.7l-0.5,1.2c0.6,0.5,1.7,0.8,2.8,0.8c2,0,3-1,3-2.2c0-2.6-4.1-1.7-4.1-3
		c0-0.4,0.4-0.8,1.3-0.8c0.6,0,1.3,0.2,1.9,0.5l0.5-1.2c-0.6-0.4-1.5-0.6-2.4-0.6c-2,0-2.9,1-2.9,2.2c0,2.6,4.1,1.7,4.1,3
		C334.3,701.4,333.9,701.7,332.9,701.7z"/>
	<path class="st1" d="M339.5,703c1.7,0,2.9-1.1,2.9-2.8s-1.2-2.8-2.9-2.8s-3,1.1-3,2.8S337.8,703,339.5,703z M339.5,698.7
		c0.8,0,1.4,0.6,1.4,1.5s-0.6,1.5-1.4,1.5s-1.4-0.6-1.4-1.5S338.7,698.7,339.5,698.7z"/>
	<path class="st1" d="M346.1,703c1.1,0,2-0.5,2.4-1.4l-1.2-0.7c-0.3,0.5-0.7,0.7-1.2,0.7c-0.8,0-1.4-0.5-1.4-1.5s0.6-1.5,1.4-1.5
		c0.5,0,0.9,0.2,1.2,0.7l1.2-0.6c-0.4-0.9-1.3-1.4-2.4-1.4c-1.7,0-3,1.1-3,2.8S344.3,703,346.1,703z"/>
	<rect x="349.4" y="697.5" class="st1" width="1.6" height="5.4"/>
	<path class="st1" d="M350.1,696.8c0.6,0,1-0.4,1-0.9c0-0.5-0.4-0.8-1-0.8c-0.6,0-1,0.4-1,0.9C349.2,696.4,349.6,696.8,350.1,696.8z
		"/>
	<path class="st1" d="M355.7,702.9h1.5v-3.1c0-1.6-0.9-2.4-2.6-2.4c-0.9,0-1.7,0.2-2.3,0.6l0.6,1.1c0.4-0.3,1-0.5,1.5-0.5
		c0.8,0,1.2,0.4,1.2,1.1h-1.2c-1.6,0-2.3,0.7-2.3,1.6c0,0.9,0.7,1.6,2,1.6c0.8,0,1.3-0.3,1.6-0.8V702.9z M355.6,701.2
		c-0.2,0.5-0.6,0.7-1.1,0.7c-0.5,0-0.9-0.3-0.9-0.6c0-0.4,0.2-0.6,1-0.6h1.1V701.2z"/>
	<rect x="358.5" y="695.5" class="st1" width="1.6" height="7.4"/>
	<polygon class="st1" points="336.7,707.9 334.1,712.2 331.5,707.9 330.2,707.9 330.2,714.9 331.7,714.9 331.7,710.8 333.7,714.2 
		334.5,714.2 336.5,710.7 336.5,714.9 338.1,714.9 338,707.9 	"/>
	<path class="st1" d="M342.1,709.4c-1.6,0-2.9,1.2-2.9,2.8c0,1.6,1.2,2.8,3.1,2.8c1,0,1.7-0.3,2.2-0.9l-0.8-0.9
		c-0.4,0.4-0.8,0.5-1.3,0.5c-0.8,0-1.4-0.4-1.5-1.1h4.1c0-0.1,0-0.3,0-0.4C344.9,710.5,343.7,709.4,342.1,709.4z M340.8,711.7
		c0.1-0.7,0.6-1.1,1.3-1.1c0.7,0,1.2,0.4,1.3,1.1H340.8z"/>
	<path class="st1" d="M349.8,710.1c-0.4-0.4-1-0.6-1.6-0.6c-1.5,0-2.7,1.1-2.7,2.8s1.2,2.8,2.7,2.8c0.7,0,1.3-0.2,1.7-0.7v0.6h1.5
		v-7.4h-1.6V710.1z M348.5,713.7c-0.8,0-1.4-0.6-1.4-1.5s0.6-1.5,1.4-1.5c0.8,0,1.4,0.6,1.4,1.5S349.3,713.7,348.5,713.7z"/>
	<rect x="352.8" y="709.5" class="st1" width="1.6" height="5.4"/>
	<path class="st1" d="M353.6,707c-0.6,0-1,0.4-1,0.9c0,0.5,0.4,0.9,1,0.9c0.6,0,1-0.4,1-0.9C354.6,707.4,354.2,707,353.6,707z"/>
	<path class="st1" d="M358,709.4c-0.9,0-1.7,0.2-2.3,0.6l0.6,1.1c0.4-0.3,1-0.5,1.5-0.5c0.8,0,1.2,0.4,1.2,1.1h-1.2
		c-1.6,0-2.3,0.7-2.3,1.6c0,0.9,0.7,1.6,2,1.6c0.8,0,1.3-0.3,1.6-0.8v0.7h1.5v-3.1C360.6,710.2,359.7,709.4,358,709.4z M359,713.2
		c-0.2,0.5-0.6,0.7-1.1,0.7c-0.5,0-0.9-0.3-0.9-0.6c0-0.4,0.2-0.6,1-0.6h1.1V713.2z"/>
	<path class="st1" d="M145.7,701.7c-0.8,0-1.7-0.3-2.3-0.7l-0.5,1.2c0.6,0.5,1.7,0.8,2.8,0.8c2,0,3-1,3-2.2c0-2.6-4.1-1.7-4.1-3
		c0-0.4,0.4-0.8,1.3-0.8c0.6,0,1.3,0.2,1.9,0.5l0.5-1.2c-0.6-0.4-1.5-0.6-2.4-0.6c-2,0-2.9,1-2.9,2.2c0,2.6,4.1,1.7,4.1,3
		C147.1,701.4,146.7,701.7,145.7,701.7z"/>
	<path class="st1" d="M151.3,700.2c0-1,0.5-1.4,1.3-1.4c0.7,0,1.1,0.4,1.1,1.3v2.8h1.6v-3.1c0-1.6-1-2.4-2.2-2.4
		c-0.7,0-1.3,0.2-1.7,0.6v-2.6h-1.6v7.4h1.6V700.2z"/>
	<path class="st1" d="M162.2,700.2c0-1.6-1.2-2.8-2.9-2.8s-3,1.1-3,2.8s1.2,2.8,3,2.8S162.2,701.8,162.2,700.2z M157.8,700.2
		c0-0.9,0.6-1.5,1.4-1.5c0.8,0,1.4,0.6,1.4,1.5s-0.6,1.5-1.4,1.5C158.4,701.7,157.8,701.1,157.8,700.2z"/>
	<polygon class="st1" points="168.3,702.9 169.8,702.9 171.7,697.5 170.3,697.5 169,701.2 167.7,697.5 166.4,697.5 165.1,701.2 
		163.8,697.5 162.4,697.5 164.3,702.9 165.8,702.9 167,699.6 	"/>
	<polygon class="st1" points="174.2,703.9 175.6,703.9 178.9,694.5 177.5,694.5 	"/>
	<path class="st1" d="M149.6,710.4c0-1.6-1.2-2.5-3-2.5h-3v7h1.6v-1.9h1.4h0.1l1.3,1.9h1.7l-1.6-2.2
		C149.1,712.3,149.6,711.5,149.6,710.4z M146.5,711.7h-1.3v-2.4h1.3c1,0,1.5,0.4,1.5,1.2C148,711.2,147.5,711.7,146.5,711.7z"/>
	<path class="st1" d="M153.3,709.4c-1.6,0-2.9,1.2-2.9,2.8c0,1.6,1.2,2.8,3.1,2.8c1,0,1.7-0.3,2.2-0.9l-0.8-0.9
		c-0.4,0.4-0.8,0.5-1.3,0.5c-0.8,0-1.4-0.4-1.5-1.1h4.1c0-0.1,0-0.3,0-0.4C156.1,710.5,154.8,709.4,153.3,709.4z M151.9,711.7
		c0.1-0.7,0.6-1.1,1.3-1.1c0.7,0,1.2,0.4,1.3,1.1H151.9z"/>
	<path class="st1" d="M160.3,709.4c-0.7,0-1.3,0.2-1.7,0.7v-0.6h-1.5v7.3h1.6v-2.5c0.4,0.4,0.9,0.6,1.6,0.6c1.5,0,2.7-1.1,2.7-2.8
		S161.8,709.4,160.3,709.4z M160,713.7c-0.8,0-1.4-0.6-1.4-1.5s0.6-1.5,1.4-1.5c0.8,0,1.4,0.6,1.4,1.5S160.8,713.7,160,713.7z"/>
	<rect x="164" y="707.5" class="st1" width="1.6" height="7.4"/>
	<path class="st1" d="M169.2,709.4c-0.9,0-1.7,0.2-2.3,0.6l0.6,1.1c0.4-0.3,1-0.5,1.5-0.5c0.8,0,1.2,0.4,1.2,1.1H169
		c-1.6,0-2.3,0.7-2.3,1.6c0,0.9,0.8,1.6,2,1.6c0.8,0,1.3-0.3,1.6-0.8v0.7h1.5v-3.1C171.8,710.2,170.8,709.4,169.2,709.4z
		 M170.2,713.2c-0.2,0.5-0.6,0.7-1.1,0.7c-0.5,0-0.9-0.3-0.9-0.6c0-0.4,0.2-0.6,1-0.6h1.1V713.2z"/>
	<path class="st1" d="M175.4,713.2l-1.5-3.6h-1.6l2.3,5.4l0,0c-0.2,0.5-0.5,0.7-0.9,0.7c-0.3,0-0.6-0.1-0.9-0.3l-0.6,1.1
		c0.4,0.3,0.9,0.5,1.5,0.5c1,0,1.7-0.4,2.2-1.7l2.4-5.7h-1.5L175.4,713.2z"/>
	<polygon class="st1" points="237.5,759.6 240.8,759.6 240.8,758.3 237.5,758.3 237.5,756.8 241.2,756.8 241.2,755.5 235.9,755.5 
		235.9,762.5 241.4,762.5 241.4,761.2 237.5,761.2 	"/>
	<polygon class="st1" points="247.6,757.1 245.9,757.1 244.8,758.7 243.6,757.1 241.9,757.1 243.9,759.8 241.8,762.5 243.5,762.5 
		244.7,760.9 245.9,762.5 247.7,762.5 245.6,759.8 	"/>
	<path class="st1" d="M251.6,757.1c-0.7,0-1.3,0.2-1.7,0.7v-0.6h-1.5v7.3h1.6v-2.5c0.4,0.4,0.9,0.6,1.6,0.6c1.5,0,2.7-1.1,2.7-2.8
		S253.1,757.1,251.6,757.1z M251.3,761.3c-0.8,0-1.4-0.6-1.4-1.5s0.6-1.5,1.4-1.5s1.4,0.6,1.4,1.5S252.1,761.3,251.3,761.3z"/>
	<path class="st1" d="M257.9,757.1c-1.7,0-3,1.1-3,2.8s1.2,2.8,3,2.8s2.9-1.1,2.9-2.8S259.6,757.1,257.9,757.1z M257.9,761.3
		c-0.8,0-1.4-0.6-1.4-1.5s0.6-1.5,1.4-1.5s1.4,0.6,1.4,1.5S258.7,761.3,257.9,761.3z"/>
	<path class="st1" d="M263.4,757.8v-0.7h-1.5v5.4h1.6V760c0-1,0.6-1.5,1.4-1.5c0.1,0,0.2,0,0.3,0v-1.4
		C264.4,757.1,263.7,757.3,263.4,757.8z"/>
	<path class="st1" d="M268.7,761.4c-0.4,0-0.7-0.3-0.7-0.7v-2.2h1.3v-1.2h-1.3V756h-1.6v1.3h-0.8v1.2h0.8v2.2c0,1.3,0.7,1.9,2,1.9
		c0.5,0,1-0.1,1.3-0.3l-0.4-1.1C269.2,761.3,269,761.4,268.7,761.4z"/>
</g>
</svg>
