<?xml version="1.0" encoding="utf-8"?>
<!-- Generator: Adobe Illustrator 23.0.3, SVG Export Plug-In . SVG Version: 6.00 Build 0)  -->
<svg version="1.1" id="Layer_1" xmlns="https://www.w3.org/2000/svg" xmlns:xlink="https://www.w3.org/1999/xlink" x="0px" y="0px"
	 viewBox="0 0 130.5 52.3" style="enable-background:new 0 0 130.5 52.3;" xml:space="preserve">
<style type="text/css">
	.st0{fill:#7487A3;}
	.st1{fill:none;}
</style>
<g>
	<path class="st0" d="M1.5,14.9c-0.9,0-1.5,0.7-1.5,1.5l0,27.3c0,0.8,0.7,1.5,1.5,1.5l9.7,0l11.5,0c0.9,0,1.5-0.7,1.5-1.5l0-6.2
		c0,0.1-0.1,0.2-0.2,0.2h-0.1c-3.1,0-6-1.5-8-4.2l-3.9-5.2c-0.1-0.1-0.2,0-0.2,0.1l0,8.4c0,0.5-0.5,1-1,1H5.9
		c-0.7,0-1.2-0.5-1.2-1.1l0-16.5l0-4.9c0-0.1,0.1-0.2,0.2-0.2"/>
	<g>
		<path class="st0" d="M27.6,7.1l-21.4,0c-0.8,0-1.5,0.6-1.5,1.4l0,6.5c0-0.1,0.1-0.2,0.2-0.2h0.6c2.7,0,5.3,1.4,7.1,3.7l4.3,5.7
			c0.1,0.1,0.2,0,0.2-0.1l0-8.2c0-0.7,0.6-1.2,1.3-1.2l4.8,0c0.7,0,1.2,0.5,1.2,1.1l0,16.5l0,4.9c0,0.1-0.1,0.2-0.2,0.2h3.4
			c0.8,0,1.5-0.6,1.5-1.4l0-27.6C29.1,7.7,28.4,7.1,27.6,7.1z"/>
	</g>
	<path class="st1" d="M17.1,24.2c0,0.1-0.2,0.2-0.2,0.1l-4.3-5.7c-1.8-2.4-4.4-3.7-7.1-3.7H4.8c-0.1,0-0.2,0.1-0.2,0.2l0,4.9l0,16.5
		c0,0.6,0.5,1.1,1.2,1.1H11c0.6,0,1-0.4,1-1l0-8.4c0-0.1,0.2-0.2,0.2-0.1l3.9,5.2c2,2.7,4.9,4.2,8,4.2h0.1c0.1,0,0.2-0.1,0.2-0.2
		l0-4.9l0-16.5c0-0.6-0.5-1.1-1.2-1.1l-4.8,0c-0.7,0-1.3,0.5-1.3,1.2L17.1,24.2z"/>
	<g>
		<path class="st0" d="M101.7,32.4c-3.2,0-5.6-2.6-5.6-6v0c0-3.4,2.4-6,5.6-6c2,0,3.3,0.8,4.5,2l0.7-0.7c-1.4-1.3-2.8-2.1-5.2-2.1
			c-3.9,0-6.7,3.1-6.7,6.9v0c0,3.8,2.8,6.9,6.6,6.9c2.4,0,3.9-0.9,5.3-2.3l-0.7-0.6C104.9,31.6,103.6,32.4,101.7,32.4z"/>
		<path class="st0" d="M113.9,25.9c-3.2-0.6-3.9-1.5-3.9-2.9v0c0-1.4,1.3-2.5,3.3-2.5c1.5,0,2.7,0.4,4,1.5l0.6-0.8
			c-1.4-1.1-2.6-1.6-4.6-1.6c-2.5,0-4.3,1.5-4.3,3.5v0c0,2,1.3,3.1,4.5,3.8c3,0.6,3.8,1.4,3.8,2.8v0c0,1.5-1.4,2.6-3.4,2.6
			c-2,0-3.3-0.6-4.8-2l-0.6,0.7c1.6,1.4,3.2,2.1,5.4,2.1c2.6,0,4.4-1.5,4.4-3.6v0C118.3,27.6,117,26.5,113.9,25.9z"/>
		<polygon class="st0" points="129.5,19.7 129.5,25.9 121,25.9 121,19.7 120,19.7 120,33 121,33 121,26.8 129.5,26.8 129.5,33 
			130.5,33 130.5,19.7 		"/>
		<path class="st0" d="M53.9,19.3c-4.1,0-7.1,3.1-7.1,6.9v0c0,3.8,3,6.9,7.1,6.9c4.1,0,7.1-3.1,7.1-6.9v0
			C61,22.3,58.1,19.3,53.9,19.3z M58,26.2c0,2.3-1.6,4.2-4,4.2c-2.4,0-4.1-1.9-4.1-4.2v0c0-2.3,1.6-4.2,4-4.2
			C56.3,22,58,23.9,58,26.2L58,26.2z"/>
		<path class="st0" d="M72,19.5c-0.9,0-1.7,0.6-2,1.4l-3,8.1l-3-8.1c-0.3-0.8-1.1-1.4-2-1.4h-1.8L65.7,33h2.6l5.4-13.5H72z"/>
		<path class="st0" d="M42.6,20.4L42.6,20.4l0,7.4l-5.5-7.3c-0.5-0.6-1.2-1-2-1h-1.5l0,13.4h2.9l0-8.5l5.8,7.6
			c0.4,0.6,1.1,0.9,1.8,0.9h1.2l0-13.4h-2.8V20.4z"/>
		<path class="st0" d="M75.7,19.5L69.9,33h1.9c0.7,0,1.3-0.4,1.6-1.1l0.8-1.9l5.7,0l0.8,1.9c0.3,0.6,0.9,1.1,1.6,1.1h1.9l-5.7-13.5
			L75.7,19.5z M75.2,27.4l1.8-4.3l1.8,4.3L75.2,27.4z"/>
		<polygon class="st0" points="84.8,31.9 85.3,33 85.8,33 85.8,27 93.3,27 93.3,26.1 85.8,26.1 85.8,20.6 94.2,20.6 94.2,19.7 
			84.8,19.7 		"/>
	</g>
	<g>
		<path class="st0" d="M34.2,38.7v0.9h1.2v0.3h-1.2v1h-0.4v-2.5h1.8v0.3H34.2z"/>
		<path class="st0" d="M37.5,40.2h-1.3l-0.3,0.6h-0.4l1.1-2.5H37l1.1,2.5h-0.4L37.5,40.2z M37.3,40l-0.5-1.2L36.3,40H37.3z"/>
		<path class="st0" d="M38.8,40.7c-0.2-0.1-0.4-0.3-0.5-0.5c-0.1-0.2-0.2-0.4-0.2-0.7c0-0.2,0.1-0.5,0.2-0.7
			c0.1-0.2,0.3-0.3,0.5-0.5c0.2-0.1,0.4-0.2,0.7-0.2c0.2,0,0.4,0,0.5,0.1c0.2,0.1,0.3,0.2,0.4,0.3L40.2,39c-0.2-0.2-0.4-0.3-0.7-0.3
			c-0.2,0-0.4,0-0.5,0.1c-0.1,0.1-0.3,0.2-0.3,0.3c-0.1,0.1-0.1,0.3-0.1,0.5c0,0.2,0,0.3,0.1,0.5c0.1,0.1,0.2,0.3,0.3,0.3
			c0.1,0.1,0.3,0.1,0.5,0.1c0.3,0,0.5-0.1,0.7-0.3l0.2,0.2c-0.1,0.1-0.3,0.2-0.4,0.3c-0.2,0.1-0.3,0.1-0.5,0.1
			C39.3,40.9,39,40.8,38.8,40.7z"/>
		<path class="st0" d="M41.2,40.6c-0.2-0.2-0.3-0.5-0.3-0.8v-1.4l0.4,0l0,1.4c0,0.5,0.2,0.8,0.7,0.8c0.2,0,0.4-0.1,0.5-0.2
			c0.1-0.1,0.2-0.3,0.2-0.6v-1.4H43v1.4c0,0.4-0.1,0.6-0.3,0.8c-0.2,0.2-0.4,0.3-0.8,0.3C41.6,40.9,41.3,40.8,41.2,40.6z"/>
		<path class="st0" d="M43.7,38.4H44v2.2h1.3v0.3h-1.7V38.4z"/>
		<path class="st0" d="M45.7,38.4h1c0.3,0,0.5,0.1,0.7,0.2c0.2,0.1,0.4,0.3,0.5,0.4c0.1,0.2,0.2,0.4,0.2,0.6c0,0.2-0.1,0.5-0.2,0.6
			c-0.1,0.2-0.3,0.3-0.5,0.4c-0.2,0.1-0.4,0.2-0.7,0.2h-1L45.7,38.4z M46.7,40.6c0.2,0,0.4,0,0.5-0.1c0.2-0.1,0.3-0.2,0.4-0.3
			c0.1-0.1,0.1-0.3,0.1-0.5c0-0.2,0-0.3-0.1-0.5c-0.1-0.1-0.2-0.3-0.4-0.3c-0.2-0.1-0.3-0.1-0.5-0.1h-0.7v1.9H46.7z"/>
		<path class="st0" d="M50.1,40.2h-1.3l-0.3,0.6h-0.4l1.1-2.5h0.4l1.1,2.5h-0.4L50.1,40.2z M50,40l-0.5-1.2L48.9,40H50z"/>
		<path class="st0" d="M51.1,38.4l1,0c0.3,0,0.5,0.1,0.7,0.2c0.2,0.1,0.4,0.3,0.5,0.4c0.1,0.2,0.2,0.4,0.2,0.6
			c0,0.2-0.1,0.5-0.2,0.6c-0.1,0.2-0.3,0.3-0.5,0.4c-0.2,0.1-0.4,0.2-0.7,0.2h-1V38.4z M52.1,40.6c0.2,0,0.4,0,0.5-0.1
			c0.2-0.1,0.3-0.2,0.4-0.3c0.1-0.1,0.1-0.3,0.1-0.5c0-0.2,0-0.3-0.1-0.5c-0.1-0.1-0.2-0.3-0.4-0.3c-0.2-0.1-0.3-0.1-0.5-0.1h-0.7
			l0,1.9H52.1z"/>
		<path class="st0" d="M55.8,40.6v0.3H54l0-2.5h1.8v0.3h-1.4v0.8h1.2v0.3h-1.2v0.8H55.8z"/>
		<path class="st0" d="M57.2,38.4h1c0.3,0,0.5,0.1,0.7,0.2c0.2,0.1,0.4,0.3,0.5,0.4c0.1,0.2,0.2,0.4,0.2,0.6c0,0.2-0.1,0.5-0.2,0.6
			c-0.1,0.2-0.3,0.3-0.5,0.4c-0.2,0.1-0.4,0.2-0.7,0.2h-1L57.2,38.4z M58.2,40.6c0.2,0,0.4,0,0.5-0.1c0.2-0.1,0.3-0.2,0.4-0.3
			c0.1-0.1,0.1-0.3,0.1-0.5c0-0.2,0-0.3-0.1-0.5c-0.1-0.1-0.2-0.3-0.4-0.3c-0.2-0.1-0.3-0.1-0.5-0.1h-0.7v1.9H58.2z"/>
		<path class="st0" d="M61.9,40.6v0.3l-1.8,0v-2.5h1.8v0.3h-1.4v0.8h1.2v0.3h-1.2v0.8H61.9z"/>
		<path class="st0" d="M63.8,40.7c-0.2-0.1-0.4-0.3-0.5-0.5c-0.1-0.2-0.2-0.4-0.2-0.7c0-0.2,0.1-0.5,0.2-0.7
			c0.1-0.2,0.3-0.3,0.5-0.5c0.2-0.1,0.4-0.2,0.7-0.2c0.2,0,0.4,0,0.5,0.1c0.2,0.1,0.3,0.2,0.4,0.3L65.2,39c-0.2-0.2-0.4-0.3-0.7-0.3
			c-0.2,0-0.4,0-0.5,0.1c-0.1,0.1-0.3,0.2-0.3,0.3c-0.1,0.1-0.1,0.3-0.1,0.5c0,0.2,0,0.3,0.1,0.5c0.1,0.1,0.2,0.3,0.3,0.3
			c0.1,0.1,0.3,0.1,0.5,0.1c0.3,0,0.5-0.1,0.7-0.3l0.2,0.2c-0.1,0.1-0.3,0.2-0.4,0.3c-0.2,0.1-0.3,0.1-0.5,0.1
			C64.2,40.9,64,40.8,63.8,40.7z"/>
		<path class="st0" d="M65.8,38.4h0.4l0,2.5h-0.4V38.4z"/>
		<path class="st0" d="M68.7,40.6v0.3h-1.8v-2.5h1.8v0.3h-1.4v0.8h1.2v0.3h-1.2v0.8H68.7z M68.1,38.2l-0.3-0.3l-0.3,0.3h-0.3
			l0.5-0.5h0.3l0.5,0.5H68.1z"/>
		<path class="st0" d="M71.3,38.4v2.5h-0.3L69.6,39v1.9h-0.4v-2.5h0.3l1.5,1.9v-1.9H71.3z"/>
		<path class="st0" d="M72.5,40.7c-0.2-0.1-0.4-0.3-0.5-0.5c-0.1-0.2-0.2-0.4-0.2-0.7c0-0.2,0.1-0.5,0.2-0.7
			c0.1-0.2,0.3-0.3,0.5-0.5c0.2-0.1,0.4-0.2,0.7-0.2c0.2,0,0.4,0,0.5,0.1c0.2,0.1,0.3,0.2,0.4,0.3L73.9,39c-0.2-0.2-0.4-0.3-0.7-0.3
			c-0.2,0-0.4,0-0.5,0.1c-0.1,0.1-0.3,0.2-0.3,0.3c-0.1,0.1-0.1,0.3-0.1,0.5c0,0.2,0,0.3,0.1,0.5c0.1,0.1,0.2,0.3,0.3,0.3
			c0.1,0.1,0.3,0.1,0.5,0.1c0.3,0,0.5-0.1,0.7-0.3l0.2,0.2c-0.1,0.1-0.3,0.2-0.4,0.3c-0.2,0.1-0.3,0.1-0.5,0.1
			C72.9,40.9,72.7,40.8,72.5,40.7z"/>
		<path class="st0" d="M74.6,38.4h0.4v2.5h-0.4V38.4z"/>
		<path class="st0" d="M77.2,40.2h-1.3l-0.3,0.6h-0.4l1.1-2.5h0.4l1.1,2.5h-0.4L77.2,40.2z M77.1,40l-0.5-1.2L76,40H77.1z"/>
		<path class="st0" d="M78.3,40.8c-0.2-0.1-0.3-0.1-0.4-0.2l0.1-0.3c0.1,0.1,0.2,0.2,0.4,0.2c0.1,0.1,0.3,0.1,0.5,0.1
			c0.2,0,0.4,0,0.5-0.1c0.1-0.1,0.2-0.2,0.2-0.3c0-0.1,0-0.2-0.1-0.2c-0.1-0.1-0.1-0.1-0.2-0.1c-0.1,0-0.2-0.1-0.3-0.1
			c-0.2,0-0.3-0.1-0.5-0.1s-0.2-0.1-0.3-0.2C78,39.4,78,39.2,78,39.1c0-0.1,0-0.3,0.1-0.4c0.1-0.1,0.2-0.2,0.3-0.3
			c0.1-0.1,0.3-0.1,0.5-0.1c0.1,0,0.3,0,0.4,0.1c0.1,0,0.3,0.1,0.4,0.2l-0.1,0.3c-0.1-0.1-0.2-0.1-0.3-0.2c-0.1,0-0.2-0.1-0.3-0.1
			c-0.2,0-0.4,0-0.5,0.1c-0.1,0.1-0.2,0.2-0.2,0.3c0,0.1,0,0.2,0.1,0.2c0.1,0.1,0.1,0.1,0.2,0.1c0.1,0,0.2,0.1,0.3,0.1
			c0.2,0,0.3,0.1,0.5,0.1c0.1,0,0.2,0.1,0.3,0.2c0.1,0.1,0.1,0.2,0.1,0.4c0,0.1,0,0.2-0.1,0.4c-0.1,0.1-0.2,0.2-0.3,0.3
			c-0.1,0.1-0.3,0.1-0.5,0.1C78.7,40.9,78.5,40.9,78.3,40.8z"/>
		<path class="st0" d="M81.4,40.8c-0.2-0.1-0.3-0.1-0.4-0.2l0.1-0.3c0.1,0.1,0.2,0.2,0.4,0.2c0.1,0.1,0.3,0.1,0.5,0.1
			c0.2,0,0.4,0,0.5-0.1c0.1-0.1,0.2-0.2,0.2-0.3c0-0.1,0-0.2-0.1-0.2c-0.1-0.1-0.1-0.1-0.2-0.1c-0.1,0-0.2-0.1-0.3-0.1
			c-0.2,0-0.3-0.1-0.5-0.1c-0.1,0-0.2-0.1-0.3-0.2c-0.1-0.1-0.1-0.2-0.1-0.4c0-0.1,0-0.3,0.1-0.4c0.1-0.1,0.2-0.2,0.3-0.3
			c0.1-0.1,0.3-0.1,0.5-0.1c0.1,0,0.3,0,0.4,0.1c0.1,0,0.3,0.1,0.4,0.2l-0.1,0.3c-0.1-0.1-0.2-0.1-0.3-0.2c-0.1,0-0.2-0.1-0.3-0.1
			c-0.2,0-0.4,0-0.5,0.1c-0.1,0.1-0.2,0.2-0.2,0.3c0,0.1,0,0.2,0.1,0.2c0.1,0.1,0.1,0.1,0.2,0.1c0.1,0,0.2,0.1,0.3,0.1
			c0.2,0,0.3,0.1,0.5,0.1c0.1,0,0.2,0.1,0.3,0.2c0.1,0.1,0.1,0.2,0.1,0.4c0,0.1,0,0.2-0.1,0.4s-0.2,0.2-0.3,0.3
			c-0.1,0.1-0.3,0.1-0.5,0.1C81.7,40.9,81.6,40.9,81.4,40.8z"/>
		<path class="st0" d="M83.8,40.7c-0.2-0.1-0.4-0.3-0.5-0.5c-0.1-0.2-0.2-0.4-0.2-0.6c0-0.2,0.1-0.5,0.2-0.6
			c0.1-0.2,0.3-0.3,0.5-0.5c0.2-0.1,0.4-0.2,0.7-0.2c0.2,0,0.5,0.1,0.7,0.2c0.2,0.1,0.4,0.3,0.5,0.5c0.1,0.2,0.2,0.4,0.2,0.7
			c0,0.2-0.1,0.5-0.2,0.7c-0.1,0.2-0.3,0.3-0.5,0.5c-0.2,0.1-0.4,0.2-0.7,0.2C84.2,40.9,84,40.8,83.8,40.7z M85,40.5
			c0.1-0.1,0.3-0.2,0.3-0.3c0.1-0.1,0.1-0.3,0.1-0.5c0-0.2,0-0.3-0.1-0.5c-0.1-0.1-0.2-0.3-0.3-0.3s-0.3-0.1-0.5-0.1s-0.3,0-0.5,0.1
			s-0.3,0.2-0.3,0.3c-0.1,0.1-0.1,0.3-0.1,0.5c0,0.2,0,0.3,0.1,0.5c0.1,0.1,0.2,0.3,0.3,0.3s0.3,0.1,0.5,0.1S84.8,40.5,85,40.5z"/>
		<path class="st0" d="M86.7,40.7c-0.2-0.1-0.4-0.3-0.5-0.5c-0.1-0.2-0.2-0.4-0.2-0.7c0-0.2,0.1-0.5,0.2-0.7
			c0.1-0.2,0.3-0.3,0.5-0.5c0.2-0.1,0.4-0.2,0.7-0.2c0.2,0,0.4,0,0.5,0.1c0.2,0.1,0.3,0.2,0.4,0.3L88.1,39c-0.2-0.2-0.4-0.3-0.7-0.3
			c-0.2,0-0.4,0-0.5,0.1c-0.1,0.1-0.3,0.2-0.3,0.3s-0.1,0.3-0.1,0.5c0,0.2,0,0.3,0.1,0.5c0.1,0.1,0.2,0.3,0.3,0.3
			c0.1,0.1,0.3,0.1,0.5,0.1c0.3,0,0.5-0.1,0.7-0.3l0.2,0.2c-0.1,0.1-0.3,0.2-0.4,0.3c-0.2,0.1-0.3,0.1-0.5,0.1
			C87.1,40.9,86.9,40.8,86.7,40.7z"/>
		<path class="st0" d="M88.8,38.4h0.4v2.5h-0.4V38.4z"/>
		<path class="st0" d="M91.4,40.2h-1.3l-0.3,0.6h-0.4l1.1-2.5h0.4l1.1,2.5h-0.4L91.4,40.2z M91.3,40l-0.5-1.2L90.2,40H91.3z"/>
		<path class="st0" d="M92.4,38.4h0.4v2.5h-0.4V38.4z"/>
		<path class="st0" d="M93.6,40.8c-0.2-0.1-0.3-0.1-0.4-0.2l0.1-0.3c0.1,0.1,0.2,0.2,0.4,0.2c0.1,0.1,0.3,0.1,0.5,0.1
			c0.2,0,0.4,0,0.5-0.1c0.1-0.1,0.2-0.2,0.2-0.3c0-0.1,0-0.2-0.1-0.2c-0.1-0.1-0.1-0.1-0.2-0.1c-0.1,0-0.2-0.1-0.3-0.1
			c-0.2,0-0.3-0.1-0.5-0.1c-0.1,0-0.2-0.1-0.3-0.2c-0.1-0.1-0.1-0.2-0.1-0.4c0-0.1,0-0.3,0.1-0.4c0.1-0.1,0.2-0.2,0.3-0.3
			c0.1-0.1,0.3-0.1,0.5-0.1c0.1,0,0.3,0,0.4,0.1c0.1,0,0.3,0.1,0.4,0.2l-0.1,0.3c-0.1-0.1-0.2-0.1-0.3-0.2c-0.1,0-0.2-0.1-0.3-0.1
			c-0.2,0-0.4,0-0.5,0.1c-0.1,0.1-0.2,0.2-0.2,0.3c0,0.1,0,0.2,0.1,0.2c0.1,0.1,0.1,0.1,0.2,0.1c0.1,0,0.2,0.1,0.3,0.1
			c0.2,0,0.3,0.1,0.5,0.1c0.1,0,0.2,0.1,0.3,0.2c0.1,0.1,0.1,0.2,0.1,0.4c0,0.1,0,0.2-0.1,0.4c-0.1,0.1-0.2,0.2-0.3,0.3
			c-0.1,0.1-0.3,0.1-0.5,0.1C94,40.9,93.8,40.9,93.6,40.8z"/>
		<path class="st0" d="M98.3,40.6v0.3h-1.8v-2.5h1.8v0.3h-1.4v0.8h1.2v0.3l-1.2,0v0.8L98.3,40.6z"/>
		<path class="st0" d="M101.9,38.4v2.5h-0.4v-1.1h-1.4v1.1h-0.4v-2.5h0.4v1.1h1.4v-1.1H101.9z"/>
		<path class="st0" d="M102.8,40.6c-0.2-0.2-0.3-0.5-0.3-0.8v-1.4h0.4v1.4c0,0.5,0.2,0.8,0.7,0.8c0.2,0,0.4-0.1,0.5-0.2
			c0.1-0.1,0.2-0.3,0.2-0.6v-1.4h0.3v1.4c0,0.4-0.1,0.6-0.3,0.8c-0.2,0.2-0.4,0.3-0.8,0.3C103.3,40.9,103,40.8,102.8,40.6z"/>
		<path class="st0" d="M107.6,40.9l0-1.8l-0.9,1.5h-0.2l-0.9-1.5v1.8l-0.3,0v-2.5h0.3l1,1.7l1-1.7h0.3l0,2.5H107.6z"/>
		<path class="st0" d="M110.2,40.2h-1.3l-0.3,0.6h-0.4l1.1-2.5h0.4l1.1,2.5h-0.4L110.2,40.2z M110.1,40l-0.5-1.2L109,40H110.1z"/>
		<path class="st0" d="M113.3,38.4v2.5H113l-1.5-1.9l0,1.9h-0.4v-2.5h0.3l1.5,1.9v-1.9H113.3z"/>
		<path class="st0" d="M115.6,40.2h-1.3l-0.3,0.6h-0.4l1.1-2.5h0.4l1.1,2.5h-0.4L115.6,40.2z M115.5,40l-0.5-1.2l-0.5,1.2H115.5z"/>
		<path class="st0" d="M116.8,40.8c-0.2-0.1-0.3-0.1-0.4-0.2l0.1-0.3c0.1,0.1,0.2,0.2,0.4,0.2c0.1,0.1,0.3,0.1,0.5,0.1
			c0.2,0,0.4,0,0.5-0.1c0.1-0.1,0.2-0.2,0.2-0.3c0-0.1,0-0.2-0.1-0.2c-0.1-0.1-0.1-0.1-0.2-0.1c-0.1,0-0.2-0.1-0.3-0.1
			c-0.2,0-0.3-0.1-0.5-0.1c-0.1,0-0.2-0.1-0.3-0.2c-0.1-0.1-0.1-0.2-0.1-0.4c0-0.1,0-0.3,0.1-0.4c0.1-0.1,0.2-0.2,0.3-0.3
			c0.1-0.1,0.3-0.1,0.5-0.1c0.1,0,0.3,0,0.4,0.1c0.1,0,0.3,0.1,0.4,0.2l-0.1,0.3c-0.1-0.1-0.2-0.1-0.3-0.2c-0.1,0-0.2-0.1-0.3-0.1
			c-0.2,0-0.4,0-0.5,0.1c-0.1,0.1-0.2,0.2-0.2,0.3c0,0.1,0,0.2,0.1,0.2c0.1,0.1,0.1,0.1,0.2,0.1c0.1,0,0.2,0.1,0.3,0.1
			c0.2,0,0.3,0.1,0.5,0.1c0.1,0,0.2,0.1,0.3,0.2c0.1,0.1,0.1,0.2,0.1,0.4c0,0.1,0,0.2-0.1,0.4c-0.1,0.1-0.2,0.2-0.3,0.3
			c-0.1,0.1-0.3,0.1-0.5,0.1C117.1,40.9,116.9,40.9,116.8,40.8z"/>
		<path class="st0" d="M34,44.9c-0.2-0.2-0.3-0.5-0.3-0.9v-1.4h0.7V44c0,0.4,0.2,0.6,0.5,0.6c0.3,0,0.5-0.2,0.5-0.6v-1.4H36V44
			c0,0.4-0.1,0.7-0.3,0.9c-0.2,0.2-0.5,0.3-0.9,0.3C34.5,45.2,34.2,45.1,34,44.9z"/>
		<path class="st0" d="M38.8,42.6v2.5h-0.6l-1.1-1.3v1.3h-0.7v-2.5H37l1.1,1.3v-1.3L38.8,42.6z"/>
		<path class="st0" d="M39.3,42.6H40l0,2.5h-0.7L39.3,42.6z"/>
		<path class="st0" d="M43,42.6L42,45.1h-0.7l-1.1-2.5H41l0.7,1.6l0.7-1.6H43z"/>
		<path class="st0" d="M45.2,44.6v0.5h-2l0-2.5h1.9v0.5h-1.3v0.4l1.1,0v0.5h-1.1v0.5H45.2z"/>
		<path class="st0" d="M46.7,44.5h-0.4l0,0.7h-0.7v-2.5h1.1c0.2,0,0.4,0,0.6,0.1c0.2,0.1,0.3,0.2,0.4,0.3c0.1,0.1,0.1,0.3,0.1,0.5
			c0,0.2,0,0.3-0.1,0.5c-0.1,0.1-0.2,0.2-0.4,0.3l0.5,0.8l-0.8,0L46.7,44.5z M47,43.3c-0.1-0.1-0.2-0.1-0.3-0.1h-0.4v0.7h0.4
			c0.1,0,0.3,0,0.3-0.1c0.1-0.1,0.1-0.2,0.1-0.3S47.1,43.4,47,43.3z"/>
		<path class="st0" d="M48.5,45.1c-0.2,0-0.3-0.1-0.5-0.2l0.2-0.5c0.1,0.1,0.2,0.1,0.4,0.2c0.1,0,0.3,0.1,0.4,0.1
			c0.3,0,0.4-0.1,0.4-0.2c0-0.1,0-0.1-0.1-0.2c-0.1,0-0.2-0.1-0.4-0.1c-0.2,0-0.3-0.1-0.5-0.1c-0.1,0-0.2-0.1-0.3-0.2
			c-0.1-0.1-0.1-0.2-0.1-0.4c0-0.2,0-0.3,0.1-0.4c0.1-0.1,0.2-0.2,0.4-0.3c0.2-0.1,0.4-0.1,0.6-0.1c0.2,0,0.3,0,0.5,0.1
			c0.2,0,0.3,0.1,0.4,0.2l-0.2,0.5c-0.2-0.1-0.5-0.2-0.7-0.2c-0.1,0-0.2,0-0.3,0.1c-0.1,0-0.1,0.1-0.1,0.2s0,0.1,0.1,0.1
			c0.1,0,0.2,0.1,0.4,0.1c0.2,0,0.3,0.1,0.5,0.1c0.1,0,0.2,0.1,0.3,0.2c0.1,0.1,0.1,0.2,0.1,0.4c0,0.1,0,0.3-0.1,0.4
			c-0.1,0.1-0.2,0.2-0.4,0.3s-0.4,0.1-0.6,0.1C48.9,45.2,48.7,45.2,48.5,45.1z"/>
		<path class="st0" d="M50.5,42.6h0.7v2.5h-0.7V42.6z"/>
		<path class="st0" d="M51.7,42.6h1.2c0.3,0,0.5,0.1,0.7,0.2c0.2,0.1,0.4,0.2,0.5,0.4s0.2,0.4,0.2,0.7c0,0.3-0.1,0.5-0.2,0.7
			s-0.3,0.3-0.5,0.4c-0.2,0.1-0.5,0.2-0.7,0.2h-1.2L51.7,42.6z M52.9,44.6c0.2,0,0.4-0.1,0.5-0.2c0.1-0.1,0.2-0.3,0.2-0.5
			c0-0.2-0.1-0.4-0.2-0.5s-0.3-0.2-0.5-0.2h-0.4l0,1.4H52.9z"/>
		<path class="st0" d="M56.3,44.6h-1.1L55,45.1h-0.7l1.1-2.5h0.7l1.1,2.5h-0.7L56.3,44.6z M56.1,44.1l-0.3-0.8l-0.3,0.8H56.1z"/>
		<path class="st0" d="M57.4,42.6h1.2c0.3,0,0.5,0.1,0.7,0.2c0.2,0.1,0.4,0.2,0.5,0.4s0.2,0.4,0.2,0.7c0,0.3-0.1,0.5-0.2,0.7
			s-0.3,0.3-0.5,0.4c-0.2,0.1-0.5,0.2-0.7,0.2l-1.2,0L57.4,42.6z M58.5,44.6c0.2,0,0.4-0.1,0.5-0.2c0.1-0.1,0.2-0.3,0.2-0.5
			c0-0.2-0.1-0.4-0.2-0.5c-0.1-0.1-0.3-0.2-0.5-0.2h-0.4v1.4H58.5z"/>
		<path class="st0" d="M62.3,44.6v0.5h-2l0-2.5l1.9,0v0.5H61v0.4h1.1v0.5H61v0.5H62.3z"/>
		<path class="st0" d="M66.1,42.6v2.5h-0.6l-1.1-1.3v1.3h-0.7v-2.5h0.6l1.1,1.3v-1.3H66.1z"/>
		<path class="st0" d="M67.2,45c-0.2-0.1-0.4-0.3-0.5-0.5c-0.1-0.2-0.2-0.4-0.2-0.7c0-0.2,0.1-0.5,0.2-0.7c0.1-0.2,0.3-0.4,0.5-0.5
			c0.2-0.1,0.4-0.2,0.7-0.2s0.5,0.1,0.7,0.2c0.2,0.1,0.4,0.3,0.5,0.5c0.1,0.2,0.2,0.4,0.2,0.7c0,0.2-0.1,0.5-0.2,0.7
			s-0.3,0.4-0.5,0.5c-0.2,0.1-0.4,0.2-0.7,0.2S67.4,45.1,67.2,45z M68.2,44.5c0.1-0.1,0.2-0.1,0.2-0.3c0.1-0.1,0.1-0.2,0.1-0.4
			c0-0.1,0-0.3-0.1-0.4c-0.1-0.1-0.1-0.2-0.2-0.3c-0.1-0.1-0.2-0.1-0.3-0.1c-0.1,0-0.2,0-0.3,0.1c-0.1,0.1-0.2,0.1-0.2,0.3
			s-0.1,0.2-0.1,0.4c0,0.1,0,0.3,0.1,0.4c0.1,0.1,0.1,0.2,0.2,0.3c0.1,0.1,0.2,0.1,0.3,0.1C68,44.6,68.1,44.6,68.2,44.5z"/>
		<path class="st0" d="M72.1,42.6L71,45.1h-0.7l-1.1-2.5H70l0.7,1.6l0.7-1.6L72.1,42.6z"/>
		<path class="st0" d="M73.8,44.6h-1.1l-0.2,0.5h-0.7l1.1-2.5h0.7l1.1,2.5H74L73.8,44.6z M73.6,44.1l-0.3-0.8l-0.3,0.8H73.6z"/>
		<path class="st0" d="M75.9,42.6h1.2c0.3,0,0.5,0.1,0.7,0.2c0.2,0.1,0.4,0.2,0.5,0.4c0.1,0.2,0.2,0.4,0.2,0.7
			c0,0.3-0.1,0.5-0.2,0.7S78,44.9,77.8,45c-0.2,0.1-0.5,0.2-0.7,0.2h-1.2V42.6z M77.1,44.6c0.2,0,0.4-0.1,0.5-0.2
			c0.1-0.1,0.2-0.3,0.2-0.5c0-0.2-0.1-0.4-0.2-0.5s-0.3-0.2-0.5-0.2h-0.4v1.4H77.1z"/>
		<path class="st0" d="M80.9,44.6v0.5l-2,0v-2.5h1.9v0.5h-1.3v0.4h1.1v0.5h-1.1v0.5H80.9z"/>
		<path class="st0" d="M82.3,42.6l0.7,0v1.9h1.2v0.6h-1.9V42.6z"/>
		<path class="st0" d="M84.5,42.6h0.7v2.5h-0.7L84.5,42.6z"/>
		<path class="st0" d="M85.9,45.1c-0.2,0-0.3-0.1-0.5-0.2l0.2-0.5c0.1,0.1,0.2,0.1,0.4,0.2c0.1,0,0.3,0.1,0.4,0.1
			c0.3,0,0.4-0.1,0.4-0.2c0-0.1,0-0.1-0.1-0.2c-0.1,0-0.2-0.1-0.4-0.1c-0.2,0-0.3-0.1-0.5-0.1c-0.1,0-0.2-0.1-0.3-0.2
			c-0.1-0.1-0.1-0.2-0.1-0.4c0-0.2,0-0.3,0.1-0.4c0.1-0.1,0.2-0.2,0.4-0.3c0.2-0.1,0.4-0.1,0.6-0.1c0.2,0,0.3,0,0.5,0.1
			c0.2,0,0.3,0.1,0.4,0.2l-0.2,0.5c-0.2-0.1-0.5-0.2-0.7-0.2c-0.1,0-0.2,0-0.3,0.1c-0.1,0-0.1,0.1-0.1,0.2s0,0.1,0.1,0.1
			c0.1,0,0.2,0.1,0.4,0.1c0.2,0,0.3,0.1,0.5,0.1c0.1,0,0.2,0.1,0.3,0.2c0.1,0.1,0.1,0.2,0.1,0.4c0,0.1,0,0.3-0.1,0.4
			c-0.1,0.1-0.2,0.2-0.4,0.3s-0.4,0.1-0.6,0.1C86.3,45.2,86.1,45.2,85.9,45.1z"/>
		<path class="st0" d="M90.2,44.1c0.1,0.1,0.1,0.2,0.1,0.4c0,0.2-0.1,0.4-0.3,0.5c-0.2,0.1-0.4,0.2-0.8,0.2H88v-2.5h1.3
			c0.3,0,0.6,0.1,0.7,0.2c0.2,0.1,0.2,0.3,0.2,0.5c0,0.1,0,0.2-0.1,0.3c-0.1,0.1-0.1,0.2-0.2,0.2C90,43.9,90.1,44,90.2,44.1z
			 M88.7,43.2v0.5h0.5c0.2,0,0.4-0.1,0.4-0.2c0-0.2-0.1-0.2-0.4-0.2H88.7z M89.6,44.4c0-0.2-0.1-0.3-0.4-0.3h-0.6v0.5h0.6
			C89.5,44.6,89.6,44.5,89.6,44.4z"/>
		<path class="st0" d="M91.2,45c-0.2-0.1-0.4-0.3-0.5-0.5c-0.1-0.2-0.2-0.4-0.2-0.7c0-0.2,0.1-0.5,0.2-0.7c0.1-0.2,0.3-0.4,0.5-0.5
			c0.2-0.1,0.4-0.2,0.7-0.2s0.5,0.1,0.7,0.2c0.2,0.1,0.4,0.3,0.5,0.5s0.2,0.4,0.2,0.7c0,0.2-0.1,0.5-0.2,0.7s-0.3,0.4-0.5,0.5
			c-0.2,0.1-0.4,0.2-0.7,0.2S91.4,45.1,91.2,45z M92.3,44.5c0.1-0.1,0.2-0.1,0.2-0.3c0.1-0.1,0.1-0.2,0.1-0.4c0-0.1,0-0.3-0.1-0.4
			c-0.1-0.1-0.1-0.2-0.2-0.3c-0.1-0.1-0.2-0.1-0.3-0.1c-0.1,0-0.2,0-0.3,0.1c-0.1,0.1-0.2,0.1-0.2,0.3s-0.1,0.2-0.1,0.4
			c0,0.1,0,0.3,0.1,0.4c0.1,0.1,0.1,0.2,0.2,0.3c0.1,0.1,0.2,0.1,0.3,0.1C92.1,44.6,92.2,44.6,92.3,44.5z"/>
		<path class="st0" d="M95.3,44.6h-1.1l-0.2,0.5h-0.7l1.1-2.5h0.7l1.1,2.5h-0.7L95.3,44.6z M95.1,44.1l-0.3-0.8l-0.3,0.8H95.1z"/>
	</g>
</g>
</svg>
