<?xml version="1.0" encoding="utf-8"?>
<!-- Generator: Adobe Illustrator 23.0.3, SVG Export Plug-In . SVG Version: 6.00 Build 0)  -->
<svg version="1.1" id="Layer_1" xmlns="https://www.w3.org/2000/svg" xmlns:xlink="https://www.w3.org/1999/xlink" x="0px" y="0px"
	 viewBox="0 0 130.5 52.3" style="enable-background:new 0 0 130.5 52.3;" xml:space="preserve">
<style type="text/css">
	.st0{fill:#7487A3;}
	.st1{fill:none;}
</style>
<g>
	<circle class="st0" cx="56.4" cy="25.7" r="8.6"/>
	<path class="st0" d="M19.8,39.2l-2.5-5.6H8.5L6,39.2H0L10.5,13h4.8l10.6,26.2H19.8z M12.9,20.9l-2.6,7.5h5.3L12.9,20.9z"/>
	<path class="st0" d="M43.1,27.5c-0.5-3.7,0.6-7.5,3-10.4c-1.5-2.8-4.8-4.1-8.7-4.1H27.2v26.2h5.7V28.7h1.4c1,0,1.1,0.4,1.9,1.8
		l4.7,8.8h6.6l-5.7-11.2C42.3,27.9,42.7,27.7,43.1,27.5z M37.5,23.9h-4.6v-5.8h4.6c2.1,0,3.9,0.4,3.9,2.8S39.7,23.9,37.5,23.9
		L37.5,23.9z"/>
	<path class="st0" d="M114,39.2l-9.8-15.9v15.9h-6.6V13h7.4l9.8,15.9V13h6.6v26.2H114z"/>
	<path class="st0" d="M124.8,39.2V13h5.7v26.2H124.8z"/>
	<path class="st0" d="M85.1,13l-5.5,16.5L74.3,13h-9.1v2.6c5.6,4.8,6.2,13.3,1.4,18.8c-0.4,0.5-0.9,1-1.4,1.4v3.4h6.5V23l6,16.3h4
		l6-16.3v16.2h6.5V13H85.1z"/>
</g>
</svg>
