<?xml version="1.0" encoding="utf-8"?>
<!-- Generator: Adobe Illustrator 23.0.3, SVG Export Plug-In . SVG Version: 6.00 Build 0)  -->
<svg version="1.1" id="Layer_1" xmlns="https://www.w3.org/2000/svg" xmlns:xlink="https://www.w3.org/1999/xlink" x="0px" y="0px"
	 viewBox="0 0 130.5 52.3" style="enable-background:new 0 0 130.5 52.3;" xml:space="preserve">
<style type="text/css">
	.st0{fill:#7487A3;}
	.st1{fill:none;}
</style>
<g>
	<path class="st0" d="M22.9,28.8c3.2,0,5.7-2.6,5.7-5.7s-2.6-5.7-5.7-5.7s-5.7,2.6-5.7,5.7C17.1,26.2,19.7,28.8,22.9,28.8z"/>
	<path class="st0" d="M45.2,11.2c-0.9-1.8-2.7-2.9-4.7-2.9H5.3c-2,0-3.8,1.1-4.7,2.9C-0.3,13-0.2,15.1,1,16.7l17.6,24.9
		c1,1.4,2.6,2.2,4.3,2.2c1.7,0,3.3-0.8,4.3-2.2l17.6-24.9C46,15.1,46.1,13,45.2,11.2z M41.9,14.6L24.3,39.6
		c-0.3,0.5-0.8,0.7-1.4,0.7c-0.6,0-1-0.2-1.4-0.7L3.9,14.6c-0.4-0.5-0.4-1.2-0.1-1.7C4.1,12.3,4.7,12,5.3,12h35.2
		c0.6,0,1.2,0.3,1.5,0.9C42.3,13.5,42.2,14.1,41.9,14.6z"/>
	<g>
		<path class="st0" d="M71.5,27.3h-5.9c-0.9,0-1.6-0.7-1.6-1.6c0-0.9,0.7-1.6,1.6-1.6h5.9c0.2,0,0.4-0.2,0.4-0.4
			c0-0.2-0.1-0.3-0.3-0.3h-4.1c-2,0-3.6-1.6-3.6-3.6c0-2,1.7-3.7,3.7-3.7h5.9c0.9,0,1.6,0.7,1.6,1.6c0,0.9-0.7,1.6-1.6,1.6h-5.9
			c-0.2,0-0.4,0.2-0.4,0.4c0,0.2,0.1,0.3,0.3,0.3h4.1c2,0,3.6,1.6,3.6,3.6C75.2,25.6,73.6,27.3,71.5,27.3z"/>
		<path class="st0" d="M56.7,27.4c-3.2,0-5.7-2.6-5.7-5.7s2.6-5.7,5.7-5.7s5.7,2.6,5.7,5.7S59.8,27.4,56.7,27.4z M56.7,19.6
			c-1.2,0-2.1,0.9-2.1,2.1c0,1.2,0.9,2.1,2.1,2.1c1.2,0,2.1-0.9,2.1-2.1C58.8,20.5,57.8,19.6,56.7,19.6z"/>
		<path class="st0" d="M92.1,16.1h-1.9h-4.1h-1.9c-0.9,0-1.6,0.7-1.6,1.6c0,0.9,0.7,1.6,1.6,1.6h1.9c0.2,0,0.4,0.2,0.4,0.4v5.9
			c0,0.9,0.7,1.6,1.6,1.6s1.6-0.7,1.6-1.6v-5.9c0-0.2,0.2-0.4,0.4-0.4h1.9c0.9,0,1.6-0.7,1.6-1.6C93.8,16.8,93,16.1,92.1,16.1z"/>
		<path class="st0" d="M79.1,27.3c-0.9,0-1.6-0.7-1.6-1.6v-7.9c0-0.9,0.7-1.6,1.6-1.6s1.6,0.7,1.6,1.6v7.9
			C80.7,26.5,80,27.3,79.1,27.3z"/>
		<path class="st0" d="M104.5,25.6c0-0.1,0-0.1,0-0.2c0,0,0-0.1,0-0.1c0,0,0-0.1,0-0.1c0-0.1,0-0.1-0.1-0.2c0,0,0,0,0,0l-4-7.9
			c0,0,0,0,0,0c0-0.1-0.1-0.1-0.1-0.2c0,0-0.1-0.1-0.1-0.1c0,0-0.1-0.1-0.1-0.1c0,0-0.1-0.1-0.1-0.1c0,0-0.1-0.1-0.1-0.1
			c0,0-0.1-0.1-0.1-0.1c0,0,0,0,0,0c0,0-0.1,0-0.1,0c-0.1,0-0.1,0-0.2-0.1c0,0-0.1,0-0.2,0c-0.1,0-0.1,0-0.2,0c-0.1,0-0.1,0-0.2,0
			c-0.1,0-0.1,0-0.2,0c0,0-0.1,0-0.1,0c-0.1,0-0.1,0-0.2,0c-0.1,0-0.1,0-0.2,0.1c0,0-0.1,0-0.1,0c0,0,0,0,0,0
			c-0.1,0-0.1,0.1-0.2,0.1c0,0-0.1,0.1-0.1,0.1c0,0-0.1,0.1-0.1,0.1c0,0-0.1,0.1-0.1,0.1c0,0-0.1,0.1-0.1,0.1c0,0.1-0.1,0.1-0.1,0.2
			c0,0,0,0,0,0l-4,7.9c0,0,0,0,0,0c0,0.1,0,0.1-0.1,0.2c0,0,0,0.1,0,0.1c0,0,0,0.1,0,0.1c0,0.1,0,0.1,0,0.2c0,0,0,0,0,0
			c0,0,0,0.1,0,0.1c0,0.1,0,0.1,0,0.2c0,0.1,0,0.1,0,0.1c0,0.1,0,0.1,0,0.2c0,0,0,0.1,0.1,0.1c0,0,0,0.1,0.1,0.1
			c0,0,0.1,0.1,0.1,0.1c0,0,0.1,0.1,0.1,0.1c0,0,0.1,0.1,0.1,0.1c0,0,0.1,0.1,0.1,0.1c0,0,0.1,0.1,0.1,0.1c0,0,0.1,0,0.1,0.1
			c0,0,0,0,0,0c0.1,0,0.2,0.1,0.2,0.1c0,0,0.1,0,0.1,0c0.1,0,0.2,0,0.3,0c0,0,0,0,0,0c0,0,0,0,0,0h7.9c0,0,0,0,0,0c0,0,0,0,0,0
			c0.1,0,0.2,0,0.3,0c0,0,0.1,0,0.1,0c0.1,0,0.2-0.1,0.2-0.1c0,0,0,0,0,0c0,0,0.1,0,0.1-0.1c0.1,0,0.1-0.1,0.1-0.1
			c0,0,0.1-0.1,0.1-0.1c0,0,0.1-0.1,0.1-0.1c0,0,0.1-0.1,0.1-0.1c0,0,0.1-0.1,0.1-0.1c0,0,0.1-0.1,0.1-0.1c0,0,0-0.1,0.1-0.1
			c0-0.1,0-0.1,0-0.2c0,0,0-0.1,0-0.1c0-0.1,0-0.1,0-0.2C104.5,25.7,104.5,25.7,104.5,25.6C104.5,25.6,104.5,25.6,104.5,25.6z
			 M97.7,23.3l1.2-2.5l1.2,2.5c0.2,0.3-0.1,0.7-0.4,0.7h-1.6C97.8,24,97.5,23.6,97.7,23.3z"/>
		<path class="st0" d="M130.4,25.6c0-0.1,0-0.1,0-0.2c0,0,0-0.1,0-0.1c0,0,0-0.1,0-0.1c0-0.1,0-0.1-0.1-0.2c0,0,0,0,0,0l-4-7.9
			c0,0,0,0,0,0c0-0.1-0.1-0.1-0.1-0.2c0,0-0.1-0.1-0.1-0.1c0,0-0.1-0.1-0.1-0.1c0,0-0.1-0.1-0.1-0.1c0,0-0.1-0.1-0.1-0.1
			c0,0-0.1-0.1-0.1-0.1c0,0,0,0,0,0c0,0-0.1,0-0.1,0c-0.1,0-0.1,0-0.2-0.1c0,0-0.1,0-0.2,0c-0.1,0-0.1,0-0.2,0c-0.1,0-0.1,0-0.2,0
			c-0.1,0-0.1,0-0.2,0c0,0-0.1,0-0.1,0c-0.1,0-0.1,0-0.2,0c-0.1,0-0.1,0-0.2,0.1c0,0-0.1,0-0.1,0c0,0,0,0,0,0
			c-0.1,0-0.1,0.1-0.2,0.1c0,0-0.1,0.1-0.1,0.1c0,0-0.1,0.1-0.1,0.1c0,0-0.1,0.1-0.1,0.1c0,0-0.1,0.1-0.1,0.1c0,0.1-0.1,0.1-0.1,0.2
			c0,0,0,0,0,0l-4,7.9c0,0,0,0,0,0c0,0.1,0,0.1-0.1,0.2c0,0,0,0.1,0,0.1c0,0,0,0.1,0,0.1c0,0.1,0,0.1,0,0.2c0,0,0,0,0,0
			c0,0,0,0.1,0,0.1c0,0.1,0,0.1,0,0.2c0,0.1,0,0.1,0,0.1c0,0.1,0,0.1,0,0.2c0,0,0,0.1,0.1,0.1c0,0,0,0.1,0.1,0.1
			c0,0,0.1,0.1,0.1,0.1c0,0,0.1,0.1,0.1,0.1c0,0,0.1,0.1,0.1,0.1c0,0,0.1,0.1,0.1,0.1c0,0,0.1,0.1,0.1,0.1c0,0,0.1,0,0.1,0.1
			c0,0,0,0,0,0c0.1,0,0.2,0.1,0.2,0.1c0,0,0.1,0,0.1,0c0.1,0,0.2,0,0.3,0c0,0,0,0,0,0c0,0,0,0,0,0h7.9c0,0,0,0,0,0c0,0,0,0,0,0
			c0.1,0,0.2,0,0.3,0c0,0,0.1,0,0.1,0c0.1,0,0.2-0.1,0.2-0.1c0,0,0,0,0,0c0,0,0.1,0,0.1-0.1c0.1,0,0.1-0.1,0.1-0.1
			c0,0,0.1-0.1,0.1-0.1c0,0,0.1-0.1,0.1-0.1c0,0,0.1-0.1,0.1-0.1c0,0,0.1-0.1,0.1-0.1c0,0,0.1-0.1,0.1-0.1c0,0,0-0.1,0.1-0.1
			c0-0.1,0-0.1,0-0.2c0,0,0-0.1,0-0.1c0-0.1,0-0.1,0-0.2C130.4,25.7,130.4,25.7,130.4,25.6C130.4,25.6,130.4,25.6,130.4,25.6z
			 M123.6,23.3l1.2-2.5l1.2,2.5c0.2,0.3-0.1,0.7-0.4,0.7H124C123.6,24,123.4,23.6,123.6,23.3z"/>
		<path class="st0" d="M117.1,18.9c0.3-0.3,0.5-0.7,0.5-1.2c0-0.4-0.2-0.8-0.5-1.2s-0.7-0.5-1.2-0.5c-0.4,0-0.8,0.2-1.2,0.5
			l-2.5,2.5c0,0,0,0,0,0l-1.9,1.9c-0.1,0.1-0.3,0.2-0.4,0.1c-0.2-0.1-0.3-0.2-0.3-0.4v-3c0-0.9-0.7-1.6-1.6-1.6s-1.6,0.7-1.6,1.6v3
			v4.9c0,0,0,0,0,0v0c0,0,0,0,0,0c0,0.1,0,0.2,0,0.3c0,0,0,0.1,0,0.1c0,0.1,0,0.1,0.1,0.2c0,0.1,0.1,0.1,0.1,0.1c0,0,0,0.1,0.1,0.1
			c0,0.1,0.1,0.1,0.2,0.2c0,0,0,0,0,0c0,0,0,0,0,0c0.1,0.1,0.2,0.1,0.2,0.2c0,0,0.1,0.1,0.1,0.1c0,0,0.1,0.1,0.1,0.1
			c0.1,0,0.1,0,0.2,0.1c0,0,0.1,0,0.1,0c0.1,0,0.2,0,0.3,0c0,0,0,0,0,0c0,0,0,0,0,0c0.1,0,0.2,0,0.3,0c0,0,0.1,0,0.1,0
			c0.1,0,0.1,0,0.2-0.1c0.1,0,0.1-0.1,0.1-0.1c0,0,0.1,0,0.1-0.1c0.1,0,0.1-0.1,0.2-0.2c0,0,0,0,0,0l2.5-2.5c0.2-0.2,0.4-0.2,0.6,0
			c0,0,0,0,0,0l2.5,2.5c0.3,0.3,0.7,0.5,1.2,0.5c0.4,0,0.8-0.2,1.2-0.5c0.6-0.6,0.6-1.7,0-2.3l-2.5-2.5c0,0,0,0,0,0
			c-0.1-0.1-0.1-0.2-0.1-0.3c0-0.1,0-0.2,0.1-0.3L117.1,18.9z"/>
		<g>
			<polygon class="st0" points="54,36.4 54,34.1 52.9,36 52.6,36 51.4,34.1 51.4,36.4 50.8,36.4 50.8,32.8 51.3,32.8 52.7,35.2 
				54.1,32.8 54.6,32.8 54.7,36.4 			"/>
			<polygon class="st0" points="54.2,32.9 52.7,35.5 51.2,32.9 50.9,32.9 50.9,36.3 51.3,36.3 51.3,33.6 52.6,35.9 52.8,35.9 
				54.2,33.6 54.2,36.3 54.5,36.3 54.5,32.9 			"/>
			<path class="st0" d="M58.8,36.5c-1,0-1.6-0.6-1.6-1.6v-2.1h0.7v2c0,0.7,0.3,1,0.9,1c0.6,0,0.9-0.3,0.9-1v-2h0.6v2.1
				C60.3,35.9,59.8,36.5,58.8,36.5z"/>
			<path class="st0" d="M59.8,34.8c0,0.8-0.4,1.2-1.1,1.2c-0.7,0-1.1-0.4-1.1-1.2v-1.9h-0.4v1.9c0,1,0.5,1.5,1.4,1.5
				c0.9,0,1.4-0.5,1.4-1.5v-1.9h-0.3V34.8z"/>
			<polygon class="st0" points="62.9,36.4 62.9,32.8 63.5,32.8 63.5,35.8 65.4,35.8 65.4,36.4 			"/>
			<polygon class="st0" points="63.4,32.9 63,32.9 63,36.3 65.3,36.3 65.3,36 63.4,36 			"/>
			<polygon class="st0" points="67.9,36.4 67.9,33.4 66.7,33.4 66.7,32.8 69.7,32.8 69.7,33.4 68.5,33.4 68.5,36.4 			"/>
			<polygon class="st0" points="66.8,33.2 68,33.2 68,36.3 68.4,36.3 68.4,33.2 69.6,33.2 69.6,32.9 66.8,32.9 			"/>
			<rect x="71.8" y="32.8" class="st0" width="0.7" height="3.7"/>
			<rect x="71.9" y="32.9" class="st0" width="0.4" height="3.3"/>
			<polygon class="st0" points="78.2,36.4 78.2,34.1 77.1,36 76.8,36 75.6,34.1 75.6,36.4 75,36.4 75,32.8 75.5,32.8 77,35.2 
				78.3,32.8 78.9,32.8 78.9,36.4 			"/>
			<polygon class="st0" points="78.4,32.9 77,35.5 75.5,32.9 75.2,32.9 75.2,36.3 75.5,36.3 75.5,33.6 76.9,35.9 77,35.9 78.4,33.6 
				78.4,36.3 78.7,36.3 78.7,32.9 			"/>
			<polygon class="st0" points="81.5,36.4 81.5,32.8 84.1,32.8 84.1,33.4 82.1,33.4 82.1,34.3 83.9,34.3 83.9,34.9 82.1,34.9 
				82.1,35.8 84.1,35.8 84.1,36.4 			"/>
			<polygon class="st0" points="82,34.7 83.7,34.7 83.7,34.4 82,34.4 82,33.2 83.9,33.2 83.9,32.9 81.6,32.9 81.6,36.3 84,36.3 
				84,36 82,36 			"/>
			<path class="st0" d="M86.5,36.4v-3.7H88c1.2,0,2,0.7,2,1.8c0,1.1-0.8,1.8-2,1.8H86.5z M88,35.8c0.8,0,1.3-0.5,1.3-1.2
				s-0.5-1.2-1.3-1.2h-0.9v2.5H88z"/>
			<path class="st0" d="M88,32.9h-1.4v3.3H88c1.1,0,1.8-0.7,1.8-1.7C89.8,33.6,89.1,32.9,88,32.9z M88,36h-1v-2.8h1
				c0.9,0,1.5,0.6,1.5,1.4S88.9,36,88,36z"/>
			<rect x="92.2" y="32.8" class="st0" width="0.7" height="3.7"/>
			<rect x="92.3" y="32.9" class="st0" width="0.4" height="3.3"/>
			<path class="st0" d="M97.9,36.4l-0.4-0.9h-1.8l-0.4,0.9h-0.7l1.7-3.7H97l1.7,3.7H97.9z M97.3,35l-0.6-1.4L96,35H97.3z"/>
			<path class="st0" d="M96.5,32.9L95,36.3h0.4l0.4-0.9h1.9l0.4,0.9h0.4l-1.5-3.3H96.5z M95.8,35.2l0.9-2l0.9,2H95.8z"/>
			<path class="st0" d="M104.6,36.5c-0.5,0-1-0.2-1.3-0.4l-0.1-0.1l0.3-0.5l0.1,0.1c0.3,0.2,0.7,0.3,1,0.3c0.2,0,0.8,0,0.8-0.5
				c0-0.3-0.3-0.4-0.8-0.5c-0.6-0.1-1.3-0.3-1.3-1.1c0-0.5,0.4-1.1,1.4-1.1c0.4,0,0.8,0.1,1.1,0.3l0.1,0.1l-0.2,0.5l-0.1-0.1
				c-0.3-0.1-0.6-0.2-0.8-0.2c-0.7,0-0.8,0.3-0.8,0.5c0,0.3,0.3,0.4,0.8,0.5c0.6,0.1,1.3,0.3,1.3,1.1
				C106.1,35.9,105.7,36.5,104.6,36.5z"/>
			<path class="st0" d="M104.8,34.5c-0.5-0.1-0.9-0.2-0.9-0.7c0-0.1,0.1-0.6,0.9-0.6c0.3,0,0.6,0.1,0.9,0.3l0.1-0.3
				c-0.3-0.2-0.6-0.3-1-0.3c-0.9,0-1.3,0.5-1.3,0.9c0,0.7,0.6,0.8,1.2,0.9c0.5,0.1,0.9,0.2,0.9,0.7c0,0.4-0.3,0.6-0.9,0.6
				c-0.4,0-0.8-0.1-1.1-0.4l-0.1,0.3c0.3,0.2,0.8,0.4,1.3,0.4c0.9,0,1.3-0.5,1.3-0.9C105.9,34.8,105.3,34.6,104.8,34.5z"/>
			<polygon class="st0" points="109,36.4 109,33.4 107.8,33.4 107.8,32.8 110.8,32.8 110.8,33.4 109.6,33.4 109.6,36.4 			"/>
			<polygon class="st0" points="107.9,33.2 109.1,33.2 109.1,36.3 109.5,36.3 109.5,33.2 110.7,33.2 110.7,32.9 107.9,32.9 			"/>
			<path class="st0" d="M114.2,36.5c-1,0-1.6-0.6-1.6-1.6v-2.1h0.7v2c0,0.7,0.3,1,0.9,1c0.6,0,0.9-0.3,0.9-1v-2h0.6v2.1
				C115.8,35.9,115.2,36.5,114.2,36.5z"/>
			<path class="st0" d="M115.3,34.8c0,0.8-0.4,1.2-1.1,1.2c-0.7,0-1.1-0.4-1.1-1.2v-1.9h-0.4v1.9c0,1,0.5,1.5,1.4,1.5
				c0.9,0,1.4-0.5,1.4-1.5v-1.9h-0.3V34.8z"/>
			<path class="st0" d="M118.2,36.4v-3.7h1.5c1.2,0,2,0.7,2,1.8c0,1.1-0.8,1.8-2,1.8H118.2z M119.8,35.8c0.8,0,1.3-0.5,1.3-1.2
				s-0.5-1.2-1.3-1.2h-0.9v2.5H119.8z"/>
			<path class="st0" d="M119.8,32.9h-1.4v3.3h1.4c1.1,0,1.8-0.7,1.8-1.7C121.6,33.6,120.9,32.9,119.8,32.9z M119.8,36h-1v-2.8h1
				c0.9,0,1.5,0.6,1.5,1.4S120.7,36,119.8,36z"/>
			<rect x="123.9" y="32.8" class="st0" width="0.7" height="3.7"/>
			<rect x="124.1" y="32.9" class="st0" width="0.4" height="3.3"/>
			<path class="st0" d="M128.7,36.5c-1.1,0-1.9-0.8-1.9-1.9s0.8-1.9,1.9-1.9c1.1,0,1.9,0.8,1.9,1.9S129.8,36.5,128.7,36.5z
				 M128.7,33.3c-0.7,0-1.3,0.5-1.3,1.3s0.5,1.3,1.3,1.3c0.7,0,1.3-0.5,1.3-1.3S129.4,33.3,128.7,33.3z"/>
			<path class="st0" d="M128.7,32.9c-1,0-1.8,0.7-1.8,1.7c0,1,0.8,1.7,1.8,1.7c1,0,1.8-0.7,1.8-1.7
				C130.5,33.6,129.8,32.9,128.7,32.9z M128.7,36c-0.8,0-1.4-0.6-1.4-1.4c0-0.8,0.6-1.4,1.4-1.4c0.8,0,1.4,0.6,1.4,1.4
				C130.1,35.4,129.5,36,128.7,36z"/>
		</g>
	</g>
</g>
</svg>
