<?xml version="1.0" encoding="UTF-8"?>
<svg enable-background="new 0 0 32 32" version="1.1" viewBox="0 0 32 32" xml:space="preserve" xmlns="http://www.w3.org/2000/svg">
<style type="text/css">
	.st0{fill:#BAD0ED;}
</style>
<g>
	<path class="st0" d="m26.3 10.7c-0.3-0.1-0.7-0.2-1-0.3 0.1-0.2 0.1-0.5 0.2-0.7 0.8-3.8 0.3-6.8-1.5-7.8-1.7-1-4.4 0-7.1 2.4-0.3 0.2-0.5 0.5-0.8 0.7l-0.5-0.5c-3-2.5-5.9-3.6-7.7-2.6-1.7 1-2.2 3.8-1.5 7.4 0.1 0.4 0.1 0.7 0.2 1.1-0.4 0.1-0.8 0.2-1.2 0.4-3.2 1.2-5.4 3-5.4 4.9 0 2 2.3 4 5.8 5.2 0.3 0.1 0.6 0.2 0.9 0.3-0.1 0.4-0.2 0.8-0.3 1.1-0.7 3.5-0.1 6.3 1.5 7.3 1.7 1 4.6 0 7.4-2.5 0.2-0.2 0.4-0.4 0.7-0.6 0.3 0.3 0.6 0.5 0.9 0.8 2.7 2.3 5.4 3.3 7.1 2.3s2.3-4 1.5-7.6c-0.1-0.3-0.1-0.6-0.2-0.9 0.2-0.1 0.4-0.1 0.6-0.2 3.7-1.2 6-3.2 6-5.2 0-1.9-2.2-3.8-5.6-5zm-8.6-5.3c2.4-2.1 4.6-2.9 5.6-2.3 1.1 0.6 1.5 3.1 0.8 6.4 0 0.2-0.1 0.4-0.1 0.6-1.3-0.3-2.8-0.5-4.3-0.7-0.9-1.2-1.8-2.4-2.8-3.4 0.3-0.2 0.5-0.4 0.8-0.6zm-8.3 12c0.3 0.6 0.6 1.1 0.9 1.7s0.7 1.1 1 1.6c-1-0.1-2-0.3-2.9-0.5 0.3-0.9 0.6-1.9 1-2.8zm0-3.3c-0.4-0.9-0.7-1.9-1-2.8 0.9-0.2 1.9-0.4 2.9-0.5-0.3 0.5-0.7 1.1-1 1.6-0.3 0.6-0.6 1.2-0.9 1.7zm0.8 1.6c0.4-0.9 0.9-1.7 1.4-2.6 0.5-0.8 1-1.7 1.5-2.5 0.9-0.1 1.9-0.1 2.9-0.1s2 0 2.9 0.1c0.5 0.8 1.1 1.6 1.5 2.5 0.5 0.8 0.9 1.7 1.4 2.6-0.4 0.9-0.9 1.7-1.4 2.6-0.5 0.8-1 1.7-1.5 2.5-0.9 0.1-1.9 0.1-2.9 0.1s-2 0-2.9-0.1c-0.6-0.8-1.1-1.6-1.6-2.5-0.5-0.8-0.9-1.7-1.3-2.6zm11.4 3.3c0.3-0.6 0.6-1.1 0.9-1.7 0.4 1 0.8 1.9 1.1 2.8-0.9 0.2-1.9 0.4-3 0.5 0.4-0.5 0.7-1.1 1-1.6zm0.9-4.9c-0.3-0.6-0.6-1.1-0.9-1.7-0.3-0.5-0.6-1.1-1-1.6 1 0.1 2 0.3 2.9 0.5-0.2 1-0.6 1.9-1 2.8zm-6.5-7.1c0.6 0.7 1.3 1.4 1.9 2.3-1.3-0.1-2.5-0.1-3.8 0 0.6-0.8 1.2-1.6 1.9-2.3zm-7.4-3.9c1.1-0.6 3.4 0.3 5.9 2.5 0.2 0.1 0.4 0.3 0.5 0.4-0.9 1-1.8 2.1-2.7 3.4-1.5 0.1-2.9 0.4-4.3 0.7 0-0.4-0.1-0.7-0.2-1-0.6-3.1-0.2-5.4 0.8-6zm-1.5 16.7c-0.3-0.1-0.5-0.2-0.8-0.2-1.6-0.5-2.8-1.2-3.7-2-0.8-0.7-1.2-1.4-1.2-1.9 0-1.2 1.7-2.6 4.6-3.7 0.4-0.1 0.7-0.2 1.1-0.3 0.4 1.3 0.9 2.7 1.6 4-0.7 1.4-1.2 2.8-1.6 4.1zm7.4 6.3c-1.2 1.1-2.5 1.9-3.6 2.2-1 0.3-1.8 0.4-2.2 0.1-1-0.6-1.4-2.8-0.9-5.8 0.1-0.4 0.1-0.7 0.2-1.1 1.3 0.3 2.8 0.5 4.3 0.6 0.9 1.2 1.8 2.4 2.7 3.4-0.1 0.2-0.3 0.4-0.5 0.6zm1.5-1.6c-0.6-0.7-1.3-1.5-1.9-2.3h1.9 1.9c-0.6 0.9-1.3 1.6-1.9 2.3zm8.3 1.9c-0.2 1-0.6 1.7-1 2-1 0.6-3.2-0.2-5.5-2.2-0.3-0.2-0.5-0.5-0.8-0.7 0.9-1 1.8-2.1 2.7-3.4 1.5-0.1 3-0.4 4.3-0.7 0.1 0.3 0.1 0.5 0.2 0.8 0.3 1.6 0.3 3.1 0.1 4.2zm1.2-6.8c-0.2 0.1-0.4 0.1-0.5 0.2-0.4-1.3-0.9-2.6-1.6-4 0.6-1.4 1.2-2.7 1.6-4 0.3 0.1 0.6 0.2 0.9 0.3 3 1 4.8 2.5 4.8 3.7-0.1 1.1-2.1 2.8-5.2 3.8z"/>
	<path class="st0" d="m16 18.6c1.6 0 2.9-1.3 2.9-2.9s-1.3-2.9-2.9-2.9-2.9 1.3-2.9 2.9 1.3 2.9 2.9 2.9z"/>
</g>
</svg>
