<?xml version="1.0" encoding="UTF-8"?>
<svg enable-background="new 0 0 32 32" version="1.1" viewBox="0 0 32 32" xml:space="preserve" xmlns="http://www.w3.org/2000/svg">
<style type="text/css">
	.st0{fill:#BAD0ED;}
</style>
<path class="st0" d="m28.8 7.3h-25.6c-1.8 0-3.2 1.5-3.2 3.2v11c0 1.8 1.5 3.2 3.2 3.2h9.3l2.1-3.8c0.4-0.8 1.4-1 2.1-0.6 0.3 0.1 0.4 0.4 0.6 0.6l2.1 3.8h9.3c1.8 0 3.2-1.5 3.2-3.2v-11c0.1-1.7-1.2-3.2-3.1-3.2 0.1 0 0 0 0 0zm-20.1 12.6c-2.1 0-3.9-1.7-3.9-3.9 0-2.1 1.7-3.9 3.9-3.9 1.2 0 2.3 0.5 3 1.4 0.6 0.7 0.9 1.6 0.9 2.5 0 2.1-1.8 3.9-3.9 3.9zm14.2 0c-2.1 0-3.9-1.7-3.9-3.9s1.7-3.9 3.9-3.9 3.9 1.7 3.9 3.9c0 2.1-1.7 3.9-3.9 3.9z"/>
</svg>
