<?xml version="1.0" encoding="UTF-8"?>
<svg enable-background="new 0 0 32 32" version="1.1" viewBox="0 0 32 32" xml:space="preserve" xmlns="http://www.w3.org/2000/svg">
<style type="text/css">
	.st0{fill:#BAD0ED;}
</style>
<g>
	<path class="st0" d="m18.7 16 6.9-6.9c0.4-0.4 0.6-1 0.5-1.5-0.1-0.6-0.4-1.1-0.8-1.4l-8.7-5.9c-0.6-0.4-1.3-0.4-2-0.1-0.6 0.3-1 1-1 1.7v9.1l-4.5-4.6c-0.7-0.7-1.9-0.7-2.7 0-0.7 0.7-0.7 1.9 0 2.7l6.8 6.9-6.8 6.9c-0.7 0.7-0.7 1.9 0 2.7 0.7 0.7 1.9 0.7 2.7 0l4.5-4.6v9.1c0 0.7 0.4 1.3 1 1.7 0.6 0.3 1.4 0.3 2-0.1l8.7-5.9c0.5-0.3 0.8-0.8 0.8-1.4 0.1-0.6-0.1-1.1-0.5-1.5l-6.9-6.9zm-1.2-10.5 3.9 2.6-3.9 3.9v-6.5zm0 21v-6.5l3.9 3.9-3.9 2.6z"/>
</g>
</svg>
