<?xml version="1.0" encoding="utf-8"?>
<!-- Generator: Adobe Illustrator 23.0.2, SVG Export Plug-In . SVG Version: 6.00 Build 0)  -->
<svg version="1.1" id="Layer_1" xmlns="https://www.w3.org/2000/svg" xmlns:xlink="https://www.w3.org/1999/xlink" x="0px" y="0px"
	 viewBox="0 0 212 48" style="enable-background:new 0 0 212 48;" xml:space="preserve">
<style type="text/css">
	.st0{opacity:0.8;}
	.st1{fill:#0B101E;}
	.st2{fill:#FFFFFF;}
	.st3{fill:url(#SVGID_1_);enable-background:new    ;}
</style>
<g class="st0">
	<path class="st1" d="M20.9,46c-1.3,0-2.5-0.6-3.3-1.6l-10.1-12c-0.3-0.3-0.6-0.7-1-1.1c-2.5-3.2-3.8-7-3.8-11.1
		C2.7,10.2,10.9,2,20.9,2s18.2,8.2,18.2,18.2c0,4.1-1.3,7.9-3.8,11.1L24.2,44.5C23.4,45.4,22.2,46,20.9,46z"/>
	<path class="st1" d="M20.9,4c8.9,0,16.2,7.2,16.2,16.2c0,3.7-1.3,7.1-3.4,9.9l-11,13.1l0,0c-0.4,0.5-1.1,0.8-1.8,0.8
		c-0.7,0-1.4-0.3-1.8-0.8l0,0l0,0l0,0L9,31.1c-0.3-0.3-0.6-0.7-0.9-1.1c-2.1-2.7-3.4-6.2-3.4-9.9C4.7,11.2,11.9,4,20.9,4 M20.9,0
		C9.8,0,0.7,9,0.7,20.2c0,4.5,1.4,8.8,4.2,12.3c0.3,0.4,0.7,0.9,1.1,1.3l10.1,12c0,0,0,0,0,0.1c1.2,1.4,3,2.2,4.8,2.2
		c1.9,0,3.6-0.8,4.8-2.2l0,0l11-13.1l0.1-0.1c2.7-3.6,4.2-7.8,4.2-12.3C41.1,9,32,0,20.9,0L20.9,0z"/>
</g>
<g>
	<g>
		<g>
			<path class="st2" d="M57.4,13c3.3,0.6,5.7,3.2,5.7,6.8c0,4-2.9,6.9-7,6.9c-3.5,0-6.2-2.2-6.8-5.5C48.4,16.5,52.6,12.2,57.4,13z
				 M56.1,15.4c-2.5,0-4,1.9-4,4.4s1.6,4.4,4,4.4s4.1-1.9,4.1-4.4C60.1,17.3,58.5,15.4,56.1,15.4z M55.1,12l1.9-2
				c0.5-0.5,1.2-0.8,1.9-0.8h1.2l-2.5,2.2c-0.5,0.4-1.1,0.7-1.7,0.7L55.1,12L55.1,12z"/>
			<path class="st2" d="M66,13.1h0.4c0.6,0,1.1,0.5,1.1,1.1v1.7c0,0.8,0.8,1.3,1.5,0.9c0.5-0.2,1-0.3,1.5-0.3c2.5,0,4.3,1.9,4.3,5.1
				s-1.8,5.1-4.3,5.1c-1.2,0-2.2-0.5-3-1.5v1.2H66c-0.6,0-1.1-0.5-1.1-1.1V14.1C65,13.6,65.5,13.1,66,13.1z M69.7,24.4
				c1.5,0,2.5-1.1,2.5-2.8c0-1.7-1-2.8-2.5-2.8c-0.7,0-1.4,0.3-1.9,0.8c-0.2,0.2-0.3,0.5-0.3,0.7c0,0.7,0,2,0,2.7
				c0,0.3,0.1,0.6,0.3,0.8C68.3,24.1,69.1,24.4,69.7,24.4z"/>
			<path class="st2" d="M76.4,13.8c0-0.8,0.7-1.5,1.5-1.5s1.5,0.7,1.5,1.5s-0.7,1.5-1.5,1.5C77.1,15.4,76.4,14.7,76.4,13.8z
				 M77.8,16.8h0.4c0.6,0,1.1,0.5,1.1,1.1v7.6c0,0.6-0.5,1.1-1.1,1.1h-0.4c-0.6,0-1.1-0.5-1.1-1.1v-7.6
				C76.7,17.2,77.2,16.8,77.8,16.8z"/>
			<path class="st2" d="M88.4,25.2c-0.8,1-1.8,1.5-3,1.5c-2.4,0-4.3-1.8-4.3-5.1c0-3.2,1.8-5.1,4.3-5.1c1.1,0,2.1,0.5,2.9,1.4h0.1
				c0-0.7,0-4.3,0-4.8l0,0h1.5c0.6,0,1.1,0.5,1.1,1.1v11.2c0,0.6-0.5,1.1-1.1,1.1h-1.5V25.2z M88.4,20.3c0-0.3-0.1-0.6-0.3-0.7
				c-0.5-0.4-1.2-0.7-1.9-0.7c-1.4,0-2.4,1.1-2.4,2.8c0,1.7,1,2.8,2.4,2.8c0.7,0,1.4-0.3,1.9-0.7c0.2-0.2,0.3-0.5,0.3-0.7
				C88.4,22.3,88.4,20.9,88.4,20.3z"/>
			<path class="st2" d="M92.9,21.6c0-2.7,1.9-5.1,5.1-5.1s5.1,2.3,5.1,5.1s-1.9,5.1-5.1,5.1S92.9,24.4,92.9,21.6z M100.4,21.6
				c0-1.5-0.9-2.8-2.5-2.8s-2.5,1.3-2.5,2.8s0.9,2.8,2.5,2.8S100.4,23.1,100.4,21.6z"/>
			<path class="st2" d="M104.6,24.3c0.3-0.5,0.9-0.6,1.4-0.4c0.7,0.4,1.7,0.7,2.5,0.7c1.1,0,1.6-0.4,1.6-1c0-0.7-0.8-0.9-1.9-1.1
				c-1.7-0.3-3.8-0.7-3.8-3c0-1.6,1.4-3,4-3c1.2,0,2.2,0.3,3,0.7c0.5,0.3,0.7,0.9,0.4,1.5l-0.4,0.8c-0.1,0.1-0.1,0.1-0.1,0.1
				c-0.6-0.6-1.7-1.1-2.8-1.1c-0.9,0-1.5,0.3-1.5,0.9s0.8,0.8,1.8,1c1.7,0.3,3.9,0.8,3.9,3.2c0,1.8-1.5,3.1-4.2,3.1
				c-1.3,0-2.5-0.3-3.5-0.9C104.5,25.5,104.3,24.8,104.6,24.3L104.6,24.3z"/>
		</g>
	</g>
</g>
<g>
	<g>
		<g>
			<path class="st2" d="M51.4,36.9c-1.1-0.3-2.1-1-2.1-2.2c0-1.7,1.6-2.4,3.2-2.4c1.5,0,3.2,0.7,3.2,2.4c0,1.2-1,1.9-2.1,2.2
				c1.2,0.4,2.2,1.2,2.2,2.5c0,1.6-1.5,2.5-3.3,2.5s-3.3-0.9-3.3-2.5C49.2,38.1,50.2,37.2,51.4,36.9z M52.5,37.4
				c-0.6,0.1-2.2,0.6-2.2,1.8c0,1,1,1.6,2.2,1.6c1.1,0,2.2-0.6,2.2-1.6C54.7,38,53.1,37.5,52.5,37.4z M52.5,33.2c-1.1,0-2,0.6-2,1.5
				c0,1.1,1.5,1.5,2,1.6c0.6-0.1,2-0.5,2-1.6C54.5,33.8,53.6,33.2,52.5,33.2z"/>
			<path class="st2" d="M58.3,39.8c0.5,0.6,1,1,2,1c1.9,0,2.6-1.9,2.6-3.7c0-0.1,0-0.3,0-0.4c-0.4,0.6-1.4,1.5-2.6,1.5
				c-1.7,0-3.1-1-3.1-3c0-1.6,1.2-3.1,3.3-3.1c2.6,0,3.6,2.3,3.6,4.8s-1.2,4.8-3.8,4.8c-1.2,0-2-0.4-2.6-1.1L58.3,39.8z M60.6,33.2
				c-1.4,0-2.1,1.1-2.1,2c0,1.4,1,2,2.2,2c0.9,0,1.8-0.6,2.3-1.4C62.8,34.7,62.2,33.2,60.6,33.2z"/>
			<path class="st2" d="M71.7,38.6l-1.1,1.1v1.9h-1.1v-9.3h1.1v6.2l3.6-3.6h1.3l-3,3.1l3,3.7h-1.3L71.7,38.6z"/>
			<path class="st2" d="M84.9,37.1c0-0.9-0.4-1.4-1.2-1.4c-0.7,0-1.4,0.5-1.8,1v5h-1.1v-4.6c0-0.9-0.4-1.4-1.2-1.4
				c-0.7,0-1.4,0.5-1.8,1.1v4.9h-1.1v-6.8h1.1v1c0.3-0.4,1.2-1.1,2.2-1.1s1.6,0.6,1.8,1.3c0.4-0.6,1.3-1.3,2.3-1.3
				c1.2,0,1.9,0.7,1.9,2v4.9h-1.1C84.9,41.7,84.9,37.1,84.9,37.1z"/>
		</g>
	</g>
</g>
<linearGradient id="SVGID_1_" gradientUnits="userSpaceOnUse" x1="20.9" y1="-15.9406" x2="20.9" y2="33.2354" gradientTransform="matrix(1 0 0 1 0 15.9906)">
	<stop  offset="0" style="stop-color:#FBF8DA"/>
	<stop  offset="0.5027" style="stop-color:#ED705B"/>
	<stop  offset="1" style="stop-color:#E84561"/>
</linearGradient>
<path class="st3" d="M20.9,4c-9,0-16.2,7.2-16.2,16.2c0,3.7,1.3,7.1,3.4,9.9c0.3,0.4,0.6,0.7,0.9,1.1l10.1,12l0,0
	c0.4,0.5,1.1,0.8,1.8,0.8c0.7,0,1.4-0.3,1.8-0.8l0,0l11-13.1c2.1-2.7,3.4-6.2,3.4-9.9C37.1,11.2,29.8,4,20.9,4z M20.9,32.4
	c-6.8,0-12.2-5.5-12.2-12.2S14.1,7.9,20.9,7.9s12.2,5.5,12.2,12.2S27.6,32.4,20.9,32.4z M16,24.8c0-0.4,0.2-0.8,0.5-1
	c5-3.7,6.5-5.1,6.5-6.7c0-1.2-1.1-1.7-2.2-1.7s-2,0.3-2.7,0.8c-0.5,0.4-1.2,0.2-1.6-0.2l0,0c-0.5-0.5-0.4-1.4,0.2-1.8
	c1.2-0.9,2.7-1.3,4.2-1.3c2.8,0,5.1,1.6,5.1,4.3c0,2.3-1.9,4.3-5.5,6.8h4.3c0.7,0,1.2,0.6,1.2,1.2l0,0c0,0.7-0.6,1.2-1.2,1.2h-7.5
	c-0.7,0-1.2-0.6-1.2-1.2L16,24.8L16,24.8z"/>
</svg>
