<?xml version="1.0" encoding="utf-8"?>
<!-- Generator: Adobe Illustrator 23.0.2, SVG Export Plug-In . SVG Version: 6.00 Build 0)  -->
<svg version="1.1" id="Layer_1" xmlns="https://www.w3.org/2000/svg" xmlns:xlink="https://www.w3.org/1999/xlink" x="0px" y="0px"
	 viewBox="0 0 212 48" style="enable-background:new 0 0 212 48;" xml:space="preserve">
<style type="text/css">
	.st0{opacity:0.8;}
	.st1{fill:#0B101E;}
	.st2{fill:#FFFFFF;}
	.st3{fill:url(#SVGID_1_);enable-background:new    ;}
</style>
<g class="st0">
	<path class="st1" d="M20.9,46c-1.3,0-2.5-0.6-3.3-1.6l-10.1-12c-0.3-0.3-0.6-0.7-1-1.1c-2.5-3.2-3.8-7-3.8-11.1
		C2.7,10.2,10.9,2,20.9,2s18.2,8.2,18.2,18.2c0,4.1-1.3,7.9-3.8,11.1L24.2,44.5C23.4,45.4,22.2,46,20.9,46z"/>
	<path class="st1" d="M20.9,4c8.9,0,16.2,7.2,16.2,16.2c0,3.7-1.3,7.1-3.4,9.9l-11,13.1l0,0c-0.4,0.5-1.1,0.8-1.8,0.8
		c-0.7,0-1.4-0.3-1.8-0.8l0,0l0,0l0,0L9,31.1c-0.3-0.3-0.6-0.7-0.9-1.1c-2.1-2.7-3.4-6.2-3.4-9.9C4.7,11.2,11.9,4,20.9,4 M20.9,0
		C9.8,0,0.7,9,0.7,20.2c0,4.5,1.4,8.8,4.2,12.3c0.3,0.4,0.7,0.9,1.1,1.3l10.1,12c0,0,0,0,0,0.1c1.2,1.4,3,2.2,4.8,2.2
		c1.9,0,3.6-0.8,4.8-2.2l0,0l11-13.1l0.1-0.1c2.7-3.6,4.2-7.8,4.2-12.3C41.1,9,32,0,20.9,0L20.9,0z"/>
</g>
<g>
	<g>
		<g>
			<path class="st2" d="M50.7,13.1h7.4c0.6,0,1,0.4,1,1v0.4c0,0.6-0.4,1-1,1h-4.6c-0.6,0-1,0.4-1,1v0.9c0,0.6,0.4,1,1,1H58
				c0.6,0,1,0.4,1,1v0.4c0,0.6-0.4,1-1,1h-4.5c-0.6,0-1,0.4-1,1v3.6c0,0.6-0.4,1-1,1h-0.8c-0.6,0-1-0.4-1-1V14.1
				C49.7,13.5,50.2,13.1,50.7,13.1z"/>
			<path class="st2" d="M60.5,21.6c0-2.7,1.9-5.1,5.1-5.1s5.1,2.3,5.1,5.1s-1.9,5.1-5.1,5.1S60.5,24.4,60.5,21.6z M68.1,21.6
				c0-1.5-0.9-2.8-2.5-2.8s-2.5,1.3-2.5,2.8s0.9,2.8,2.5,2.8S68.1,23.1,68.1,21.6z"/>
			<path class="st2" d="M72.4,24.3l2.9-3.7c0.5-0.7,0-1.6-0.8-1.6h-1.3c-0.6,0-1-0.4-1-1v-0.2c0-0.6,0.4-1,1-1H79c0.6,0,1,0.4,1,1
				v0.5c0,0.2-0.1,0.4-0.2,0.6l-2.9,3.7c-0.5,0.7-0.1,1.6,0.8,1.6H79c0.6,0,1,0.4,1,1v0.2c0,0.6-0.4,1-1,1h-5.9c-0.6,0-1-0.4-1-1
				v-0.6C72.2,24.7,72.2,24.4,72.4,24.3z"/>
			<path class="st2" d="M93.9,25.2c-0.8,1-1.8,1.5-3,1.5c-2.4,0-4.3-1.8-4.3-5.1c0-3.2,1.8-5.1,4.3-5.1c0.5,0,1.1,0.1,1.5,0.3
				c0.7,0.3,1.4-0.2,1.4-0.9V14c0-0.6,0.4-1,1-1h0.6c0.6,0,1,0.4,1,1v11.3c0,0.6-0.4,1-1,1h-1.6L93.9,25.2L93.9,25.2z M93.9,20.3
				c0-0.3-0.1-0.5-0.3-0.7c-0.5-0.4-1.2-0.7-1.9-0.7c-1.4,0-2.4,1.1-2.4,2.8c0,1.7,1,2.8,2.4,2.8c0.7,0,1.4-0.3,1.9-0.7
				c0.2-0.2,0.3-0.5,0.3-0.7V20.3z"/>
			<path class="st2" d="M98.4,21.6c0-2.7,1.9-5.1,5.1-5.1s5.1,2.3,5.1,5.1s-1.9,5.1-5.1,5.1S98.4,24.4,98.4,21.6z M106,21.6
				c0-1.5-0.9-2.8-2.5-2.8s-2.5,1.3-2.5,2.8s0.9,2.8,2.5,2.8S106,23.1,106,21.6z"/>
			<path class="st2" d="M123.5,24.1h-4.6c-0.4,0-0.8,0.3-0.9,0.7l-0.4,1c-0.1,0.4-0.5,0.7-0.9,0.7h-1c-0.7,0-1.2-0.7-0.9-1.4
				l4.4-11.3c0.1-0.4,0.5-0.6,0.9-0.6h2.2c0.4,0,0.8,0.3,0.9,0.6l4.4,11.3c0.3,0.7-0.2,1.4-0.9,1.4h-0.9c-0.4,0-0.8-0.3-0.9-0.7
				l-0.4-1C124.3,24.4,123.9,24.1,123.5,24.1z M120.4,21.7h1.6c0.7,0,1.2-0.7,0.9-1.3l-0.8-2.2c-0.3-0.9-1.6-0.9-1.9,0l-0.8,2.2
				C119.2,21,119.7,21.7,120.4,21.7z"/>
			<path class="st2" d="M129.3,17.8c0-0.6,0.4-1,1-1h1.5v1.3c0.4-0.5,1-1,1.7-1.3s1.4,0.2,1.4,0.9V19c-0.2,0-0.4-0.1-0.7-0.1
				c-0.7,0-1.5,0.3-2,0.7c-0.2,0.2-0.3,0.5-0.3,0.8v5c0,0.6-0.4,1-1,1h-0.5c-0.6,0-1-0.4-1-1L129.3,17.8L129.3,17.8z"/>
			<path class="st2" d="M140.9,16.5c2.9,0,4.8,2.2,4.8,5.3v0.6h-5.5c-1,0-1.4,1.3-0.6,1.8c0.4,0.3,1,0.4,1.6,0.4s1.3-0.2,1.9-0.5
				c0.4-0.2,1-0.1,1.3,0.3l0,0c0.3,0.5,0.2,1.2-0.4,1.5c-0.9,0.5-2,0.7-3,0.7c-2.9,0-5.2-2-5.2-5.1
				C135.9,18.8,137.9,16.5,140.9,16.5z M140.2,20.7h1.4c1,0,1.4-1.4,0.5-1.9c-0.3-0.2-0.7-0.3-1.2-0.3c-0.4,0-0.8,0.1-1.1,0.3
				C138.8,19.3,139.2,20.7,140.2,20.7z"/>
			<path class="st2" d="M148.5,13.1h0.5c0.6,0,1,0.4,1,1v11.3c0,0.6-0.4,1-1,1h-0.5c-0.6,0-1-0.4-1-1V14.1
				C147.5,13.5,148,13.1,148.5,13.1z"/>
			<path class="st2" d="M159.1,20.6c0-1.3-0.7-1.8-1.8-1.8c-0.8,0-1.4,0.4-1.9,0.8c-0.2,0.2-0.3,0.4-0.3,0.7v5.1c0,0.6-0.4,1-1,1
				h-0.5c-0.6,0-1-0.4-1-1V14.1c0-0.6,0.4-1,1-1h0.5c0.6,0,1,0.4,1,1v2c0,0.7,0.8,1.2,1.4,0.9c0.6-0.3,1.2-0.4,2-0.4
				c2.1,0,3.1,1.2,3.1,3v5.9c0,0.6-0.4,1-1,1h-0.5c-0.6,0-1-0.4-1-1V20.6z"/>
			<path class="st2" d="M163.6,21.6c0-2.7,1.9-5.1,5.1-5.1c3.2,0,5.1,2.3,5.1,5.1s-1.9,5.1-5.1,5.1S163.6,24.4,163.6,21.6z
				 M171.2,21.6c0-1.5-0.9-2.8-2.5-2.8s-2.5,1.3-2.5,2.8s0.9,2.8,2.5,2.8S171.2,23.1,171.2,21.6z"/>
		</g>
	</g>
</g>
<g>
	<g>
		<g>
			<path class="st2" d="M50.9,33.9l-1.5,1.6l-0.7-0.7l2.3-2.4h1v9.3h-1.2v-7.8C50.8,33.9,50.9,33.9,50.9,33.9z"/>
			<path class="st2" d="M57.7,32.2c1.2,0,2,0.5,2.6,1.1l-0.6,0.9c-0.5-0.6-1-1-2-1c-1.8,0-2.6,1.8-2.6,3.7c0,0.1,0,0.2,0,0.4
				c0.4-0.6,1.4-1.5,2.6-1.5c1.7,0,3.1,1,3.1,3c0,1.6-1.2,3.1-3.3,3.1c-2.6,0-3.6-2.3-3.6-4.8S55.1,32.2,57.7,32.2z M57.4,36.8
				c-0.9,0-1.8,0.6-2.3,1.4c0.1,1.2,0.7,2.6,2.4,2.6c1.4,0,2.1-1.1,2.1-2C59.6,37.5,58.6,36.8,57.4,36.8z"/>
			<path class="st2" d="M68.3,38.6l-1.1,1.1v1.9h-1.1v-9.3h1.1v6.2l3.6-3.6H72L69,38l3,3.7h-1.3L68.3,38.6z"/>
			<path class="st2" d="M81.5,37.1c0-0.9-0.4-1.4-1.2-1.4c-0.7,0-1.4,0.5-1.8,1v5h-1.1v-4.6c0-0.9-0.4-1.4-1.2-1.4
				c-0.7,0-1.4,0.5-1.8,1.1v4.9h-1.1v-6.8h1.1v1c0.3-0.4,1.2-1.1,2.2-1.1s1.6,0.6,1.8,1.3c0.4-0.6,1.3-1.3,2.3-1.3
				c1.2,0,1.9,0.7,1.9,2v4.9h-1.1C81.5,41.7,81.5,37.1,81.5,37.1z"/>
		</g>
	</g>
</g>
<linearGradient id="SVGID_1_" gradientUnits="userSpaceOnUse" x1="20.9" y1="-15.9453" x2="20.9" y2="33.2307" gradientTransform="matrix(1 0 0 1 0 16)">
	<stop  offset="0" style="stop-color:#FBF8DA"/>
	<stop  offset="0.5027" style="stop-color:#ED705B"/>
	<stop  offset="1" style="stop-color:#E84561"/>
</linearGradient>
<path class="st3" d="M20.9,4c-9,0-16.2,7.2-16.2,16.2c0,3.7,1.3,7.1,3.4,9.9c0.3,0.4,0.6,0.7,0.9,1.1l10.1,12l0,0
	c0.4,0.5,1.1,0.8,1.8,0.8c0.7,0,1.4-0.3,1.8-0.8l0,0l11-13.1c2.1-2.7,3.4-6.2,3.4-9.9C37.1,11.2,29.8,4,20.9,4z M20.9,32.4
	c-6.8,0-12.2-5.5-12.2-12.2S14.1,7.9,20.9,7.9s12.2,5.5,12.2,12.2S27.6,32.4,20.9,32.4z M16.4,23.6c0.4-0.5,1-0.6,1.5-0.3
	c0.9,0.6,1.9,0.9,2.9,0.9c1.6,0,2.5-0.7,2.5-1.7c0-1.1-0.8-1.6-2.7-1.6c-0.1,0-0.3,0-0.5,0c-0.6,0-1.2-0.5-1.2-1.2v-0.1
	c0-0.6,0.5-1.2,1.2-1.2c0.2,0,0.4,0,0.5,0c1.5,0,2.5-0.5,2.5-1.5c0-1.1-1.1-1.6-2.5-1.6c-0.9,0-1.8,0.3-2.5,0.7
	c-0.5,0.3-1.2,0.3-1.6-0.2l0,0c-0.4-0.5-0.3-1.3,0.2-1.7c1-0.8,2.4-1.3,4.2-1.3c3.1,0,5,1.4,5,3.6c0,0.9-0.4,1.6-0.9,2.1
	c-0.6,0.5-0.5,1.3,0,1.8c0.6,0.5,1.1,1.3,1.1,2.3c0,2.3-2.1,3.9-5.3,3.9c-1.9,0-3.3-0.5-4.4-1.3C16,25,15.9,24.2,16.4,23.6
	L16.4,23.6z"/>
</svg>
