<?xml version="1.0" encoding="utf-8"?>
<!-- Generator: Adobe Illustrator 23.0.2, SVG Export Plug-In . SVG Version: 6.00 Build 0)  -->
<svg version="1.1" id="Layer_1" xmlns="https://www.w3.org/2000/svg" xmlns:xlink="https://www.w3.org/1999/xlink" x="0px" y="0px"
	 viewBox="0 0 212 48" style="enable-background:new 0 0 212 48;" xml:space="preserve">
<style type="text/css">
	.st0{opacity:0.8;}
	.st1{fill:#0B101E;}
	.st2{fill:#FFFFFF;}
	.st3{fill:url(#SVGID_1_);enable-background:new    ;}
</style>
<g class="st0">
	<path class="st1" d="M20.9,46c-1.3,0-2.5-0.6-3.3-1.6l-10.1-12c-0.3-0.3-0.6-0.7-1-1.1c-2.5-3.2-3.8-7-3.8-11.1
		C2.7,10.2,10.9,2,20.9,2s18.2,8.2,18.2,18.2c0,4.1-1.3,7.9-3.8,11.1L24.2,44.5C23.4,45.4,22.2,46,20.9,46z"/>
	<path class="st1" d="M20.9,4c8.9,0,16.2,7.2,16.2,16.2c0,3.7-1.3,7.1-3.4,9.9l-11,13.1l0,0c-0.4,0.5-1.1,0.8-1.8,0.8
		c-0.7,0-1.4-0.3-1.8-0.8l0,0l0,0l0,0L9,31.1c-0.3-0.3-0.6-0.7-0.9-1.1c-2.1-2.7-3.4-6.2-3.4-9.9C4.7,11.2,11.9,4,20.9,4 M20.9,0
		C9.8,0,0.7,9,0.7,20.2c0,4.5,1.4,8.8,4.2,12.3c0.3,0.4,0.7,0.9,1.1,1.3l10.1,12c0,0,0,0,0,0.1c1.2,1.4,3,2.2,4.8,2.2
		c1.9,0,3.6-0.8,4.8-2.2l0,0l11-13.1l0.1-0.1c2.7-3.6,4.2-7.8,4.2-12.3C41.1,9,32,0,20.9,0L20.9,0z"/>
</g>
<g>
	<g>
		<g>
			<path class="st2" d="M49.7,14.1c0-0.5,0.4-1,1-1h6.1c2.5,0,3.8,1.6,3.8,3.4c0,1-0.4,1.8-0.9,2.4c-0.4,0.4-0.3,1,0.1,1.4
				c0.7,0.6,1.1,1.5,1.1,2.6c0,2-1.3,3.6-3.9,3.6h-6.3c-0.5,0-1-0.4-1-1C49.7,25.5,49.7,14.1,49.7,14.1z M56.1,18.5
				c1,0,1.6-0.6,1.6-1.5c0-0.8-0.6-1.5-1.6-1.5h-2.6c-0.5,0-1,0.4-1,1v1c0,0.5,0.4,1,1,1H56.1z M56.2,24c1.1,0,1.7-0.6,1.7-1.6
				c0-0.8-0.6-1.6-1.7-1.6h-2.7c-0.5,0-1,0.4-1,1V23c0,0.5,0.4,1,1,1H56.2z"/>
			<path class="st2" d="M68.7,25.4c-0.7,0.8-1.8,1.2-3.1,1.2c-1.5,0-3.4-1-3.4-3.2c0-2.3,1.8-3.1,3.4-3.1c1.3,0,2.4,0.4,3.1,1.2
				v-1.3c0-1-0.8-1.6-2.1-1.6c-0.7,0-1.4,0.2-2,0.5c-0.5,0.3-1.1,0.1-1.4-0.3l0,0c-0.3-0.4-0.1-1,0.3-1.3c1-0.7,2.3-1,3.5-1
				c2.2,0,4.2,0.9,4.2,3.7v5.3c0,0.5-0.4,1-1,1h-1.6L68.7,25.4L68.7,25.4z M68.7,23.4c0-0.4-0.1-0.7-0.4-0.8c-0.4-0.3-1-0.5-1.6-0.5
				c-1,0-1.8,0.5-1.8,1.5c0,0.9,0.8,1.4,1.8,1.4c0.6,0,1.2-0.2,1.6-0.5c0.3-0.2,0.4-0.5,0.4-0.8V23.4z"/>
			<path class="st2" d="M74.8,13.1h0.6c0.5,0,1,0.4,1,1v11.4c0,0.5-0.4,1-1,1h-0.6c-0.5,0-1-0.4-1-1V14.1
				C73.8,13.5,74.2,13.1,74.8,13.1z"/>
			<path class="st2" d="M83.2,16.5c2.9,0,4.8,2.2,4.8,5.3v0.6h-5.5c-0.9,0-1.4,1.2-0.6,1.8c0.4,0.3,1,0.5,1.7,0.5
				c0.6,0,1.3-0.2,1.9-0.5c0.4-0.2,1-0.1,1.2,0.3l0,0c0.3,0.5,0.2,1.2-0.4,1.4c-0.9,0.5-2,0.7-3.1,0.7c-2.9,0-5.2-2-5.2-5.1
				C78.2,18.8,80.3,16.5,83.2,16.5z M82.5,20.7h1.4c1.2,0,1.6-1.2,0.8-1.8c-0.4-0.2-0.8-0.4-1.4-0.4s-1,0.1-1.4,0.4
				C81.1,19.5,81.5,20.7,82.5,20.7z"/>
			<path class="st2" d="M95.7,25.4c-0.7,0.8-1.8,1.2-3.1,1.2c-1.5,0-3.4-1-3.4-3.2c0-2.3,1.8-3.1,3.4-3.1c1.3,0,2.4,0.4,3.1,1.2
				v-1.3c0-1-0.8-1.6-2.1-1.6c-0.7,0-1.4,0.2-2,0.5c-0.5,0.3-1.1,0.1-1.4-0.3l0,0c-0.3-0.4-0.1-1,0.3-1.3c1-0.7,2.3-1,3.5-1
				c2.2,0,4.2,0.9,4.2,3.7v5.3c0,0.5-0.4,1-1,1h-1.6L95.7,25.4L95.7,25.4z M95.7,23.4c0-0.4-0.1-0.7-0.4-0.8c-0.4-0.3-1-0.5-1.6-0.5
				c-1,0-1.8,0.5-1.8,1.5c0,0.9,0.8,1.4,1.8,1.4c0.6,0,1.2-0.2,1.6-0.5c0.3-0.2,0.4-0.5,0.4-0.8V23.4z"/>
			<path class="st2" d="M101.8,13.1h0.6c0.5,0,1,0.4,1,1v11.4c0,0.5-0.4,1-1,1h-0.6c-0.5,0-1-0.4-1-1V14.1
				C100.8,13.5,101.2,13.1,101.8,13.1z"/>
			<path class="st2" d="M111,14.1c0-0.5,0.4-1,1-1h6.1c2.5,0,3.8,1.6,3.8,3.4c0,1-0.4,1.8-0.9,2.4c-0.4,0.4-0.3,1,0.1,1.4
				c0.7,0.6,1.1,1.5,1.1,2.6c0,2-1.3,3.6-3.9,3.6H112c-0.5,0-1-0.4-1-1V14.1z M117.4,18.5c1,0,1.6-0.6,1.6-1.5
				c0-0.8-0.6-1.5-1.6-1.5h-2.6c-0.5,0-1,0.4-1,1v1c0,0.5,0.4,1,1,1H117.4z M117.5,24c1.1,0,1.7-0.6,1.7-1.6c0-0.8-0.6-1.6-1.7-1.6
				h-2.7c-0.5,0-1,0.4-1,1V23c0,0.5,0.4,1,1,1H117.5z"/>
			<path class="st2" d="M128.6,16.5c2.9,0,4.8,2.2,4.8,5.3v0.6h-5.5c-0.9,0-1.4,1.2-0.6,1.8c0.4,0.3,1,0.5,1.7,0.5
				c0.6,0,1.3-0.2,1.9-0.5c0.4-0.2,1-0.1,1.2,0.3l0.5,0.7c0.1,0.1,0.1,0.1,0,0.1c-1,0.9-2.5,1.3-3.9,1.3c-2.9,0-5.2-2-5.2-5.1
				C123.6,18.8,125.7,16.5,128.6,16.5z M127.8,20.7h1.4c1.9,0,2.1-0.8,0.8-1.8c-0.4-0.2-0.8-0.4-1.4-0.4c-0.6,0-1,0.2-1.4,0.4
				C125.9,19.9,126.2,20.7,127.8,20.7z"/>
			<path class="st2" d="M141.1,25.4c-0.7,0.8-1.8,1.2-3.1,1.2c-1.5,0-3.4-1-3.4-3.2c0-2.3,1.8-3.1,3.4-3.1c1.3,0,2.4,0.4,3.1,1.2
				v-1.3c0-1-0.8-1.6-2.1-1.6c-0.7,0-1.4,0.2-2,0.5c-0.5,0.3-1.1,0.1-1.4-0.3l0,0c-0.3-0.4-0.1-1,0.3-1.3c1-0.7,2.3-1,3.5-1
				c2.2,0,4.2,0.9,4.2,3.7v5.3c0,0.5-0.4,1-1,1H141v-1.1H141.1z M141.1,23C141.1,22.9,141.1,22.9,141.1,23c-0.4-0.6-1.2-0.9-2-0.9
				c-1,0-1.8,0.5-1.8,1.5c0,0.9,0.8,1.4,1.8,1.4c0.6,0,1.2-0.2,1.6-0.5c0.3-0.2,0.4-0.5,0.4-0.8V23z"/>
			<path class="st2" d="M150.6,16.5c1.3,0,2.3,0.4,3,0.9c0.5,0.4,0.5,1.1,0.1,1.5l0,0c-0.5,0.4-1.2,0.5-1.7,0.2
				c-0.4-0.2-0.8-0.3-1.3-0.3c-1.5,0-2.6,1.1-2.6,2.8c0,1.7,1.1,2.8,2.6,2.8c0.5,0,1-0.1,1.3-0.4c0.5-0.3,1.2-0.3,1.6,0.1l0,0
				c0.5,0.5,0.4,1.2-0.1,1.6s-1.2,0.7-2.1,0.8c-3.3,0.4-6.2-2.3-5.9-5.6C145.8,18.4,147.9,16.5,150.6,16.5z"/>
			<path class="st2" d="M162.7,20.6c0-1.3-0.7-1.8-1.8-1.8c-0.7,0-1.4,0.3-1.8,0.7c-0.2,0.2-0.4,0.6-0.4,0.9c0,1.4,0,5.5,0,6
				c0,0,0,0-0.1,0h-1.2c-0.7,0-1.3-0.6-1.3-1.3V14.4c0-0.7,0.6-1.3,1.3-1.3l0,0c0.7,0,1.3,0.6,1.3,1.3v1.3c0,0.9,0.9,1.5,1.7,1.2
				c0.5-0.2,1.1-0.3,1.7-0.3c2.1,0,3.1,1.2,3.1,3v5.6c0,0.7-0.6,1.3-1.3,1.3l0,0c-0.7,0-1.3-0.6-1.3-1.3v-4.6H162.7z"/>
		</g>
	</g>
</g>
<g>
	<g>
		<g>
			<path class="st2" d="M49.2,40.8c3.4-2.6,5.2-4.2,5.2-5.8c0-1.2-1-1.7-1.9-1.7c-1.1,0-2,0.5-2.5,1.2l-0.7-0.7
				c0.7-0.9,1.9-1.5,3.3-1.5c1.6,0,3.1,0.9,3.1,2.7c0,1.9-1.9,3.6-4.5,5.7h4.6v1h-6.4v-0.9H49.2z"/>
			<path class="st2" d="M61.2,32.2c1.2,0,2,0.5,2.6,1.1l-0.6,0.9c-0.5-0.6-1-1-2-1c-1.8,0-2.6,1.8-2.6,3.7c0,0.1,0,0.2,0,0.4
				c0.4-0.6,1.4-1.5,2.6-1.5c1.7,0,3.1,1,3.1,3c0,1.6-1.2,3.1-3.3,3.1c-2.6,0-3.6-2.3-3.6-4.8S58.5,32.2,61.2,32.2z M60.9,36.8
				c-0.9,0-1.8,0.6-2.3,1.4c0.1,1.2,0.7,2.6,2.4,2.6c1.4,0,2.1-1.1,2.1-2C63.1,37.5,62.1,36.8,60.9,36.8z"/>
			<path class="st2" d="M71.8,38.6l-1.1,1.1v1.9h-1.1v-9.3h1.1v6.2l3.6-3.6h1.3l-3,3.1l3,3.7h-1.3L71.8,38.6z"/>
			<path class="st2" d="M85,37.1c0-0.9-0.4-1.4-1.2-1.4c-0.7,0-1.4,0.5-1.8,1v5h-1.1v-4.6c0-0.9-0.4-1.4-1.2-1.4
				c-0.7,0-1.4,0.5-1.8,1.1v4.9h-1.1v-6.8h1.1v1c0.3-0.4,1.2-1.1,2.2-1.1s1.6,0.6,1.8,1.3c0.4-0.6,1.3-1.3,2.3-1.3
				c1.2,0,1.9,0.7,1.9,2v4.9H85V37.1z"/>
		</g>
	</g>
</g>
<linearGradient id="SVGID_1_" gradientUnits="userSpaceOnUse" x1="20.9" y1="47.9453" x2="20.9" y2="-1.2307" gradientTransform="matrix(1 0 0 -1 0 48)">
	<stop  offset="0" style="stop-color:#FBF8DA"/>
	<stop  offset="0.5027" style="stop-color:#ED705B"/>
	<stop  offset="1" style="stop-color:#E84561"/>
</linearGradient>
<path class="st3" d="M20.9,4c-9,0-16.2,7.2-16.2,16.2c0,3.7,1.3,7.1,3.4,9.9c0.3,0.4,0.6,0.7,0.9,1.1l10.1,12l0,0
	c0.4,0.5,1.1,0.8,1.8,0.8c0.7,0,1.4-0.3,1.8-0.8l0,0l11-13.1c2.1-2.7,3.4-6.2,3.4-9.9C37.1,11.2,29.8,4,20.9,4z M20.9,32.4
	c-6.8,0-12.2-5.5-12.2-12.2S14.1,7.9,20.9,7.9s12.2,5.5,12.2,12.2S27.6,32.4,20.9,32.4z M16.8,23.7c0.4-0.5,1.1-0.5,1.6-0.2
	c0.8,0.5,1.7,0.7,2.7,0.7c1.6,0,2.5-0.9,2.5-2c0-1.2-0.9-2-2.4-2c-0.9,0-1.7,0.2-2.4,0.8c-0.3,0.2-0.7,0.3-1.1,0.2l-0.5-0.1
	c-0.5-0.1-0.9-0.6-0.9-1.1v-5.5c0-0.7,0.5-1.2,1.2-1.2h6.8c0.7,0,1.2,0.5,1.2,1.2v0.1c0,0.7-0.5,1.2-1.2,1.2h-4
	c-0.7,0-1.2,0.5-1.2,1.2v0.1c0,0.8,0.8,1.4,1.5,1.2c0.5-0.2,1-0.2,1.5-0.2c2.3,0,4.3,1.6,4.3,4.3c0,2.8-2.1,4.6-5.3,4.6
	c-1.7,0-3.1-0.4-4.2-1.1c-0.6-0.4-0.7-1.2-0.3-1.7L16.8,23.7z"/>
</svg>
