<?xml version="1.0" encoding="utf-8"?>
<!-- Generator: Adobe Illustrator 23.0.2, SVG Export Plug-In . SVG Version: 6.00 Build 0)  -->
<svg version="1.1" id="Layer_1" xmlns="https://www.w3.org/2000/svg" xmlns:xlink="https://www.w3.org/1999/xlink" x="0px" y="0px"
	 viewBox="0 0 212 48" style="enable-background:new 0 0 212 48;" xml:space="preserve">
<style type="text/css">
	.st0{opacity:0.8;}
	.st1{fill:#0B101E;}
	.st2{fill:#FFFFFF;}
	.st3{fill:url(#SVGID_1_);enable-background:new    ;}
</style>
<g class="st0">
	<path class="st1" d="M20.9,46c-1.3,0-2.5-0.6-3.3-1.6l-10.1-12c-0.3-0.3-0.6-0.7-1-1.1c-2.5-3.2-3.8-7-3.8-11.1
		C2.7,10.2,10.9,2,20.9,2s18.2,8.2,18.2,18.2c0,4.1-1.3,7.9-3.8,11.1L24.2,44.5C23.4,45.4,22.2,46,20.9,46z"/>
	<path class="st1" d="M20.9,4c8.9,0,16.2,7.2,16.2,16.2c0,3.7-1.3,7.1-3.4,9.9l-11,13.1l0,0c-0.4,0.5-1.1,0.8-1.8,0.8
		c-0.7,0-1.4-0.3-1.8-0.8l0,0l0,0l0,0L9,31.1c-0.3-0.3-0.6-0.7-0.9-1.1c-2.1-2.7-3.4-6.2-3.4-9.9C4.7,11.2,11.9,4,20.9,4 M20.9,0
		C9.8,0,0.7,9,0.7,20.2c0,4.5,1.4,8.8,4.2,12.3c0.3,0.4,0.7,0.9,1.1,1.3l10.1,12c0,0,0,0,0,0.1c1.2,1.4,3,2.2,4.8,2.2
		c1.9,0,3.6-0.8,4.8-2.2l0,0l11-13.1l0.1-0.1c2.7-3.6,4.2-7.8,4.2-12.3C41.1,9,32,0,20.9,0L20.9,0z"/>
</g>
<g>
	<g>
		<g>
			<path class="st2" d="M50.7,13.1h0.9c0.5,0,1,0.4,1,1V23c0,0.5,0.4,1,1,1h3.7c0.5,0,1,0.4,1,1v0.6c0,0.5-0.4,1-1,1h-6.5
				c-0.5,0-1-0.4-1-1V14.1C49.7,13.5,50.2,13.1,50.7,13.1z"/>
			<path class="st2" d="M59.9,13.8c0-0.8,0.7-1.5,1.5-1.5s1.5,0.7,1.5,1.5s-0.7,1.5-1.5,1.5C60.6,15.4,59.9,14.7,59.9,13.8z
				 M61.1,16.8h0.6c0.5,0,1,0.4,1,1v7.7c0,0.5-0.4,1-1,1h-0.6c-0.5,0-1-0.4-1-1v-7.7C60.1,17.2,60.6,16.8,61.1,16.8z"/>
			<path class="st2" d="M64.9,24.3c0.3-0.4,0.9-0.6,1.3-0.3c0.7,0.4,1.7,0.8,2.6,0.8c1.1,0,1.6-0.4,1.6-1c0-0.7-0.8-0.9-1.9-1.1
				c-1.7-0.3-3.8-0.7-3.8-3c0-1.6,1.4-3,4-3c1.2,0,2.2,0.3,3,0.8c0.5,0.3,0.7,0.9,0.4,1.4l0,0c-0.3,0.5-0.9,0.6-1.3,0.3
				c-0.6-0.3-1.3-0.5-2.1-0.5c-0.9,0-1.5,0.3-1.5,0.9s0.8,0.8,1.8,1c1.7,0.3,3.9,0.8,3.9,3.2c0,1.8-1.5,3.1-4.2,3.1
				c-1.3,0-2.6-0.3-3.6-0.9c-0.5-0.3-0.6-0.9-0.3-1.3L64.9,24.3z"/>
			<path class="st2" d="M75.7,13.1h0.6c0.5,0,1,0.4,1,1v2c0,0.7,0.7,1.2,1.4,0.9c0.5-0.2,1-0.4,1.6-0.4c2.5,0,4.3,1.9,4.3,5.1
				s-1.8,5.1-4.3,5.1c-1.2,0-2.2-0.5-3-1.5v1.2h-1.6c-0.5,0-1-0.4-1-1V14.1C74.7,13.5,75.2,13.1,75.7,13.1z M79.5,24.4
				c1.5,0,2.5-1.1,2.5-2.8c0-1.7-1-2.8-2.5-2.8c-0.7,0-1.4,0.3-1.9,0.8c-0.2,0.2-0.3,0.4-0.3,0.7V23c0,0.3,0.1,0.5,0.3,0.7
				C78.1,24.1,78.8,24.4,79.5,24.4z"/>
			<path class="st2" d="M85.8,21.6c0-2.7,1.9-5.1,5.1-5.1s5.1,2.3,5.1,5.1s-1.9,5.1-5.1,5.1C87.8,26.7,85.8,24.4,85.8,21.6z
				 M93.4,21.6c0-1.5-0.9-2.8-2.5-2.8s-2.5,1.3-2.5,2.8s0.9,2.8,2.5,2.8S93.4,23.1,93.4,21.6z"/>
			<path class="st2" d="M103.7,25.4c-0.7,0.8-1.8,1.2-3.1,1.2c-1.5,0-3.4-1-3.4-3.2c0-2.3,1.8-3.1,3.4-3.1c1.3,0,2.4,0.4,3.1,1.2
				v-1.3c0-1-0.8-1.6-2.1-1.6c-0.7,0-1.4,0.2-2,0.5c-0.5,0.3-1.1,0.1-1.4-0.3l0,0c-0.3-0.4-0.1-1,0.3-1.3c1-0.7,2.3-1,3.5-1
				c2.2,0,4.2,0.9,4.2,3.7v5.3c0,0.5-0.4,1-1,1h-1.6L103.7,25.4L103.7,25.4z M103.7,23.3c0-0.3-0.1-0.6-0.4-0.8
				c-0.4-0.3-1-0.5-1.6-0.5c-1,0-1.8,0.5-1.8,1.5c0,0.9,0.8,1.4,1.8,1.4c0.6,0,1.2-0.2,1.6-0.5c0.3-0.2,0.4-0.5,0.4-0.8V23.3z"/>
		</g>
	</g>
</g>
<g>
	<g>
		<g>
			<path class="st2" d="M49.5,39.6c0.5,0.7,1.5,1.2,2.6,1.2c1.4,0,2.2-0.7,2.2-1.8c0-1.2-1-1.7-2.3-1.7c-0.4,0-0.8,0-1,0v-1.1
				c0.2,0,0.6,0,1,0c1.2,0,2.2-0.5,2.2-1.5s-1-1.6-2.1-1.6c-1,0-1.8,0.4-2.5,1.1L49,33.6c0.7-0.8,1.8-1.4,3.2-1.4
				c1.8,0,3.2,0.9,3.2,2.5c0,1.3-1.1,2-2,2.2c0.9,0.1,2.2,0.8,2.2,2.3c0,1.6-1.2,2.7-3.3,2.7c-1.6,0-2.7-0.7-3.3-1.5L49.5,39.6z"/>
			<path class="st2" d="M63.1,38.6L62,39.7v1.9h-1.1v-9.3H62v6.2l3.6-3.6h1.3l-3,3.1l3,3.7h-1.3L63.1,38.6z"/>
			<path class="st2" d="M76.2,37.1c0-0.9-0.4-1.4-1.2-1.4c-0.7,0-1.4,0.5-1.8,1v5h-1.1v-4.6c0-0.9-0.4-1.4-1.2-1.4
				c-0.7,0-1.4,0.5-1.8,1.1v4.9H68v-6.8h1.1v1c0.3-0.4,1.2-1.1,2.2-1.1s1.6,0.6,1.8,1.3c0.4-0.6,1.3-1.3,2.3-1.3
				c1.2,0,1.9,0.7,1.9,2v4.9h-1.1C76.2,41.7,76.2,37.1,76.2,37.1z"/>
		</g>
	</g>
</g>
<linearGradient id="SVGID_1_" gradientUnits="userSpaceOnUse" x1="20.9" y1="-15.9453" x2="20.9" y2="33.2307" gradientTransform="matrix(1 0 0 1 0 16)">
	<stop  offset="0" style="stop-color:#FBF8DA"/>
	<stop  offset="0.5027" style="stop-color:#ED705B"/>
	<stop  offset="1" style="stop-color:#E84561"/>
</linearGradient>
<path class="st3" d="M20.9,4c-9,0-16.2,7.2-16.2,16.2c0,3.7,1.3,7.1,3.4,9.9c0.3,0.4,0.6,0.7,0.9,1.1l10.1,12l0,0
	c0.4,0.5,1.1,0.8,1.8,0.8c0.7,0,1.4-0.3,1.8-0.8l0,0l11-13.1c2.1-2.7,3.4-6.2,3.4-9.9C37.1,11.2,29.8,4,20.9,4z M19.9,16.8l-1.4,1.4
	c-0.5,0.5-1.2,0.5-1.7,0l0,0c-0.4-0.5-0.4-1.2,0-1.6l3.1-3.1c0.2-0.2,0.5-0.3,0.8-0.3h0.8c0.6,0,1.2,0.5,1.2,1.2v11
	c0,0.6-0.5,1.2-1.2,1.2H21c-0.6,0-1.2-0.5-1.2-1.2v-8.6C19.8,16.8,19.9,16.8,19.9,16.8z M20.9,32.4c-6.8,0-12.2-5.5-12.2-12.2
	S14.1,7.9,20.9,7.9s12.2,5.5,12.2,12.2S27.6,32.4,20.9,32.4z"/>
</svg>
