<?xml version="1.0" encoding="utf-8"?>
<!-- Generator: Adobe Illustrator 23.0.2, SVG Export Plug-In . SVG Version: 6.00 Build 0)  -->
<svg version="1.1" id="Layer_1" xmlns="https://www.w3.org/2000/svg" xmlns:xlink="https://www.w3.org/1999/xlink" x="0px" y="0px"
	 viewBox="0 0 212 48" style="enable-background:new 0 0 212 48;" xml:space="preserve">
<style type="text/css">
	.st0{opacity:0.8;}
	.st1{fill:#0B101E;}
	.st2{fill:#FFFFFF;}
	.st3{fill:url(#SVGID_1_);enable-background:new    ;}
</style>
<g class="st0">
	<path class="st1" d="M20.9,46c-1.3,0-2.5-0.6-3.3-1.6l-10.1-12c-0.3-0.3-0.6-0.7-1-1.1c-2.5-3.2-3.8-7-3.8-11.1
		C2.7,10.2,10.9,2,20.9,2s18.2,8.2,18.2,18.2c0,4.1-1.3,7.9-3.8,11.1L24.2,44.5C23.4,45.4,22.2,46,20.9,46z"/>
	<path class="st1" d="M20.9,4c8.9,0,16.2,7.2,16.2,16.2c0,3.7-1.3,7.1-3.4,9.9l-11,13.1l0,0c-0.4,0.5-1.1,0.8-1.8,0.8
		c-0.7,0-1.4-0.3-1.8-0.8l0,0l0,0l0,0L9,31.1c-0.3-0.3-0.6-0.7-0.9-1.1c-2.1-2.7-3.4-6.2-3.4-9.9C4.7,11.2,11.9,4,20.9,4 M20.9,0
		C9.8,0,0.7,9,0.7,20.2c0,4.5,1.4,8.8,4.2,12.3c0.3,0.4,0.7,0.9,1.1,1.3l10.1,12c0,0,0,0,0,0.1c1.2,1.4,3,2.2,4.8,2.2
		c1.9,0,3.6-0.8,4.8-2.2l0,0l11-13.1l0.1-0.1c2.7-3.6,4.2-7.8,4.2-12.3C41.1,9,32,0,20.9,0L20.9,0z"/>
</g>
<g>
	<g>
		<g>
			<path class="st2" d="M49.1,19.8c0-4.1,3.1-6.9,7-6.9c2.1,0,3.6,0.8,4.6,1.8c0.6,0.6,0.4,1.7-0.4,2.1l0,0
				c-0.5,0.3-1.1,0.2-1.5-0.3c-0.6-0.7-1.6-1.2-2.7-1.2c-2.3,0-4.1,1.9-4.1,4.4s1.8,4.4,4.1,4.4c1.1,0,2.1-0.5,2.7-1.2
				c0.4-0.4,1-0.5,1.5-0.3l0,0c0.8,0.4,1,1.4,0.4,2.1c-1,1.1-2.5,1.9-4.7,1.9C52.2,26.7,49.1,23.9,49.1,19.8z"/>
			<path class="st2" d="M69.2,25.4c-0.7,0.8-1.8,1.2-3.1,1.2c-1.5,0-3.4-1-3.4-3.2c0-2.3,1.8-3.1,3.4-3.1c1.3,0,2.4,0.4,3.1,1.2
				v-1.3c0-1-0.8-1.6-2.1-1.6c-0.7,0-1.4,0.2-2,0.5c-0.5,0.3-1.1,0.1-1.4-0.3l0,0c-0.3-0.4-0.1-1,0.3-1.3c1-0.7,2.3-1,3.5-1
				c2.2,0,4.2,0.9,4.2,3.7v5.3c0,0.5-0.4,1-1,1h-1.6L69.2,25.4L69.2,25.4z M69.2,23.3c0-0.3-0.1-0.6-0.4-0.8c-0.4-0.3-1-0.5-1.6-0.5
				c-1,0-1.8,0.5-1.8,1.5c0,0.9,0.8,1.4,1.8,1.4c0.6,0,1.2-0.2,1.6-0.5c0.3-0.2,0.4-0.5,0.4-0.8V23.3z"/>
			<path class="st2" d="M75.6,13.1L75.6,13.1c0.7,0,1.3,0.6,1.3,1.3v10.8c0,0.7-0.6,1.3-1.3,1.3l0,0c-0.7,0-1.3-0.6-1.3-1.3V14.4
				C74.3,13.7,74.9,13.1,75.6,13.1z"/>
			<path class="st2" d="M86,25.2c-0.8,1-1.8,1.5-3,1.5c-2.4,0-4.3-1.8-4.3-5.1c0-3.2,1.8-5.1,4.3-5.1c0.4,0,0.9,0.1,1.3,0.2
				c0.8,0.3,1.7-0.3,1.7-1.2v-1.2c0-0.7,0.6-1.3,1.3-1.3l0,0c0.7,0,1.3,0.6,1.3,1.3v10.8c0,0.7-0.6,1.3-1.3,1.3H86V25.2z M86,20.4
				c0-0.3-0.1-0.7-0.4-0.9c-0.5-0.4-1.2-0.7-1.8-0.7c-1.4,0-2.4,1.1-2.4,2.8c0,1.7,1,2.8,2.4,2.8c0.6,0,1.3-0.3,1.8-0.7
				c0.3-0.2,0.4-0.6,0.4-0.9V20.4z"/>
			<path class="st2" d="M96.9,25.4c-0.7,0.8-1.8,1.2-3.1,1.2c-1.5,0-3.4-1-3.4-3.2c0-2.3,1.8-3.1,3.4-3.1c1.3,0,2.4,0.4,3.1,1.2
				v-1.3c0-1-0.8-1.6-2.1-1.6c-0.7,0-1.4,0.2-2,0.5c-0.5,0.3-1.1,0.1-1.4-0.3l0,0c-0.3-0.4-0.1-1,0.3-1.3c1-0.7,2.3-1,3.5-1
				c2.2,0,4.2,0.9,4.2,3.7v5.3c0,0.5-0.4,1-1,1h-1.6L96.9,25.4L96.9,25.4z M96.9,23.3c0-0.3-0.1-0.6-0.4-0.8c-0.4-0.3-1-0.5-1.6-0.5
				c-1,0-1.8,0.5-1.8,1.5c0,0.9,0.8,1.4,1.8,1.4c0.6,0,1.2-0.2,1.6-0.5c0.3-0.2,0.4-0.5,0.4-0.8V23.3z"/>
			<path class="st2" d="M101.6,24.3c0.3-0.4,0.9-0.6,1.3-0.3c0.7,0.4,1.7,0.8,2.6,0.8c1.1,0,1.6-0.4,1.6-1c0-0.7-0.8-0.9-1.9-1.1
				c-1.7-0.3-3.8-0.7-3.8-3c0-1.6,1.4-3,4-3c1.2,0,2.2,0.3,3,0.8c0.5,0.3,0.7,0.9,0.4,1.4l0,0c-0.3,0.5-0.9,0.6-1.3,0.3
				c-0.6-0.3-1.3-0.5-2.1-0.5c-0.9,0-1.5,0.3-1.5,0.9s0.8,0.8,1.8,1c1.7,0.3,3.9,0.8,3.9,3.2c0,1.8-1.5,3.1-4.2,3.1
				c-1.3,0-2.6-0.3-3.6-0.9c-0.5-0.3-0.6-0.9-0.3-1.3L101.6,24.3z"/>
			<path class="st2" d="M123.2,25.2c-0.8,1-1.8,1.5-3,1.5c-2.4,0-4.3-1.8-4.3-5.1c0-3.2,1.8-5.1,4.3-5.1c0.6,0,1.1,0.1,1.6,0.4
				c0.6,0.3,1.4-0.1,1.4-0.9v-2c0-0.5,0.4-1,1-1h0.6c0.5,0,1,0.4,1,1v11.4c0,0.5-0.4,1-1,1h-1.6V25.2z M123.2,20.2
				c0-0.3-0.1-0.5-0.3-0.7c-0.5-0.5-1.2-0.8-1.9-0.8c-1.4,0-2.4,1.1-2.4,2.8c0,1.7,1,2.8,2.4,2.8c0.7,0,1.4-0.3,1.9-0.8
				c0.2-0.2,0.3-0.4,0.3-0.7V20.2z"/>
			<path class="st2" d="M134.1,25.4c-0.7,0.8-1.8,1.2-3.1,1.2c-1.5,0-3.4-1-3.4-3.2c0-2.3,1.8-3.1,3.4-3.1c1.3,0,2.4,0.4,3.1,1.2
				v-1.3c0-1-0.8-1.6-2.1-1.6c-0.7,0-1.4,0.2-2,0.5c-0.5,0.3-1.1,0.1-1.4-0.3l0,0c-0.3-0.4-0.1-1,0.3-1.3c1-0.7,2.3-1,3.5-1
				c2.2,0,4.2,0.9,4.2,3.7v5.3c0,0.5-0.4,1-1,1H134v-1.1H134.1z M134.1,23.3c0-0.3-0.1-0.6-0.4-0.8c-0.4-0.3-1-0.5-1.6-0.5
				c-1,0-1.8,0.5-1.8,1.5c0,0.9,0.8,1.4,1.8,1.4c0.6,0,1.2-0.2,1.6-0.5c0.3-0.2,0.4-0.5,0.4-0.8V23.3z"/>
			<path class="st2" d="M148.7,21.7h-0.5c-0.5,0-1,0.4-1,1v2.8c0,0.5-0.4,1-1,1h-0.9c-0.5,0-1-0.4-1-1V14.1c0-0.5,0.4-1,1-1h5.3
				c2.8,0,4.5,1.8,4.5,4.3c0,1.9-0.9,3-2,3.6c-0.5,0.3-0.6,0.9-0.3,1.3l1.6,2.6c0.4,0.6-0.1,1.5-0.8,1.5h-1c-0.4,0-0.7-0.2-0.9-0.5
				l-2.1-3.8C149.4,21.8,149,21.7,148.7,21.7z M150.2,15.5h-2c-0.5,0-1,0.4-1,1v1.7c0,0.5,0.4,1,1,1h2c1.1,0,2-0.7,2-1.8
				S151.3,15.5,150.2,15.5z"/>
			<path class="st2" d="M162.5,25.4c-0.7,0.8-1.8,1.2-3.1,1.2c-1.5,0-3.4-1-3.4-3.2c0-2.3,1.8-3.1,3.4-3.1c1.3,0,2.4,0.4,3.1,1.2
				v-1.3c0-1-0.8-1.6-2.1-1.6c-0.7,0-1.4,0.2-2,0.5c-0.5,0.3-1.1,0.1-1.4-0.3l0,0c-0.3-0.4-0.1-1,0.3-1.3c1-0.7,2.3-1,3.5-1
				c2.2,0,4.2,0.9,4.2,3.7v5.3c0,0.5-0.4,1-1,1h-1.6v-1.1H162.5z M162.5,23.3c0-0.3-0.1-0.6-0.4-0.8c-0.4-0.3-1-0.5-1.6-0.5
				c-1,0-1.8,0.5-1.8,1.5c0,0.9,0.8,1.4,1.8,1.4c0.6,0,1.2-0.2,1.6-0.5c0.3-0.2,0.4-0.5,0.4-0.8V23.3z"/>
			<path class="st2" d="M168.6,16.8h0.6c0.5,0,1,0.4,1,1v7.7c0,0.5-0.4,1-1,1h-0.6c-0.5,0-1-0.4-1-1v-7.7
				C167.6,17.2,168,16.8,168.6,16.8z M167.9,15.3l2.4-2.6c0.2-0.2,0.4-0.3,0.7-0.3h1.9l-3,2.6c-0.2,0.2-0.4,0.2-0.6,0.2h-1.4V15.3z"
				/>
			<path class="st2" d="M179.2,20.6c0-1.3-0.7-1.8-1.8-1.8c-0.8,0-1.5,0.4-1.9,0.8c-0.2,0.2-0.3,0.4-0.3,0.7v5.2c0,0.5-0.4,1-1,1
				h-0.6c-0.5,0-1-0.4-1-1v-7.7c0-0.5,0.4-1,1-1h1.6V18c0.6-0.7,1.8-1.5,3.4-1.5c2.1,0,3.1,1.2,3.1,3.1v5.8c0,0.5-0.4,1-1,1h-0.6
				c-0.5,0-1-0.4-1-1v-4.8H179.2z"/>
			<path class="st2" d="M190.8,20.6c0-1.3-0.7-1.8-1.8-1.8c-0.8,0-1.5,0.4-1.9,0.8c-0.2,0.2-0.3,0.4-0.3,0.7v5.2c0,0.5-0.4,1-1,1
				h-0.6c-0.5,0-1-0.4-1-1V14.1c0-0.5,0.4-1,1-1h0.6c0.5,0,1,0.4,1,1v2c0,0.7,0.7,1.2,1.4,0.9c0.6-0.3,1.2-0.4,2-0.4
				c2.1,0,3.1,1.2,3.1,3v5.9c0,0.5-0.4,1-1,1h-0.6c-0.5,0-1-0.4-1-1v-4.9H190.8z"/>
			<path class="st2" d="M201.6,25.4c-0.7,0.8-1.8,1.2-3.1,1.2c-1.5,0-3.4-1-3.4-3.2c0-2.3,1.8-3.1,3.4-3.1c1.3,0,2.4,0.4,3.1,1.2
				v-1.3c0-1-0.8-1.6-2.1-1.6c-0.7,0-1.4,0.2-2,0.5c-0.5,0.3-1.1,0.1-1.4-0.3l0,0c-0.3-0.4-0.1-1,0.3-1.3c1-0.7,2.3-1,3.5-1
				c2.2,0,4.2,0.9,4.2,3.7v5.3c0,0.5-0.4,1-1,1h-1.6v-1.1H201.6z M201.6,23.3c0-0.3-0.1-0.6-0.4-0.8c-0.4-0.3-1-0.5-1.6-0.5
				c-1,0-1.8,0.5-1.8,1.5c0,0.9,0.8,1.4,1.8,1.4c0.6,0,1.2-0.2,1.6-0.5c0.3-0.2,0.4-0.5,0.4-0.8V23.3z"/>
		</g>
	</g>
</g>
<g>
	<g>
		<g>
			<path class="st2" d="M50.2,39.8c0.5,0.6,1,1,2,1c1.9,0,2.6-1.9,2.6-3.7c0-0.1,0-0.3,0-0.4c-0.4,0.6-1.4,1.5-2.6,1.5
				c-1.7,0-3.1-1-3.1-3c0-1.6,1.2-3.1,3.3-3.1c2.6,0,3.6,2.3,3.6,4.8s-1.2,4.8-3.8,4.8c-1.2,0-2-0.4-2.6-1.1L50.2,39.8z M52.4,33.2
				c-1.4,0-2.1,1.1-2.1,2c0,1.4,1,2,2.2,2c0.9,0,1.8-0.6,2.3-1.4C54.7,34.7,54.1,33.2,52.4,33.2z"/>
			<path class="st2" d="M63.5,38.6l-1.1,1.1v1.9h-1.1v-9.3h1.1v6.2l3.6-3.6h1.3l-3,3.1l3,3.7H66L63.5,38.6z"/>
			<path class="st2" d="M76.7,37.1c0-0.9-0.4-1.4-1.2-1.4c-0.7,0-1.4,0.5-1.8,1v5h-1.1v-4.6c0-0.9-0.4-1.4-1.2-1.4
				c-0.7,0-1.4,0.5-1.8,1.1v4.9h-1.1v-6.8h1.1v1c0.3-0.4,1.2-1.1,2.2-1.1s1.6,0.6,1.8,1.3c0.4-0.6,1.3-1.3,2.3-1.3
				c1.2,0,1.9,0.7,1.9,2v4.9h-1.1C76.7,41.7,76.7,37.1,76.7,37.1z"/>
		</g>
	</g>
</g>
<linearGradient id="SVGID_1_" gradientUnits="userSpaceOnUse" x1="20.9" y1="47.9453" x2="20.9" y2="-1.2307" gradientTransform="matrix(1 0 0 -1 0 48)">
	<stop  offset="0" style="stop-color:#FBF8DA"/>
	<stop  offset="0.5027" style="stop-color:#ED705B"/>
	<stop  offset="1" style="stop-color:#E84561"/>
</linearGradient>
<path class="st3" d="M20.9,4c-9,0-16.2,7.2-16.2,16.2c0,3.7,1.3,7.1,3.4,9.9c0.3,0.4,0.6,0.7,0.9,1.1l10.1,12l0,0
	c0.4,0.5,1.1,0.8,1.8,0.8c0.7,0,1.4-0.3,1.8-0.8l0,0l11-13.1c2.1-2.7,3.4-6.2,3.4-9.9C37.1,11.2,29.8,4,20.9,4z M20.9,32.4
	c-6.8,0-12.2-5.5-12.2-12.2S14.1,7.9,20.9,7.9s12.2,5.5,12.2,12.2S27.6,32.4,20.9,32.4z M20.5,23.7h-5c-0.4,0-0.7-0.3-0.7-0.7v-1.3
	c0-0.1,0-0.3,0.1-0.4l5-7.8c0.1-0.2,0.4-0.3,0.6-0.3h2.8c0.4,0,0.7,0.3,0.7,0.7v6.7c0,0.4,0.3,0.7,0.7,0.7H25c0.4,0,0.7,0.3,0.7,0.7
	v1c0,0.4-0.3,0.7-0.7,0.7h-0.3c-0.4,0-0.7,0.3-0.7,0.7v1.4c0,0.4-0.3,0.7-0.7,0.7h-1.4c-0.4,0-0.7-0.3-0.7-0.7v-1.4
	C21.2,24,20.9,23.7,20.5,23.7z M18.9,21.2h1.6c0.4,0,0.7-0.3,0.7-0.7V18c0-0.7-0.9-1-1.3-0.4l-1.6,2.5C18,20.6,18.4,21.2,18.9,21.2z
	"/>
</svg>
