<svg width="30" height="27" viewBox="0 0 30 27" fill="none" xmlns="http://www.w3.org/2000/svg">
<path d="M10.8 17.1L13.7 11.3L16.6 17.1C17 17.9 16.4 18.7 15.6 18.7H11.9C10.9 18.7 10.4 17.8 10.8 17.1ZM26.7 22.4V22C26.7 21.9 26.7 21.8 26.6 21.7C26.6 21.6 26.5 21.5 26.5 21.4C26.5 21.3 26.4 21.1 26.4 21V20.9L17 2.40001V2.30001C16.9 2.20001 16.9 2.10001 16.8 1.90001C16.7 1.80001 16.7 1.70001 16.6 1.60001L16.3 1.30001L16 1.00001C15.9 0.900012 15.8 0.900012 15.7 0.800012C15.6 0.700012 15.5 0.600012 15.4 0.600012H15.3C15.2 0.600012 15.1 0.500012 15.1 0.500012C15 0.400012 14.9 0.400012 14.7 0.400012C14.6 0.400012 14.5 0.300012 14.4 0.300012C14.3 0.300012 14.2 0.200012 14 0.200012H13.2C13.1 0.200012 13 0.200012 12.9 0.300012C12.8 0.300012 12.6 0.300012 12.5 0.400012C12.4 0.400012 12.3 0.500012 12.1 0.500012C12 0.500012 11.9 0.600012 11.9 0.600012H11.8C11.7 0.700012 11.6 0.700012 11.4 0.800012C11.3 0.900012 11.2 0.900012 11.1 1.00001L10.8 1.30001L10.5 1.60001C10.4 1.70001 10.4 1.80001 10.3 1.90001C10.2 2.00001 10.1 2.10001 10.1 2.30001V2.40001L0.999954 20.8V20.9C0.899954 21 0.899956 21.2 0.899956 21.3C0.899956 21.4 0.799957 21.5 0.799957 21.6C0.799957 21.7 0.799951 21.8 0.699951 21.9V23C0.699951 23.1 0.699957 23.2 0.799957 23.3C0.799957 23.4 0.899956 23.5 0.899956 23.7C0.899956 23.8 0.999954 23.9 0.999954 24C1.09995 24.1 1.09995 24.2 1.19995 24.3C1.29995 24.4 1.29996 24.5 1.39996 24.6C1.49996 24.7 1.59995 24.8 1.59995 24.9L1.89996 25.2C1.99996 25.3 2.09995 25.4 2.19995 25.4C2.29995 25.5 2.39995 25.6 2.49995 25.6C2.59995 25.6 2.59995 25.7 2.69995 25.7H2.79996C2.99996 25.8 3.19996 25.8 3.39996 25.9C3.49996 25.9 3.49995 26 3.59995 26C3.79995 26.1 4.09996 26.1 4.29996 26.1H23C23.2 26.1 23.5 26.1 23.7 26C23.8 26 23.8 26 23.9 25.9C24.1 25.8 24.3 25.8 24.5 25.7H24.6C24.7 25.7 24.7 25.6 24.8 25.6C24.9 25.5 25 25.5 25.1 25.4C25.2 25.3 25.3 25.2 25.4 25.2L25.7 24.9C25.8 24.8 25.9 24.7 25.9 24.6C26 24.5 26 24.4 26.1 24.3C26.2 24.2 26.2 24.1 26.3 24C26.4 23.9 26.4 23.8 26.4 23.7C26.4 23.6 26.5 23.5 26.5 23.3C26.5 23.2 26.6 23.1 26.6 23V22.6V22.4C26.7 22.5 26.7 22.5 26.7 22.4Z" fill="white"/>
</svg>
