<svg width="27" height="27" viewBox="0 0 27 27" fill="none" xmlns="http://www.w3.org/2000/svg">
<path d="M10.9 17.1L13.8 11.3L16.7 17.1C17.1 17.9 16.5 18.7 15.7 18.7H12C11.1 18.7 10.5 17.8 10.9 17.1ZM26.8 22.4V22C26.8 21.9 26.8 21.8 26.7 21.7C26.7 21.6 26.6 21.5 26.6 21.4C26.6 21.3 26.5 21.1 26.5 21V20.9L17.3 2.40001V2.30001C17.2 2.20001 17.2 2.10001 17.1 1.90001C17 1.80001 17 1.70001 16.9 1.60001L16.6 1.30001L16.3 1.00001C16.2 0.900012 16.1 0.900012 16 0.800012C15.9 0.700012 15.8 0.600012 15.7 0.600012H15.6C15.5 0.600012 15.4 0.500012 15.4 0.500012C15.3 0.400012 15.2 0.400012 15 0.400012C14.9 0.400012 14.8 0.300012 14.7 0.300012C14.6 0.300012 14.5 0.200012 14.3 0.200012H13.6C13.5 0.200012 13.4 0.200012 13.3 0.300012C13.2 0.300012 13.1 0.300012 12.9 0.400012C12.8 0.400012 12.7 0.500012 12.5 0.500012C12.4 0.500012 12.3 0.600012 12.3 0.600012H12.2C12.1 0.700012 12 0.700012 11.8 0.800012C11.7 0.900012 11.6 0.900012 11.5 1.00001L11.2 1.30001L10.9 1.60001C10.8 1.70001 10.8 1.80001 10.7 1.90001C10.6 2.00001 10.5 2.10001 10.5 2.30001V2.40001L1.3 20.9V21C1.2 21.1 1.2 21.3 1.2 21.4C1.2 21.5 1.10001 21.6 1.10001 21.7C1.10001 21.8 1.1 21.9 1 22V23.1C1 23.2 1.00001 23.3 1.10001 23.4C1.10001 23.5 1.2 23.6 1.2 23.8C1.2 23.9 1.29999 24 1.39999 24.1C1.49999 24.2 1.50001 24.3 1.60001 24.4C1.70001 24.5 1.7 24.6 1.8 24.7C1.9 24.8 2 24.9 2 25L2.3 25.3C2.4 25.4 2.50001 25.5 2.60001 25.5C2.70001 25.6 2.79999 25.7 2.89999 25.7C2.99999 25.7 3.00001 25.8 3.10001 25.8H3.2C3.4 25.9 3.6 25.9 3.8 26C3.9 26 3.9 26.1 4 26.1C4.2 26.2 4.5 26.2 4.7 26.2H23.1C23.3 26.2 23.6 26.2 23.8 26.1C23.9 26.1 23.9 26.1 24 26C24.2 25.9 24.4 25.9 24.6 25.8H24.7C24.8 25.8 24.8 25.7 24.9 25.7C25 25.6 25.1 25.6 25.2 25.5C25.3 25.4 25.4 25.3 25.5 25.3L25.8 25C25.9 24.9 26 24.8 26 24.7C26.1 24.6 26.1 24.5 26.2 24.4C26.3 24.3 26.3 24.2 26.4 24.1C26.5 24 26.5 23.9 26.5 23.8C26.5 23.7 26.6 23.6 26.6 23.4C26.6 23.3 26.7 23.2 26.7 23.1V22.7V22.5C26.8 22.5 26.8 22.5 26.8 22.4Z" fill="white"/>
</svg>
