<svg width="30" height="27" viewBox="0 0 30 27" fill="none" xmlns="http://www.w3.org/2000/svg">
<path d="M25.8999 6.79999C26.5999 6.09999 26.9999 5.09999 26.9999 4.09999C26.9999 3.09999 26.5999 2.19999 25.8999 1.39999C25.1999 0.699988 24.1999 0.299988 23.1999 0.299988C22.1999 0.299988 21.2999 0.699988 20.4999 1.39999L14.5999 7.29999L10.0999 11.8C9.79991 12.1 9.49991 12.2 9.09991 12C8.69991 11.8 8.49991 11.5 8.49991 11.1V4.09999C8.49991 1.99999 6.79991 0.299988 4.69991 0.299988C2.59991 0.299988 0.899902 1.99999 0.899902 4.09999V22.6C0.899902 22.8 0.899908 23.1 0.999908 23.3C0.999908 23.4 1.09991 23.5 1.09991 23.6C1.09991 23.7 1.19991 23.9 1.19991 24C1.19991 24.1 1.2999 24.2 1.3999 24.3C1.4999 24.4 1.49991 24.5 1.59991 24.6C1.69991 24.8 1.79991 24.9 1.99991 25.1L2.09991 25.2C2.29991 25.4 2.49991 25.5 2.69991 25.7C2.79991 25.8 2.89991 25.8 2.99991 25.9C3.09991 26 3.19991 26 3.29991 26.1C3.39991 26.2 3.59991 26.2 3.69991 26.2C3.79991 26.2 3.89991 26.3 3.99991 26.3C4.19991 26.3 4.49991 26.4 4.69991 26.4H4.79991C4.99991 26.4 5.29991 26.4 5.49991 26.3C5.59991 26.3 5.69991 26.2 5.79991 26.2C5.89991 26.2 6.09991 26.1 6.19991 26.1C6.29991 26.1 6.39991 26 6.49991 25.9C6.59991 25.8 6.69991 25.8 6.79991 25.7C6.99991 25.6 7.09991 25.5 7.29991 25.3L7.3999 25.2L13.2999 19.3C13.6999 18.9 14.2999 18.9 14.5999 19.3L20.4999 25.1C21.1999 25.8 22.1999 26.2 23.1999 26.2C24.1999 26.2 25.1999 25.8 25.8999 25.1C27.3999 23.6 27.3999 21.2 25.8999 19.7L19.9999 14C19.7999 13.8 19.6999 13.5 19.6999 13.4C19.6999 13.2 19.6999 13 19.9999 12.7L25.8999 6.79999Z" fill="white"/>
</svg>
