<svg width="30" height="27" viewBox="0 0 30 27" fill="none" xmlns="http://www.w3.org/2000/svg">
<path d="M17.8999 26.3H4.1999C2.0999 26.3 0.399902 24.6 0.399902 22.5C0.399902 20.4 2.0999 18.7 4.1999 18.7H17.8999C18.3999 18.7 18.8999 18.3 18.8999 17.7C18.8999 17.3 18.5999 17 18.1999 17H8.6999C4.0999 17 0.399902 13.3 0.399902 8.69998C0.399902 3.99998 4.1999 0.0999756 8.9999 0.0999756H22.6999C24.7999 0.0999756 26.4999 1.79998 26.4999 3.89998C26.4999 5.99998 24.7999 7.69998 22.6999 7.69998H8.9999C8.4999 7.69998 7.9999 8.09997 7.9999 8.69998C7.9999 9.09998 8.2999 9.39997 8.6999 9.39997H18.1999C22.7999 9.39997 26.4999 13.1 26.4999 17.7C26.4999 22.5 22.5999 26.3 17.8999 26.3Z" fill="white"/>
</svg>
