<?xml version="1.0" encoding="utf-8"?>
<!-- Generator: Adobe Illustrator 21.0.0, SVG Export Plug-In . SVG Version: 6.00 Build 0)  -->
<svg version="1.1" id="Layer_1" xmlns="https://www.w3.org/2000/svg" xmlns:xlink="https://www.w3.org/1999/xlink" x="0px" y="0px"
	 viewBox="0 0 760.2 984.1" style="enable-background:new 0 0 760.2 984.1;" xml:space="preserve">
<style type="text/css">
	.st0{fill:#FFFFFF;}
</style>
<g>
	<g>
		<path d="M155.4,595.6c9.1-1,22.3-2.3,35.5-3.8c12.1-1.3,24.1-2.5,36.1-4.2c15-2,29.9-3.7,45.1-0.8c31.6,6.1,56.9,21.2,72.3,50.3
			c13.8,26.1,16.2,54.3,13.6,83c-2.6,28.8-11.8,55.8-24.4,81.7c-23.8,48.9-56.7,91.1-94.6,129.8c-9.3,9.5-17,20.4-25.1,31
			c-2.7,3.5-4.6,7.8-6.1,12c-2.4,6.6,0,10.2,6.8,9.3c20.7-2.7,38.7-12.2,56.1-23.2c35.8-35.3,68.7-73,98.3-113.7
			c47.2-64.8,84.7-134.5,108.2-211.4c10.4-34.1,18.2-68.7,19.6-104.5c0.1-2,1.7-4.2,3.1-5.8c14.5-16.5,30.2-32,43.6-49.4
			c61.8-80.7,102-172.1,131.9-268.5c-0.5,0.4-0.8,0.9-1.1,1.4c-49,101.3-119.5,184.7-210.4,250.8c-72.4,52.7-152,91-237.5,116.9
			C201.6,584.1,176.4,590,155.4,595.6z M347.3,488c11.8,0.1,23.1-2.2,33.9-7c45.2-19.9,59.3-74.5,28.8-111.4
			c-26.5-32-75.1-38.3-109.1-14.2C276.1,373,264.4,402,271,429.5C279.2,464,310.4,487.9,347.3,488z M692,164.6
			c-0.5,0.2,0,0.1,0.4-0.1c22.9-13.5,34.9-33.7,36.1-60.1c1.3-28.8-7.6-55.2-22.1-79.6c-5-8.3-11.9-15.5-18.2-23
			c-2.2-2.7-4.5-2.3-6.9,0.7c-9,11.4-13.1,24.5-14,38.8c-1.6,26,4.6,50.8,11.5,75.5C683.3,132.5,687.5,148.3,692,164.6z
			 M524.9,119.5c-9.9,54.2,38.1,111,96,115c0.2-0.4,0.6-0.8,0.6-1.3c-0.2-2.5-0.5-4.9-0.8-7.4c-3-29.1-15.4-53.5-39.1-70.7
			C563.8,142.2,544.3,131.6,524.9,119.5z M760.2,216.2c-27.5,11.2-53.2,23.5-73.1,45.1c-6.7,7.4-11.6,15.8-13.3,25.8
			c-0.3,1.5,0.5,4.3,1.7,4.9c12.1,6.3,24.9,9.8,38.5,7.5c14.3-2.4,24-11.6,30.9-23.9C755,257.6,758.8,237.8,760.2,216.2z M0,648.9
			c8.4,7.9,17.1,11.4,27.2,10.8c10.9-0.7,20.4-5.5,29.2-11.8c14.6-10.6,25.9-24.3,36.9-38.4c3.5-4.4,3.5-8.2,1.1-12.6
			c-2.5-4.6-5.7-8.1-11.5-8.2c-9.4-0.3-17.4,3.9-24.1,9.5C39,614.5,19.8,631.7,0,648.9z M29.9,548.5c3,2.8,6.1,6.1,9.8,8.7
			c10.3,7.3,21.9,11.8,33.9,15.2c21.1,5.9,42.3,7.9,63.9,2.8c3-0.7,4.1-2,4.4-4.9c1.5-13.6-4.8-23.1-18.6-26.5
			c-18.3-4.5-36.6-1.7-55,0.4C55.8,545.6,43.2,547,29.9,548.5z M120.6,667.8c4.8-1.5,10-2.3,14.4-4.6c17.8-9.4,29-24.6,35.2-43.4
			c2.3-6.9-1.5-10.3-8.8-8.4c-10.5,2.7-19,8.9-26.6,16.1c-9.9,9.5-19.2,19.8-28.6,29.8c-2.9,3.1-2.3,5.7,1.9,6.9
			C112.2,665.4,116.1,666.5,120.6,667.8z"/>
		<path class="st0" d="M155.4,595.6c21-5.6,46.2-11.5,71-19c85.6-25.9,165.1-64.2,237.5-116.9c90.9-66.2,161.4-149.5,210.4-250.8
			c0.3-0.5,0.6-1,1.1-1.4c-30,96.4-70.1,187.9-131.9,268.5c-13.3,17.4-29.1,32.9-43.6,49.4c-1.4,1.6-3,3.8-3.1,5.8
			c-1.5,35.8-9.3,70.4-19.6,104.5c-23.4,76.9-61,146.6-108.2,211.4c-29.6,40.6-62.5,78.4-98.3,113.7c-17.3,11-35.4,20.5-56.1,23.2
			c-6.8,0.9-9.2-2.7-6.8-9.3c1.5-4.2,3.4-8.5,6.1-12c8.1-10.6,15.8-21.5,25.1-31c37.8-38.7,70.8-80.9,94.6-129.8
			c12.6-25.9,21.8-53,24.4-81.7c2.6-28.7,0.2-56.9-13.6-83c-15.4-29-40.6-44.2-72.3-50.3c-15.2-2.9-30.1-1.3-45.1,0.8
			c-12,1.6-24.1,2.8-36.1,4.2C177.6,593.3,164.4,594.6,155.4,595.6z"/>
		<path class="st0" d="M347.3,488c-36.9-0.1-68-23.9-76.3-58.5c-6.6-27.5,5.1-56.5,29.9-74.1c34-24.1,82.6-17.8,109.1,14.2
			c30.5,36.9,16.4,91.5-28.8,111.4C370.4,485.8,359.1,488.1,347.3,488z"/>
		<path class="st0" d="M692,164.6c-4.4-16.2-8.6-32.1-13.1-47.9C672,92,665.7,67.2,667.4,41.2c0.9-14.2,5-27.4,14-38.8
			c2.4-3,4.7-3.3,6.9-0.7c6.3,7.5,13.2,14.7,18.2,23c14.5,24.4,23.4,50.7,22.1,79.6c-1.2,26.3-13.2,46.6-36.1,60.1
			C691.9,164.7,691.4,164.7,692,164.6z"/>
		<path class="st0" d="M524.9,119.5c19.5,12.1,39,22.7,56.8,35.6c23.6,17.2,36.1,41.6,39.1,70.7c0.3,2.5,0.6,4.9,0.8,7.4
			c0,0.4-0.4,0.9-0.6,1.3C563,230.5,515,173.7,524.9,119.5z"/>
		<path class="st0" d="M760.2,216.2c-1.4,21.6-5.1,41.4-15.3,59.4c-6.9,12.3-16.6,21.5-30.9,23.9c-13.6,2.3-26.4-1.2-38.5-7.5
			c-1.1-0.6-1.9-3.3-1.7-4.9c1.6-10,6.5-18.5,13.3-25.8C707,239.7,732.7,227.5,760.2,216.2z"/>
		<path class="st0" d="M0,648.9c19.8-17.2,39-34.3,58.7-50.8c6.7-5.6,14.7-9.8,24.1-9.5c5.8,0.2,9,3.6,11.5,8.2
			c2.4,4.5,2.4,8.2-1.1,12.6c-11,14.1-22.3,27.8-36.9,38.4c-8.7,6.4-18.3,11.1-29.2,11.8C17.1,660.3,8.4,656.7,0,648.9z"/>
		<path class="st0" d="M29.9,548.5c13.3-1.5,25.9-2.9,38.5-4.3c18.3-2.1,36.7-4.8,55-0.4c13.8,3.4,20.1,12.8,18.6,26.5
			c-0.3,2.9-1.4,4.2-4.4,4.9c-21.6,5-42.9,3.1-63.9-2.8c-12.1-3.4-23.7-7.9-33.9-15.2C36,554.6,32.9,551.2,29.9,548.5z"/>
		<path class="st0" d="M120.6,667.8c-4.5-1.3-8.5-2.3-12.4-3.5c-4.2-1.3-4.8-3.9-1.9-6.9c9.4-10,18.7-20.3,28.6-29.8
			c7.6-7.2,16.1-13.4,26.6-16.1c7.3-1.9,11.1,1.5,8.8,8.4c-6.3,18.8-17.5,33.9-35.2,43.4C130.6,665.5,125.4,666.3,120.6,667.8z"/>
	</g>
</g>
</svg>
