<?xml version="1.0" encoding="utf-8"?>
<!-- Generator: Adobe Illustrator 22.0.1, SVG Export Plug-In . SVG Version: 6.00 Build 0)  -->
<svg version="1.1" id="Layer_1" xmlns="https://www.w3.org/2000/svg" xmlns:xlink="https://www.w3.org/1999/xlink" x="0px" y="0px"
	 viewBox="0 0 400 400" style="enable-background:new 0 0 400 400;" xml:space="preserve">
<style type="text/css">
	.st0{fill:#FFFFFF;}
</style>
<g>
	<g>
		<g>
			<g>
				<g>
					<path d="M142,106.6c0,0-14.5,7.6-19.8,12.3s-5.9,8.8,11.8,7.3c17.7-1.5,48.2-9.2,75-18.8s44.9-16.9,55.7-24.4
						c10.8-7.6,5.4-10.8-1.2-10.5c-6.5,0.3-18.3,1.4-18.3,1.4s2.4,1.8,2.4,3.1s-9.5,5.6-18.8,8.4c-9.3,2.8-29.2,9.7-46.8,13.2
						s-33,9.1-40.1,12.5C142,111.1,142,106.6,142,106.6z"/>
					<path d="M231.2,64.3c0,0-7.3-16.4-16.7-29.4c-9.4-13-17.4-10.4-23.2-3.9s-6.7,11.8-25.6,11.6s-28.8-0.5-27.5,20.3
						c1.4,20.8,2.6,31.1,2.6,31.1s18.8-9.7,32.9-13.3c14.2-3.6,25.8-3.9,39.9-9C227.8,66.5,231.2,64.3,231.2,64.3z"/>
				</g>
			</g>
		</g>
	</g>
</g>
</svg>
