<?xml version="1.0" encoding="utf-8"?>
<!-- Generator: Adobe Illustrator 22.0.1, SVG Export Plug-In . SVG Version: 6.00 Build 0)  -->
<svg version="1.1" id="Layer_1" xmlns="https://www.w3.org/2000/svg" xmlns:xlink="https://www.w3.org/1999/xlink" x="0px" y="0px"
	 viewBox="0 0 400 400" style="enable-background:new 0 0 400 400;" xml:space="preserve">
<style type="text/css">
	.st0{fill:#FFFFFF;}
</style>
<g>
	<g>
		<g>
			<g>
				<g>
					<path d="M163,182.3c0,0,0.9,9.9,11.2,20.9s17.4,18,18.9,18.3c1.5,0.3,0.1-1.6,0.1-1.6S179,205,173.4,197.1
						C167.8,189.3,163.4,181.3,163,182.3z"/>
					<path d="M197,224.7c0,0,0.8,0.1,4.6-4.9c3.8-5,9.3-10.7,14.7-15.8c5.5-5.1,12.5-11.8,15-16.4c0.6-2.1,0-3.8-1.7-1.7
						c-1.7,2.1-4.8,7.4-10.6,12.8c-5.8,5.4-10.7,10.4-15,15.5C200.2,218.7,196.4,223.6,197,224.7z"/>
					<path d="M186.9,228.8c0,0-4.5,3.2-8.2,7.8s-6.2,6.9-6.5,8c-0.2,1.1,0.3,1.9,1.4,3c1.1,1.1,5.4,4.5,6.1,4.7
						c0.7,0.2,0.2-1.1-0.7-2.1c-0.9-1-2.4-2.6-3.5-3.7c-1.2-1.1-1.8-1.5-0.5-2.4c1.3-1,5.3-6.5,7.1-8.3c1.8-1.8,5.2-5.8,5.4-6.2
						C187.6,229,188.5,228,186.9,228.8z"/>
					<path d="M342.9,286.7c-3.6-13.7-5.9-29.9-5.6-40.6c0.3-10.8-1.6-17.4-13-21.2c-11.3-3.8-30.5-11.3-47.7-17.9
						c-17.1-6.7-39.2-11.3-43.3-24.2c0.9,19.8,1.2,25.8-5.3,39.9c-5,11-6.9,14.3-10.6,32.3c-1.1-1.4-2.5-2.9-3.3-3.3
						c0,2.1,1.8,6.3,2.7,6.7c0,0,0,0,0,0c-0.9,4.5-1.9,9.8-3.1,16.2c0,0-2.4-0.5-4.2-5.5c-1.8-5-3.3-8.4-0.4-11.6
						c2.9-3.2,5.2-5.6,1.3-10.8s-10-13.4-12.7-15.9c-2.7-2.4-5.2-2.8-9.6,0.8c-4.4,3.6-7.4,6.9-7.9,9c-0.5,2-0.9,4.4,1.4,6.9
						c2.3,2.6,4.7,6.9,5.8,7.9c1,1,0.8,3.5-0.3,4.9s-6.8,14.5-11.8,21.9c-7.4-42.6-12.9-71.8-13.9-100.5c0,0-4,11.3-26.6,20
						s-37.8,13.7-52.7,20.2s-23.7,6.5-23.8,21.4c-0.1,14.8-5.4,53.9-6.4,76.1c-1,22.3-0.8,46.3,3.1,55c0.3-0.3,290.5,0,290.5,0
						s2.8-27.6,3.1-44.5C348.8,312.9,346.5,300.4,342.9,286.7z"/>
				</g>
			</g>
		</g>
	</g>
</g>
</svg>
