<?xml version="1.0" encoding="utf-8"?>
<!-- Generator: Adobe Illustrator 22.0.1, SVG Export Plug-In . SVG Version: 6.00 Build 0)  -->
<svg version="1.1" id="Layer_1" xmlns="https://www.w3.org/2000/svg" xmlns:xlink="https://www.w3.org/1999/xlink" x="0px" y="0px"
	 viewBox="0 0 400 400" style="enable-background:new 0 0 400 400;" xml:space="preserve">
<style type="text/css">
	.st0{fill:#FFFFFF;}
</style>
<g>
	<g>
		<path class="st0" d="M232.9,183.3l-7.1,9.7l-16.5,16.3L197,224.7l-9.1-9.3l-17.2-19.1c0,0-6.3-12.6-7.3-13.8c-1-1.3-1.4-2-1.8-0.9
			c0,0,0,0,0,0c1,28.7,6.5,57.8,13.9,100.5c5-7.4,10.8-20.5,11.8-21.9c1-1.4,1.3-3.8,0.3-4.9c-1-1-3.5-5.4-5.8-7.9s-1.9-4.9-1.4-6.9
			c0.5-2,3.6-5.4,7.9-9c4.4-3.6,6.9-3.2,9.6-0.8c2.7,2.4,8.7,10.8,12.7,15.9s1.7,7.6-1.3,10.8c-2.9,3.2-1.4,6.7,0.4,11.6
			c1.8,5,4.2,5.5,4.2,5.5c1.2-6.4,2.2-11.7,3.1-16.2c0,0,0,0,0,0c-0.8-0.4-2.7-4.6-2.7-6.7c0.8,0.4,2.2,1.9,3.3,3.3
			c3.7-18,5.5-21.3,10.6-32.3c6.4-14,6.2-20,5.3-39.2C233.4,183.2,233.1,183.1,232.9,183.3z"/>
		<g>
			<g>
				<g>
					<path d="M163,182.3c0,0,0.9,9.9,11.2,20.9s17.4,18,18.9,18.3c1.5,0.3,0.1-1.6,0.1-1.6S179,205,173.4,197.1
						C167.8,189.3,163.4,181.3,163,182.3z"/>
					<path d="M197,224.7c0,0,0.8,0.1,4.6-4.9c3.8-5,9.3-10.7,14.7-15.8c5.5-5.1,12.5-11.8,15-16.4c0.6-2.1,0-3.8-1.7-1.7
						c-1.7,2.1-4.8,7.4-10.6,12.8c-5.8,5.4-10.7,10.4-15,15.5C200.2,218.7,196.4,223.6,197,224.7z"/>
					<path d="M186.9,228.8c0,0-4.5,3.2-8.2,7.8s-6.2,6.9-6.5,8c-0.2,1.1,0.3,1.9,1.4,3c1.1,1.1,5.4,4.5,6.1,4.7
						c0.7,0.2,0.2-1.1-0.7-2.1c-0.9-1-2.4-2.6-3.5-3.7c-1.2-1.1-1.8-1.5-0.5-2.4c1.3-1,5.3-6.5,7.1-8.3c1.8-1.8,5.2-5.8,5.4-6.2
						C187.6,229,188.5,228,186.9,228.8z"/>
				</g>
				<g>
					<path class="st0" d="M245.2,73.8l-14-9.6l0,0c0,0-3.4,2.2-17.6,7.3c-14.2,5.1-25.8,5.5-39.9,9S140.7,94,140.7,94
						s1.3,8.9,1.3,12.6c0,0,0,4.5-0.1,4.5c7-3.5,22.4-9.1,40.1-12.5s37.5-10.4,46.8-13.2c9.3-2.8,18.8-7.2,18.8-8.4
						S245.2,73.8,245.2,73.8z"/>
				</g>
				<g>
					<path class="st0" d="M90.8,272.8c0-2.3-0.4-2.9-1.4-2.9c-1.6,0-1.8,1.5-1.8,6.8c0,5.4,0.2,6.8,1.8,6.8c1.3,0,1.6-1.1,1.6-4.9h5
						v1.5c0,5.6-3.3,6.9-6.6,6.9c-5.8,0-7.1-2.9-7.1-10.4c0-7.6,1.7-10.4,7.1-10.4c4.7,0,6.4,2.5,6.4,6.3v1.3h-5V272.8z"/>
					<path class="st0" d="M97.6,266.8h5.2v19.9h-5.2V266.8z"/>
					<path class="st0" d="M108.3,266.8h6.5l4.9,19.9h-5.5l-0.5-3.5h-4.1l-0.5,3.5h-5.5L108.3,266.8z M111.6,270.9L111.6,270.9
						l-1.5,8.5h2.9L111.6,270.9z"/>
					<path class="st0" d="M127.8,266.8h7.5c6,0,6.3,4.7,6.3,10c0,5.2-0.3,10-6.3,10h-7.5V266.8z M133,283h1c2,0,2.3-0.8,2.3-6.2
						c0-5.4-0.3-6.2-2.3-6.2h-1V283z"/>
					<path class="st0" d="M143.8,266.8h11.8v4.2H149v3.4h6.2v4.1H149v4h6.9v4.2h-12.1V266.8z"/>
				</g>
			</g>
		</g>
	</g>
</g>
</svg>
