<?xml version="1.0" encoding="utf-8"?>
<!-- Generator: Adobe Illustrator 22.0.1, SVG Export Plug-In . SVG Version: 6.00 Build 0)  -->
<svg version="1.1" id="Layer_1" xmlns="https://www.w3.org/2000/svg" xmlns:xlink="https://www.w3.org/1999/xlink" x="0px" y="0px"
	 viewBox="0 0 400 400" style="enable-background:new 0 0 400 400;" xml:space="preserve">
<style type="text/css">
	.st0{fill:#FFFFFF;}
</style>
<g>
	<g>
		<g>
			<g>
				<g>
					<path class="st0" d="M92.7,356.8h-4.7l-1.2-9.8h-6l-1.2,9.8h-4.7l6.5-53.7H86L92.7,356.8z M86.2,342.5l-2.6-21l-2.5,21H86.2z"
						/>
					<path class="st0" d="M105.8,307.7h-4.9v49.2h-4.6v-49.2h-4.9v-4.6h14.4V307.7z"/>
					<path class="st0" d="M121.8,348.7c0,2.3-0.6,4.2-1.9,5.8c-1.4,1.7-3.2,2.6-5.3,2.6c-2.1,0-3.9-0.9-5.2-2.6
						c-1.3-1.7-2-3.7-2-5.9v-37.4c0-2.2,0.7-4.2,2-5.9c1.3-1.8,3.1-2.7,5.2-2.7c2.2,0,3.9,0.9,5.3,2.7c1.3,1.6,1.9,3.6,1.9,5.8
						V348.7z M117.2,348.7v-37.4c0-2.6-0.9-3.9-2.7-3.9c-0.8,0-1.5,0.4-2,1.3c-0.4,0.7-0.6,1.6-0.6,2.6v37.4c0,1,0.2,1.8,0.6,2.5
						c0.5,0.9,1.2,1.4,2,1.4C116.4,352.6,117.2,351.3,117.2,348.7z"/>
					<path class="st0" d="M140,356.8h-4.6v-20.6c0-2.6-0.9-3.9-2.6-3.9h-2.6v24.5h-4.6v-53.7h7.2c2.2,0,3.9,0.9,5.3,2.7
						c1.3,1.7,1.9,3.7,1.9,5.8v10.8c0,3.4-1.3,6-3.8,7.5c2.5,1.6,3.8,4.1,3.8,7.6V356.8z M135.4,323.7v-12.2c0-2.6-0.9-3.9-2.6-3.9
						h-2.6v20h2.6C134.5,327.7,135.4,326.4,135.4,323.7z"/>
					<path class="st0" d="M155.5,356.8H143v-53.7h12.5v4.6h-7.9v20h6.5v4.6h-6.5v20h7.9V356.8z"/>
					<path class="st0" d="M172.2,348.7c0,2.2-0.6,4.1-1.9,5.8c-1.4,1.8-3.2,2.7-5.3,2.7c-2.2,0-3.9-0.9-5.2-2.6
						c-1.3-1.7-2-3.7-2-5.9v-6.2h4.6v6.2c0,2.6,0.9,3.9,2.6,3.9c0.8,0,1.5-0.5,2-1.4c0.4-0.8,0.6-1.6,0.6-2.5v-5.9
						c0-2.8-0.8-5.6-2.5-8.5c-1.6-2.5-3.2-4.9-4.7-7.3c-1.7-3.1-2.6-6.4-2.6-9.8v-5.9c0-2.2,0.6-4.1,1.9-5.8
						c1.4-1.8,3.2-2.8,5.3-2.8c2.2,0,3.9,0.9,5.3,2.7c1.3,1.7,1.9,3.7,1.9,5.8v6.2h-4.6v-6.2c0-2.6-0.9-3.9-2.6-3.9
						c-0.9,0-1.6,0.4-2,1.3c-0.4,0.9-0.7,1.8-0.7,2.7v5.9c0,2.8,0.8,5.7,2.5,8.5c0.8,1.2,1.6,2.5,2.4,3.7c0.8,1.2,1.6,2.4,2.4,3.7
						c1.7,3,2.6,6.3,2.6,9.8V348.7z"/>
				</g>
			</g>
		</g>
	</g>
</g>
</svg>
