<?xml version="1.0" encoding="utf-8"?>
<!-- Generator: Adobe Illustrator 22.0.1, SVG Export Plug-In . SVG Version: 6.00 Build 0)  -->
<svg version="1.1" id="Layer_1" xmlns="https://www.w3.org/2000/svg" xmlns:xlink="https://www.w3.org/1999/xlink" x="0px" y="0px"
	 viewBox="0 0 400 400" style="enable-background:new 0 0 400 400;" xml:space="preserve">
<style type="text/css">
	.st0{fill:#FFFFFF;}
</style>
<g>
	<g>
		<g>
			<g>
				<g>
					<path class="st0" d="M196.3,356.8h-4.6v-53.7h4.6V356.8z"/>
					<path class="st0" d="M214.7,356.8h-4.5l-5.4-28.6v28.6h-4.6v-53.7h4.5l5.4,28.7v-28.7h4.6V356.8z"/>
					<path class="st0" d="M235,303.1l-6.7,53.7h-4.6l-6.5-53.7h4.7l4.2,35.3l4.3-35.3H235z"/>
					<path class="st0" d="M242.1,356.8h-4.6v-53.7h4.6V356.8z"/>
					<path class="st0" d="M259.5,348.7c0,2.2-0.6,4.1-1.9,5.8c-1.4,1.8-3.2,2.7-5.3,2.7c-2.2,0-3.9-0.9-5.2-2.6
						c-1.3-1.7-2-3.7-2-5.9v-6.2h4.6v6.2c0,2.6,0.9,3.9,2.6,3.9c0.8,0,1.5-0.5,2-1.4c0.4-0.8,0.6-1.6,0.6-2.5v-5.9
						c0-2.8-0.8-5.6-2.5-8.5c-1.6-2.5-3.2-4.9-4.7-7.3c-1.7-3.1-2.6-6.4-2.6-9.8v-5.9c0-2.2,0.6-4.1,1.9-5.8
						c1.4-1.8,3.2-2.8,5.3-2.8c2.2,0,3.9,0.9,5.3,2.7c1.3,1.7,1.9,3.7,1.9,5.8v6.2h-4.6v-6.2c0-2.6-0.9-3.9-2.6-3.9
						c-0.9,0-1.6,0.4-2,1.3c-0.4,0.9-0.7,1.8-0.7,2.7v5.9c0,2.8,0.8,5.7,2.5,8.5c0.8,1.2,1.6,2.5,2.4,3.7c0.8,1.2,1.6,2.4,2.4,3.7
						c1.7,3,2.6,6.3,2.6,9.8V348.7z"/>
					<path class="st0" d="M270.2,293.2l-4.7,7.8h-4l3.2-7.8H270.2z M267.1,356.8h-4.6v-53.7h4.6V356.8z"/>
					<path class="st0" d="M287.2,303.1l-6.7,53.7h-4.6l-6.5-53.7h4.7l4.2,35.3l4.3-35.3H287.2z"/>
					<path class="st0" d="M302.2,356.8h-12.5v-53.7h12.5v4.6h-7.9v20h6.5v4.6h-6.5v20h7.9V356.8z"/>
					<path class="st0" d="M309.2,356.8h-4.6v-53.7h4.6V356.8z"/>
					<path class="st0" d="M326.6,348.7c0,2.2-0.6,4.1-1.9,5.8c-1.4,1.8-3.2,2.7-5.3,2.7c-2.2,0-3.9-0.9-5.2-2.6
						c-1.3-1.7-2-3.7-2-5.9v-6.2h4.6v6.2c0,2.6,0.9,3.9,2.6,3.9c0.8,0,1.5-0.5,2-1.4c0.4-0.8,0.6-1.6,0.6-2.5v-5.9
						c0-2.8-0.8-5.6-2.5-8.5c-1.6-2.5-3.2-4.9-4.7-7.3c-1.7-3.1-2.6-6.4-2.6-9.8v-5.9c0-2.2,0.6-4.1,1.9-5.8
						c1.4-1.8,3.2-2.8,5.3-2.8c2.2,0,3.9,0.9,5.3,2.7c1.3,1.7,1.9,3.7,1.9,5.8v6.2H322v-6.2c0-2.6-0.9-3.9-2.6-3.9
						c-0.9,0-1.6,0.4-2,1.3c-0.4,0.9-0.7,1.8-0.7,2.7v5.9c0,2.8,0.8,5.7,2.5,8.5c0.8,1.2,1.6,2.5,2.4,3.7c0.8,1.2,1.6,2.4,2.4,3.7
						c1.7,3,2.6,6.3,2.6,9.8V348.7z"/>
				</g>
			</g>
		</g>
	</g>
</g>
</svg>
