<?xml version="1.0" encoding="utf-8"?>
<!-- Generator: Adobe Illustrator 16.0.0, SVG Export Plug-In . SVG Version: 6.00 Build 0)  -->
<!DOCTYPE svg PUBLIC "-//W3C//DTD SVG 1.1//EN" "http://www.w3.org/Graphics/SVG/1.1/DTD/svg11.dtd">
<svg version="1.1" id="Layer_1" xmlns="http://www.w3.org/2000/svg" xmlns:xlink="http://www.w3.org/1999/xlink" x="0px" y="0px"
	 width="41.047px" height="41.055px" viewBox="0 0 41.047 41.055" enable-background="new 0 0 41.047 41.055" xml:space="preserve">
<g>
	<path fill="#00CCCC" d="M13.864,27.018l8.896-2.526l-6.354-6.314L13.864,27.018z M37.623,9.719L31.27,3.405L17.29,17.297
		l6.354,6.315L37.623,9.719z M35.771,33.105c0,2.194-1.779,3.975-3.976,3.975H7.949c-2.195,0-3.974-1.779-3.974-3.975V9.258
		c0-2.195,1.779-3.975,3.974-3.975h15.898l3.976-3.975H6.624C2.966,1.308,0,4.274,0,7.933V34.43c0,3.657,2.966,6.624,6.624,6.624
		h26.498c3.657,0,6.624-2.967,6.624-6.624V13.232l-3.975,3.975V33.105z M40.576,4.415l-3.973-3.947
		c-0.656-0.652-1.761-0.617-2.463,0.079l-1.906,1.896l6.354,6.313l1.907-1.894C41.198,6.165,41.232,5.069,40.576,4.415"/>
</g>
</svg>
