<?xml version="1.0" encoding="utf-8"?>
<!-- Generator: Adobe Illustrator 16.0.0, SVG Export Plug-In . SVG Version: 6.00 Build 0)  -->
<!DOCTYPE svg PUBLIC "-//W3C//DTD SVG 1.1//EN" "http://www.w3.org/Graphics/SVG/1.1/DTD/svg11.dtd">
<svg version="1.1" id="Layer_1" xmlns="http://www.w3.org/2000/svg" xmlns:xlink="http://www.w3.org/1999/xlink" x="0px" y="0px"
	 width="27.091px" height="17.376px" viewBox="0 0 27.091 17.376" enable-background="new 0 0 27.091 17.376" xml:space="preserve">
<g>
	<path fill="#FFFFFF" d="M26.13,9.768c-0.532,0-0.962,0.431-0.962,0.961v4.724H1.923v-4.724c0-0.53-0.43-0.961-0.962-0.961
		C0.429,9.768,0,10.199,0,10.729v5.686c0,0.532,0.429,0.962,0.961,0.962H26.13c0.531,0,0.962-0.43,0.962-0.962v-5.686
		C27.092,10.199,26.661,9.768,26.13,9.768"/>
	<path fill="#FFFFFF" d="M14.281,0.537l5.26,9.303c0.404,0.716,0.063,1.302-0.761,1.302H8.311c-0.823,0-1.165-0.586-0.76-1.302
		l5.259-9.303C13.215-0.179,13.877-0.179,14.281,0.537"/>
</g>
</svg>
