<?xml version="1.0" encoding="utf-8"?>
<!-- Generator: Adobe Illustrator 15.0.0, SVG Export Plug-In . SVG Version: 6.00 Build 0)  -->
<!DOCTYPE svg PUBLIC "-//W3C//DTD SVG 1.1//EN" "http://www.w3.org/Graphics/SVG/1.1/DTD/svg11.dtd">
<svg version="1.1" id="Layer_1" xmlns="http://www.w3.org/2000/svg" xmlns:xlink="http://www.w3.org/1999/xlink" x="0px" y="0px"
	 width="60px" height="30px" viewBox="0 0 60 30" enable-background="new 0 0 60 30" xml:space="preserve">
<g>
	<path fill="#707980" d="M42.498,9.244H17.5c-0.386,0-0.697,0.312-0.697,0.697c0,0.386,0.311,0.698,0.697,0.698h24.998
		c0.387,0,0.699-0.312,0.699-0.698C43.197,9.556,42.885,9.244,42.498,9.244"/>
	<path fill="#707980" d="M42.498,14.303H17.5c-0.386,0-0.697,0.312-0.697,0.698c0,0.385,0.311,0.697,0.697,0.697h24.998
		c0.387,0,0.699-0.312,0.699-0.697C43.197,14.615,42.885,14.303,42.498,14.303"/>
	<path fill="#707980" d="M42.498,19.36H17.5c-0.386,0-0.697,0.313-0.697,0.698c0,0.385,0.311,0.697,0.697,0.697h24.998
		c0.387,0,0.699-0.313,0.699-0.697C43.197,19.673,42.885,19.36,42.498,19.36"/>
</g>
</svg>
