<?xml version="1.0" encoding="utf-8"?>
<!-- Generator: Adobe Illustrator 16.0.0, SVG Export Plug-In . SVG Version: 6.00 Build 0)  -->
<!DOCTYPE svg PUBLIC "-//W3C//DTD SVG 1.1//EN" "http://www.w3.org/Graphics/SVG/1.1/DTD/svg11.dtd">
<svg version="1.1" id="Layer_1" xmlns="http://www.w3.org/2000/svg" xmlns:xlink="http://www.w3.org/1999/xlink" x="0px" y="0px"
	 width="41.047px" height="41.054px" viewBox="0 0 41.047 41.054" enable-background="new 0 0 41.047 41.054" xml:space="preserve">
<g>
	<path fill-rule="evenodd" clip-rule="evenodd" fill="#FFFFFF" d="M13.864,27.018l8.896-2.526l-6.354-6.314L13.864,27.018z
		 M37.623,9.719l-6.354-6.314L17.29,17.297l6.354,6.315L37.623,9.719z M35.771,33.105c0,2.195-1.779,3.975-3.975,3.975H7.949
		c-2.195,0-3.974-1.779-3.974-3.975V9.258c0-2.196,1.779-3.975,3.974-3.975h15.899l3.975-3.975H6.624C2.966,1.308,0,4.274,0,7.933
		V34.43c0,3.658,2.966,6.624,6.624,6.624h26.498c3.658,0,6.624-2.966,6.624-6.624V13.232l-3.975,3.975V33.105z M40.576,4.415
		l-3.972-3.947c-0.657-0.653-1.761-0.618-2.463,0.079l-1.906,1.895l6.354,6.314l1.907-1.894C41.198,6.165,41.233,5.069,40.576,4.415
		"/>
</g>
</svg>
