<?xml version="1.0" encoding="utf-8"?>
<!-- Generator: Adobe Illustrator 15.0.0, SVG Export Plug-In . SVG Version: 6.00 Build 0)  -->
<!DOCTYPE svg PUBLIC "-//W3C//DTD SVG 1.1//EN" "http://www.w3.org/Graphics/SVG/1.1/DTD/svg11.dtd">
<svg version="1.1" id="Layer_1" xmlns="http://www.w3.org/2000/svg" xmlns:xlink="http://www.w3.org/1999/xlink" x="0px" y="0px"
	 width="50px" height="50px" viewBox="0 0 50 50" enable-background="new 0 0 50 50" xml:space="preserve">
<g>
	<path fill="#707980" d="M36.262,25.804l-5.983-3.383c-0.246-0.139-0.498-0.209-0.748-0.209c-0.721,0-1.243,0.577-1.243,1.372v2.594
		H21.44c-0.427,0-0.773,0.346-0.773,0.773s0.346,0.772,0.773,0.772h6.848v2.596c0,0.794,0.522,1.371,1.242,1.371
		c0.251,0,0.502-0.07,0.748-0.21l5.984-3.383C36.731,27.832,37,27.415,37,26.951C37,26.488,36.732,26.07,36.262,25.804z
		 M29.833,29.953l0.002-6.007l5.312,3.005L29.833,29.953z"/>
	<path fill="#707980" d="M13.773,25.797h3.475c0.151,0,0.299-0.044,0.425-0.127l4.961-3.264l1.541,2.205
		c0.282,0.401,0.687,0.632,1.111,0.632c0.496,0,0.938-0.307,1.186-0.822l2.967-6.2c0.223-0.463,0.216-0.944-0.02-1.317
		c-0.228-0.363-0.637-0.572-1.12-0.572l-7.017,0.663c-0.531,0.051-0.947,0.321-1.142,0.742c-0.194,0.42-0.13,0.913,0.176,1.351
		l1.433,2.051l-4.731,3.113h-3.243c-0.427,0-0.773,0.346-0.773,0.773S13.346,25.797,13.773,25.797z M27.868,17.92l-2.637,5.505
		L21.792,18.5L27.868,17.92z"/>
	<path fill="#707980" d="M26.47,29.579c-0.456-0.954-1.683-1.063-2.298-0.188l-1.539,2.203l-4.961-3.265
		c-0.126-0.083-0.274-0.127-0.425-0.127h-3.475c-0.427,0-0.773,0.346-0.773,0.772s0.346,0.772,0.773,0.772h3.243l4.731,3.114
		l-1.433,2.051c-0.306,0.438-0.37,0.931-0.175,1.352c0.195,0.42,0.611,0.689,1.142,0.74l6.845,0.655l0.17,0.008
		c0.483,0,0.893-0.208,1.121-0.572c0.235-0.374,0.242-0.854,0.021-1.316L26.47,29.579z M21.792,35.499l3.441-4.923l2.634,5.506
		L21.792,35.499z M28.296,36.896l-0.023-0.765c0.009-0.003,0.017-0.006,0.023-0.007c0.003-0.001,0.006-0.002,0.009-0.002
		L28.296,36.896z"/>
</g>
</svg>
