<?xml version="1.0" encoding="utf-8"?>
<!-- Generator: Adobe Illustrator 15.0.0, SVG Export Plug-In . SVG Version: 6.00 Build 0)  -->
<!DOCTYPE svg PUBLIC "-//W3C//DTD SVG 1.1//EN" "http://www.w3.org/Graphics/SVG/1.1/DTD/svg11.dtd">
<svg version="1.1" id="Layer_1" xmlns="http://www.w3.org/2000/svg" xmlns:xlink="http://www.w3.org/1999/xlink" x="0px" y="0px"
	 width="50px" height="50px" viewBox="0 0 50 50" enable-background="new 0 0 50 50" xml:space="preserve">
<g>
	<path fill="#707980" d="M19.116,20.525h-3.787c-0.458,0-0.829-0.371-0.829-0.829s0.371-0.829,0.829-0.829h3.787
		c0.457,0,0.828,0.371,0.828,0.829S19.573,20.525,19.116,20.525z"/>
	<path fill="#707980" d="M21.28,22.689c-1.65,0-2.993-1.343-2.993-2.993s1.343-2.993,2.993-2.993s2.993,1.343,2.993,2.993
		S22.93,22.689,21.28,22.689z M21.28,18.36c-0.736,0-1.335,0.6-1.335,1.336s0.599,1.335,1.335,1.335s1.335-0.599,1.335-1.335
		S22.016,18.36,21.28,18.36z"/>
	<path fill="#707980" d="M34.67,20.525h-9.034c-0.457,0-0.828-0.371-0.828-0.829s0.371-0.829,0.828-0.829h9.034
		c0.458,0,0.829,0.371,0.829,0.829S35.128,20.525,34.67,20.525z"/>
	<path fill="#707980" d="M29.396,29.993c-1.65,0-2.994-1.343-2.994-2.993s1.344-2.993,2.994-2.993S32.388,25.35,32.388,27
		S31.046,29.993,29.396,29.993z M29.396,25.664c-0.737,0-1.336,0.6-1.336,1.336s0.599,1.336,1.336,1.336
		c0.735,0,1.334-0.6,1.334-1.336S30.131,25.664,29.396,25.664z"/>
	<path fill="#707980" d="M25.039,27.829h-9.71c-0.458,0-0.829-0.372-0.829-0.829s0.371-0.829,0.829-0.829h9.71
		c0.458,0,0.829,0.372,0.829,0.829S25.497,27.829,25.039,27.829z"/>
	<path fill="#707980" d="M34.67,27.829h-3.11c-0.458,0-0.829-0.372-0.829-0.829s0.371-0.829,0.829-0.829h3.11
		c0.458,0,0.829,0.372,0.829,0.829S35.128,27.829,34.67,27.829z"/>
	<path fill="#707980" d="M20.603,37.297c-1.649,0-2.992-1.343-2.992-2.993s1.343-2.993,2.992-2.993c1.65,0,2.993,1.343,2.993,2.993
		S22.253,37.297,20.603,37.297z M20.603,32.969c-0.735,0-1.335,0.599-1.335,1.335s0.6,1.335,1.335,1.335
		c0.736,0,1.335-0.599,1.335-1.335S21.339,32.969,20.603,32.969z"/>
	<path fill="#707980" d="M34.67,35.133h-9.71c-0.458,0-0.829-0.371-0.829-0.829s0.371-0.829,0.829-0.829h9.71
		c0.458,0,0.829,0.371,0.829,0.829S35.128,35.133,34.67,35.133z"/>
	<path fill="#707980" d="M18.439,35.133h-3.11c-0.458,0-0.829-0.371-0.829-0.829s0.371-0.829,0.829-0.829h3.11
		c0.458,0,0.829,0.371,0.829,0.829S18.897,35.133,18.439,35.133z"/>
</g>
</svg>
