<?xml version="1.0" encoding="utf-8"?>
<!-- Generator: Adobe Illustrator 15.0.0, SVG Export Plug-In . SVG Version: 6.00 Build 0)  -->
<!DOCTYPE svg PUBLIC "-//W3C//DTD SVG 1.1//EN" "http://www.w3.org/Graphics/SVG/1.1/DTD/svg11.dtd">
<svg version="1.1" id="Layer_1" xmlns="http://www.w3.org/2000/svg" xmlns:xlink="http://www.w3.org/1999/xlink" x="0px" y="0px"
	 width="50px" height="50px" viewBox="0 0 50 50" enable-background="new 0 0 50 50" xml:space="preserve">
<g>
	<path fill="#00CCCC" d="M19.115,20.525h-3.787c-0.457,0-0.828-0.371-0.828-0.829s0.371-0.829,0.828-0.829h3.787
		c0.457,0,0.828,0.371,0.828,0.829S19.572,20.525,19.115,20.525z"/>
	<path fill="#00CCCC" d="M21.279,22.689c-1.65,0-2.992-1.343-2.992-2.993s1.342-2.993,2.992-2.993s2.994,1.343,2.994,2.993
		S22.93,22.689,21.279,22.689z M21.279,18.36c-0.736,0-1.334,0.6-1.334,1.336s0.598,1.335,1.334,1.335s1.336-0.599,1.336-1.335
		S22.016,18.36,21.279,18.36z"/>
	<path fill="#00CCCC" d="M34.67,20.525h-9.033c-0.457,0-0.828-0.371-0.828-0.829s0.371-0.829,0.828-0.829h9.033
		c0.459,0,0.83,0.371,0.83,0.829S35.129,20.525,34.67,20.525z"/>
	<path fill="#00CCCC" d="M29.396,29.993c-1.65,0-2.994-1.343-2.994-2.993s1.344-2.993,2.994-2.993S32.389,25.35,32.389,27
		S31.047,29.993,29.396,29.993z M29.396,25.664c-0.738,0-1.336,0.6-1.336,1.336s0.598,1.336,1.336,1.336
		c0.734,0,1.334-0.6,1.334-1.336S30.131,25.664,29.396,25.664z"/>
	<path fill="#00CCCC" d="M25.039,27.829h-9.711c-0.457,0-0.828-0.372-0.828-0.829s0.371-0.829,0.828-0.829h9.711
		c0.457,0,0.828,0.372,0.828,0.829S25.496,27.829,25.039,27.829z"/>
	<path fill="#00CCCC" d="M34.67,27.829h-3.109c-0.459,0-0.83-0.372-0.83-0.829s0.371-0.829,0.83-0.829h3.109
		c0.459,0,0.83,0.372,0.83,0.829S35.129,27.829,34.67,27.829z"/>
	<path fill="#00CCCC" d="M20.604,37.297c-1.65,0-2.992-1.343-2.992-2.993s1.342-2.993,2.992-2.993s2.992,1.343,2.992,2.993
		S22.254,37.297,20.604,37.297z M20.604,32.969c-0.736,0-1.336,0.599-1.336,1.335s0.6,1.335,1.336,1.335s1.334-0.599,1.334-1.335
		S21.34,32.969,20.604,32.969z"/>
	<path fill="#00CCCC" d="M34.67,35.133h-9.709c-0.459,0-0.83-0.371-0.83-0.829s0.371-0.829,0.83-0.829h9.709
		c0.459,0,0.83,0.371,0.83,0.829S35.129,35.133,34.67,35.133z"/>
	<path fill="#00CCCC" d="M18.439,35.133h-3.111c-0.457,0-0.828-0.371-0.828-0.829s0.371-0.829,0.828-0.829h3.111
		c0.457,0,0.828,0.371,0.828,0.829S18.896,35.133,18.439,35.133z"/>
</g>
</svg>
