<?xml version="1.0" encoding="utf-8"?>
<!-- Generator: Adobe Illustrator 15.0.0, SVG Export Plug-In . SVG Version: 6.00 Build 0)  -->
<!DOCTYPE svg PUBLIC "-//W3C//DTD SVG 1.1//EN" "http://www.w3.org/Graphics/SVG/1.1/DTD/svg11.dtd">
<svg version="1.1" id="Layer_1" xmlns="http://www.w3.org/2000/svg" xmlns:xlink="http://www.w3.org/1999/xlink" x="0px" y="0px"
	 width="50px" height="50px" viewBox="0 0 50 50" enable-background="new 0 0 50 50" xml:space="preserve">
<g>
	<g>
		<path fill="#00CCCC" d="M33.998,33.381l-1.52-8.479c-0.441-3.431-2.453-6.039-5.166-6.993V16.82c0-1.279-1.041-2.32-2.32-2.32
			s-2.32,1.041-2.32,2.32v1.066c-2.848,0.947-4.901,3.609-5.16,6.979l-1.553,8.664c-0.04,0.227,0.021,0.459,0.169,0.635
			c0.147,0.177,0.366,0.278,0.595,0.278h16.539c0.004-0.001,0.01-0.001,0.014,0c0.43,0,0.777-0.348,0.777-0.776
			C34.053,33.565,34.033,33.469,33.998,33.381z M24.224,16.82c0-0.424,0.345-0.769,0.769-0.769s0.768,0.345,0.768,0.769v0.732
			c-0.252-0.027-0.508-0.043-0.768-0.043s-0.516,0.014-0.769,0.04V16.82z M17.65,32.891l1.398-7.828
			c0.275-3.533,2.719-6.001,5.943-6.001c3.57,0,5.561,3.033,5.953,6.077l1.389,7.752H17.65z"/>
		<path fill="#00CCCC" d="M27.932,35.008c-0.428,0-0.775,0.347-0.775,0.776c0,1.192-0.971,2.164-2.164,2.164
			c-1.194,0-2.166-0.972-2.166-2.164c0-0.43-0.348-0.776-0.775-0.776c-0.429,0-0.775,0.347-0.775,0.776
			c0,2.049,1.667,3.716,3.717,3.716c2.049,0,3.717-1.667,3.717-3.716C28.709,35.354,28.361,35.008,27.932,35.008z"/>
	</g>
</g>
</svg>
