<?xml version="1.0" encoding="utf-8"?>
<!-- Generator: Adobe Illustrator 15.0.0, SVG Export Plug-In . SVG Version: 6.00 Build 0)  -->
<!DOCTYPE svg PUBLIC "-//W3C//DTD SVG 1.1//EN" "http://www.w3.org/Graphics/SVG/1.1/DTD/svg11.dtd">
<svg version="1.1" id="Layer_1" xmlns="http://www.w3.org/2000/svg" xmlns:xlink="http://www.w3.org/1999/xlink" x="0px" y="0px"
	 width="50px" height="50px" viewBox="0 0 50 50" enable-background="new 0 0 50 50" xml:space="preserve">
<g>
	<path fill="#68747B" d="M19.041,38.704l-0.002-5.393h-2.305c-1.508,0-2.734-1.226-2.734-2.733V20.029
		c0-1.507,1.226-2.733,2.734-2.733h16.532c1.508,0,2.733,1.226,2.733,2.733v10.549c0,1.508-1.226,2.733-2.733,2.733h-8.238
		L19.041,38.704z M16.734,18.985c-0.576,0-1.044,0.468-1.044,1.044v10.549c0,0.576,0.468,1.044,1.044,1.044h3.994v3.287l3.651-3.287
		h8.887c0.575,0,1.044-0.468,1.044-1.044V20.029c0-0.576-0.469-1.044-1.044-1.044H16.734z"/>
</g>
</svg>
