<?xml version="1.0" encoding="utf-8"?>
<!-- Generator: Adobe Illustrator 15.0.0, SVG Export Plug-In . SVG Version: 6.00 Build 0)  -->
<!DOCTYPE svg PUBLIC "-//W3C//DTD SVG 1.1//EN" "http://www.w3.org/Graphics/SVG/1.1/DTD/svg11.dtd">
<svg version="1.1" id="Layer_1" xmlns="http://www.w3.org/2000/svg" xmlns:xlink="http://www.w3.org/1999/xlink" x="0px" y="0px"
	 width="50px" height="50px" viewBox="0 0 50 50" enable-background="new 0 0 50 50" xml:space="preserve">
<path fill="#00CCCC" d="M37.135,27.078c-0.838-0.838-1.951-1.3-3.137-1.3c-0.82,0-1.6,0.234-2.283,0.648l-3.064-4.142
	c1.18-1.726,1.012-4.105-0.52-5.637c-0.838-0.838-1.951-1.299-3.137-1.299c-1.184,0-2.299,0.461-3.137,1.299
	c-1.531,1.533-1.701,3.912-0.52,5.638l-3.053,4.141c-0.684-0.414-1.463-0.648-2.283-0.648c-1.184,0-2.299,0.461-3.137,1.3
	c-1.729,1.729-1.729,4.545,0,6.274c0.838,0.838,1.953,1.299,3.137,1.299c1.186,0,2.299-0.461,3.137-1.299
	c1.531-1.531,1.701-3.912,0.52-5.639l3.055-4.14c0.684,0.413,1.461,0.647,2.281,0.647s1.6-0.234,2.283-0.648l3.064,4.142
	c-1.18,1.728-1.012,4.105,0.52,5.638c0.838,0.838,1.953,1.299,3.137,1.299c1.186,0,2.299-0.461,3.137-1.299
	C38.865,31.623,38.865,28.808,37.135,27.078z M17.816,32.03c-0.969,0.969-2.66,0.969-3.629,0c-1-1.001-1-2.629,0-3.63
	c0.484-0.485,1.129-0.752,1.814-0.752s1.33,0.267,1.814,0.752C18.816,29.401,18.816,31.029,17.816,32.03z M23.18,21.6
	c-1-1-1-2.629,0-3.63c0.484-0.485,1.129-0.752,1.814-0.752s1.33,0.267,1.814,0.751c1,1.001,1,2.63,0,3.63
	C25.84,22.57,24.15,22.57,23.18,21.6z M35.813,32.03c-0.969,0.969-2.658,0.969-3.629,0c-1-1.001-1-2.629,0-3.63
	c0.484-0.485,1.129-0.752,1.814-0.752s1.33,0.267,1.814,0.752C36.814,29.401,36.814,31.029,35.813,32.03z"/>
</svg>
