<?xml version="1.0" encoding="utf-8"?>
<!-- Generator: Adobe Illustrator 15.0.0, SVG Export Plug-In . SVG Version: 6.00 Build 0)  -->
<!DOCTYPE svg PUBLIC "-//W3C//DTD SVG 1.1//EN" "http://www.w3.org/Graphics/SVG/1.1/DTD/svg11.dtd">
<svg version="1.1" id="Layer_1" xmlns="http://www.w3.org/2000/svg" xmlns:xlink="http://www.w3.org/1999/xlink" x="0px" y="0px"
	 width="50px" height="53px" viewBox="0 0 50 53" enable-background="new 0 0 50 53" xml:space="preserve">
<rect fill="#E9EEF2" width="50" height="52.995"/>
<g>
	<path fill="#00CCCC" d="M25,12c-8.822,0-16,7.178-16,16c0,8.824,7.178,16.001,16,16.001c8.822,0,16-7.178,16-16.001
		C41,19.177,33.822,12,25,12 M25,42c-7.719,0-14-6.28-14-14c0-7.72,6.281-14,14-14c7.72,0,14.001,6.28,14.001,14
		C39.001,35.72,32.72,42,25,42 M27.614,29.441C27.853,29.013,28,28.526,28,28c0-1.302-0.839-2.401-1.999-2.815V17
		c0-0.552-0.447-1-1.001-1c-0.553,0-1,0.448-1,1v8.184c-1.161,0.415-2,1.514-2,2.815c0,1.655,1.346,3,3,3
		c0.396,0,0.774-0.081,1.121-0.222l4.173,4.171c0.194,0.195,0.45,0.293,0.706,0.293s0.513-0.098,0.707-0.293
		c0.392-0.39,0.392-1.022,0-1.413L27.614,29.441z M25,29c-0.552,0-1-0.448-1-1C24,27.449,24.448,27,25,27
		c0.553,0,1.001,0.448,1.001,0.999C26.001,28.552,25.553,29,25,29"/>
</g>
<g>
	<path fill="#D6DDE3" d="M0.011,27.999v24.996H25C11.222,52.995,0.011,41.782,0.011,27.999z"/>
	<path fill="#D6DDE3" d="M49.989,27.999c0,13.783-11.21,24.996-24.989,24.996h25V27.999H49.989z"/>
</g>
</svg>
