<?xml version="1.0" encoding="utf-8"?>
<!-- Generator: Adobe Illustrator 16.0.0, SVG Export Plug-In . SVG Version: 6.00 Build 0)  -->
<!DOCTYPE svg PUBLIC "-//W3C//DTD SVG 1.1//EN" "http://www.w3.org/Graphics/SVG/1.1/DTD/svg11.dtd">
<svg version="1.1" id="Layer_1" xmlns="http://www.w3.org/2000/svg" xmlns:xlink="http://www.w3.org/1999/xlink" x="0px" y="0px"
	 width="386.848px" height="69.958px" viewBox="0 0 386.848 69.958" enable-background="new 0 0 386.848 69.958"
	 xml:space="preserve">
<g>
	<path fill="#EB5658" d="M111.338,0C92.02,0,76.359,15.661,76.359,34.979s15.661,34.979,34.979,34.979
		c19.318,0,34.979-15.661,34.979-34.979S130.656,0,111.338,0 M129.252,36.968L104.113,51.18c-1.935,1.094-3.518,0.17-3.518-2.054
		V20.832c0-2.223,1.583-3.147,3.518-2.053l25.139,14.211C131.187,34.084,131.187,35.874,129.252,36.968"/>
	<path fill="#EB5658" d="M49.78,45.738c0,2.223-1.819,4.042-4.042,4.042H24.219c-2.223,0-4.042-1.819-4.042-4.042V24.22
		c0-2.223,1.819-4.042,4.042-4.042h17.927h3.592h20.899C61.06,8.268,49,0,34.979,0C15.66,0,0,15.661,0,34.979
		s15.66,34.979,34.979,34.979c19.318,0,34.979-15.661,34.979-34.979H49.78V45.738z"/>
	<polygon fill="#FFFFFF" points="177.877,25.514 177.877,32.863 192.121,32.863 192.121,39.214 177.877,39.214 177.877,50.918 
		169.802,50.918 169.802,19.163 193.346,19.163 193.346,25.514 	"/>
	<path fill="#FFFFFF" d="M201.962,45.066l-2.313,5.852h-8.302l13.701-31.755h8.301l13.383,31.755h-8.619l-2.269-5.852H201.962z
		 M208.948,27.192l-4.628,11.75h9.164L208.948,27.192z"/>
	<path fill="#FFFFFF" d="M254.264,22.338l-3.04,6.306c-3.356-1.951-7.575-3.312-10.161-3.312c-2.087,0-3.493,0.771-3.493,2.314
		c0,5.489,16.785,2.359,16.785,13.836c0,6.351-5.626,9.708-12.702,9.708c-5.308,0-10.752-1.996-14.517-5.081l3.13-6.215
		c3.267,2.857,8.166,4.763,11.477,4.763c2.541,0,4.128-0.952,4.128-2.767c0-5.625-16.784-2.269-16.784-13.519
		c0-5.852,5.034-9.573,12.656-9.573C246.324,18.799,250.996,20.207,254.264,22.338"/>
	<polygon fill="#FFFFFF" points="273.449,25.65 273.449,50.918 265.374,50.918 265.374,25.65 255.893,25.65 255.893,19.118 
		283.021,19.118 283.021,25.65 	"/>
	<polygon fill="#FFFFFF" points="316.949,50.918 308.375,24.153 299.711,50.918 295.991,50.918 285.376,19.163 289.277,19.163 
		297.987,46.699 306.606,19.209 310.235,19.163 318.945,46.699 327.564,19.163 331.33,19.163 320.669,50.918 	"/>
	<path fill="#FFFFFF" d="M336.724,42.889l-3.539,8.029h-3.855l14.243-31.755h3.767l14.199,31.755h-3.947l-3.538-8.029H336.724z
		 M345.343,23.291l-7.077,16.104h14.244L345.343,23.291z"/>
	<polygon fill="#FFFFFF" points="374.78,50.918 371.197,50.918 371.197,40.167 358.903,19.163 362.668,19.163 372.966,35.721 
		383.128,19.163 386.848,19.163 374.78,40.031 	"/>
</g>
</svg>
