<?xml version="1.0" encoding="utf-8"?>
<!-- Generator: Adobe Illustrator 15.0.0, SVG Export Plug-In . SVG Version: 6.00 Build 0)  -->
<!DOCTYPE svg PUBLIC "-//W3C//DTD SVG 1.1//EN" "http://www.w3.org/Graphics/SVG/1.1/DTD/svg11.dtd">
<svg version="1.1" id="Layer_1" xmlns="http://www.w3.org/2000/svg" xmlns:xlink="http://www.w3.org/1999/xlink" x="0px" y="0px"
	 width="70px" height="70px" viewBox="0 0 70 70" enable-background="new 0 0 70 70" xml:space="preserve">
<g>
	<path fill="#555D63" d="M34.996,17.501c-9.647,0-17.496,7.85-17.496,17.502c0,9.647,7.849,17.497,17.496,17.497
		c9.652,0,17.504-7.85,17.504-17.497C52.5,25.351,44.648,17.501,34.996,17.501 M34.996,51.283c-8.976,0-16.279-7.304-16.279-16.28
		c0-8.98,7.303-16.286,16.279-16.286c8.981,0,16.288,7.306,16.288,16.286C51.284,43.979,43.977,51.283,34.996,51.283"/>
	<path fill="#555D63" d="M34.987,37.64c0.316,0,0.618-0.043,0.907-0.134c0.288-0.088,0.565-0.205,0.829-0.346
		c0.266-0.141,0.522-0.303,0.77-0.482c0.248-0.182,0.489-0.368,0.727-0.559c0.72-0.575,1.445-1.139,2.176-1.688
		c0.731-0.551,1.47-1.102,2.212-1.655c0.058-0.046,0.117-0.09,0.178-0.135c0.061-0.042,0.119-0.093,0.177-0.151v7.821
		c0,0.27-0.096,0.504-0.289,0.699c-0.194,0.196-0.425,0.294-0.696,0.294H28.031c-0.271,0-0.504-0.098-0.699-0.294
		c-0.196-0.195-0.293-0.43-0.293-0.699v-7.821c0.057,0.059,0.116,0.109,0.177,0.151c0.06,0.045,0.119,0.089,0.177,0.135
		c0.744,0.554,1.481,1.104,2.212,1.655c0.731,0.55,1.457,1.113,2.177,1.688c0.225,0.179,0.461,0.359,0.708,0.541
		s0.504,0.345,0.77,0.491c0.264,0.146,0.542,0.267,0.834,0.354C34.383,37.597,34.681,37.64,34.987,37.64 M34.987,35.662
		c-0.179,0-0.372-0.051-0.579-0.152c-0.207-0.1-0.411-0.222-0.609-0.362c-0.199-0.142-0.393-0.289-0.583-0.445
		c-0.19-0.155-0.358-0.284-0.502-0.388c-0.697-0.531-1.386-1.055-2.069-1.572c-0.682-0.52-1.378-1.045-2.087-1.581
		c-0.132-0.104-0.286-0.244-0.462-0.42c-0.176-0.177-0.34-0.37-0.492-0.583c-0.153-0.214-0.282-0.429-0.389-0.649
		c-0.107-0.219-0.161-0.417-0.161-0.596c0-0.236,0.104-0.441,0.311-0.618c0.208-0.175,0.43-0.264,0.666-0.264h13.946
		c0.236,0,0.456,0.089,0.661,0.264c0.204,0.177,0.307,0.382,0.307,0.618c0,0.179-0.053,0.377-0.159,0.596
		c-0.107,0.221-0.236,0.436-0.389,0.649c-0.152,0.213-0.317,0.406-0.493,0.583c-0.175,0.176-0.329,0.315-0.461,0.42
		c-0.709,0.529-1.405,1.054-2.086,1.575c-0.683,0.521-1.374,1.047-2.07,1.578c-0.144,0.104-0.31,0.232-0.497,0.388
		c-0.187,0.156-0.381,0.304-0.583,0.445c-0.201,0.141-0.406,0.263-0.613,0.362c-0.208,0.102-0.397,0.152-0.57,0.152h-0.018H34.987z"
		/>
</g>
</svg>
