<?xml version="1.0" encoding="utf-8"?>
<!-- Generator: Adobe Illustrator 15.0.0, SVG Export Plug-In . SVG Version: 6.00 Build 0)  -->
<!DOCTYPE svg PUBLIC "-//W3C//DTD SVG 1.1//EN" "http://www.w3.org/Graphics/SVG/1.1/DTD/svg11.dtd">
<svg version="1.1" id="Layer_1" xmlns="http://www.w3.org/2000/svg" xmlns:xlink="http://www.w3.org/1999/xlink" x="0px" y="0px"
	 width="70px" height="70px" viewBox="0 0 70 70" enable-background="new 0 0 70 70" xml:space="preserve">
<g>
	<path fill="#EB5758" d="M36.458-549.929H18.541c-0.576,0-1.041,0.466-1.041,1.041c0,0.576,0.465,1.042,1.041,1.042h17.917
		c0.576,0,1.042-0.466,1.042-1.042C37.5-549.463,37.034-549.929,36.458-549.929"/>
	<path fill="#EB5758" d="M36.458-542.374H18.541c-0.576,0-1.041,0.466-1.041,1.042c0,0.575,0.465,1.041,1.041,1.041h17.917
		c0.576,0,1.042-0.466,1.042-1.041C37.5-541.908,37.034-542.374,36.458-542.374"/>
	<path fill="#EB5758" d="M36.458-534.821H18.541c-0.576,0-1.041,0.467-1.041,1.043c0,0.574,0.465,1.041,1.041,1.041h17.917
		c0.576,0,1.042-0.467,1.042-1.041C37.5-534.354,37.034-534.821,36.458-534.821"/>
</g>
<g>
	<path fill="#717A81" d="M47.462-537.718l-3.838-6.68c-0.296-0.515-0.046-0.936,0.555-0.936h7.642c0.601,0,0.851,0.421,0.555,0.936
		l-3.838,6.68C48.241-537.204,47.758-537.204,47.462-537.718"/>
</g>
<g>
	<path fill="#EB5758" d="M126.457-549.929h-17.917c-0.576,0-1.041,0.466-1.041,1.041c0,0.576,0.465,1.042,1.041,1.042h17.917
		c0.576,0,1.043-0.466,1.043-1.042C127.5-549.463,127.033-549.929,126.457-549.929"/>
	<path fill="#EB5758" d="M126.457-542.374h-17.917c-0.576,0-1.041,0.466-1.041,1.042c0,0.575,0.465,1.041,1.041,1.041h17.917
		c0.576,0,1.043-0.466,1.043-1.041C127.5-541.908,127.033-542.374,126.457-542.374"/>
	<path fill="#EB5758" d="M126.457-534.821h-17.917c-0.576,0-1.041,0.467-1.041,1.043c0,0.574,0.465,1.041,1.041,1.041h17.917
		c0.576,0,1.043-0.467,1.043-1.041C127.5-534.354,127.033-534.821,126.457-534.821"/>
</g>
<g>
	<path fill="#3F4347" d="M137.462-537.718l-3.838-6.68c-0.296-0.515-0.046-0.936,0.555-0.936h7.642c0.601,0,0.851,0.421,0.555,0.936
		l-3.838,6.68C138.241-537.204,137.758-537.204,137.462-537.718"/>
</g>
<path fill="#F1605F" d="M34.979-468.854c-9.665,0-17.5,7.835-17.5,17.5s7.835,17.5,17.5,17.5c9.664,0,17.5-7.835,17.5-17.5
	S44.644-468.854,34.979-468.854z M43.942-450.359l-12.578,7.11c-0.968,0.548-1.76,0.085-1.76-1.027v-14.155
	c0-1.112,0.792-1.575,1.76-1.027l12.578,7.109C44.91-451.802,44.91-450.906,43.942-450.359z"/>
<path fill="#C74748" d="M124.979-468.854c-9.665,0-17.5,7.835-17.5,17.5s7.835,17.5,17.5,17.5c9.664,0,17.499-7.835,17.499-17.5
	S134.644-468.854,124.979-468.854z M133.941-450.359l-12.577,7.11c-0.968,0.548-1.76,0.085-1.76-1.027v-14.155
	c0-1.112,0.792-1.575,1.76-1.027l12.577,7.109C134.91-451.802,134.91-450.906,133.941-450.359z"/>
<path fill="#EA5757" d="M34.996-352.166c-9.647,0-17.496,7.851-17.496,17.503c0,9.647,7.849,17.497,17.496,17.497
	c9.653,0,17.505-7.85,17.505-17.497C52.5-344.315,44.648-352.166,34.996-352.166z M34.996-318.383
	c-8.976,0-16.279-7.303-16.279-16.28c0-8.98,7.303-16.286,16.279-16.286c8.981,0,16.289,7.306,16.289,16.286
	C51.284-325.686,43.977-318.383,34.996-318.383z"/>
<path fill="#EA5757" d="M42.193-341.839h-14.38c-0.278,0-0.52,0.1-0.721,0.304c-0.202,0.201-0.302,0.44-0.302,0.719v11.637
	c0,0.278,0.1,0.521,0.302,0.723c0.202,0.201,0.443,0.301,0.721,0.301h14.38c0.28,0,0.52-0.1,0.718-0.301
	c0.2-0.202,0.299-0.444,0.299-0.723v-11.637c0-0.278-0.099-0.518-0.299-0.719C42.713-341.739,42.474-341.839,42.193-341.839z
	 M29.925-338.704c0.268-0.268,0.598-0.4,0.989-0.4c0.374,0,0.695,0.133,0.963,0.4c0.267,0.267,0.399,0.598,0.399,0.989
	c0,0.374-0.133,0.695-0.399,0.962c-0.268,0.268-0.589,0.4-0.963,0.4c-0.391,0-0.722-0.133-0.989-0.4
	c-0.267-0.267-0.4-0.588-0.4-0.962C29.525-338.106,29.658-338.438,29.925-338.704z M40.474-330.89H29.525v-0.936l2.468-3.208
	l1.674,1.391l3.153-4.786l3.653,3.779V-330.89z"/>
<path fill="#C74748" d="M124.996-352.166c-9.647,0-17.496,7.851-17.496,17.503c0,9.647,7.849,17.497,17.496,17.497
	c9.653,0,17.504-7.85,17.504-17.497C142.5-344.315,134.648-352.166,124.996-352.166z M124.996-318.383
	c-8.976,0-16.279-7.303-16.279-16.28c0-8.98,7.303-16.286,16.279-16.286c8.981,0,16.289,7.306,16.289,16.286
	C141.284-325.686,133.977-318.383,124.996-318.383z"/>
<path fill="#C74748" d="M132.193-341.839h-14.38c-0.278,0-0.52,0.1-0.721,0.304c-0.202,0.201-0.302,0.44-0.302,0.719v11.637
	c0,0.278,0.1,0.521,0.302,0.723c0.202,0.201,0.443,0.301,0.721,0.301h14.38c0.28,0,0.52-0.1,0.718-0.301
	c0.2-0.202,0.299-0.444,0.299-0.723v-11.637c0-0.278-0.099-0.518-0.299-0.719C132.713-341.739,132.474-341.839,132.193-341.839z
	 M119.925-338.704c0.268-0.268,0.598-0.4,0.989-0.4c0.374,0,0.695,0.133,0.963,0.4c0.267,0.267,0.399,0.598,0.399,0.989
	c0,0.374-0.133,0.695-0.399,0.962c-0.268,0.268-0.589,0.4-0.963,0.4c-0.391,0-0.722-0.133-0.989-0.4
	c-0.267-0.267-0.4-0.588-0.4-0.962C119.525-338.106,119.658-338.438,119.925-338.704z M130.475-330.89h-10.949v-0.936l2.468-3.208
	l1.674,1.391l3.152-4.786l3.654,3.779V-330.89z"/>
<g>
	<path fill="#555D63" d="M34.996-244.165c-9.647,0-17.496,7.85-17.496,17.502c0,9.647,7.849,17.497,17.496,17.497
		c9.652,0,17.504-7.85,17.504-17.497C52.5-236.315,44.648-244.165,34.996-244.165 M34.996-210.383
		c-8.976,0-16.279-7.304-16.279-16.28c0-8.98,7.303-16.286,16.279-16.286c8.981,0,16.288,7.306,16.288,16.286
		C51.284-217.687,43.977-210.383,34.996-210.383"/>
	<path fill="#555D63" d="M34.987-224.026c0.316,0,0.618-0.043,0.907-0.134c0.288-0.088,0.565-0.205,0.829-0.346
		c0.266-0.141,0.522-0.303,0.77-0.482c0.248-0.182,0.489-0.368,0.727-0.559c0.72-0.575,1.445-1.139,2.176-1.688
		c0.731-0.551,1.47-1.102,2.212-1.655c0.058-0.046,0.117-0.09,0.178-0.135c0.061-0.042,0.119-0.093,0.177-0.151v7.821
		c0,0.27-0.096,0.504-0.289,0.699c-0.194,0.196-0.425,0.294-0.696,0.294H28.031c-0.271,0-0.504-0.098-0.699-0.294
		c-0.196-0.195-0.293-0.43-0.293-0.699v-7.821c0.057,0.059,0.116,0.109,0.177,0.151c0.06,0.045,0.119,0.089,0.177,0.135
		c0.744,0.554,1.481,1.104,2.212,1.655c0.731,0.55,1.457,1.113,2.177,1.688c0.225,0.179,0.461,0.359,0.708,0.541
		s0.504,0.345,0.77,0.491c0.264,0.146,0.542,0.267,0.834,0.354C34.383-224.069,34.681-224.026,34.987-224.026 M34.987-226.004
		c-0.179,0-0.372-0.051-0.579-0.152c-0.207-0.1-0.411-0.222-0.609-0.362c-0.199-0.142-0.393-0.289-0.583-0.445
		c-0.19-0.155-0.358-0.284-0.502-0.388c-0.697-0.531-1.386-1.055-2.069-1.572c-0.682-0.52-1.378-1.045-2.087-1.581
		c-0.132-0.104-0.286-0.244-0.462-0.42c-0.176-0.177-0.34-0.37-0.492-0.583c-0.153-0.214-0.282-0.429-0.389-0.649
		c-0.107-0.219-0.161-0.417-0.161-0.596c0-0.236,0.104-0.441,0.311-0.618c0.208-0.175,0.43-0.264,0.666-0.264h13.946
		c0.236,0,0.456,0.089,0.661,0.264c0.204,0.177,0.307,0.382,0.307,0.618c0,0.179-0.053,0.377-0.159,0.596
		c-0.107,0.221-0.236,0.436-0.389,0.649c-0.152,0.213-0.317,0.406-0.493,0.583c-0.175,0.176-0.329,0.315-0.461,0.42
		c-0.709,0.529-1.405,1.054-2.086,1.575c-0.683,0.521-1.374,1.047-2.07,1.578c-0.144,0.104-0.31,0.232-0.497,0.388
		c-0.187,0.156-0.381,0.304-0.583,0.445c-0.201,0.141-0.406,0.263-0.613,0.362c-0.208,0.102-0.397,0.152-0.57,0.152h-0.018H34.987z"
		/>
</g>
<g>
	<path fill="#717A81" d="M124.996-244.165c-9.647,0-17.496,7.85-17.496,17.502c0,9.647,7.849,17.497,17.496,17.497
		c9.652,0,17.504-7.85,17.504-17.497C142.5-236.315,134.648-244.165,124.996-244.165 M124.996-210.383
		c-8.976,0-16.279-7.304-16.279-16.28c0-8.98,7.303-16.286,16.279-16.286c8.98,0,16.288,7.306,16.288,16.286
		C141.284-217.687,133.977-210.383,124.996-210.383"/>
	<path fill="#717A81" d="M124.987-224.026c0.316,0,0.618-0.043,0.907-0.134c0.288-0.088,0.565-0.205,0.829-0.346
		c0.266-0.141,0.522-0.303,0.77-0.482c0.248-0.182,0.49-0.368,0.727-0.559c0.721-0.575,1.445-1.139,2.177-1.688
		c0.731-0.551,1.47-1.102,2.212-1.655c0.058-0.046,0.117-0.09,0.178-0.135c0.061-0.042,0.119-0.093,0.178-0.151v7.821
		c0,0.27-0.097,0.504-0.289,0.699c-0.194,0.196-0.426,0.294-0.697,0.294h-13.945c-0.271,0-0.504-0.098-0.699-0.294
		c-0.196-0.195-0.293-0.43-0.293-0.699v-7.821c0.057,0.059,0.116,0.109,0.177,0.151c0.06,0.045,0.119,0.089,0.177,0.135
		c0.744,0.554,1.481,1.104,2.212,1.655c0.731,0.55,1.457,1.113,2.177,1.688c0.225,0.179,0.461,0.359,0.708,0.541
		s0.504,0.345,0.77,0.491c0.264,0.146,0.542,0.267,0.834,0.354C124.383-224.069,124.681-224.026,124.987-224.026 M124.987-226.004
		c-0.179,0-0.372-0.051-0.579-0.152c-0.207-0.1-0.411-0.222-0.609-0.362c-0.199-0.142-0.393-0.289-0.583-0.445
		c-0.19-0.155-0.358-0.284-0.502-0.388c-0.697-0.531-1.386-1.055-2.069-1.572c-0.682-0.52-1.378-1.045-2.087-1.581
		c-0.132-0.104-0.286-0.244-0.462-0.42c-0.176-0.177-0.34-0.37-0.492-0.583c-0.153-0.214-0.282-0.429-0.389-0.649
		c-0.107-0.219-0.161-0.417-0.161-0.596c0-0.236,0.104-0.441,0.311-0.618c0.208-0.175,0.43-0.264,0.666-0.264h13.945
		c0.236,0,0.457,0.089,0.661,0.264c0.204,0.177,0.307,0.382,0.307,0.618c0,0.179-0.053,0.377-0.159,0.596
		c-0.107,0.221-0.236,0.436-0.389,0.649c-0.152,0.213-0.318,0.406-0.493,0.583c-0.175,0.176-0.329,0.315-0.462,0.42
		c-0.709,0.529-1.404,1.054-2.086,1.575c-0.684,0.521-1.373,1.047-2.07,1.578c-0.144,0.104-0.311,0.232-0.497,0.388
		c-0.187,0.156-0.381,0.304-0.583,0.445c-0.201,0.141-0.406,0.263-0.613,0.362c-0.208,0.102-0.397,0.152-0.57,0.152h-0.018H124.987z
		"/>
</g>
<g>
	<path fill="#555D63" d="M34.996-110.831c-9.646,0-17.496,7.85-17.496,17.502c0,9.646,7.849,17.496,17.496,17.496
		c9.652,0,17.504-7.85,17.504-17.496C52.5-102.981,44.648-110.831,34.996-110.831z M34.996-77.05
		c-8.976,0-16.279-7.303-16.279-16.279c0-8.98,7.303-16.287,16.279-16.287c8.981,0,16.288,7.307,16.288,16.287
		C51.284-84.353,43.977-77.05,34.996-77.05z"/>
	<path fill="#555D63" d="M35-83.677c1.375,0,2.49-1.113,2.49-2.49h-4.981C32.509-84.79,33.624-83.677,35-83.677z"/>
	<path fill="#555D63" d="M36.909-99.503v-1.576c0-1.053-0.856-1.908-1.91-1.908c-1.053,0-1.909,0.855-1.909,1.908v1.576
		c-2.201,0.787-3.486,2.887-3.778,5.354l-1.208,7.336h13.793l-1.209-7.336C40.348-96.616,39.11-98.716,36.909-99.503z M35.706-99.79
		c-0.232-0.027-0.466-0.047-0.706-0.047c-0.24,0-0.474,0.02-0.706,0.047v-1.289c0-0.387,0.316-0.703,0.705-0.703
		c0.39,0,0.706,0.316,0.706,0.703V-99.79z"/>
</g>
<g>
	<path fill="#717A81" d="M124.996-110.831c-9.646,0-17.496,7.85-17.496,17.502c0,9.646,7.849,17.496,17.496,17.496
		c9.653,0,17.504-7.85,17.504-17.496C142.5-102.981,134.648-110.831,124.996-110.831 M124.996-77.05
		c-8.976,0-16.279-7.303-16.279-16.279c0-8.98,7.303-16.287,16.279-16.287c8.981,0,16.288,7.307,16.288,16.287
		C141.283-84.353,133.977-77.05,124.996-77.05"/>
	<path fill="#717A81" d="M127.49-86.167c0,1.377-1.115,2.49-2.49,2.49c-1.376,0-2.491-1.113-2.491-2.49H127.49z"/>
	<path fill="#717A81" d="M126.909-99.503v-1.576c0-1.053-0.856-1.908-1.91-1.908c-1.053,0-1.909,0.855-1.909,1.908v1.576
		c-2.201,0.787-3.486,2.887-3.778,5.354l-1.208,7.336h13.793l-1.209-7.336C130.348-96.616,129.109-98.716,126.909-99.503
		 M124.294-99.79v-1.289c0-0.387,0.316-0.703,0.705-0.703c0.39,0,0.706,0.316,0.706,0.703v1.289
		c-0.232-0.027-0.466-0.047-0.706-0.047C124.76-99.837,124.526-99.817,124.294-99.79"/>
</g>
<path fill="#555D63" d="M34.762,27.816c2.339,0,4.242,1.902,4.242,4.24c0,2.341-1.903,4.243-4.242,4.243
	c-2.338,0-4.241-1.902-4.241-4.243C30.521,29.719,32.423,27.816,34.762,27.816"/>
<path fill="#555D63" d="M43.57,19.758c-0.08-0.045-0.154-0.098-0.235-0.143c-0.116-0.063-0.24-0.112-0.358-0.173
	c-2.395-1.233-5.102-1.942-7.975-1.942H35h-0.002c-9.648,0-17.499,7.849-17.499,17.496V35v0.004c0,6.534,3.606,12.233,8.93,15.237
	c0.079,0.046,0.155,0.099,0.235,0.144c0.116,0.063,0.241,0.112,0.357,0.174c2.395,1.232,5.102,1.941,7.976,1.941H35h0.001
	c9.647,0,17.498-7.849,17.498-17.496V35v-0.004C52.5,28.463,48.894,22.765,43.57,19.758 M35,51.284c-3.118,0-6.023-0.897-8.5-2.422
	c-4.66-2.869-7.782-8-7.783-13.862C18.718,26.021,26.022,18.718,35,18.717c3.117,0,6.021,0.896,8.5,2.422
	c4.659,2.868,7.782,8,7.784,13.861C51.282,43.979,43.979,51.282,35,51.284"/>
<path fill="#555D63" d="M42.782,42.427c0-2.596-3.418-4.627-7.781-4.627c-4.364,0-7.782,2.031-7.782,4.627
	c0,0.187,0.104,0.342,0.251,0.432c1.918,1.946,4.581,3.159,7.53,3.159c2.955,0,5.623-1.215,7.542-3.168
	C42.683,42.759,42.782,42.607,42.782,42.427"/>
<path fill="#717A81" d="M124.762,27.816c2.34,0,4.242,1.902,4.242,4.24c0,2.341-1.902,4.243-4.242,4.243
	c-2.338,0-4.241-1.902-4.241-4.243C120.521,29.719,122.424,27.816,124.762,27.816"/>
<path fill="#717A81" d="M133.57,19.758c-0.08-0.045-0.154-0.098-0.236-0.143c-0.115-0.063-0.238-0.112-0.357-0.173
	c-2.395-1.233-5.102-1.942-7.975-1.942H125h-0.002c-9.647,0-17.498,7.849-17.498,17.496V35v0.004c0,6.534,3.606,12.233,8.93,15.237
	c0.079,0.046,0.154,0.099,0.235,0.144c0.116,0.063,0.241,0.112,0.357,0.174c2.396,1.232,5.103,1.941,7.976,1.941H125h0.002
	c9.646,0,17.498-7.849,17.498-17.496V35v-0.004C142.5,28.463,138.893,22.765,133.57,19.758 M125,51.284
	c-3.117,0-6.022-0.897-8.5-2.422c-4.659-2.869-7.782-8-7.783-13.862c0.002-8.979,7.306-16.282,16.283-16.283
	c3.117,0,6.021,0.896,8.5,2.422c4.66,2.868,7.781,8,7.783,13.861C141.281,43.979,133.979,51.282,125,51.284"/>
<path fill="#717A81" d="M132.781,42.427c0-2.596-3.418-4.627-7.781-4.627s-7.781,2.031-7.781,4.627c0,0.187,0.104,0.342,0.252,0.432
	c1.918,1.946,4.58,3.159,7.529,3.159c2.955,0,5.623-1.215,7.543-3.168C132.682,42.759,132.781,42.607,132.781,42.427"/>
<g>
	<path fill="#555D63" d="M34.995,144.483c-9.646,0-17.495,7.85-17.495,17.502c0,9.648,7.849,17.498,17.495,17.498
		c9.652,0,17.505-7.85,17.505-17.498C52.5,152.333,44.647,144.483,34.995,144.483z M34.995,178.267
		c-8.976,0-16.279-7.303-16.279-16.281c0-8.98,7.303-16.285,16.279-16.285c8.981,0,16.288,7.305,16.288,16.285
		C51.283,170.964,43.977,178.267,34.995,178.267z"/>
	<path fill="#555D63" d="M42.581,156.509l-6.341-3.586c-0.488-0.275-0.887-0.043-0.887,0.52v2.304h-5.154
		c-1.826,0-3.311,1.484-3.311,3.31v2.898h2.529v-2.898c0-0.431,0.351-0.78,0.782-0.78h5.154v2.304c0,0.561,0.399,0.793,0.887,0.518
		l6.341-3.584C43.069,157.235,43.069,156.784,42.581,156.509z"/>
	<path fill="#555D63" d="M40.187,164.911c0,0.431-0.351,0.78-0.782,0.78h-5.018v-2.302c0-0.563-0.399-0.795-0.888-0.52l-6.341,3.584
		c-0.488,0.277-0.488,0.729,0,1.006l6.341,3.584c0.488,0.275,0.888,0.041,0.888-0.52v-2.304h5.018c1.826,0,3.311-1.484,3.311-3.31
		v-2.957h-2.529V164.911z"/>
</g>
<g>
	<path fill="#717A81" d="M124.995,144.483c-9.646,0-17.495,7.85-17.495,17.502c0,9.648,7.849,17.498,17.495,17.498
		c9.652,0,17.505-7.85,17.505-17.498C142.5,152.333,134.647,144.483,124.995,144.483z M124.995,178.267
		c-8.976,0-16.279-7.303-16.279-16.281c0-8.98,7.303-16.285,16.279-16.285c8.981,0,16.288,7.305,16.288,16.285
		C141.283,170.964,133.977,178.267,124.995,178.267z"/>
	<path fill="#717A81" d="M132.581,156.509l-6.341-3.586c-0.488-0.275-0.887-0.043-0.887,0.52v2.304h-5.154
		c-1.826,0-3.311,1.484-3.311,3.31v2.898h2.529v-2.898c0-0.431,0.351-0.78,0.782-0.78h5.154v2.304c0,0.561,0.399,0.793,0.887,0.518
		l6.341-3.584C133.069,157.235,133.069,156.784,132.581,156.509z"/>
	<path fill="#717A81" d="M130.188,164.911c0,0.431-0.352,0.78-0.782,0.78h-5.018v-2.302c0-0.563-0.399-0.795-0.888-0.52
		l-6.341,3.584c-0.488,0.277-0.488,0.729,0,1.006l6.341,3.584c0.488,0.275,0.888,0.041,0.888-0.52v-2.304h5.018
		c1.825,0,3.312-1.484,3.312-3.31v-2.957h-2.529V164.911z"/>
</g>
</svg>
