<?xml version="1.0" encoding="utf-8"?>
<!-- Generator: Adobe Illustrator 15.0.0, SVG Export Plug-In . SVG Version: 6.00 Build 0)  -->
<!DOCTYPE svg PUBLIC "-//W3C//DTD SVG 1.1//EN" "http://www.w3.org/Graphics/SVG/1.1/DTD/svg11.dtd">
<svg version="1.1" id="Layer_1" xmlns="http://www.w3.org/2000/svg" xmlns:xlink="http://www.w3.org/1999/xlink" x="0px" y="0px"
	 width="70px" height="70px" viewBox="0 0 70 70" enable-background="new 0 0 70 70" xml:space="preserve">
<path fill="#555D63" d="M34.762,27.816c2.339,0,4.242,1.902,4.242,4.24c0,2.341-1.903,4.243-4.242,4.243
	c-2.338,0-4.241-1.902-4.241-4.243C30.521,29.719,32.423,27.816,34.762,27.816"/>
<path fill="#555D63" d="M43.57,19.758c-0.08-0.045-0.154-0.098-0.235-0.143c-0.116-0.063-0.24-0.112-0.358-0.173
	c-2.395-1.233-5.102-1.942-7.975-1.942H35h-0.002c-9.648,0-17.499,7.849-17.499,17.496V35v0.004c0,6.534,3.606,12.233,8.93,15.237
	c0.079,0.046,0.155,0.099,0.235,0.144c0.116,0.063,0.241,0.112,0.357,0.174c2.395,1.232,5.102,1.941,7.976,1.941H35h0.001
	c9.647,0,17.498-7.849,17.498-17.496V35v-0.004C52.5,28.463,48.894,22.765,43.57,19.758 M35,51.284c-3.118,0-6.023-0.897-8.5-2.422
	c-4.66-2.869-7.782-8-7.783-13.862C18.718,26.021,26.022,18.718,35,18.717c3.117,0,6.021,0.896,8.5,2.422
	c4.659,2.868,7.782,8,7.784,13.861C51.282,43.979,43.979,51.282,35,51.284"/>
<path fill="#555D63" d="M42.782,42.427c0-2.596-3.418-4.627-7.781-4.627c-4.364,0-7.782,2.031-7.782,4.627
	c0,0.187,0.104,0.342,0.251,0.432c1.918,1.946,4.581,3.159,7.53,3.159c2.955,0,5.623-1.215,7.542-3.168
	C42.683,42.759,42.782,42.607,42.782,42.427"/>
</svg>
