<?xml version="1.0" encoding="utf-8"?>
<!-- Generator: Adobe Illustrator 15.0.0, SVG Export Plug-In . SVG Version: 6.00 Build 0)  -->
<!DOCTYPE svg PUBLIC "-//W3C//DTD SVG 1.1//EN" "http://www.w3.org/Graphics/SVG/1.1/DTD/svg11.dtd">
<svg version="1.1" id="Layer_1" xmlns="http://www.w3.org/2000/svg" xmlns:xlink="http://www.w3.org/1999/xlink" x="0px" y="0px"
	 width="70px" height="70px" viewBox="0 0 70 70" enable-background="new 0 0 70 70" xml:space="preserve">
<g>
	<path fill="#555D63" d="M34.995,17.5c-9.646,0-17.495,7.85-17.495,17.502c0,9.648,7.849,17.498,17.495,17.498
		c9.652,0,17.505-7.85,17.505-17.498C52.5,25.35,44.647,17.5,34.995,17.5z M34.995,51.283c-8.976,0-16.279-7.303-16.279-16.281
		c0-8.98,7.303-16.285,16.279-16.285c8.981,0,16.288,7.305,16.288,16.285C51.283,43.98,43.977,51.283,34.995,51.283z"/>
	<path fill="#555D63" d="M42.581,29.525l-6.341-3.586c-0.488-0.275-0.887-0.043-0.887,0.52v2.304h-5.154
		c-1.826,0-3.311,1.484-3.311,3.31v2.898h2.529v-2.898c0-0.431,0.351-0.78,0.782-0.78h5.154v2.304c0,0.561,0.399,0.793,0.887,0.518
		l6.341-3.584C43.069,30.252,43.069,29.801,42.581,29.525z"/>
	<path fill="#555D63" d="M40.187,37.928c0,0.431-0.351,0.78-0.782,0.78h-5.018v-2.302c0-0.563-0.399-0.795-0.888-0.52l-6.341,3.584
		c-0.488,0.277-0.488,0.729,0,1.006l6.341,3.584c0.488,0.275,0.888,0.041,0.888-0.52v-2.304h5.018c1.826,0,3.311-1.484,3.311-3.31
		v-2.957h-2.529V37.928z"/>
</g>
</svg>
