<?xml version="1.0" encoding="utf-8"?>
<!-- Generator: Adobe Illustrator 15.0.0, SVG Export Plug-In . SVG Version: 6.00 Build 0)  -->
<!DOCTYPE svg PUBLIC "-//W3C//DTD SVG 1.1//EN" "http://www.w3.org/Graphics/SVG/1.1/DTD/svg11.dtd">
<svg version="1.1" id="Layer_1" xmlns="http://www.w3.org/2000/svg" xmlns:xlink="http://www.w3.org/1999/xlink" x="0px" y="0px"
	 width="70px" height="70px" viewBox="0 0 70 70" enable-background="new 0 0 70 70" xml:space="preserve">
<g>
	<path fill="#EB5758" d="M36.457,26.404H18.541c-0.576,0-1.041,0.466-1.041,1.041c0,0.576,0.465,1.042,1.041,1.042h17.917
		c0.576,0,1.043-0.466,1.043-1.042C37.5,26.87,37.033,26.404,36.457,26.404"/>
	<path fill="#EB5758" d="M36.457,33.959H18.541c-0.576,0-1.041,0.466-1.041,1.042c0,0.575,0.465,1.041,1.041,1.041h17.917
		c0.576,0,1.043-0.466,1.043-1.041C37.5,34.425,37.033,33.959,36.457,33.959"/>
	<path fill="#EB5758" d="M36.457,41.512H18.541c-0.576,0-1.041,0.467-1.041,1.043c0,0.574,0.465,1.041,1.041,1.041h17.917
		c0.576,0,1.043-0.467,1.043-1.041C37.5,41.979,37.033,41.512,36.457,41.512"/>
</g>
<g>
	<path fill="#3F4347" d="M47.462,38.615l-3.838-6.68C43.328,31.421,43.578,31,44.179,31h7.642c0.601,0,0.851,0.421,0.555,0.936
		l-3.838,6.68C48.241,39.129,47.758,39.129,47.462,38.615"/>
</g>
</svg>
