<?xml version="1.0" encoding="utf-8"?>
<!-- Generator: Adobe Illustrator 15.0.0, SVG Export Plug-In . SVG Version: 6.00 Build 0)  -->
<!DOCTYPE svg PUBLIC "-//W3C//DTD SVG 1.1//EN" "http://www.w3.org/Graphics/SVG/1.1/DTD/svg11.dtd">
<svg version="1.1" id="Layer_1" xmlns="http://www.w3.org/2000/svg" xmlns:xlink="http://www.w3.org/1999/xlink" x="0px" y="0px"
	 width="70px" height="70px" viewBox="0 0 70 70" enable-background="new 0 0 70 70" xml:space="preserve">
<path fill="#C74748" d="M34.996,17.5c-9.647,0-17.496,7.851-17.496,17.503c0,9.647,7.849,17.497,17.496,17.497
	c9.653,0,17.504-7.85,17.504-17.497C52.5,25.351,44.648,17.5,34.996,17.5z M34.996,51.283c-8.976,0-16.279-7.303-16.279-16.28
	c0-8.98,7.303-16.286,16.279-16.286c8.981,0,16.289,7.306,16.289,16.286C51.284,43.98,43.977,51.283,34.996,51.283z"/>
<path fill="#C74748" d="M42.193,27.827h-14.38c-0.278,0-0.52,0.1-0.721,0.304c-0.202,0.201-0.302,0.44-0.302,0.719v11.637
	c0,0.278,0.1,0.521,0.302,0.723c0.202,0.201,0.443,0.301,0.721,0.301h14.38c0.28,0,0.52-0.1,0.718-0.301
	c0.2-0.202,0.299-0.444,0.299-0.723V28.85c0-0.278-0.099-0.518-0.299-0.719C42.713,27.927,42.474,27.827,42.193,27.827z
	 M29.925,30.962c0.268-0.268,0.598-0.4,0.989-0.4c0.374,0,0.695,0.133,0.963,0.4c0.267,0.267,0.399,0.598,0.399,0.989
	c0,0.374-0.133,0.695-0.399,0.962c-0.268,0.268-0.589,0.4-0.963,0.4c-0.391,0-0.722-0.133-0.989-0.4
	c-0.267-0.267-0.4-0.588-0.4-0.962C29.525,31.56,29.658,31.229,29.925,30.962z M40.475,38.776H29.525v-0.936l2.468-3.208
	l1.674,1.391l3.152-4.786l3.654,3.779V38.776z"/>
</svg>
