<?xml version="1.0" encoding="utf-8"?>
<!-- Generator: Adobe Illustrator 15.0.0, SVG Export Plug-In . SVG Version: 6.00 Build 0)  -->
<!DOCTYPE svg PUBLIC "-//W3C//DTD SVG 1.1//EN" "http://www.w3.org/Graphics/SVG/1.1/DTD/svg11.dtd">
<svg version="1.1" id="Layer_1" xmlns="http://www.w3.org/2000/svg" xmlns:xlink="http://www.w3.org/1999/xlink" x="0px" y="0px"
	 width="70px" height="70px" viewBox="0 0 70 70" enable-background="new 0 0 70 70" xml:space="preserve">
<g>
	<path fill="#717A81" d="M34.996,17.501c-9.646,0-17.496,7.85-17.496,17.502c0,9.646,7.849,17.496,17.496,17.496
		c9.653,0,17.504-7.85,17.504-17.496C52.5,25.351,44.648,17.501,34.996,17.501 M34.996,51.282c-8.976,0-16.279-7.303-16.279-16.279
		c0-8.98,7.303-16.287,16.279-16.287c8.981,0,16.288,7.307,16.288,16.287C51.283,43.979,43.977,51.282,34.996,51.282"/>
	<path fill="#717A81" d="M37.49,42.165c0,1.377-1.115,2.49-2.49,2.49c-1.376,0-2.491-1.113-2.491-2.49H37.49z"/>
	<path fill="#717A81" d="M36.909,28.829v-1.576c0-1.053-0.856-1.908-1.91-1.908c-1.053,0-1.909,0.855-1.909,1.908v1.576
		c-2.201,0.787-3.486,2.887-3.778,5.354l-1.208,7.336h13.793l-1.209-7.336C40.348,31.716,39.109,29.616,36.909,28.829
		 M34.294,28.542v-1.289c0-0.387,0.316-0.703,0.705-0.703c0.39,0,0.706,0.316,0.706,0.703v1.289
		c-0.232-0.027-0.466-0.047-0.706-0.047C34.76,28.495,34.526,28.515,34.294,28.542"/>
</g>
</svg>
