<?xml version="1.0" encoding="utf-8"?>
<!-- Generator: Adobe Illustrator 15.0.0, SVG Export Plug-In . SVG Version: 6.00 Build 0)  -->
<!DOCTYPE svg PUBLIC "-//W3C//DTD SVG 1.1//EN" "http://www.w3.org/Graphics/SVG/1.1/DTD/svg11.dtd">
<svg version="1.1" id="Layer_1" xmlns="http://www.w3.org/2000/svg" xmlns:xlink="http://www.w3.org/1999/xlink" x="0px" y="0px"
	 width="30px" height="30px" viewBox="30 60 30 30" enable-background="new 30 60 30 30" xml:space="preserve">
<path fill="#9AA5AE" d="M30,74.999L30,74.999v0.003c0,2.463,0.607,4.783,1.664,6.837c0.053,0.099,0.094,0.206,0.148,0.306
	c0.038,0.069,0.084,0.133,0.123,0.201C34.511,86.908,39.396,90,44.996,90h0.003h0.004C53.272,90,60,83.271,60,75.001v-0.002v-0.001
	c0-2.464-0.608-4.783-1.665-6.836c-0.053-0.102-0.096-0.207-0.149-0.307c-0.038-0.069-0.083-0.133-0.123-0.201
	C55.488,63.092,50.603,60,45.003,60h-0.004h-0.003C36.727,60,30,66.729,30,74.999z M37.283,74.982c0-0.056,0.081-0.184,0.306-0.31
	l10.771-6.088c0.179-0.102,0.299-0.116,0.354-0.116c0.193,0,0.222,0.283,0.222,0.453v12.122c0,0.169-0.028,0.453-0.222,0.453
	c-0.057,0-0.176-0.015-0.354-0.116l-10.771-6.089C37.364,75.166,37.283,75.037,37.283,74.982z"/>
</svg>
