<?xml version="1.0" encoding="utf-8"?>
<!-- Generator: Adobe Illustrator 15.0.0, SVG Export Plug-In . SVG Version: 6.00 Build 0)  -->
<!DOCTYPE svg PUBLIC "-//W3C//DTD SVG 1.1//EN" "http://www.w3.org/Graphics/SVG/1.1/DTD/svg11.dtd">
<svg version="1.1" id="Layer_1" xmlns="http://www.w3.org/2000/svg" xmlns:xlink="http://www.w3.org/1999/xlink" x="0px" y="0px"
	 width="30px" height="30px" viewBox="30 60 30 30" enable-background="new 30 60 30 30" xml:space="preserve">
<path fill="#9AA5AE" d="M45,90c8.283,0,15-6.716,15-15c0-8.285-6.717-15-15-15c-8.285,0-15,6.715-15,15C30,83.284,36.715,90,45,90
	 M41.47,74.26l9.359-5.291c0.72-0.407,1.31-0.063,1.31,0.764v10.534c0,0.828-0.59,1.171-1.31,0.764l-9.359-5.29
	C40.749,75.333,40.749,74.666,41.47,74.26 M37.78,69.917c0-0.515,0.422-0.937,0.938-0.937c0.515,0,0.936,0.422,0.936,0.937v10.184
	c0,0.515-0.421,0.937-0.936,0.937c-0.516,0-0.938-0.422-0.938-0.937V69.917z"/>
</svg>
