<?xml version="1.0" encoding="utf-8"?>
<!-- Generator: Adobe Illustrator 15.0.0, SVG Export Plug-In . SVG Version: 6.00 Build 0)  -->
<!DOCTYPE svg PUBLIC "-//W3C//DTD SVG 1.1//EN" "http://www.w3.org/Graphics/SVG/1.1/DTD/svg11.dtd">
<svg version="1.1" id="Layer_1" xmlns="http://www.w3.org/2000/svg" xmlns:xlink="http://www.w3.org/1999/xlink" x="0px" y="0px"
	 width="30px" height="30px" viewBox="30 60 30 30" enable-background="new 30 60 30 30" xml:space="preserve">
<path fill="#EB5657" d="M60,75.001L60,75.001v-0.003c0-2.463-0.607-4.783-1.664-6.837c-0.053-0.099-0.094-0.206-0.148-0.306
	c-0.038-0.069-0.084-0.133-0.123-0.201C55.489,63.092,50.604,60,45.004,60h-0.003h-0.004C36.728,60,30,66.729,30,74.999v0.002v0.001
	c0,2.464,0.608,4.783,1.665,6.836c0.053,0.102,0.096,0.207,0.149,0.307c0.038,0.069,0.083,0.133,0.123,0.201
	C34.512,86.908,39.397,90,44.997,90h0.004h0.003C53.273,90,60,83.271,60,75.001z M52.717,75.018c0,0.056-0.081,0.184-0.306,0.31
	l-10.771,6.088c-0.179,0.102-0.299,0.116-0.354,0.116c-0.193,0-0.222-0.283-0.222-0.453V68.956c0-0.169,0.028-0.453,0.222-0.453
	c0.057,0,0.176,0.015,0.354,0.116l10.771,6.089C52.636,74.834,52.717,74.963,52.717,75.018z"/>
</svg>
