<?xml version="1.0" encoding="utf-8"?>
<!-- Generator: Adobe Illustrator 15.0.0, SVG Export Plug-In . SVG Version: 6.00 Build 0)  -->
<!DOCTYPE svg PUBLIC "-//W3C//DTD SVG 1.1//EN" "http://www.w3.org/Graphics/SVG/1.1/DTD/svg11.dtd">
<svg version="1.1" id="Layer_1" xmlns="http://www.w3.org/2000/svg" xmlns:xlink="http://www.w3.org/1999/xlink" x="0px" y="0px"
	 width="36px" height="36px" viewBox="0 0 36 36" enable-background="new 0 0 36 36" xml:space="preserve">
<g>
	<path fill="#FFFFFF" d="M18,27c-4.963,0-9-4.037-9-9s4.037-9,9-9c1.682,0,3.321,0.467,4.742,1.35
		c0.249,0.154,0.325,0.48,0.171,0.729c-0.155,0.249-0.481,0.325-0.729,0.17c-1.254-0.779-2.7-1.19-4.184-1.19
		c-4.379,0-7.941,3.563-7.941,7.941s3.563,7.941,7.941,7.941s7.941-3.563,7.941-7.941c0-0.88-0.143-1.745-0.425-2.568
		c-0.094-0.277,0.054-0.578,0.33-0.672c0.277-0.094,0.578,0.053,0.673,0.33C26.839,16.023,27,17.002,27,18
		C27,22.963,22.963,27,18,27z"/>
	<path fill="#FFFFFF" d="M18,21.054c-0.135,0-0.264-0.051-0.362-0.144l-4.235-3.979c-0.213-0.2-0.224-0.535-0.023-0.748
		c0.2-0.213,0.535-0.224,0.748-0.023l3.828,3.596l6.956-8.257c0.188-0.224,0.522-0.252,0.746-0.064s0.252,0.522,0.063,0.746
		l-7.315,8.685c-0.094,0.111-0.229,0.179-0.374,0.188C18.021,21.054,18.01,21.054,18,21.054z"/>
</g>
</svg>
