<?xml version="1.0" encoding="utf-8"?>
<!-- Generator: Adobe Illustrator 22.1.0, SVG Export Plug-In . SVG Version: 6.00 Build 0)  -->
<svg version="1.1" id="Capa_1" xmlns="https://www.w3.org/2000/svg" xmlns:xlink="https://www.w3.org/1999/xlink" x="0px" y="0px"
	 viewBox="-49 141 512 512" style="enable-background:new -49 141 512 512;" xml:space="preserve">
<path d="M377,222.3h-16.1c-7.1-46-46.9-81.3-94.9-81.3H148c-47.9,0-87.8,35.3-94.9,81.3H37c-24.8,0-45,20.2-45,45v160
	c0,24.8,20.2,45,45,45h15.5l39.5,65V653h230V537.3l39.5-65H377c24.8,0,45-20.2,45-45v-160C422,242.5,401.8,222.3,377,222.3z
	 M148,171h118c31.2,0,57.5,21.8,64.3,51H83.7C90.5,192.8,116.8,171,148,171z M291.7,529.4c-8.1,13.3-22.8,21.6-38.4,21.6h-92.5
	c-15.6,0-30.3-8.3-38.4-21.6l-34.7-57h31.3c18.9,0,37-5.6,52.6-16.3c21.3-14.6,49.9-14.6,71.1,0c15.5,10.7,33.7,16.3,52.6,16.3h31.3
	L291.7,529.4z M362,352.3H52v-30h310V352.3z"/>
</svg>
