<?xml version="1.0" encoding="utf-8"?>
<!-- Generator: Adobe Illustrator 22.1.0, SVG Export Plug-In . SVG Version: 6.00 Build 0)  -->
<svg version="1.1" id="Capa_1" xmlns="https://www.w3.org/2000/svg" xmlns:xlink="https://www.w3.org/1999/xlink" x="0px" y="0px"
	 viewBox="-49 141 512 512" style="enable-background:new -49 141 512 512;" xml:space="preserve">
<path d="M423,357.1v-100c0-22.1-17.9-40-40-40H31c-22.1,0-40,17.9-40,40v200c0,22.1,17.9,40,40,40h352c22.1,0,40-17.9,40-40
	c0-11,9-20,20-20s20,9,20,20c0,44.1-35.9,80-80,80H227v39.9h70c11,0,20,9,20,20c0,11-9,20-20,20H117c-11,0-20-9-20-20
	c0-11,9-20,20-20h70v-39.9H31c-44.1,0-80-35.9-80-80v-200c0-44.1,35.9-80,80-80h352c44.1,0,80,35.9,80,80v100c0,11-9,20-20,20
	S423,368.1,423,357.1z M250.8,340.3c6.4,3.7,10.2,10.4,10.2,17.8c0,7.4-3.8,14.1-10.2,17.8l-45,26.1l0,0c-3.2,1.9-6.7,2.8-10.3,2.8
	c-3.5,0-7-0.9-10.2-2.8c-6.4-3.7-10.3-10.4-10.3-17.8v-52.2c0-7.4,3.8-14.1,10.3-17.8c6.4-3.7,14.1-3.7,20.5,0L250.8,340.3z"/>
</svg>
