<?xml version="1.0" encoding="utf-8"?>
<!-- Generator: Adobe Illustrator 22.1.0, SVG Export Plug-In . SVG Version: 6.00 Build 0)  -->
<svg version="1.1" id="Capa_1" xmlns="https://www.w3.org/2000/svg" xmlns:xlink="https://www.w3.org/1999/xlink" x="0px" y="0px"
	 viewBox="-49 141 512 512" style="enable-background:new -49 141 512 512;" xml:space="preserve">
<g>
	<path d="M280.8,491.7v-6.1c-22.7,9.5-47.7,14.8-73.8,14.8s-51.1-5.3-73.8-14.8v6.1L70.3,605.5c-5.5,10-5.4,21.9,0.5,31.7
		c5.8,9.9,16.1,15.7,27.6,15.7c11.5,0,22.1-6.2,27.8-16.1l46.4-74.2v55.9c0,19,15.5,34.5,34.5,34.5s34.5-15.5,34.5-34.5v-55.9
		l46.4,74.2c5.7,10,16.3,16.1,27.8,16.1c11.4,0,21.7-5.9,27.6-15.7c5.8-9.9,6-21.7,0.5-31.7L280.8,491.7z"/>
	<path d="M133.2,453.1L133.2,453.1C133.2,453.1,133.2,453.1,133.2,453.1c1.3,0.7,2.6,1.3,3.9,1.9c0.4,0.2,0.8,0.4,1.2,0.6
		c0.9,0.4,1.9,0.9,2.8,1.3c0.5,0.2,0.9,0.4,1.4,0.6c0.9,0.4,1.8,0.8,2.7,1.1c0.5,0.2,1,0.4,1.5,0.6c0.9,0.4,1.9,0.7,2.8,1.1
		c0.4,0.2,0.9,0.3,1.3,0.5c1.2,0.4,2.4,0.9,3.6,1.3c0.2,0.1,0.4,0.1,0.6,0.2c1.4,0.5,2.8,0.9,4.2,1.4c0.4,0.1,0.7,0.2,1.1,0.3
		c1,0.3,2.1,0.6,3.1,0.9c0.5,0.1,1,0.3,1.5,0.4c0.9,0.3,1.9,0.5,2.8,0.7c0.5,0.1,1.1,0.3,1.6,0.4c0.9,0.2,1.9,0.4,2.9,0.7
		c0.5,0.1,1,0.2,1.5,0.3c1.1,0.2,2.2,0.4,3.3,0.6c0.4,0.1,0.8,0.2,1.2,0.2c1.5,0.3,3,0.5,4.4,0.7c0.3,0,0.6,0.1,0.9,0.1
		c1.2,0.2,2.4,0.3,3.6,0.5c0.5,0.1,1,0.1,1.6,0.2c1,0.1,2,0.2,3,0.3c0.6,0.1,1.1,0.1,1.7,0.2c1,0.1,1.9,0.2,2.9,0.2
		c0.6,0,1.1,0.1,1.7,0.1c1,0.1,2.1,0.1,3.1,0.1c0.5,0,1,0,1.5,0.1c1.5,0,3.1,0.1,4.6,0.1s3.1,0,4.6-0.1c0.5,0,1,0,1.5-0.1
		c1,0,2.1-0.1,3.1-0.1c0.6,0,1.1-0.1,1.7-0.1c1-0.1,1.9-0.1,2.9-0.2c0.6,0,1.1-0.1,1.7-0.2c1-0.1,2-0.2,3-0.3c0.5-0.1,1-0.1,1.6-0.2
		c1.2-0.1,2.4-0.3,3.6-0.5c0.3,0,0.6-0.1,0.9-0.1c1.5-0.2,3-0.5,4.4-0.7c0.4-0.1,0.8-0.1,1.2-0.2c1.1-0.2,2.2-0.4,3.2-0.6
		c0.5-0.1,1-0.2,1.5-0.3c1-0.2,1.9-0.4,2.8-0.7c0.5-0.1,1.1-0.3,1.6-0.4c0.9-0.2,1.9-0.5,2.8-0.7c0.5-0.1,1-0.3,1.5-0.4
		c1-0.3,2.1-0.6,3.1-0.9c0.4-0.1,0.8-0.2,1.1-0.3c1.4-0.4,2.8-0.9,4.2-1.4c0.2-0.1,0.4-0.1,0.6-0.2c1.2-0.4,2.4-0.8,3.6-1.3
		c0.4-0.2,0.9-0.3,1.3-0.5c0.9-0.4,1.9-0.7,2.8-1.1c0.5-0.2,1-0.4,1.5-0.6c0.9-0.4,1.8-0.7,2.7-1.1c0.5-0.2,1-0.4,1.4-0.6
		c0.9-0.4,1.9-0.8,2.8-1.3c0.4-0.2,0.8-0.4,1.2-0.6c1.3-0.6,2.6-1.3,3.9-1.9c0,0,0,0,0,0l0,0c52.6-26.9,88.6-81.7,88.6-144.7
		c0-69-44-130.5-108.3-153.2v15.3c0,29.9-24.3,54.2-54.2,54.2s-54.2-24.3-54.2-54.2v-15.3C88.5,177.9,44.5,239.4,44.5,308.4
		C44.5,371.4,80.6,426.1,133.2,453.1z M207,244.4c36.8,0,66.7,29.9,66.7,66.7s-29.9,66.7-66.7,66.7s-66.7-29.9-66.7-66.7
		S170.2,244.4,207,244.4z"/>
	<path d="M207,348.2c20.5,0,37.1-16.7,37.1-37.1c0-20.5-16.7-37.1-37.1-37.1s-37.1,16.7-37.1,37.1S186.5,348.2,207,348.2z
		 M192.3,309.6c0-0.5,0.1-1,0.2-1.4c0.1-0.5,0.2-0.9,0.4-1.4c0.1-0.5,0.3-0.9,0.5-1.4c0.2-0.4,0.4-0.9,0.6-1.3
		c0.2-0.4,0.5-0.8,0.7-1.3c0.3-0.4,0.6-0.8,0.9-1.2c0.3-0.4,0.6-0.7,1-1.1c0.3-0.3,0.7-0.7,1.1-1c0.4-0.3,0.8-0.6,1.2-0.9
		c0.4-0.3,0.8-0.5,1.3-0.7c0.4-0.2,0.9-0.4,1.3-0.6s0.9-0.3,1.4-0.5c0.5-0.1,0.9-0.3,1.4-0.3c0.5-0.1,1-0.2,1.4-0.2
		c1-0.1,1.9-0.1,2.9,0c0.5,0,1,0.1,1.4,0.2c0.5,0.1,0.9,0.2,1.4,0.3c0.5,0.1,0.9,0.3,1.4,0.5c0.4,0.2,0.9,0.4,1.3,0.6
		c0.4,0.2,0.8,0.5,1.3,0.7c0.4,0.3,0.8,0.6,1.2,0.9c0.4,0.3,0.7,0.6,1.1,1c0.3,0.3,0.7,0.7,1,1.1c0.3,0.4,0.6,0.8,0.9,1.2
		c0.3,0.4,0.5,0.8,0.7,1.3c0.2,0.4,0.4,0.9,0.6,1.3c0.2,0.4,0.3,0.9,0.5,1.4c0.1,0.5,0.3,0.9,0.4,1.4c0.1,0.5,0.2,1,0.2,1.4
		c0,0.5,0.1,1,0.1,1.4c0,0.5,0,1-0.1,1.5c0,0.5-0.1,1-0.2,1.4c-0.1,0.5-0.2,0.9-0.4,1.4c-0.1,0.5-0.3,0.9-0.5,1.4
		c-0.2,0.4-0.4,0.9-0.6,1.3c-0.2,0.4-0.5,0.8-0.7,1.2s-0.6,0.8-0.9,1.2c-0.3,0.4-0.6,0.7-1,1.1c-0.3,0.3-0.7,0.7-1.1,1
		c-0.4,0.3-0.8,0.6-1.2,0.9c-0.4,0.3-0.8,0.5-1.3,0.7c-0.4,0.2-0.9,0.4-1.3,0.6c-0.4,0.2-0.9,0.4-1.4,0.5c-0.5,0.1-0.9,0.3-1.4,0.4
		c-0.5,0.1-1,0.2-1.4,0.2c-0.5,0-1,0.1-1.5,0.1c-0.5,0-1,0-1.5-0.1c-0.5,0-1-0.1-1.4-0.2c-0.5-0.1-0.9-0.2-1.4-0.4
		c-0.5-0.1-0.9-0.3-1.4-0.5c-0.4-0.2-0.9-0.4-1.3-0.6c-0.4-0.2-0.8-0.5-1.3-0.7c-0.4-0.3-0.8-0.6-1.2-0.9c-0.4-0.3-0.7-0.6-1.1-1
		c-0.3-0.3-0.7-0.7-1-1.1c-0.3-0.4-0.6-0.8-0.9-1.2s-0.5-0.8-0.7-1.2s-0.4-0.9-0.6-1.3c-0.2-0.4-0.3-0.9-0.5-1.4
		c-0.1-0.5-0.3-0.9-0.4-1.4c-0.1-0.5-0.2-1-0.2-1.4c0-0.5-0.1-1-0.1-1.5C192.2,310.6,192.3,310.1,192.3,309.6z"/>
	<path d="M207,195.2c13.6,0,24.6-11,24.6-24.6V141h-49.2v29.5C182.4,184.1,193.4,195.2,207,195.2z"/>
</g>
</svg>
