<?xml version="1.0" encoding="utf-8"?>
<!-- Generator: Adobe Illustrator 22.1.0, SVG Export Plug-In . SVG Version: 6.00 Build 0)  -->
<svg version="1.1" id="Capa_1" xmlns="https://www.w3.org/2000/svg" xmlns:xlink="https://www.w3.org/1999/xlink" x="0px" y="0px"
	 viewBox="-49 141 512 512" style="enable-background:new -49 141 512 512;" xml:space="preserve">
<style type="text/css">
	.st0{clip-path:url(#SVGID_2_);}
</style>
<g>
	<path d="M109,299.1c4.5-3.9,5.1-10.7,1.2-15.2c-11.3-13.3-17.5-30.2-17.5-47.7c0-40.6,33-73.6,73.7-73.6c40.6,0,73.7,33,73.7,73.6
		c0,17.5-6.2,34.4-17.5,47.7c-3.9,4.5-3.3,11.3,1.2,15.2c2,1.7,4.5,2.6,7,2.6c3.1,0,6.1-1.3,8.2-3.8c14.6-17.2,22.7-39.1,22.7-61.7
		c0-52.5-42.7-95.2-95.2-95.2s-95.2,42.7-95.2,95.2c0,22.6,8,44.5,22.6,61.6C97.7,302.4,104.5,302.9,109,299.1L109,299.1z
		 M109,299.1"/>
	<g>
		<defs>
			<rect id="SVGID_1_" x="39.7" y="141" width="334.6" height="512"/>
		</defs>
		<clipPath id="SVGID_2_">
			<use xlink:href="#SVGID_1_"  style="overflow:visible;"/>
		</clipPath>
		<path class="st0" d="M166.1,215c23.8,0,42.8,14.6,49.1,35.7c1.4-4.6,2.1-9.5,2.1-14.5c0-28.1-22.8-50.9-50.9-50.9
			c-28.1,0-50.9,22.8-50.9,50.9c0,4.7,0.7,9.3,1.9,13.6C123.9,229.2,142.7,215,166.1,215L166.1,215z M166.1,215"/>
		<path class="st0" d="M370.9,446.1c-6.8-40.3-35.2-46.8-48.6-47.5c-4.2-0.2-8.1-2.4-10.4-5.9c-9.7-14.8-22.6-18.7-33.7-18.7
			c-7.9,0-14.8,2-18.8,3.5c-0.5,0.2-1,0.3-1.5,0.3c-1.6,0-3.1-0.8-3.9-2.3c-9.8-16.9-23.8-21.2-35.6-21.2c-6.9,0-13,1.5-17.2,2.8
			c-0.4,0.1-1.4,0.2-1.8,0.2c-2.3,0-4.7-1.9-4.7-4.3v-86.7c0-19.8-14.8-29.7-29.6-29.7c-14.9,0-29.6,9.9-29.6,29.7v152.5
			c0,9-6.9,14.5-14.2,14.5c-4.5,0-8.8-2-11.8-6.6l-14.3-22.1C89,394.3,79.9,390,70.8,390c-20.5,0-40.6,22-26.3,45.5l112.3,215
			c0.7,1.4,2.2,2.5,3.8,2.5h157.7c2.2,0,4.1-1.9,4.2-4.2l3.9-64.3c0-0.7,0.3-1.5,0.7-2.1C366.2,523.1,377.4,484.9,370.9,446.1
			L370.9,446.1z M370.9,446.1"/>
	</g>
</g>
</svg>
