<?xml version="1.0" encoding="utf-8"?>
<!-- Generator: Adobe Illustrator 22.1.0, SVG Export Plug-In . SVG Version: 6.00 Build 0)  -->
<svg version="1.1" id="Capa_1" xmlns="https://www.w3.org/2000/svg" xmlns:xlink="https://www.w3.org/1999/xlink" x="0px" y="0px"
	 viewBox="-49 141 512 512" style="enable-background:new -49 141 512 512;" xml:space="preserve">
<g>
	<path d="M426.8,402c-0.3-14.6-9.7-35.6-56-53.4c-3.9-0.9-7.8,0.5-10.3,3.3c-1.6,1.4-2.8,3.3-3.3,5.5c-1.1,4.7,1.2,9.6,5.5,11.7
		c26.7,10.5,42.6,22.9,42.6,33.9c0,4.3-2.2,8.6-6.3,12.9c-6.7,6.5-18,13-33.3,19l-57.4-254c-3.1-23.1-23-40.3-46.3-39.9
		c-4.8,0-9.6,0.6-14.2,1.7l-164.3,37c-10.7,1.6-20,6.6-27,13.8c-10.5,10.2-16.1,25-13.8,40.5c0.4,2.4,0.9,4.9,1.6,7.2l46.3,206.3
		c-52.6-11.6-82.3-29.7-82.3-45.6c0-4.1,2.3-8.5,6.6-12.9c8.2-7.9,22.6-15.7,41.6-22.3c1.7-0.6,3.2-1.7,4.3-3
		c3.2-2.8,4.5-7.3,2.9-11.5c-2-5.5-8.1-8.2-13.5-6.2c-22.8,7.8-39.4,17.1-49.8,27.6c-9.3,9-13.9,18.8-13.9,29.3
		c0,34.8,51.4,56.8,110.2,68.2l32,143c3.2,22.9,22.8,40,46,39.9c4.9-0.1,9.8-0.7,14.6-1.8l163.8-37c10.4-1.4,19.8-6.3,26.9-13.6
		c5.6-5.4,9.8-12.3,12.1-20c2.3-9.2,2.3-18.8,0-27.9l-22-97.4c18.3-7,33.6-15.5,43.5-25.8C421.9,422.2,426.8,412.7,426.8,402z
		 M156.1,479.1h0.8c3.3,0.1,6.3-1.3,8.3-3.6c2.1-1.8,3.4-4.5,3.6-7.4c0.2-5.8-4.3-10.6-10-10.9c-15.8-1.3-30.4-3-44-5.2L73.1,265.9
		l220-49.8L344.2,442c-21.7,6.2-43.9,10.5-66.3,13.1l16.6-20.1c3.9-4.2,3.7-10.8-0.5-14.8c-4.2-3.9-10.8-3.7-14.8,0.5
		c-0.1,0.1-0.1,0.1-0.2,0.2c-0.3,0.2-0.6,0.5-0.8,0.8c-0.3,0.3-0.6,0.7-0.8,1l-32.8,39.5c-0.3,0.4-0.5,0.9-0.7,1.4
		c-0.8,1.1-1.3,2.4-1.4,3.8c-0.1,0.7-0.1,1.3,0,2c-0.1,0.7-0.1,1.3,0,2c0.1,0.6,0.3,1.3,0.5,1.9c0.3,0.6,0.7,1.2,1.1,1.7
		c0.2,0.5,0.5,0.9,0.8,1.4l32.6,32.9c4.1,4.1,10.7,4.1,14.8,0.1c0.2-0.2,0.3-0.4,0.5-0.6c0.2-0.1,0.3-0.3,0.5-0.4
		c4.1-4.1,4.1-10.7,0.1-14.8l-16.3-16.5c24.1-2.7,48-7.3,71.4-13.8l9.8,43.1l-220.2,49.9L119.8,475
		C132,476.8,144.2,478.1,156.1,479.1z M80.1,202.7c2.3-0.9,4.7-1.4,7.1-1.6l163.7-37c3.2-0.7,6.4-1.1,9.6-1.1
		c13.8,0,22.3,7.7,25.9,23.6l1.9,8.5L67.8,244.9l-2.1-9.3c-3.7-9.8-1.2-20.3,5.5-27.4C73.8,205.8,76.7,203.9,80.1,202.7z
		 M349.1,593.8l-163.6,37c-13.6,5.1-28.8-1.7-33.9-15.4c-0.9-2.3-1.4-4.7-1.6-7.1l-7-31.3l220.5-49.8l7.2,32
		c1.5,5.8,1.5,11.9,0,17.7c-1.2,3.6-3.2,6.9-5.8,9.6C360.7,590.6,355.2,593.2,349.1,593.8z"/>
	<path d="M282,567.2l0,0.3l-43.4,9.5c-4.4,0.5-7.6,4.5-7.1,8.9s4.5,7.6,8.9,7.1h1.8l43.4-9.8c4.4-1,7.2-5.3,6.2-9.8
		C290.8,569,286.4,566.2,282,567.2z"/>
</g>
</svg>
