<?xml version="1.0" encoding="utf-8"?>
<!-- Generator: Adobe Illustrator 22.1.0, SVG Export Plug-In . SVG Version: 6.00 Build 0)  -->
<svg version="1.1" id="Capa_1" xmlns="https://www.w3.org/2000/svg" xmlns:xlink="https://www.w3.org/1999/xlink" x="0px" y="0px"
	 viewBox="-49 141 512 512" style="enable-background:new -49 141 512 512;" xml:space="preserve">
<path d="M191.3,566.1c0,22.2-24.9,34.6-42.6,21.3l-97.2-72.8H2.8c-14.7,0-26.6-12-26.6-26.6V302.5c0-14.6,12-26.6,26.6-26.6h48.8
	l97.2-72.8c17.3-13.3,42.6-0.9,42.6,21.3V566.1z M257,552.4c-7.5,0-15.5-2.7-21.7-8.9c-12-12-12-32,0-43.9
	c57.7-57.7,57.7-151.3,0-209c-12-12-12-31.9,0-43.9c12-12,31.9-12,43.9,0c82.1,82.1,82.1,215.2-0.4,296.4
	C273,549.3,264.5,552.4,257,552.4z M357.3,614c-5.8,5.8-13.8,8.9-21.8,8.9c-7.5,0-15.5-3.1-21.8-9.3c-12-12-12-32,0-43.9
	c46.6-46.6,72.4-108.3,72.4-174.4c0-66.1-25.7-127.8-72.4-174.4c-12-12-12-32,0-43.9c12.4-12,32-12,43.5,0.5
	c58.6,58.6,90.5,135.8,90.5,218.3C447.8,478.3,415.4,555.9,357.3,614z"/>
</svg>
